                                                                        S      1
,,16Hz-axis spacer v6,16Hz-axis spacer_v6,7Hunknown,7Hunknown,32,38,7,  G      1
99,15,,1.,2,2HMM,1,0.08,15H20230831.113353,0.01,10000.,7Hunknown,7HunknoG      2
wn,11,0,15H20230829.202925;                                             G      3
     186       1                                                00000000D      1
     186            -235       1       0                               0D      2
     514       2                                                00010000D      3
     514                       2       1                               0D      4
     510       4                                                00010000D      5
     510            -235       1       1                               0D      6
     510       5                                                00010000D      7
     510            -235       1       1                               0D      8
     510       6                                                00010000D      9
     510            -235       1       1                               0D     10
     510       7                                                00010000D     11
     510            -235       1       1                               0D     12
     510       8                                                00010000D     13
     510            -235       1       1                               0D     14
     510       9                                                00010000D     15
     510            -235       1       1                               0D     16
     510      10                                                00010000D     17
     510            -235       1       1                               0D     18
     510      11                                                00010000D     19
     510            -235       1       1                               0D     20
     510      12                                                00010000D     21
     510            -235       1       1                               0D     22
     510      13                                                00010000D     23
     510            -235       1       1                               0D     24
     510      14                                                00010000D     25
     510            -235       1       1                               0D     26
     510      15                                                00010000D     27
     510            -235       1       1                               0D     28
     510      16                                                00010000D     29
     510            -235       1       1                               0D     30
     510      17                                                00010000D     31
     510            -235       1       1                               0D     32
     510      18                                                00010000D     33
     510            -235       1       1                               0D     34
     510      19                                                00010000D     35
     510            -235       1       1                               0D     36
     510      20                                                00010000D     37
     510            -235       1       1                               0D     38
     510      21                                                00010000D     39
     510            -235       1       1                               0D     40
     510      22                                                00010000D     41
     510            -235       1       1                               0D     42
     510      23                                                00010000D     43
     510            -235       1       1                               0D     44
     510      24                                                00010000D     45
     510            -235       1       1                               0D     46
     508      25                                                00010000D     47
     508                       1       1                               0D     48
     508      26                                                00010000D     49
     508                       2       1                               0D     50
     508      28                                                00010000D     51
     508                       1       1                               0D     52
     508      29                                                00010000D     53
     508                       1       1                               0D     54
     508      30                                                00010000D     55
     508                       2       1                               0D     56
     508      32                                                00010000D     57
     508                       1       1                               0D     58
     508      33                                                00010000D     59
     508                       1       1                               0D     60
     508      34                                                00010000D     61
     508                       1       1                               0D     62
     508      35                                                00010000D     63
     508                       1       1                               0D     64
     508      36                                                00010000D     65
     508                       1       1                               0D     66
     508      37                                                00010000D     67
     508                       2       1                               0D     68
     508      39                                                00010000D     69
     508                       1       1                               0D     70
     508      40                                                00010000D     71
     508                       2       1                               0D     72
     508      42                                                00010000D     73
     508                       1       1                               0D     74
     508      43                                                00010000D     75
     508                       1       1                               0D     76
     508      44                                                00010000D     77
     508                       1       1                               0D     78
     508      45                                                00010000D     79
     508                       2       1                               0D     80
     508      47                                                00010000D     81
     508                       1       1                               0D     82
     508      48                                                00010000D     83
     508                       2       1                               0D     84
     508      50                                                00010000D     85
     508                       1       1                               0D     86
     508      51                                                00010000D     87
     508                       1       1                               0D     88
     126      52                                                00010000D     89
     126       0               8       0                               0D     90
     126      60                                                00010000D     91
     126       0               2       0                               0D     92
     126      62                                                00010000D     93
     126       0               8       0                               0D     94
     126      70                                                00010000D     95
     126       0               3       0                               0D     96
     126      73                                                00010000D     97
     126       0               4       0                               0D     98
     126      77                                                00010000D     99
     126       0               2       0                               0D    100
     126      79                                                00010000D    101
     126       0               2       0                               0D    102
     126      81                                                00010000D    103
     126       0               2       0                               0D    104
     126      83                                                00010000D    105
     126       0               2       0                               0D    106
     126      85                                                00010000D    107
     126       0               2       0                               0D    108
     126      87                                                00010000D    109
     126       0               2       0                               0D    110
     126      89                                                00010000D    111
     126       0               3       0                               0D    112
     126      92                                                00010000D    113
     126       0               4       0                               0D    114
     126      96                                                00010000D    115
     126       0               2       0                               0D    116
     126      98                                                00010000D    117
     126       0               2       0                               0D    118
     126     100                                                00010000D    119
     126       0               2       0                               0D    120
     126     102                                                00010000D    121
     126       0               3       0                               0D    122
     126     105                                                00010000D    123
     126       0               2       0                               0D    124
     126     107                                                00010000D    125
     126       0               2       0                               0D    126
     126     109                                                00010000D    127
     126       0               2       0                               0D    128
     126     111                                                00010000D    129
     126       0               3       0                               0D    130
     126     114                                                00010000D    131
     126       0               2       0                               0D    132
     126     116                                                00010000D    133
     126       0               2       0                               0D    134
     126     118                                                00010000D    135
     126       0               2       0                               0D    136
     126     120                                                00010000D    137
     126       0               2       0                               0D    138
     126     122                                                00010000D    139
     126       0               2       0                               0D    140
     126     124                                                00010000D    141
     126       0               2       0                               0D    142
     126     126                                                00010000D    143
     126       0               2       0                               0D    144
     126     128                                                00010000D    145
     126       0               2       0                               0D    146
     126     130                                                00010000D    147
     126       0               2       0                               0D    148
     126     132                                                00010000D    149
     126       0               4       0                               0D    150
     126     136                                                00010000D    151
     126       0               4       0                               0D    152
     126     140                                                00010000D    153
     126       0               4       0                               0D    154
     126     144                                                00010000D    155
     126       0               4       0                               0D    156
     126     148                                                00010000D    157
     126       0               4       0                               0D    158
     126     152                                                00010000D    159
     126       0               4       0                               0D    160
     126     156                                                00010000D    161
     126       0               4       0                               0D    162
     126     160                                                00010000D    163
     126       0               4       0                               0D    164
     126     164                                                00010000D    165
     126       0               2       0                               0D    166
     126     166                                                00010000D    167
     126       0               2       0                               0D    168
     126     168                                                00010000D    169
     126       0               2       0                               0D    170
     126     170                                                00010000D    171
     126       0               4       0                               0D    172
     126     174                                                00010000D    173
     126       0               5       0                               0D    174
     126     179                                                00010000D    175
     126       0               4       0                               0D    176
     126     183                                                00010000D    177
     126       0               4       0                               0D    178
     126     187                                                00010000D    179
     126       0               4       0                               0D    180
     126     191                                                00010000D    181
     126       0               4       0                               0D    182
     126     195                                                00010000D    183
     126       0               4       0                               0D    184
     126     199                                                00010000D    185
     126       0               4       0                               0D    186
     128     203                                                00010000D    187
     128       0    -235      12       0                               0D    188
     128     215                                                00010000D    189
     128       0    -235       6       0                               0D    190
     128     221                                                00010000D    191
     128       0    -235       7       0                               0D    192
     128     228                                                00010000D    193
     128       0    -235       3       0                               0D    194
     128     231                                                00010000D    195
     128       0    -235       5       0                               0D    196
     128     236                                                00010000D    197
     128       0    -235       3       0                               0D    198
     128     239                                                00010000D    199
     128       0    -235       4       0                               0D    200
     128     243                                                00010000D    201
     128       0    -235       3       0                               0D    202
     128     246                                                00010000D    203
     128       0    -235       3       0                               0D    204
     128     249                                                00010000D    205
     128       0    -235       3       0                               0D    206
     128     252                                                00010000D    207
     128       0    -235       7       0                               0D    208
     128     259                                                00010000D    209
     128       0    -235       6       0                               0D    210
     128     265                                                00010000D    211
     128       0    -235       7       0                               0D    212
     128     272                                                00010000D    213
     128       0    -235       6       0                               0D    214
     128     278                                                00010000D    215
     128       0    -235       7       0                               0D    216
     128     285                                                00010000D    217
     128       0    -235       3       0                               0D    218
     128     288                                                00010000D    219
     128       0    -235       7       0                               0D    220
     128     295                                                00010000D    221
     128       0    -235       6       0                               0D    222
     128     301                                                00010000D    223
     128       0    -235       7       0                               0D    224
     128     308                                                00010000D    225
     128       0    -235       6       0                               0D    226
     128     314                                                00010000D    227
     128       0    -235       7       0                               0D    228
     502     321                                                00010000D    229
     502                      11       1                               0D    230
     504     332                                                00010001D    231
     504                      14       1                               0D    232
     406     346                                                00000000D    233
     406                       1      15                               0D    234
     314     347                                                00000200D    235
     314                       2       0                               0D    236
186,3,1,0,0,1,233;                                                     1P      1
514,21,5,1,7,1,9,1,11,1,13,1,15,1,17,1,19,1,21,1,23,1,25,1,27,1,       3P      2
29,1,31,1,33,1,35,1,37,1,39,1,41,1,43,1,45,1;                          3P      3
510,187,1,1,47;                                                        5P      4
510,189,1,1,49;                                                        7P      5
510,191,1,1,51;                                                        9P      6
510,193,1,1,53;                                                       11P      7
510,195,1,1,55;                                                       13P      8
510,197,1,1,57;                                                       15P      9
510,199,1,1,59;                                                       17P     10
510,201,1,1,61;                                                       19P     11
510,203,1,1,63;                                                       21P     12
510,205,1,1,65;                                                       23P     13
510,207,1,1,67;                                                       25P     14
510,209,1,1,69;                                                       27P     15
510,211,1,1,71;                                                       29P     16
510,213,1,1,73;                                                       31P     17
510,215,1,1,75;                                                       33P     18
510,217,1,1,77;                                                       35P     19
510,219,1,1,79;                                                       37P     20
510,221,1,1,81;                                                       39P     21
510,223,1,1,83;                                                       41P     22
510,225,1,1,85;                                                       43P     23
510,227,1,1,87;                                                       45P     24
508,4,0,231,1,1,0,0,231,2,1,0,0,231,3,1,0,0,231,4,1,0;                47P     25
508,9,0,231,1,0,0,0,231,5,0,0,0,231,6,0,0,0,231,7,0,0,0,231,8,0,      49P     26
0,0,231,9,0,0,0,231,10,0,0,0,231,11,1,0,0,231,12,0,0;                 49P     27
508,4,0,231,4,0,0,0,231,13,1,0,0,231,14,1,0,0,231,5,1,0;              51P     28
508,4,0,231,14,0,0,0,231,15,1,0,0,231,16,1,0,0,231,6,1,0;             53P     29
508,9,0,231,3,0,0,0,231,17,0,0,0,231,18,0,0,0,231,19,0,0,0,231,       55P     30
20,0,0,0,231,21,0,0,0,231,22,1,0,0,231,15,0,0,0,231,13,0,0;           55P     31
508,4,0,231,23,0,0,0,231,8,1,0,0,231,24,1,0,0,231,21,1,0;             57P     32
508,4,0,231,2,0,0,0,231,12,1,0,0,231,25,1,0,0,231,17,1,0;             59P     33
508,4,0,231,26,1,0,0,231,10,1,0,0,231,27,0,0,0,231,19,1,0;            61P     34
508,4,0,231,24,0,0,0,231,7,1,0,0,231,16,0,0,0,231,22,0,0;             63P     35
508,4,0,231,20,1,0,0,231,28,0,0,0,231,29,0,0,0,231,30,0,0;            65P     36
508,5,0,231,31,1,0,0,231,32,0,0,0,231,28,1,0,0,231,27,1,0,0,231,      67P     37
33,1,0;                                                               67P     38
508,4,0,231,34,1,0,0,231,35,0,0,0,231,29,1,0,0,231,32,1,0;            69P     39
508,5,0,231,36,1,0,0,231,37,0,0,0,231,23,1,0,0,231,30,1,0,0,231,      71P     40
35,1,0;                                                               71P     41
508,4,0,231,38,1,0,0,231,33,0,0,0,231,9,1,0,0,231,37,1,0;             73P     42
508,4,0,231,31,0,0,0,231,38,0,0,0,231,36,0,0,0,231,34,0,0;            75P     43
508,4,0,231,18,1,0,0,231,39,1,0,0,231,40,1,0,0,231,41,1,0;            77P     44
508,5,0,231,42,1,0,0,231,43,0,0,0,231,39,0,0,0,231,25,0,0,0,231,      79P     45
44,1,0;                                                               79P     46
508,4,0,231,45,1,0,0,231,46,0,0,0,231,40,0,0,0,231,43,1,0;            81P     47
508,5,0,231,47,1,0,0,231,48,0,0,0,231,26,0,0,0,231,41,0,0,0,231,      83P     48
46,1,0;                                                               83P     49
508,4,0,231,49,1,0,0,231,44,0,0,0,231,11,0,0,0,231,48,1,0;            85P     50
508,4,0,231,42,0,0,0,231,49,0,0,0,231,47,0,0,0,231,45,0,0;            87P     51
126,4,2,0,0,0,0,-1.17809724509618,-1.17809724509618,                  89P     52
-1.17809724509618,-1.88737914186277D-15,-1.88737914186277D-15,        89P     53
1.17809724509617,1.17809724509617,1.17809724509617,1.,                89P     54
0.831469612302554,1.,0.831469612302544,1.,-18.2928932188135,          89P     55
-1.70710678118655,8.,-18.7653668647302,-1.23463313526982,8.,          89P     56
-18.5096659701382,-0.617316567634911,8.,-18.2539650755462,            89P     57
4.74210207140866D-16,8.,-17.5857864376269,4.16333634234434D-16,       89P     58
8.,-1.17809724509618,1.17809724509617,0.,0.,0.;                       89P     59
126,1,1,0,0,1,0,-0.6,-0.6,1.,1.,1.,1.,-17.5857864376269,0.,8.,        91P     60
-17.5857864376269,0.,-8.,-0.6,1.,0.,0.,0.;                            91P     61
126,4,2,0,0,0,0,-1.17809724509617,-1.17809724509617,                  93P     62
-1.17809724509617,1.66533453693773D-15,1.66533453693773D-15,          93P     63
1.17809724509618,1.17809724509618,1.17809724509618,1.,                93P     64
0.831469612302545,1.,0.831469612302554,1.,-17.5857864376269,          93P     65
4.16333634234434D-16,-8.,-18.2539650755462,4.74210207140866D-16,      93P     66
-8.,-18.5096659701382,-0.617316567634911,-8.,-18.7653668647302,       93P     67
-1.23463313526982,-8.,-18.2928932188135,-1.70710678118655,-8.,        93P     68
-1.17809724509617,1.17809724509618,0.,0.,0.;                          93P     69
126,1,1,0,0,1,0,-1.,-1.,0.6,0.6,1.,1.,-18.2928932188135,              95P     70
-1.70710678118655,-8.,-18.2928932188135,-1.70710678118655,8.,         95P     71
-1.,0.6,0.,0.,0.;                                                     95P     72
126,1,1,0,0,1,0,-0.282842712474619,-0.282842712474619,                97P     73
1.73847763108502,1.73847763108502,1.,1.,-4.,-16.,8.,                  97P     74
-18.2928932188135,-1.70710678118655,8.,-0.282842712474619,            97P     75
1.73847763108502,0.,0.,0.;                                            97P     76
126,1,1,0,0,1,0,-4.,-4.,-1.6,-1.6,1.,1.,20.,-16.,8.,-4.,-16.,8.,      99P     77
-4.,-1.6,0.,0.,0.;                                                    99P     78
126,1,1,0,0,1,0,0.,0.,1.6,1.6,1.,1.,20.,0.,8.,20.,-16.,8.,0.,        101P     79
1.6,0.,0.,0.;                                                        101P     80
126,1,1,0,0,1,0,3.3,3.3,4.,4.,1.,1.,13.,0.,8.,20.,0.,8.,3.3,4.,      103P     81
0.,0.,0.;                                                            103P     82
126,1,1,0,0,1,0,0.,0.,0.6,0.6,1.,1.,7.,0.,8.,13.,0.,8.,0.,0.6,       105P     83
0.,0.,0.;                                                            105P     84
126,1,1,0,0,1,0,1.3,1.3,2.7,2.7,1.,1.,-7.,0.,8.,7.,0.,8.,1.3,        107P     85
2.7,0.,0.,0.;                                                        107P     86
126,1,1,0,0,1,0,0.,0.,0.6,0.6,1.,1.,-7.,0.,8.,-13.,0.,8.,0.,0.6,     109P     87
0.,0.,0.;                                                            109P     88
126,1,1,0,0,1,0,0.241421356237309,0.241421356237309,0.7,0.7,1.,      111P     89
1.,-17.5857864376269,0.,8.,-13.,0.,8.,0.241421356237309,0.7,0.,      111P     90
0.,0.;                                                               111P     91
126,1,1,0,0,1,0,-0.324264068711928,-0.324264068711928,               113P     92
1.69705627484771,1.69705627484771,1.,1.,-18.2928932188135,           113P     93
-1.70710678118655,-8.,-4.,-16.,-8.,-0.324264068711928,               113P     94
1.69705627484771,0.,0.,0.;                                           113P     95
126,1,1,0,0,1,0,-1.2,-1.2,0.4,0.4,1.,1.,-4.,-16.,-8.,-4.,-16.,       115P     96
8.,-1.2,0.4,0.,0.,0.;                                                115P     97
126,1,1,0,0,1,0,-2.4,-2.4,0.,0.,1.,1.,-4.,-16.,-8.,20.,-16.,-8.,     117P     98
-2.4,0.,0.,0.,0.;                                                    117P     99
126,1,1,0,0,1,0,-1.6,-1.6,0.,0.,1.,1.,20.,-16.,-8.,20.,-16.,8.,      119P    100
-1.6,0.,0.,0.,0.;                                                    119P    101
126,1,1,0,0,1,0,3.3,3.3,3.75857864376269,3.75857864376269,1.,1.,     121P    102
-13.,0.,-8.,-17.5857864376269,0.,-8.,3.3,3.75857864376269,0.,0.,     121P    103
0.;                                                                  121P    104
126,1,1,0,0,1,0,-0.8,-0.8,-0.2,-0.2,1.,1.,-7.,0.,-8.,-13.,0.,        123P    105
-8.,-0.8,-0.2,0.,0.,0.;                                              123P    106
126,1,1,0,0,1,0,1.3,1.3,2.7,2.7,1.,1.,7.,0.,-8.,-7.,0.,-8.,1.3,      125P    107
2.7,0.,0.,0.;                                                        125P    108
126,1,1,0,0,1,0,-1.8,-1.8,-1.2,-1.2,1.,1.,13.,0.,-8.,7.,0.,-8.,      127P    109
-1.8,-1.2,0.,0.,0.;                                                  127P    110
126,1,1,0,0,1,0,3.08148791101958D-33,3.08148791101958D-33,0.7,       129P    111
0.7,1.,1.,20.,0.,-8.,13.,0.,-8.,3.08148791101958D-33,0.7,0.,0.,      129P    112
0.;                                                                  129P    113
126,1,1,0,0,1,0,0.,0.,1.6,1.6,1.,1.,20.,0.,-8.,20.,-16.,-8.,0.,      131P    114
1.6,0.,0.,0.;                                                        131P    115
126,1,1,0,0,1,0,0.,0.,1.6,1.6,1.,1.,13.,0.,8.,13.,0.,-8.,0.,1.6,     133P    116
0.,0.,0.;                                                            133P    117
126,1,1,0,0,1,0,0.,0.,1.6,1.6,1.,1.,20.,0.,8.,20.,0.,-8.,0.,1.6,     135P    118
0.,0.,0.;                                                            135P    119
126,1,1,0,0,1,0,0.,0.,1.6,1.6,1.,1.,-13.,0.,8.,-13.,0.,-8.,0.,       137P    120
1.6,0.,0.,0.;                                                        137P    121
126,1,1,0,0,1,0,0.3,0.3,1.9,1.9,1.,1.,-7.,0.,-8.,-7.,0.,8.,0.3,      139P    122
1.9,0.,0.,0.;                                                        139P    123
126,1,1,0,0,1,0,0.3,0.3,1.9,1.9,1.,1.,7.,0.,-8.,7.,0.,8.,0.3,        141P    124
1.9,0.,0.,0.;                                                        141P    125
126,1,1,0,0,1,0,0.,0.,0.3,0.3,1.,1.,7.,0.,-11.,7.,0.,-8.,0.,0.3,     143P    126
0.,0.,0.;                                                            143P    127
126,1,1,0,0,1,0,0.,0.,0.6,0.6,1.,1.,13.,0.,-11.,7.,0.,-11.,0.,       145P    128
0.6,0.,0.,0.;                                                        145P    129
126,1,1,0,0,1,0,1.6,1.6,1.9,1.9,1.,1.,13.,0.,-8.,13.,0.,-11.,        147P    130
1.6,1.9,0.,0.,0.;                                                    147P    131
126,1,1,0,0,1,0,-1.88952696104307,-1.88952696104307,                 149P    132
-0.0104730389569305,-0.0104730389569305,1.,1.,7.10473038956931,      149P    133
6.,7.89526961043069,7.10473038956931,6.,-10.8952696104307,           149P    134
-1.88952696104307,-0.0104730389569305,0.,0.,0.;                      149P    135
126,1,1,0,0,1,0,-0.0165772617026485,-0.0165772617026485,             151P    136
0.583605518031981,0.583605518031981,1.,1.,7.,                        151P    137
3.46944695195361D-17,-11.,7.10473038956931,6.,-10.8952696104307,     151P    138
-0.0165772617026485,0.583605518031981,0.,0.,0.;                      151P    139
126,1,1,0,0,1,0,-0.00523492474820479,-0.00523492474820479,           153P    140
0.594947854986425,0.594947854986425,1.,1.,7.,0.,8.,                  153P    141
7.10473038956931,6.,7.89526961043069,-0.00523492474820479,           153P    142
0.594947854986425,0.,0.,0.;                                          153P    143
126,1,1,0,0,1,0,-0.58952696104307,-0.58952696104307,                 155P    144
-0.0104730389569303,-0.0104730389569303,1.,1.,7.10473038956931,      155P    145
6.,-10.8952696104307,12.8952696104307,6.,-10.8952696104307,          155P    146
-0.58952696104307,-0.0104730389569303,0.,0.,0.;                      155P    147
126,1,1,0,0,1,0,-0.00523492474820479,-0.00523492474820479,           157P    148
0.594947854986425,0.594947854986425,1.,1.,13.,                       157P    149
3.46944695195361D-17,-11.,12.8952696104307,6.,-10.8952696104307,     157P    150
-0.00523492474820479,0.594947854986425,0.,0.,0.;                     157P    151
126,1,1,0,0,1,0,-1.88952696104307,-1.88952696104307,                 159P    152
-0.0104730389569305,-0.0104730389569305,1.,1.,12.8952696104307,      159P    153
6.,-10.8952696104307,12.8952696104307,6.,7.89526961043069,           159P    154
-1.88952696104307,-0.0104730389569305,0.,0.,0.;                      159P    155
126,1,1,0,0,1,0,-0.0165772617026485,-0.0165772617026485,             161P    156
0.583605518031981,0.583605518031981,1.,1.,13.,                       161P    157
3.46944695195361D-17,8.,12.8952696104307,6.,7.89526961043069,        161P    158
-0.0165772617026485,0.583605518031981,0.,0.,0.;                      161P    159
126,1,1,0,0,1,0,-0.58952696104307,-0.58952696104307,                 163P    160
-0.0104730389569305,-0.0104730389569305,1.,1.,12.8952696104307,      163P    161
6.,7.89526961043069,7.10473038956931,6.,7.89526961043069,            163P    162
-0.58952696104307,-0.0104730389569305,0.,0.,0.;                      163P    163
126,1,1,0,0,1,0,1.6,1.6,1.9,1.9,1.,1.,-13.,0.,-8.,-13.,0.,-11.,      165P    164
1.6,1.9,0.,0.,0.;                                                    165P    165
126,1,1,0,0,1,0,0.,0.,0.6,0.6,1.,1.,-13.,0.,-11.,-7.,0.,-11.,0.,     167P    166
0.6,0.,0.,0.;                                                        167P    167
126,1,1,0,0,1,0,0.,0.,0.3,0.3,1.,1.,-7.,0.,-11.,-7.,0.,-8.,0.,       169P    168
0.3,0.,0.,0.;                                                        169P    169
126,1,1,0,0,1,0,0.0104730389569305,0.0104730389569305,               171P    170
1.88952696104307,1.88952696104307,1.,1.,-12.8952696104307,6.,        171P    171
7.89526961043069,-12.8952696104307,6.,-10.8952696104307,             171P    172
0.0104730389569305,1.88952696104307,0.,0.,0.;                        171P    173
126,1,1,0,0,1,0,-0.0165772617026485,-0.0165772617026485,             173P    174
0.583605518031981,0.583605518031981,1.,1.,-13.,                      173P    175
3.46944695195361D-17,-11.,-12.8952696104307,6.,                      173P    176
-10.8952696104307,-0.0165772617026485,0.583605518031981,0.,0.,       173P    177
0.;                                                                  173P    178
126,1,1,0,0,1,0,-0.00523492474820479,-0.00523492474820479,           175P    179
0.594947854986425,0.594947854986425,1.,1.,-13.,                      175P    180
3.46944695195361D-17,8.,-12.8952696104307,6.,7.89526961043069,       175P    181
-0.00523492474820479,0.594947854986425,0.,0.,0.;                     175P    182
126,1,1,0,0,1,0,0.0104730389569305,0.0104730389569305,               177P    183
0.58952696104307,0.58952696104307,1.,1.,-12.8952696104307,6.,        177P    184
-10.8952696104307,-7.10473038956931,6.,-10.8952696104307,            177P    185
0.0104730389569305,0.58952696104307,0.,0.,0.;                        177P    186
126,1,1,0,0,1,0,-0.00523492474820479,-0.00523492474820479,           179P    187
0.594947854986425,0.594947854986425,1.,1.,-7.,0.,-11.,               179P    188
-7.10473038956931,6.,-10.8952696104307,-0.00523492474820479,         179P    189
0.594947854986425,0.,0.,0.;                                          179P    190
126,1,1,0,0,1,0,0.0104730389569305,0.0104730389569305,               181P    191
1.88952696104307,1.88952696104307,1.,1.,-7.10473038956931,6.,        181P    192
-10.8952696104307,-7.10473038956931,6.,7.8952696104307,              181P    193
0.0104730389569305,1.88952696104307,0.,0.,0.;                        181P    194
126,1,1,0,0,1,0,-0.0165772617026485,-0.0165772617026485,             183P    195
0.583605518031981,0.583605518031981,1.,1.,-7.,                       183P    196
3.46944695195361D-17,8.,-7.10473038956931,6.,7.89526961043069,       183P    197
-0.0165772617026485,0.583605518031981,0.,0.,0.;                      183P    198
126,1,1,0,0,1,0,0.0104730389569305,0.0104730389569305,               185P    199
0.58952696104307,0.58952696104307,1.,1.,-7.10473038956931,6.,        185P    200
7.89526961043069,-12.8952696104307,6.,7.89526961043069,              185P    201
0.0104730389569305,0.58952696104307,0.,0.,0.;                        185P    202
128,1,4,1,2,0,0,0,0,0,-10.,-10.,6.,6.,-1.17809724509617,             187P    203
-1.17809724509617,-1.17809724509617,0.,0.,1.17809724509618,          187P    204
1.17809724509618,1.17809724509618,1.,1.,0.831469612302545,           187P    205
0.831469612302545,1.,1.,0.831469612302545,0.831469612302545,1.,      187P    206
1.,-17.5857864376269,7.97972798949331D-16,8.,-17.5857864376269,      187P    207
7.97972798949331D-16,-8.,-18.2539650755462,1.38777878078145D-15,     187P    208
8.,-18.2539650755462,1.38777878078145D-15,-8.,-18.5096659701382,     187P    209
-0.617316567634909,8.,-18.5096659701382,-0.617316567634909,-8.,      187P    210
-18.7653668647302,-1.23463313526982,8.,-18.7653668647302,            187P    211
-1.23463313526982,-8.,-18.2928932188135,-1.70710678118655,8.,        187P    212
-18.2928932188135,-1.70710678118655,-8.,-10.,6.,                     187P    213
-1.17809724509617,1.17809724509618;                                  187P    214
128,1,1,1,1,0,0,1,0,0,-0.001,-0.001,3.87753668647302,                189P    215
3.87753668647302,-0.00100000000000005,-0.00100000000000005,          189P    216
1.601,1.601,1.,1.,1.,1.,20.01,0.0100000000000005,8.,                 189P    217
-18.7753668647302,0.0100000000000005,8.,20.01,-16.01,8.,             189P    218
-18.7753668647302,-16.01,8.,-0.001,3.87753668647302,                 189P    219
-0.00100000000000005,1.601;                                          189P    220
128,1,1,1,1,0,0,1,0,0,-1.201,-1.201,0.401,0.401,                     191P    221
-1.13237084989848,-1.13237084989848,0.890949493661167,               191P    222
0.890949493661167,1.,1.,1.,1.,-3.99292893218813,                     191P    223
-16.0070710678119,-8.01,-3.99292893218813,-16.0070710678119,         191P    224
8.01,-18.2999642866253,-1.70003571337468,-8.01,                      191P    225
-18.2999642866253,-1.70003571337468,8.01,-1.201,0.401,               191P    226
-1.13237084989848,0.890949493661167;                                 191P    227
128,1,1,1,1,0,0,1,0,0,-0.801,-0.801,0.801,0.801,-0.401,-0.401,       193P    228
2.001,2.001,1.,1.,1.,1.,-4.01,-16.,8.01,-4.01,-16.,-8.01,20.01,      193P    229
-16.,8.01,20.01,-16.,-8.01,-0.801,0.801,-0.401,2.001;                193P    230
128,1,1,1,1,0,0,1,0,0,0.122463313526982,0.122463313526982,4.001,     195P    231
4.001,-0.00100000000000005,-0.00100000000000005,1.601,1.601,1.,      195P    232
1.,1.,1.,-18.7753668647302,0.0100000000000005,-8.,20.01,             195P    233
0.0100000000000005,-8.,-18.7753668647302,-16.01,-8.,20.01,           195P    234
-16.01,-8.,0.122463313526982,4.001,-0.00100000000000005,1.601;       195P    235
128,1,1,1,1,0,0,1,0,0,1.299,1.299,2.001,2.001,-0.801,-0.801,         197P    236
0.801,0.801,1.,1.,1.,1.,12.99,0.,8.01,20.01,0.,8.01,12.99,0.,        197P    237
-8.01,20.01,0.,-8.01,1.299,2.001,-0.801,0.801;                       197P    238
128,1,1,1,1,0,0,1,0,0,-1.75957864376269,-1.75957864376269,           199P    239
-1.299,-1.299,-0.801,-0.801,0.801,0.801,1.,1.,1.,1.,                 199P    240
-17.5957864376269,0.,8.01,-12.99,0.,8.01,-17.5957864376269,0.,       199P    241
-8.01,-12.99,0.,-8.01,-1.75957864376269,-1.299,-0.801,0.801;         199P    242
128,1,1,1,1,0,0,1,0,0,-0.701,-0.701,0.701,0.701,-0.801,-0.801,       201P    243
0.801,0.801,1.,1.,1.,1.,-7.01,0.,8.01,7.01,0.,8.01,-7.01,0.,         201P    244
-8.01,7.01,0.,-8.01,-0.701,0.701,-0.801,0.801;                       201P    245
128,1,1,1,1,0,0,1,0,0,-0.001,-0.001,1.601,1.601,-0.001,-0.001,       203P    246
1.601,1.601,1.,1.,1.,1.,20.,0.01,-8.01,20.,0.01,8.01,20.,-16.01,     203P    247
-8.01,20.,-16.01,8.01,-0.001,1.601,-0.001,1.601;                     203P    248
128,1,1,1,1,0,0,1,0,0,-0.301,-0.301,0.301,0.301,0.649,0.649,         205P    249
0.951,0.951,1.,1.,1.,1.,13.01,0.,-7.99,6.99,0.,-7.99,13.01,0.,       205P    250
-11.01,6.99,0.,-11.01,-0.301,0.301,0.649,0.951;                      205P    251
128,1,1,1,1,0,0,1,0,0,-1.901,-1.901,0.00099999999999989,             207P    252
0.00099999999999989,-0.001,-0.001,0.601091396826345,                 207P    253
0.601091396826345,1.,1.,1.,1.,6.99982547593563,                      207P    254
-0.00999847695156391,-11.01,6.99982547593563,                        207P    255
-0.00999847695156391,8.01,7.10490491363368,6.00999847695157,         207P    256
-11.01,7.10490491363368,6.00999847695157,8.01,-1.901,                207P    257
0.00099999999999989,-0.001,0.601091396826345;                        207P    258
128,1,1,1,1,0,0,1,0,0,-0.601,-0.601,0.001,0.001,-0.001,-0.001,       209P    259
0.601091396826345,0.601091396826345,1.,1.,1.,1.,13.01,               209P    260
-0.00999847695156391,-11.0001745240644,6.99,                         209P    261
-0.00999847695156391,-11.0001745240644,13.01,6.00999847695157,       209P    262
-10.8950950863663,6.99,6.00999847695157,-10.8950950863663,           209P    263
-0.601,0.001,-0.001,0.601091396826345;                               209P    264
128,1,1,1,1,0,0,1,0,0,-1.901,-1.901,0.00099999999999989,             211P    265
0.00099999999999989,-0.001,-0.001,0.601091396826345,                 211P    266
0.601091396826345,1.,1.,1.,1.,13.0001745240644,                      211P    267
-0.00999847695156392,8.01,13.0001745240644,-0.00999847695156392,     211P    268
-11.01,12.8950950863663,6.00999847695157,8.01,12.8950950863663,      211P    269
6.00999847695157,-11.01,-1.901,0.00099999999999989,-0.001,           211P    270
0.601091396826345;                                                   211P    271
128,1,1,1,1,0,0,1,0,0,-0.601,-0.601,0.001,0.001,-0.001,-0.001,       213P    272
0.601091396826345,0.601091396826345,1.,1.,1.,1.,6.99,                213P    273
-0.00999847695156391,8.00017452406437,13.01,                         213P    274
-0.00999847695156391,8.00017452406437,6.99,6.00999847695157,         213P    275
7.89509508636632,13.01,6.00999847695157,7.89509508636632,-0.601,     213P    276
0.001,-0.001,0.601091396826345;                                      213P    277
128,1,1,1,1,0,0,1,0,0,-0.29052696104307,-0.29052696104307,           215P    278
0.29052696104307,0.29052696104307,-0.94052696104307,                 215P    279
-0.94052696104307,0.940526961043069,0.940526961043069,1.,1.,1.,      215P    280
1.,7.09473038956931,6.,7.90526961043069,12.9052696104307,6.,         215P    281
7.90526961043069,7.09473038956931,6.,-10.9052696104307,              215P    282
12.9052696104307,6.,-10.9052696104307,-0.29052696104307,             215P    283
0.29052696104307,-0.94052696104307,0.940526961043069;                215P    284
128,1,1,1,1,0,0,1,0,0,-0.301,-0.301,0.301,0.301,0.649,0.649,         217P    285
0.951,0.951,1.,1.,1.,1.,-6.99,0.,-7.99,-13.01,0.,-7.99,-6.99,0.,     217P    286
-11.01,-13.01,0.,-11.01,-0.301,0.301,0.649,0.951;                    217P    287
128,1,1,1,1,0,0,1,0,0,-1.901,-1.901,0.00099999999999989,             219P    288
0.00099999999999989,-0.001,-0.001,0.601091396826345,                 219P    289
0.601091396826345,1.,1.,1.,1.,-13.0001745240644,                     219P    290
-0.00999847695156392,-11.01,-13.0001745240644,                       219P    291
-0.00999847695156392,8.01,-12.8950950863663,6.00999847695157,        219P    292
-11.01,-12.8950950863663,6.00999847695157,8.01,-1.901,               219P    293
0.00099999999999989,-0.001,0.601091396826345;                        219P    294
128,1,1,1,1,0,0,1,0,0,-0.601,-0.601,0.001,0.001,-0.001,-0.001,       221P    295
0.601091396826345,0.601091396826345,1.,1.,1.,1.,-6.99,               221P    296
-0.00999847695156391,-11.0001745240644,-13.01,                       221P    297
-0.00999847695156391,-11.0001745240644,-6.99,6.00999847695157,       221P    298
-10.8950950863663,-13.01,6.00999847695157,-10.8950950863663,         221P    299
-0.601,0.001,-0.001,0.601091396826345;                               221P    300
128,1,1,1,1,0,0,1,0,0,-1.901,-1.901,0.00099999999999989,             223P    301
0.00099999999999989,-0.001,-0.001,0.601091396826345,                 223P    302
0.601091396826345,1.,1.,1.,1.,-6.99982547593563,                     223P    303
-0.00999847695156391,8.01,-6.99982547593563,                         223P    304
-0.00999847695156391,-11.01,-7.10490491363368,6.00999847695157,      223P    305
8.01,-7.10490491363368,6.00999847695157,-11.01,-1.901,               223P    306
0.00099999999999989,-0.001,0.601091396826345;                        223P    307
128,1,1,1,1,0,0,1,0,0,-0.601,-0.601,0.001,0.001,-0.001,-0.001,       225P    308
0.601091396826345,0.601091396826345,1.,1.,1.,1.,-13.01,              225P    309
-0.00999847695156391,8.00017452406437,-6.99,                         225P    310
-0.00999847695156391,8.00017452406437,-13.01,6.00999847695157,       225P    311
7.89509508636632,-6.99,6.00999847695157,7.89509508636632,-0.601,     225P    312
0.001,-0.001,0.601091396826345;                                      225P    313
128,1,1,1,1,0,0,1,0,0,-0.29052696104307,-0.29052696104307,           227P    314
0.29052696104307,0.29052696104307,-0.94052696104307,                 227P    315
-0.94052696104307,0.940526961043069,0.940526961043069,1.,1.,1.,      227P    316
1.,-12.9052696104307,6.,7.90526961043069,-7.09473038956931,6.,       227P    317
7.90526961043069,-12.9052696104307,6.,-10.9052696104307,             227P    318
-7.09473038956931,6.,-10.9052696104307,-0.29052696104307,            227P    319
0.29052696104307,-0.94052696104307,0.940526961043069;                227P    320
502,30,-18.2928932188135,-1.70710678118655,8.,-17.5857864376269,     229P    321
0.,8.,-17.5857864376269,0.,-8.,-18.2928932188135,                    229P    322
-1.70710678118655,-8.,-4.,-16.,8.,20.,-16.,8.,20.,0.,8.,13.,0.,      229P    323
8.,7.,0.,8.,-7.,0.,8.,-13.,0.,8.,-4.,-16.,-8.,20.,-16.,-8.,-13.,     229P    324
0.,-8.,-7.,0.,-8.,7.,0.,-8.,13.,0.,-8.,20.,0.,-8.,7.,0.,-11.,        229P    325
13.,0.,-11.,7.10473038956931,6.,7.89526961043069,                    229P    326
7.10473038956931,6.,-10.8952696104307,12.8952696104307,6.,           229P    327
-10.8952696104307,12.8952696104307,6.,7.89526961043069,-13.,0.,      229P    328
-11.,-7.,0.,-11.,-12.8952696104307,6.,7.89526961043069,              229P    329
-12.8952696104307,6.,-10.8952696104307,-7.10473038956931,6.,         229P    330
-10.8952696104307,-7.10473038956931,6.,7.89526961043069;             229P    331
504,49,89,229,1,229,2,91,229,2,229,3,93,229,3,229,4,95,229,4,        231P    332
229,1,97,229,5,229,1,99,229,6,229,5,101,229,7,229,6,103,229,8,       231P    333
229,7,105,229,9,229,8,107,229,10,229,9,109,229,10,229,11,111,        231P    334
229,2,229,11,113,229,4,229,12,115,229,12,229,5,117,229,12,229,       231P    335
13,119,229,13,229,6,121,229,14,229,3,123,229,15,229,14,125,229,      231P    336
16,229,15,127,229,17,229,16,129,229,18,229,17,131,229,18,229,13,     231P    337
133,229,8,229,17,135,229,7,229,18,137,229,11,229,14,139,229,15,      231P    338
229,10,141,229,16,229,9,143,229,19,229,16,145,229,20,229,19,147,     231P    339
229,17,229,20,149,229,21,229,22,151,229,19,229,22,153,229,9,229,     231P    340
21,155,229,22,229,23,157,229,20,229,23,159,229,23,229,24,161,        231P    341
229,8,229,24,163,229,24,229,21,165,229,14,229,25,167,229,25,229,     231P    342
26,169,229,26,229,15,171,229,27,229,28,173,229,25,229,28,175,        231P    343
229,11,229,27,177,229,28,229,29,179,229,26,229,29,181,229,29,        231P    344
229,30,183,229,10,229,30,185,229,30,229,27;                          231P    345
406,1,5HBody1;                                                       233P    346
314,62.7450980392157,62.7450980392157,62.7450980392157,13HSteel      235P    347
- Satin;                                                             235P    348
S      1G      3D    236P    348                                        T      1
