700 0 1 0           
30 Autodesk Translation Framework 21 ASM 229.4.0.65535 OSX 24 Thu Aug 31 11:33:32 2023 
1 9.999999999999999547e-07 1.000000000000000036e-10 
body $1 -1 $-1 $2 $-1 $3 #
rgb_color-st-attrib $-1 -1 $4 $-1 $0 0.627450980392156854 0.627450980392156854 0.627450980392156854 #
lump $-1 -1 $-1 $-1 $5 $0 #
transform $-1 -1 1 0 0 0 1 0 0 0 1 0 0 0 1 no_rotate no_reflect no_shear #
ATTRIB_CUSTOM-attrib $-1 -1 $-1 $1 $0 @20 Timestamp_attrib_def 1 1692132821302992 #
shell $-1 -1 $-1 $-1 $-1 $6 $-1 $2 #
face $7 -1 $-1 $8 $9 $5 $-1 $10 forward single #
DXID-attrib $-1 -1 $-1 $-1 $6 @10 ASM ENTITY @1 0 #
face $11 -1 $-1 $12 $13 $5 $-1 $14 forward single #
loop $-1 -1 $-1 $-1 $15 $6 #
cone-surface $-1 -1 $-1 -7.500000000009041656 2.999999999986973975 1 0 0 1 -0.7071067811865460184 0.7071067811865492381 0 1 I I 0 1 1 forward I I I I #
DXID-attrib $-1 -1 $-1 $-1 $8 @10 ASM ENTITY @1 1 #
face $16 -1 $-1 $17 $18 $5 $-1 $19 forward single #
loop $-1 -1 $-1 $-1 $20 $8 #
plane-surface $-1 -1 $-1 -8.500000000008999024 11.99999999997864464 0 -1 4.785444071661399414e-15 0 -4.785444071661399571e-14 -10 0 forward_v I I I I #
coedge $-1 -1 $-1 $21 $22 $23 $24 forward $9 $-1 #
DXID-attrib $-1 -1 $-1 $-1 $12 @10 ASM ENTITY @1 2 #
face $25 -1 $-1 $26 $27 $5 $-1 $28 forward single #
loop $-1 -1 $-1 $-1 $29 $12 #
cone-surface $-1 -1 $-1 7.499999999994617639 2.999999999986977972 1 0 0 1 0.7071067811862995489 0.7071067811867957076 0 1 I I 0 1 1 forward I I I I #
coedge $-1 -1 $-1 $30 $31 $32 $33 reversed $13 $-1 #
coedge $-1 -1 $-1 $34 $15 $30 $35 forward $9 $-1 #
coedge $-1 -1 $-1 $15 $34 $36 $37 forward $9 $-1 #
coedge $-1 -1 $-1 $38 $39 $15 $24 reversed $40 $-1 #
edge $-1 -1 $-1 $41 -0.7853981633974460586 $42 0.7853981633974456145 $15 $43 reversed @7 unknown #
DXID-attrib $-1 -1 $-1 $-1 $17 @10 ASM ENTITY @1 3 #
face $44 -1 $-1 $45 $46 $5 $-1 $47 forward single #
loop $-1 -1 $-1 $-1 $36 $17 #
plane-surface $-1 -1 $-1 8.500000000017038815 3.999999999986977528 2 -1.95921710227489168e-16 1 0 -10 -1.959217102274891877e-15 0 forward_v I I I I #
coedge $-1 -1 $-1 $48 $49 $50 $51 forward $18 $-1 #
coedge $-1 -1 $-1 $52 $20 $21 $35 reversed $13 $-1 #
coedge $-1 -1 $-1 $20 $53 $54 $55 reversed $13 $-1 #
coedge $-1 -1 $-1 $56 $57 $20 $33 forward $58 $-1 #
edge $-1 -1 $-1 $59 -0.7749999999996146638 $60 0.124999999999551914 $20 $61 forward @7 unknown #
coedge $-1 -1 $-1 $22 $21 $57 $62 forward $9 $-1 #
edge $-1 -1 $-1 $42 0.1000000000000000056 $59 0.7000000000000000666 $30 $63 forward @7 tangent #
coedge $-1 -1 $-1 $64 $65 $22 $37 reversed $27 $-1 #
edge $-1 -1 $-1 $66 -0.7000000000000000666 $41 -0.1000000000000000056 $36 $67 forward @7 tangent #
coedge $-1 -1 $-1 $50 $23 $65 $68 forward $40 $-1 #
coedge $-1 -1 $-1 $23 $69 $52 $70 forward $40 $-1 #
loop $-1 -1 $-1 $-1 $38 $71 #
vertex $-1 -1 $-1 $24 $72 #
vertex $-1 -1 $-1 $24 $73 #
ellipse-curve $-1 -1 $-1 -7.500000000009041656 2.999999999986973975 2 -0 -0 -1 -0.7071067811865460184 0.7071067811865492381 0 1 I I #
DXID-attrib $-1 -1 $-1 $-1 $26 @10 ASM ENTITY @1 4 #
face $74 -1 $-1 $75 $76 $5 $-1 $77 forward single #
loop $-1 -1 $-1 $-1 $78 $26 #
cone-surface $-1 -1 $-1 -4.25000000001339906 -1.000000000012942536 5 -1 2.040851148202233931e-15 0 4.710277376051325352e-15 2.121320343559643273 -2.121320343559643273 1 I I 0 -1 3.000000000000000888 forward I I I I #
coedge $-1 -1 $-1 $79 $29 $80 $81 forward $18 $-1 #
coedge $-1 -1 $-1 $29 $79 $82 $83 forward $18 $-1 #
coedge $-1 -1 $-1 $84 $38 $29 $51 reversed $40 $-1 #
edge $-1 -1 $-1 $85 -0.7853981633970957832 $86 0.7853981633970974485 $29 $87 reversed @7 unknown #
coedge $-1 -1 $-1 $88 $30 $39 $70 reversed $13 $-1 #
coedge $-1 -1 $-1 $31 $89 $90 $91 reversed $13 $-1 #
coedge $-1 -1 $-1 $92 $93 $31 $55 forward $94 $-1 #
edge $-1 -1 $-1 $60 0 $95 0.1999999999999999556 $54 $96 forward @7 tangent #
coedge $-1 -1 $-1 $97 $32 $93 $98 forward $58 $-1 #
coedge $-1 -1 $-1 $32 $99 $34 $62 reversed $58 $-1 #
loop $-1 -1 $-1 $-1 $99 $100 #
vertex $-1 -1 $-1 $35 $101 #
vertex $-1 -1 $-1 $33 $102 #
straight-curve $-1 -1 $-1 -8.500000000022851054 10.74999999998312639 8 6.8500760619429835e-13 10 0 I I #
edge $-1 -1 $-1 $59 -0.7853981633974456145 $66 0.7853981633974460586 $34 $103 reversed @7 unknown #
straight-curve $-1 -1 $-1 -8.500000000009041656 2.999999999986979304 1 0 0 10 F -0.210001000000000021 F 1.010000999999999927 #
coedge $-1 -1 $-1 $80 $36 $99 $104 reversed $27 $-1 #
coedge $-1 -1 $-1 $36 $80 $38 $68 reversed $27 $-1 #
vertex $-1 -1 $-1 $62 $105 #
straight-curve $-1 -1 $-1 -7.500000000009041656 3.999999999986973975 1 -0 -0 -10 F -1.010000999999999927 F 0.210001000000000021 #
edge $-1 -1 $-1 $41 -1.175000000001589218 $86 0.3249999999987767674 $38 $106 forward @7 unknown #
coedge $-1 -1 $-1 $39 $107 $108 $109 forward $40 $-1 #
edge $-1 -1 $-1 $110 0.5000000000008305578 $42 1.399999999999997247 $52 $111 forward @7 unknown #
face $112 -1 $-1 $113 $40 $5 $-1 $114 forward single #
point $-1 -1 $-1 -7.500000000009041656 3.999999999986973975 2 #
point $-1 -1 $-1 -8.500000000009041656 2.999999999986979304 2 #
DXID-attrib $-1 -1 $-1 $-1 $45 @10 ASM ENTITY @1 5 #
face $115 -1 $-1 $116 $117 $5 $-1 $118 forward single #
loop $-1 -1 $-1 $-1 $119 $45 #
plane-surface $-1 -1 $-1 -8.500000000023449687 1.999999999987066568 2 -2.040851148202233931e-15 -1 0 10 -2.040851148202233773e-14 0 forward_v I I I I #
coedge $-1 -1 $-1 $120 $121 $122 $123 forward $46 $-1 #
coedge $-1 -1 $-1 $49 $48 $124 $125 forward $18 $-1 #
coedge $-1 -1 $-1 $65 $64 $48 $81 reversed $27 $-1 #
edge $-1 -1 $-1 $86 0.1000000000000000056 $126 0.7000000000000000666 $80 $127 forward @7 tangent #
coedge $-1 -1 $-1 $128 $129 $49 $83 reversed $130 $-1 #
edge $-1 -1 $-1 $131 -0.7000000000000000666 $85 -0.1000000000000000056 $82 $132 forward @7 tangent #
coedge $-1 -1 $-1 $133 $50 $129 $134 forward $40 $-1 #
vertex $-1 -1 $-1 $51 $135 #
vertex $-1 -1 $-1 $51 $136 #
ellipse-curve $-1 -1 $-1 7.499999999994617639 2.999999999986977972 2 -0 -0 -1 0.7071067811862995489 0.7071067811867957076 0 1 I I #
coedge $-1 -1 $-1 $137 $52 $138 $139 reversed $13 $-1 #
coedge $-1 -1 $-1 $53 $140 $141 $142 reversed $13 $-1 #
coedge $-1 -1 $-1 $143 $144 $53 $91 forward $145 $-1 #
edge $-1 -1 $-1 $95 -0.124999999999551914 $146 0.5749999999996059374 $53 $147 forward @7 unknown #
coedge $-1 -1 $-1 $148 $54 $144 $149 reversed $94 $-1 #
coedge $-1 -1 $-1 $54 $148 $56 $98 reversed $94 $-1 #
loop $-1 -1 $-1 $-1 $93 $150 #
vertex $-1 -1 $-1 $91 $151 #
straight-curve $-1 -1 $-1 -8.500000000031329606 11.99999999997864464 8 0 0 10 I I #
coedge $-1 -1 $-1 $152 $56 $153 $154 forward $58 $-1 #
edge $-1 -1 $-1 $60 -1.570796326794897446 $155 0 $93 $156 forward @7 unknown #
coedge $-1 -1 $-1 $57 $124 $64 $104 forward $58 $-1 #
face $157 -1 $-1 $71 $58 $5 $-1 $158 reversed single #
point $-1 -1 $-1 -8.500000000009041656 2.999999999986979304 8 #
point $-1 -1 $-1 -8.500000000031329606 11.99999999997864464 8 #
ellipse-curve $-1 -1 $-1 -7.500000000009041656 2.999999999986973975 8 0 0 1 -0.7071067811865460184 0.7071067811865492381 0 1 I I #
edge $-1 -1 $-1 $126 -0.324999999998607958 $66 1.175000000001757972 $64 $159 forward @7 unknown #
point $-1 -1 $-1 -7.500000000009041656 3.999999999986974419 8 #
straight-curve $-1 -1 $-1 4.250000000006849632 3.999999999986976196 2 10 1.959217102274891877e-15 0 I I #
coedge $-1 -1 $-1 $69 $133 $160 $161 forward $40 $-1 #
coedge $-1 -1 $-1 $162 $138 $69 $109 reversed $163 $-1 #
edge $-1 -1 $-1 $164 0 $110 1.570796326794897446 $108 $165 forward @7 unknown #
vertex $-1 -1 $-1 $70 $166 #
straight-curve $-1 -1 $-1 -8.500000000008974155 16.99999999998695088 2 -4.785444071661399571e-14 -10 0 I I #
DXID-attrib $-1 -1 $-1 $-1 $71 @10 ASM ENTITY @2 13 #
face $167 -1 $-1 $168 $169 $5 $-1 $170 forward single #
plane-surface $-1 -1 $-1 -3.338440635047845717e-12 -1.536326621476291621e-11 2 0 0 1 10 0 0 forward_v I I I I #
DXID-attrib $-1 -1 $-1 $-1 $75 @10 ASM ENTITY @1 6 #
face $171 -1 $-1 $150 $130 $5 $-1 $172 forward single #
loop $-1 -1 $-1 $-1 $173 $75 #
cone-surface $-1 -1 $-1 -4.250000000013395507 4.999999999987058352 7 1 -2.040851148202233931e-15 0 -4.710277376051325352e-15 -2.121320343559643273 2.121320343559643273 1 I I 0 1 3.000000000000000888 forward I I I I #
coedge $-1 -1 $-1 $174 $175 $120 $176 reversed $76 $-1 #
coedge $-1 -1 $-1 $177 $78 $119 $176 forward $46 $-1 #
coedge $-1 -1 $-1 $78 $177 $178 $179 forward $46 $-1 #
coedge $-1 -1 $-1 $180 $181 $78 $123 reversed $130 $-1 #
edge $-1 -1 $-1 $182 -0.785398163397448279 $183 0.785398163397448279 $78 $184 forward @7 unknown #
coedge $-1 -1 $-1 $99 $185 $79 $125 reversed $58 $-1 #
edge $-1 -1 $-1 $126 -0.7853981633970974485 $131 0.7853981633970957832 $79 $186 reversed @7 unknown #
vertex $-1 -1 $-1 $81 $187 #
straight-curve $-1 -1 $-1 7.499999999994617639 3.999999999986977528 1 0 0 10 F -0.210001000000000021 F 1.010000999999999927 #
coedge $-1 -1 $-1 $188 $82 $185 $189 reversed $130 $-1 #
coedge $-1 -1 $-1 $82 $190 $84 $134 reversed $130 $-1 #
loop $-1 -1 $-1 $-1 $128 $116 #
vertex $-1 -1 $-1 $125 $191 #
straight-curve $-1 -1 $-1 8.499999999994617639 2.999999999987681409 1 -0 -0 -10 F -1.010000999999999927 F 0.210001000000000021 #
coedge $-1 -1 $-1 $107 $84 $192 $193 forward $40 $-1 #
edge $-1 -1 $-1 $85 1.499999999999780398 $194 2.399999999999638867 $129 $195 forward @7 unknown #
point $-1 -1 $-1 8.499999999994617639 2.999999999987681409 2 #
point $-1 -1 $-1 7.499999999994617639 3.99999999998697664 2 #
coedge $196 -1 $-1 $197 $88 $198 $199 forward $13 $-1 #
coedge $-1 -1 $-1 $108 $200 $88 $139 forward $163 $-1 #
edge $-1 -1 $-1 $201 0 $110 0.2000000000000000111 $88 $202 forward @7 tangent #
coedge $-1 -1 $-1 $89 $203 $175 $204 forward $13 $-1 #
coedge $-1 -1 $-1 $205 $206 $89 $142 forward $117 $-1 #
edge $-1 -1 $-1 $146 -0.785398163397448279 $207 0.785398163397448279 $89 $208 forward @7 unknown #
coedge $-1 -1 $-1 $209 $90 $206 $210 reversed $145 $-1 #
coedge $-1 -1 $-1 $90 $211 $92 $149 forward $145 $-1 #
loop $-1 -1 $-1 $-1 $143 $212 #
vertex $-1 -1 $-1 $142 $213 #
straight-curve $-1 -1 $-1 -8.500000000022851054 10.74999999998312639 10 -6.8500760619429835e-13 -10 0 I I #
coedge $-1 -1 $-1 $93 $92 $214 $215 reversed $94 $-1 #
edge $-1 -1 $-1 $216 -0 $95 1.570796326794897446 $92 $217 forward @7 unknown #
face $218 -1 $-1 $219 $94 $5 $-1 $220 forward single #
point $-1 -1 $-1 -8.500000000031331382 11.99999999997864464 10 #
coedge $-1 -1 $-1 $185 $97 $221 $222 forward $58 $-1 #
coedge $-1 -1 $-1 $214 $223 $97 $154 reversed $224 $-1 #
edge $-1 -1 $-1 $155 -0.5250000000024541702 $225 0.1750000000004928447 $153 $226 forward @7 unknown #
vertex $-1 -1 $-1 $98 $227 #
ellipse-curve $-1 -1 $-1 -3.500000000022956748 11.99999999997864464 8 -0 -0 -1 4.440892098500626162e-15 5.000000000008373746 0 1 I I #
DXID-attrib $-1 -1 $-1 $-1 $100 @10 ASM ENTITY @2 12 #
plane-surface $-1 -1 $-1 -3.338995746560158295e-12 9.49999999998702549 8 0 0 1 10 0 0 forward_v I I I I #
straight-curve $-1 -1 $-1 4.250000000008538059 3.99999999998697664 8 -10 -1.959217102274891877e-15 0 I I #
coedge $-1 -1 $-1 $228 $229 $107 $161 reversed $230 $-1 #
edge $-1 -1 $-1 $231 -0.7000000000029469316 $164 -0 $160 $232 forward @7 unknown #
coedge $-1 -1 $-1 $200 $108 $229 $233 reversed $163 $-1 #
loop $-1 -1 $-1 $-1 $200 $168 #
vertex $-1 -1 $-1 $161 $234 #
ellipse-curve $-1 -1 $-1 -3.500000000022956748 11.99999999997864464 2 0 0 1 4.440892098500626162e-15 5.000000000008373746 0 1 I I #
point $-1 -1 $-1 -8.500000000031329606 11.99999999997864464 2 #
DXID-attrib $-1 -1 $-1 $-1 $113 @10 ASM ENTITY @2 14 #
face $235 -1 $-1 $236 $163 $5 $-1 $237 forward single #
loop $-1 -1 $-1 $238 $239 $113 #
cone-surface $-1 -1 $-1 4.382922321377543249e-12 -8.500000000012967405 0 0 0 1 2.700000000000000178 0 0 1 I I 0 -1 2.700000000000000178 forward I I I I #
DXID-attrib $-1 -1 $-1 $-1 $116 @10 ASM ENTITY @1 7 #
plane-surface $-1 -1 $-1 8.500000000005163869 -12.00000000001012168 0 1 7.031540101135221181e-13 0 -7.031540101135220777e-12 10 0 forward_v I I I I #
coedge $-1 -1 $-1 $206 $205 $240 $241 forward $117 $-1 #
coedge $-1 -1 $-1 $242 $119 $181 $243 forward $76 $-1 #
coedge $-1 -1 $-1 $119 $242 $140 $204 reversed $76 $-1 #
edge $-1 -1 $-1 $183 -1.275000000003804423 $244 0.4250000000010057399 $119 $245 forward @7 tangent #
coedge $-1 -1 $-1 $121 $120 $203 $246 forward $46 $-1 #
coedge $-1 -1 $-1 $247 $248 $121 $179 reversed $249 $-1 #
edge $-1 -1 $-1 $250 -0.4249999999995661693 $182 1.275000000001082823 $178 $251 forward @7 tangent #
coedge $-1 -1 $-1 $252 $122 $248 $253 reversed $130 $-1 #
coedge $-1 -1 $-1 $122 $240 $174 $243 reversed $130 $-1 #
vertex $-1 -1 $-1 $123 $254 #
vertex $-1 -1 $-1 $123 $255 #
ellipse-curve $-1 -1 $-1 8.500000000005185186 -1.000000000012968515 5 1 7.031540101135221181e-13 0 4.710277376051325352e-15 2.121320343559643273 -2.121320343559643273 1 I I #
coedge $-1 -1 $-1 $124 $152 $128 $189 forward $58 $-1 #
ellipse-curve $-1 -1 $-1 7.499999999994617639 2.999999999986977972 8 0 0 1 0.7071067811862995489 0.7071067811867957076 0 1 I I #
point $-1 -1 $-1 7.499999999994617639 3.999999999986977528 8 #
coedge $-1 -1 $-1 $256 $128 $257 $258 forward $130 $-1 #
edge $-1 -1 $-1 $259 -0.6249999999990505373 $131 0.2750000000008079315 $128 $260 forward @7 unknown #
coedge $-1 -1 $-1 $129 $261 $262 $263 forward $130 $-1 #
point $-1 -1 $-1 8.499999999994617639 2.999999999987681409 8 #
coedge $-1 -1 $-1 $262 $264 $133 $193 reversed $265 $-1 #
edge $-1 -1 $-1 $194 0 $231 1.570796326794897668 $192 $266 forward @7 unknown #
vertex $-1 -1 $-1 $263 $267 #
straight-curve $-1 -1 $-1 8.500000000005163869 -12.00000000001012168 2 -7.031540101135220777e-12 10 0 I I #
ATTRIB_CUSTOM-attrib $-1 -1 $268 $-1 $137 @17 sketch_attrib_def 1 1 3 @13 106 0 1 0 2 3 #
coedge $-1 -1 $-1 $269 $137 $270 $271 forward $13 $-1 #
coedge $272 -1 $-1 $273 $274 $137 $199 reversed $275 $-1 #
edge $-1 -1 $-1 $201 0.5000000000008305578 $276 2.899999999999247624 $137 $277 forward @7 unknown #
coedge $278 -1 $-1 $138 $162 $273 $279 forward $163 $-1 #
vertex $-1 -1 $-1 $139 $280 #
straight-curve $-1 -1 $-1 -8.500000000031329606 11.99999999997864464 0 0 0 10 I I #
coedge $-1 -1 $-1 $140 $269 $177 $246 reversed $13 $-1 #
edge $-1 -1 $-1 $244 0.2999999999999999889 $207 0.4999999999999999445 $140 $281 forward @7 unknown #
coedge $-1 -1 $-1 $173 $141 $242 $282 forward $117 $-1 #
coedge $-1 -1 $-1 $141 $173 $143 $210 forward $117 $-1 #
vertex $-1 -1 $-1 $204 $283 #
ellipse-curve $-1 -1 $-1 -8.500000000009013235 4.999999999987067234 7 1 -4.785444071661399414e-15 0 -4.710277376051325352e-15 -2.121320343559643273 2.121320343559643273 1 I I #
coedge $-1 -1 $-1 $284 $143 $256 $285 forward $145 $-1 #
edge $-1 -1 $-1 $286 -1.275000000003188472 $146 0.4250000000009849233 $143 $287 forward @7 tangent #
coedge $-1 -1 $-1 $144 $284 $288 $289 forward $145 $-1 #
face $290 -1 $-1 $100 $145 $5 $-1 $291 forward single #
point $-1 -1 $-1 -8.500000000023245406 4.999999999987067234 10 #
coedge $-1 -1 $-1 $288 $153 $148 $215 forward $224 $-1 #
edge $-1 -1 $-1 $155 0 $216 0.1999999999999999556 $214 $292 forward @7 tangent #
vertex $-1 -1 $-1 $149 $293 #
ellipse-curve $-1 -1 $-1 -3.500000000022956748 11.99999999997864464 10 0 0 1 4.440892098500626162e-15 5.000000000008373746 0 1 I I #
DXID-attrib $-1 -1 $-1 $-1 $150 @10 ASM ENTITY @1 8 #
face $294 -1 $-1 $295 $224 $5 $-1 $296 forward single #
cone-surface $-1 -1 $-1 -3.500000000022956748 11.99999999997864464 8 0 0 1 4.440892098500626162e-15 5.000000000008373746 0 1 I I 0 1 5.000000000008373746 forward I I I I #
coedge $-1 -1 $-1 $297 $257 $152 $222 reversed $298 $-1 #
edge $-1 -1 $-1 $225 -1.570796326794897668 $259 0 $221 $299 forward @7 unknown #
coedge $-1 -1 $-1 $153 $288 $297 $300 reversed $224 $-1 #
loop $-1 -1 $-1 $-1 $153 $219 #
vertex $-1 -1 $-1 $154 $301 #
straight-curve $-1 -1 $-1 1.750000000001588951 16.99999999998701838 8 10 0 0 I I #
point $-1 -1 $-1 -3.500000000022952307 16.99999999998701838 8 #
coedge $-1 -1 $-1 $302 $160 $264 $303 reversed $230 $-1 #
coedge $-1 -1 $-1 $160 $302 $162 $233 forward $230 $-1 #
loop $-1 -1 $-1 $-1 $302 $236 #
vertex $-1 -1 $-1 $193 $304 #
straight-curve $-1 -1 $-1 -3.500000000022952307 16.99999999998701838 2 -10 -0 -0 I I #
edge $-1 -1 $-1 $305 0 $164 0.2000000000000000111 $229 $306 forward @7 tangent #
point $-1 -1 $-1 -3.500000000022952307 16.99999999998702194 2 #
DXID-attrib $-1 -1 $-1 $-1 $168 @10 ASM ENTITY @2 15 #
face $307 -1 $-1 $308 $230 $5 $-1 $309 forward single #
cone-surface $-1 -1 $-1 -3.500000000022956748 11.99999999997864464 0 0 0 1 4.440892098500626162e-15 5.000000000008373746 0 1 I I 0 1 5.000000000008373746 forward I I I I #
loop $-1 -1 $-1 $-1 $310 $113 #
coedge $-1 -1 $-1 $239 $239 $311 $312 reversed $169 $-1 #
coedge $-1 -1 $-1 $181 $256 $173 $241 reversed $130 $-1 #
edge $-1 -1 $-1 $313 -0.785398163397448279 $286 0.785398163397448279 $240 $314 forward @7 unknown #
coedge $-1 -1 $-1 $175 $174 $205 $282 reversed $76 $-1 #
edge $-1 -1 $-1 $183 0.2999999999999999889 $313 0.4999999999999999445 $174 $315 forward @7 unknown #
vertex $-1 -1 $-1 $246 $316 #
straight-curve $-1 -1 $-1 -4.250000000013392842 1.999999999987057908 5 -10 2.040851148202233773e-14 0 F -2.205001000003805167 F 1.355001000001005096 #
edge $-1 -1 $-1 $244 -0.785398163397448279 $250 0.7853981633974478349 $177 $317 forward @7 unknown #
coedge $-1 -1 $-1 $318 $178 $269 $319 forward $249 $-1 #
coedge $-1 -1 $-1 $178 $320 $180 $253 forward $249 $-1 #
loop $-1 -1 $-1 $321 $178 $322 #
vertex $-1 -1 $-1 $319 $323 #
straight-curve $-1 -1 $-1 -4.25000000001339906 -1.000000000012942536 2 10 -2.040851148202233773e-14 0 F -1.355001000001005096 F 2.205001000003805167 #
coedge $-1 -1 $-1 $261 $180 $324 $325 reversed $130 $-1 #
edge $-1 -1 $-1 $326 2.341973315656627537e-28 $182 1.099999999999715428 $180 $195 forward @7 unknown #
point $-1 -1 $-1 8.499999999997429612 -1.000000000012968293 2 #
point $-1 -1 $-1 8.50000000002465228 1.999999999987031929 5 #
coedge $-1 -1 $-1 $240 $188 $209 $285 reversed $130 $-1 #
coedge $-1 -1 $-1 $221 $327 $188 $258 reversed $298 $-1 #
edge $-1 -1 $-1 $259 0 $328 0.1999999999999999556 $188 $329 forward @7 tangent #
vertex $-1 -1 $-1 $189 $330 #
straight-curve $-1 -1 $-1 8.500000000016946444 5.749999999995760724 8 2.054689751673934891e-11 -10 0 I I #
coedge $331 -1 $-1 $190 $252 $332 $333 forward $130 $-1 #
coedge $-1 -1 $-1 $334 $192 $190 $263 reversed $265 $-1 #
edge $-1 -1 $-1 $335 0 $194 0.2000000000000000111 $190 $336 forward @7 tangent #
coedge $-1 -1 $-1 $192 $334 $228 $303 forward $265 $-1 #
loop $-1 -1 $-1 $-1 $334 $308 #
ellipse-curve $-1 -1 $-1 3.500000000006520118 11.99999999998626876 2 0 0 1 4.999999999997585043 -2.220446049250313081e-15 0 1 I I #
point $-1 -1 $-1 8.500000000004103384 11.99999999998626521 2 #
ATTRIB_CUSTOM-attrib $-1 -1 $337 $196 $137 @17 sketch_attrib_def 1 1 3 @13 127 0 1 0 1 1 #
coedge $-1 -1 $-1 $203 $197 $247 $319 reversed $13 $-1 #
coedge $-1 -1 $-1 $338 $339 $197 $271 reversed $340 $-1 #
edge $-1 -1 $-1 $276 0 $341 0.2000000000000000111 $197 $342 forward @7 tangent #
ATTRIB_CUSTOM-attrib $-1 -1 $343 $-1 $198 @17 sketch_attrib_def 1 1 3 @13 106 0 0 0 3 3 #
coedge $344 -1 $-1 $345 $198 $200 $279 reversed $275 $-1 #
coedge $346 -1 $-1 $198 $347 $338 $348 reversed $275 $-1 #
loop $-1 -1 $-1 $-1 $198 $349 #
vertex $-1 -1 $-1 $199 $350 #
straight-curve $-1 -1 $-1 -8.500000000008974155 16.99999999998695088 0 -4.785444071661399571e-14 -10 0 F 0.5000000000008305578 F 2.899999999999247624 #
ATTRIB_CUSTOM-attrib $-1 -1 $-1 $-1 $200 @17 sketch_attrib_def 1 1 3 @13 173 0 0 0 1 1 #
edge $-1 -1 $-1 $305 0 $201 1.570796326794897446 $200 $351 forward @7 unknown #
point $-1 -1 $-1 -8.500000000031329606 11.99999999997864464 0 #
straight-curve $-1 -1 $-1 -8.500000000023449687 1.999999999987066568 2 0 0 10 I I #
edge $-1 -1 $-1 $207 -0.4250000000010048518 $313 1.275000000003805312 $242 $352 forward @7 tangent #
point $-1 -1 $-1 -8.500000000023449687 1.999999999987066568 7 #
coedge $-1 -1 $-1 $211 $209 $327 $353 forward $145 $-1 #
edge $-1 -1 $-1 $286 -0.07500000000087286844 $328 0.6249999999990505373 $256 $354 forward @7 unknown #
vertex $-1 -1 $-1 $241 $355 #
straight-curve $-1 -1 $-1 -4.250000000013395507 4.999999999987058352 10 -10 2.040851148202233773e-14 0 F -2.205001000003804723 F 1.35500100000100554 #
coedge $-1 -1 $-1 $223 $214 $211 $289 reversed $224 $-1 #
edge $-1 -1 $-1 $356 -0.1750000000004928447 $216 0.5250000000024541702 $288 $357 forward @7 unknown #
DXID-attrib $-1 -1 $-1 $-1 $212 @10 ASM ENTITY @2 11 #
plane-surface $-1 -1 $-1 -3.338995746560158295e-12 9.49999999998702549 10 0 0 1 10 0 0 forward_v I I I I #
straight-curve $-1 -1 $-1 -3.500000000022952307 16.99999999998701838 8 0 0 10 I I #
point $-1 -1 $-1 -3.500000000022951419 16.99999999998701838 10 #
DXID-attrib $-1 -1 $-1 $-1 $219 @10 ASM ENTITY @1 9 #
face $358 -1 $-1 $212 $298 $5 $-1 $359 forward single #
plane-surface $-1 -1 $-1 3.500000000006517453 16.99999999998701838 8 0 1 0 -10 -0 -0 forward_v I I I I #
coedge $-1 -1 $-1 $327 $221 $223 $300 forward $298 $-1 #
loop $-1 -1 $-1 $-1 $221 $295 #
ellipse-curve $-1 -1 $-1 3.500000000006520118 11.99999999998626876 8 -0 -0 -1 4.999999999997585043 -2.220446049250313081e-15 0 1 I I #
edge $-1 -1 $-1 $225 0 $356 0.1999999999999999556 $297 $360 forward @7 tangent #
point $-1 -1 $-1 3.500000000006517453 16.99999999998385647 8 #
coedge $361 -1 $-1 $229 $228 $345 $362 reversed $230 $-1 #
edge $-1 -1 $-1 $363 0 $231 0.2000000000000000111 $264 $364 forward @7 tangent #
point $-1 -1 $-1 3.500000000006517897 16.99999999998385647 2 #
vertex $-1 -1 $-1 $279 $365 #
straight-curve $-1 -1 $-1 -3.500000000022952307 16.99999999998701838 0 0 0 10 I I #
DXID-attrib $-1 -1 $-1 $-1 $236 @10 ASM ENTITY @2 16 #
face $366 -1 $-1 $367 $265 $5 $-1 $368 forward single #
plane-surface $-1 -1 $-1 3.500000000006516565 16.99999999998701838 0 0 1 0 -10 -0 -0 forward_v I I I I #
coedge $369 -1 $-1 $310 $310 $370 $371 forward $238 $-1 #
coedge $-1 -1 $-1 $311 $311 $239 $312 forward $321 $-1 #
edge $-1 -1 $-1 $372 -3.141592653589793116 $372 3.141592653589793116 $239 $373 forward @7 unknown #
vertex $-1 -1 $-1 $243 $374 #
ellipse-curve $-1 -1 $-1 8.500000000005199396 4.999999999987031707 7 -1 -7.031540101135221181e-13 0 -4.710277376051325352e-15 -2.121320343559643273 2.121320343559643273 1 I I #
straight-curve $-1 -1 $-1 8.50000000002465228 1.999999999987031929 2 0 0 10 I I #
point $-1 -1 $-1 -8.500000000023449687 1.999999999987066568 5 #
ellipse-curve $-1 -1 $-1 -8.500000000009023893 -1.000000000012933876 5 -1 4.785444071661399414e-15 0 4.710277376051325352e-15 2.121320343559643273 -2.121320343559643273 1 I I #
coedge $-1 -1 $-1 $375 $247 $339 $376 forward $249 $-1 #
edge $-1 -1 $-1 $250 1.799999999999988498 $341 2.899999999999247624 $269 $111 forward @7 unknown #
coedge $-1 -1 $-1 $248 $375 $377 $378 forward $249 $-1 #
loop $-1 -1 $-1 $-1 $311 $322 #
face $379 -1 $-1 $349 $249 $5 $-1 $114 forward single #
point $-1 -1 $-1 -8.50000000000905942 -1.000000000012932766 2 #
coedge $-1 -1 $-1 $377 $380 $252 $325 forward $381 $-1 #
edge $-1 -1 $-1 $382 0 $326 0.2000000000000000111 $324 $383 forward @7 tangent #
vertex $-1 -1 $-1 $253 $384 #
coedge $-1 -1 $-1 $257 $297 $284 $353 reversed $298 $-1 #
vertex $-1 -1 $-1 $258 $385 #
straight-curve $-1 -1 $-1 8.500000000004105161 11.99999999998626521 8 0 0 10 I I #
point $-1 -1 $-1 8.500000000004105161 11.99999999998626521 8 #
ATTRIB_CUSTOM-attrib $-1 -1 $386 $-1 $261 @17 sketch_attrib_def 1 1 3 @13 108 0 1 0 2 3 #
coedge $387 -1 $-1 $388 $389 $261 $333 reversed $275 $-1 #
edge $-1 -1 $-1 $382 2.341973315656627537e-28 $335 2.399999999999638867 $261 $390 forward @7 unknown #
coedge $391 -1 $-1 $264 $262 $389 $392 forward $265 $-1 #
vertex $-1 -1 $-1 $333 $393 #
straight-curve $-1 -1 $-1 8.500000000004105161 11.99999999998626521 0 0 0 10 I I #
ATTRIB_CUSTOM-attrib $-1 -1 $-1 $268 $137 @17 sketch_attrib_def 1 1 3 @13 106 0 0 0 3 3 #
coedge $394 -1 $-1 $395 $270 $274 $348 forward $340 $-1 #
coedge $-1 -1 $-1 $270 $395 $318 $376 reversed $340 $-1 #
loop $-1 -1 $-1 $-1 $338 $396 #
vertex $-1 -1 $-1 $271 $397 #
straight-curve $-1 -1 $-1 -8.500000000009112711 -12.00000000000552447 0 0 0 10 I I #
ATTRIB_CUSTOM-attrib $-1 -1 $398 $272 $198 @17 sketch_attrib_def 1 1 3 @13 127 0 1 0 1 1 #
ATTRIB_CUSTOM-attrib $-1 -1 $-1 $-1 $273 @17 sketch_attrib_def 1 1 3 @13 173 0 0 0 1 1 #
coedge $399 -1 $-1 $389 $273 $302 $362 forward $275 $-1 #
ATTRIB_CUSTOM-attrib $-1 -1 $-1 $-1 $274 @17 sketch_attrib_def 1 1 3 @13 185 0 0 0 1 1 #
coedge $400 -1 $-1 $274 $388 $401 $402 reversed $275 $-1 #
edge $-1 -1 $-1 $276 0 $403 1.570796326796699116 $338 $404 forward @7 unknown #
face $405 -1 $-1 $-1 $406 $5 $-1 $407 reversed single #
point $-1 -1 $-1 -8.500000000009112711 -12.00000000000552447 0 #
ellipse-curve $-1 -1 $-1 -3.500000000022956748 11.99999999997864464 0 0 0 1 4.440892098500626162e-15 5.000000000008373746 0 1 F 0 F 1.570796326794897446 #
straight-curve $-1 -1 $-1 -4.250000000013401724 1.999999999987057686 7 10 -2.040851148202233773e-14 0 F -1.35500100000100554 F 2.205001000003804723 #
edge $-1 -1 $-1 $328 -0 $356 1.570796326794897668 $327 $408 forward @7 unknown #
straight-curve $-1 -1 $-1 8.500000000016946444 5.749999999995760724 10 -2.054689751673934891e-11 10 0 I I #
point $-1 -1 $-1 8.500000000018488322 4.999999999987031707 10 #
vertex $-1 -1 $-1 $289 $409 #
straight-curve $-1 -1 $-1 1.750000000001588951 16.99999999998701838 10 -10 -0 -0 I I #
DXID-attrib $-1 -1 $-1 $-1 $295 @10 ASM ENTITY @2 10 #
cone-surface $-1 -1 $-1 3.500000000006520118 11.99999999998626876 8 0 0 1 4.999999999997585043 -2.220446049250313081e-15 0 1 I I 0 1 4.999999999997585043 forward I I I I #
straight-curve $-1 -1 $-1 3.500000000006517453 16.99999999998385647 8 0 0 10 I I #
ATTRIB_CUSTOM-attrib $-1 -1 $410 $-1 $302 @17 sketch_attrib_def 1 1 3 @13 124 0 1 0 1 1 #
edge $-1 -1 $-1 $305 0 $363 0.7000000000029469316 $302 $411 forward @7 unknown #
vertex $-1 -1 $-1 $362 $412 #
straight-curve $-1 -1 $-1 3.500000000006517453 16.99999999998385647 0 0 0 10 I I #
point $-1 -1 $-1 -3.500000000022952307 16.99999999998701838 0 #
DXID-attrib $-1 -1 $-1 $-1 $308 @10 ASM ENTITY @2 17 #
face $413 -1 $-1 $414 $381 $5 $-1 $415 forward single #
cone-surface $-1 -1 $-1 3.500000000006520118 11.99999999998626876 0 0 0 1 4.999999999997585043 -2.220446049250313081e-15 0 1 I I 0 1 4.999999999997585043 forward I I I I #
ATTRIB_CUSTOM-attrib $-1 -1 $-1 $-1 $310 @17 sketch_attrib_def 1 1 3 @22 137 0 4294967295 0 1 1 #
coedge $416 -1 $-1 $370 $370 $310 $371 reversed $406 $-1 #
edge $-1 -1 $-1 $417 -3.141592653589793116 $417 3.141592653589793116 $310 $418 forward @7 unknown #
vertex $-1 -1 $-1 $312 $419 #
ellipse-curve $-1 -1 $-1 4.382922321377543249e-12 -8.500000000012967405 2 -0 -0 -1 2.700000000000000178 0 0 1 I I #
point $-1 -1 $-1 8.50000000002465228 1.999999999987031929 7 #
coedge $-1 -1 $-1 $320 $318 $420 $421 forward $249 $-1 #
edge $-1 -1 $-1 $341 0 $422 1.570796326796699116 $339 $423 forward @7 unknown #
coedge $-1 -1 $-1 $424 $324 $320 $378 reversed $381 $-1 #
edge $-1 -1 $-1 $425 0 $326 1.570796326795273368 $377 $426 forward @7 unknown #
DXID-attrib $-1 -1 $-1 $-1 $322 @10 ASM ENTITY @2 21 #
coedge $427 -1 $-1 $324 $424 $388 $428 forward $381 $-1 #
loop $-1 -1 $-1 $-1 $380 $367 #
vertex $-1 -1 $-1 $325 $429 #
straight-curve $-1 -1 $-1 8.500000000005162093 -12.00000000001012168 0 0 0 10 I I #
point $-1 -1 $-1 8.500000000005162093 -12.00000000001012168 2 #
point $-1 -1 $-1 8.500000000004105161 11.99999999998626521 10 #
ATTRIB_CUSTOM-attrib $-1 -1 $430 $331 $261 @17 sketch_attrib_def 1 1 3 @13 125 0 1 0 1 1 #
ATTRIB_CUSTOM-attrib $-1 -1 $431 $-1 $332 @17 sketch_attrib_def 1 1 3 @13 108 0 0 0 1 3 #
coedge $432 -1 $-1 $347 $332 $380 $428 reversed $275 $-1 #
coedge $433 -1 $-1 $332 $345 $334 $392 reversed $275 $-1 #
straight-curve $-1 -1 $-1 8.500000000005163869 -12.00000000001012168 0 -7.031540101135220777e-12 10 0 F 2.341973315656627537e-28 F 2.399999999999638867 #
ATTRIB_CUSTOM-attrib $-1 -1 $-1 $-1 $334 @17 sketch_attrib_def 1 1 3 @13 177 0 0 0 1 1 #
edge $-1 -1 $-1 $335 0 $363 1.570796326794897668 $334 $434 forward @7 unknown #
point $-1 -1 $-1 8.500000000004105161 11.99999999998626521 0 #
ATTRIB_CUSTOM-attrib $-1 -1 $-1 $-1 $338 @17 sketch_attrib_def 1 1 3 @13 185 0 0 0 1 1 #
coedge $-1 -1 $-1 $339 $338 $435 $436 forward $340 $-1 #
face $437 -1 $-1 $322 $340 $5 $-1 $438 forward single #
point $-1 -1 $-1 -8.500000000009112711 -12.00000000000552447 2 #
ATTRIB_CUSTOM-attrib $-1 -1 $-1 $343 $198 @17 sketch_attrib_def 1 1 3 @13 106 0 1 0 2 3 #
ATTRIB_CUSTOM-attrib $-1 -1 $439 $-1 $345 @17 sketch_attrib_def 1 1 3 @13 105 0 1 0 2 3 #
ATTRIB_CUSTOM-attrib $-1 -1 $-1 $-1 $347 @17 sketch_attrib_def 1 1 3 @13 107 0 0 0 1 1 #
coedge $440 -1 $-1 $441 $435 $347 $402 forward $442 $-1 #
edge $-1 -1 $-1 $403 0 $443 0.7000000000004764633 $401 $444 forward @7 unknown #
vertex $-1 -1 $-1 $402 $445 #
ellipse-curve $-1 -1 $-1 -3.500000000003224088 -12.00000000001185718 0 0 0 1 -5.000000000005888623 6.332712132461892907e-12 0 1 F 0 F 1.570796326796699116 #
DXID-attrib $-1 -1 $-1 $-1 $349 @10 ASM ENTITY @2 22 #
loop $-1 -1 $-1 $275 $370 $349 #
plane-surface $-1 -1 $-1 -3.338440635047845717e-12 -1.536326621476291621e-11 0 0 0 1 10 0 0 forward_v I I I I #
ellipse-curve $-1 -1 $-1 3.500000000006520118 11.99999999998626876 10 0 0 1 4.999999999997585043 -2.220446049250313081e-15 0 1 I I #
point $-1 -1 $-1 3.500000000006517897 16.99999999998385647 10 #
ATTRIB_CUSTOM-attrib $-1 -1 $-1 $361 $302 @17 sketch_attrib_def 1 1 3 @13 105 0 1 0 2 3 #
straight-curve $-1 -1 $-1 -3.500000000022952307 16.99999999998701838 0 10 0 0 F 0 F 0.7000000000029469316 #
point $-1 -1 $-1 3.500000000006517453 16.99999999998385647 0 #
DXID-attrib $-1 -1 $-1 $-1 $367 @10 ASM ENTITY @2 18 #
face $446 -1 $-1 $396 $442 $5 $-1 $447 forward single #
cone-surface $-1 -1 $-1 3.500000000004208633 -12.00000000001201883 0 0 0 1 1.221245327087672194e-14 -5.000000000000952127 0 1 I I 0 1 5.000000000000952127 forward I I I I #
ATTRIB_CUSTOM-attrib $-1 -1 $-1 $-1 $370 @17 sketch_attrib_def 1 1 3 @22 137 0 4294967295 0 1 1 #
vertex $-1 -1 $-1 $371 $448 #
ellipse-curve $-1 -1 $-1 4.382922321377543249e-12 -8.500000000012967405 0 -0 -0 -1 2.700000000000000178 0 0 1 I I #
point $-1 -1 $-1 -2.699999999995617017 -8.500000000012967405 2 #
coedge $-1 -1 $-1 $435 $441 $375 $421 reversed $442 $-1 #
edge $-1 -1 $-1 $422 0 $425 0.7000000000004764633 $420 $449 forward @7 unknown #
vertex $-1 -1 $-1 $421 $450 #
ellipse-curve $-1 -1 $-1 -3.500000000003224088 -12.00000000001185718 2 0 0 1 -5.000000000005888623 6.332712132461892907e-12 0 1 I I #
coedge $-1 -1 $-1 $380 $377 $441 $451 reversed $381 $-1 #
vertex $-1 -1 $-1 $378 $452 #
ellipse-curve $-1 -1 $-1 3.500000000004208633 -12.00000000001201883 2 0 0 1 1.221245327087672194e-14 -5.000000000000952127 0 1 I I #
ATTRIB_CUSTOM-attrib $-1 -1 $-1 $-1 $380 @17 sketch_attrib_def 1 1 3 @13 181 0 0 0 1 1 #
edge $-1 -1 $-1 $443 0 $382 1.570796326795273368 $380 $453 forward @7 unknown #
point $-1 -1 $-1 8.500000000005162093 -12.00000000001012168 0 #
ATTRIB_CUSTOM-attrib $-1 -1 $-1 $386 $261 @17 sketch_attrib_def 1 1 3 @13 108 0 0 0 1 3 #
ATTRIB_CUSTOM-attrib $-1 -1 $454 $387 $332 @17 sketch_attrib_def 1 1 3 @13 125 0 1 0 1 1 #
ATTRIB_CUSTOM-attrib $-1 -1 $-1 $-1 $388 @17 sketch_attrib_def 1 1 3 @13 181 0 0 0 1 1 #
ATTRIB_CUSTOM-attrib $-1 -1 $-1 $-1 $389 @17 sketch_attrib_def 1 1 3 @13 177 0 0 0 1 1 #
ellipse-curve $-1 -1 $-1 3.500000000006520118 11.99999999998626876 0 0 0 1 4.999999999997585043 -2.220446049250313081e-15 0 1 F 0 F 1.570796326794897668 #
coedge $-1 -1 $-1 $401 $420 $395 $436 reversed $442 $-1 #
edge $-1 -1 $-1 $403 0 $422 0.2000000000000000111 $395 $455 forward @7 tangent #
DXID-attrib $-1 -1 $-1 $-1 $396 @10 ASM ENTITY @2 20 #
cone-surface $-1 -1 $-1 -3.500000000003224088 -12.00000000001185718 0 0 0 1 -5.000000000005888623 6.332712132461892907e-12 0 1 I I 0 1 5.000000000005888623 forward I I I I #
ATTRIB_CUSTOM-attrib $-1 -1 $-1 $399 $345 @17 sketch_attrib_def 1 1 3 @13 124 0 1 0 1 1 #
ATTRIB_CUSTOM-attrib $-1 -1 $-1 $-1 $401 @17 sketch_attrib_def 1 1 3 @13 107 0 0 0 1 1 #
coedge $-1 -1 $-1 $420 $401 $424 $451 forward $442 $-1 #
loop $-1 -1 $-1 $-1 $401 $414 #
vertex $-1 -1 $-1 $428 $456 #
straight-curve $-1 -1 $-1 -3.500000000000543121 -17.00000000001297096 0 10 0 0 F 0 F 0.7000000000004764633 #
point $-1 -1 $-1 -3.500000000000544453 -17.0000000000177458 0 #
DXID-attrib $-1 -1 $-1 $-1 $414 @10 ASM ENTITY @2 19 #
plane-surface $-1 -1 $-1 -3.500000000000543121 -17.00000000001297096 0 0 -1 0 10 0 0 forward_v I I I I #
point $-1 -1 $-1 -2.699999999995617017 -8.500000000012967405 0 #
straight-curve $-1 -1 $-1 -3.500000000000543121 -17.00000000001297096 2 10 0 0 I I #
point $-1 -1 $-1 -3.500000000000544453 -17.0000000000177458 2 #
edge $-1 -1 $-1 $443 0 $425 0.2000000000000000111 $441 $457 forward @7 tangent #
point $-1 -1 $-1 3.500000000004220624 -17.00000000001297096 2 #
ellipse-curve $-1 -1 $-1 3.500000000004208633 -12.00000000001201883 0 0 0 1 1.221245327087672194e-14 -5.000000000000952127 0 1 F 0 F 1.570796326795273368 #
ATTRIB_CUSTOM-attrib $-1 -1 $-1 $431 $332 @17 sketch_attrib_def 1 1 3 @13 108 0 1 0 2 3 #
straight-curve $-1 -1 $-1 -3.500000000000544453 -17.0000000000177458 0 0 0 10 I I #
point $-1 -1 $-1 3.500000000004220624 -17.00000000001297096 0 #
straight-curve $-1 -1 $-1 3.500000000004220624 -17.00000000001297096 0 0 0 10 I I #
End-of-ACIS-data 