22900 0 2 2           
30 Autodesk Translation Framework 21 ASM 229.4.0.65535 OSX 24 Thu Aug 31 11:33:33 2023 
1 9.999999999999999547e-07 1.000000000000000036e-10 
asmheader $-1 -1 @13 229.4.0.65535 #
body $2 -1 $-1 $3 $-1 $4 #
rgb_color-st-attrib $-1 -1 $5 $-1 $1 0.627450980392156854 0.627450980392156854 0.627450980392156854 1 #
lump $-1 -1 $-1 $-1 $6 $1 #
transform $-1 -1 1 0 0 0 1 0 0 0 1 0 0 0 1 no_rotate no_reflect no_shear #
ATTRIB_CUSTOM-attrib $-1 -1 $-1 $2 $1 @20 Timestamp_attrib_def 1 1692132821302992 #
shell $-1 -1 $-1 $-1 $-1 $7 $-1 $3 #
face $8 -1 $-1 $9 $10 $6 $-1 $11 forward single #
DXID-attrib $-1 -1 $-1 $-1 $7 @10 ASM ENTITY @1 0 #
face $12 -1 $-1 $13 $14 $6 $-1 $15 forward single #
loop $-1 -1 $-1 $-1 $16 $7 #
cone-surface $-1 -1 $-1 -7.500000000009041656 2.999999999986973975 1 0 0 1 -0.7071067811865460184 0.7071067811865492381 0 1 I I 0 1 1 forward I I I I #
DXID-attrib $-1 -1 $-1 $-1 $9 @10 ASM ENTITY @1 1 #
face $17 -1 $-1 $18 $19 $6 $-1 $20 forward single #
loop $-1 -1 $-1 $-1 $21 $9 #
plane-surface $-1 -1 $-1 -8.500000000008999024 11.99999999997864464 0 -1 4.785444071661399414e-15 0 -4.785444071661399571e-14 -10 0 forward_v I I I I #
coedge $-1 -1 $-1 $22 $23 $24 $25 forward $10 0 $-1 #
DXID-attrib $-1 -1 $-1 $-1 $13 @10 ASM ENTITY @1 2 #
face $26 -1 $-1 $27 $28 $6 $-1 $29 forward single #
loop $-1 -1 $-1 $-1 $30 $13 #
cone-surface $-1 -1 $-1 7.499999999994617639 2.999999999986977972 1 0 0 1 0.7071067811862995489 0.7071067811867957076 0 1 I I 0 1 1 forward I I I I #
coedge $-1 -1 $-1 $31 $32 $33 $34 reversed $14 0 $-1 #
coedge $-1 -1 $-1 $35 $16 $31 $36 forward $10 0 $-1 #
coedge $-1 -1 $-1 $16 $35 $37 $38 forward $10 0 $-1 #
coedge $-1 -1 $-1 $39 $40 $16 $25 reversed $41 0 $-1 #
edge $-1 -1 $-1 $42 -0.7853981633974460586 $43 0.7853981633974456145 $16 $44 reversed @7 unknown #
DXID-attrib $-1 -1 $-1 $-1 $18 @10 ASM ENTITY @1 3 #
face $45 -1 $-1 $46 $47 $6 $-1 $48 forward single #
loop $-1 -1 $-1 $-1 $37 $18 #
plane-surface $-1 -1 $-1 8.500000000017038815 3.999999999986977528 2 -1.95921710227489168e-16 1 0 -10 -1.959217102274891877e-15 0 forward_v I I I I #
coedge $-1 -1 $-1 $49 $50 $51 $52 forward $19 0 $-1 #
coedge $-1 -1 $-1 $53 $21 $22 $36 reversed $14 0 $-1 #
coedge $-1 -1 $-1 $21 $54 $55 $56 reversed $14 0 $-1 #
coedge $-1 -1 $-1 $57 $58 $21 $34 forward $59 0 $-1 #
edge $-1 -1 $-1 $60 -0.7749999999996146638 $61 0.124999999999551914 $21 $62 forward @7 unknown #
coedge $-1 -1 $-1 $23 $22 $58 $63 forward $10 0 $-1 #
edge $-1 -1 $-1 $43 0.1000000000000000056 $60 0.7000000000000000666 $31 $64 forward @7 tangent #
coedge $-1 -1 $-1 $65 $66 $23 $38 reversed $28 0 $-1 #
edge $-1 -1 $-1 $67 -0.7000000000000000666 $42 -0.1000000000000000056 $37 $68 forward @7 tangent #
coedge $-1 -1 $-1 $51 $24 $66 $69 forward $41 0 $-1 #
coedge $-1 -1 $-1 $24 $70 $53 $71 forward $41 0 $-1 #
loop $-1 -1 $-1 $-1 $39 $72 #
vertex $-1 -1 $-1 $69 0 $73 #
vertex $-1 -1 $-1 $71 1 $74 #
ellipse-curve $-1 -1 $-1 -7.500000000009041656 2.999999999986973975 2 -0 -0 -1 -0.7071067811865460184 0.7071067811865492381 0 1 I I #
DXID-attrib $-1 -1 $-1 $-1 $27 @10 ASM ENTITY @1 4 #
face $75 -1 $-1 $76 $77 $6 $-1 $78 forward single #
loop $-1 -1 $-1 $-1 $79 $27 #
cone-surface $-1 -1 $-1 -4.25000000001339906 -1.000000000012942536 5 -1 2.040851148202233931e-15 0 4.710277376051325352e-15 2.121320343559643273 -2.121320343559643273 1 I I 0 -1 3.000000000000000888 forward I I I I #
coedge $-1 -1 $-1 $80 $30 $81 $82 forward $19 0 $-1 #
coedge $-1 -1 $-1 $30 $80 $83 $84 forward $19 0 $-1 #
coedge $-1 -1 $-1 $85 $39 $30 $52 reversed $41 0 $-1 #
edge $-1 -1 $-1 $86 -0.7853981633970957832 $87 0.7853981633970974485 $30 $88 reversed @7 unknown #
coedge $-1 -1 $-1 $89 $31 $40 $71 reversed $14 0 $-1 #
coedge $-1 -1 $-1 $32 $90 $91 $92 reversed $14 0 $-1 #
coedge $-1 -1 $-1 $93 $94 $32 $56 forward $95 0 $-1 #
edge $-1 -1 $-1 $61 0 $96 0.1999999999999999556 $55 $97 forward @7 tangent #
coedge $-1 -1 $-1 $98 $33 $94 $99 forward $59 0 $-1 #
coedge $-1 -1 $-1 $33 $100 $35 $63 reversed $59 0 $-1 #
loop $-1 -1 $-1 $-1 $100 $101 #
vertex $-1 -1 $-1 $34 0 $102 #
vertex $-1 -1 $-1 $99 0 $103 #
straight-curve $-1 -1 $-1 -8.500000000022851054 10.74999999998312639 8 6.8500760619429835e-13 10 0 I I #
edge $-1 -1 $-1 $60 -0.7853981633974456145 $67 0.7853981633974460586 $35 $104 reversed @7 unknown #
straight-curve $-1 -1 $-1 -8.500000000009041656 2.999999999986979304 1 0 0 10 F -0.210001000000000021 F 1.010000999999999927 #
coedge $-1 -1 $-1 $81 $37 $100 $105 reversed $28 0 $-1 #
coedge $-1 -1 $-1 $37 $81 $39 $69 reversed $28 0 $-1 #
vertex $-1 -1 $-1 $63 1 $106 #
straight-curve $-1 -1 $-1 -7.500000000009041656 3.999999999986973975 1 -0 -0 -10 F -1.010000999999999927 F 0.210001000000000021 #
edge $-1 -1 $-1 $42 -1.175000000001589218 $87 0.3249999999987767674 $39 $107 forward @7 unknown #
coedge $-1 -1 $-1 $40 $108 $109 $110 forward $41 0 $-1 #
edge $-1 -1 $-1 $111 0.5000000000008305578 $43 1.399999999999997247 $53 $112 forward @7 unknown #
face $113 -1 $-1 $114 $41 $6 $-1 $115 forward single #
point $-1 -1 $-1 -7.500000000009041656 3.999999999986973975 2 #
point $-1 -1 $-1 -8.500000000009041656 2.999999999986979304 2 #
DXID-attrib $-1 -1 $-1 $-1 $46 @10 ASM ENTITY @1 5 #
face $116 -1 $-1 $117 $118 $6 $-1 $119 forward single #
loop $-1 -1 $-1 $-1 $120 $46 #
plane-surface $-1 -1 $-1 -8.500000000023449687 1.999999999987066568 2 -2.040851148202233931e-15 -1 0 10 -2.040851148202233773e-14 0 forward_v I I I I #
coedge $-1 -1 $-1 $121 $122 $123 $124 forward $47 0 $-1 #
coedge $-1 -1 $-1 $50 $49 $125 $126 forward $19 0 $-1 #
coedge $-1 -1 $-1 $66 $65 $49 $82 reversed $28 0 $-1 #
edge $-1 -1 $-1 $87 0.1000000000000000056 $127 0.7000000000000000666 $81 $128 forward @7 tangent #
coedge $-1 -1 $-1 $129 $130 $50 $84 reversed $131 0 $-1 #
edge $-1 -1 $-1 $132 -0.7000000000000000666 $86 -0.1000000000000000056 $83 $133 forward @7 tangent #
coedge $-1 -1 $-1 $134 $51 $130 $135 forward $41 0 $-1 #
vertex $-1 -1 $-1 $135 0 $136 #
vertex $-1 -1 $-1 $52 1 $137 #
ellipse-curve $-1 -1 $-1 7.499999999994617639 2.999999999986977972 2 -0 -0 -1 0.7071067811862995489 0.7071067811867957076 0 1 I I #
coedge $-1 -1 $-1 $138 $53 $139 $140 reversed $14 0 $-1 #
coedge $-1 -1 $-1 $54 $141 $142 $143 reversed $14 0 $-1 #
coedge $-1 -1 $-1 $144 $145 $54 $92 forward $146 0 $-1 #
edge $-1 -1 $-1 $96 -0.124999999999551914 $147 0.5749999999996059374 $54 $148 forward @7 unknown #
coedge $-1 -1 $-1 $149 $55 $145 $150 reversed $95 0 $-1 #
coedge $-1 -1 $-1 $55 $149 $57 $99 reversed $95 0 $-1 #
loop $-1 -1 $-1 $-1 $94 $151 #
vertex $-1 -1 $-1 $56 1 $152 #
straight-curve $-1 -1 $-1 -8.500000000031329606 11.99999999997864464 8 0 0 10 I I #
coedge $-1 -1 $-1 $153 $57 $154 $155 forward $59 0 $-1 #
edge $-1 -1 $-1 $61 -1.570796326794897446 $156 0 $94 $157 forward @7 unknown #
coedge $-1 -1 $-1 $58 $125 $65 $105 forward $59 0 $-1 #
face $158 -1 $-1 $72 $59 $6 $-1 $159 reversed single #
point $-1 -1 $-1 -8.500000000009041656 2.999999999986979304 8 #
point $-1 -1 $-1 -8.500000000031329606 11.99999999997864464 8 #
ellipse-curve $-1 -1 $-1 -7.500000000009041656 2.999999999986973975 8 0 0 1 -0.7071067811865460184 0.7071067811865492381 0 1 I I #
edge $-1 -1 $-1 $127 -0.324999999998607958 $67 1.175000000001757972 $65 $160 forward @7 unknown #
point $-1 -1 $-1 -7.500000000009041656 3.999999999986974419 8 #
straight-curve $-1 -1 $-1 4.250000000006849632 3.999999999986976196 2 10 1.959217102274891877e-15 0 I I #
coedge $-1 -1 $-1 $70 $134 $161 $162 forward $41 0 $-1 #
coedge $-1 -1 $-1 $163 $139 $70 $110 reversed $164 0 $-1 #
edge $-1 -1 $-1 $165 0 $111 1.570796326794897446 $109 $166 forward @7 unknown #
vertex $-1 -1 $-1 $140 1 $167 #
straight-curve $-1 -1 $-1 -8.500000000008974155 16.99999999998695088 2 -4.785444071661399571e-14 -10 0 I I #
DXID-attrib $-1 -1 $-1 $-1 $72 @10 ASM ENTITY @2 13 #
face $168 -1 $-1 $169 $170 $6 $-1 $171 forward single #
plane-surface $-1 -1 $-1 -3.338440635047845717e-12 -1.536326621476291621e-11 2 0 0 1 10 0 0 forward_v I I I I #
DXID-attrib $-1 -1 $-1 $-1 $76 @10 ASM ENTITY @1 6 #
face $172 -1 $-1 $151 $131 $6 $-1 $173 forward single #
loop $-1 -1 $-1 $-1 $174 $76 #
cone-surface $-1 -1 $-1 -4.250000000013395507 4.999999999987058352 7 1 -2.040851148202233931e-15 0 -4.710277376051325352e-15 -2.121320343559643273 2.121320343559643273 1 I I 0 1 3.000000000000000888 forward I I I I #
coedge $-1 -1 $-1 $175 $176 $121 $177 reversed $77 0 $-1 #
coedge $-1 -1 $-1 $178 $79 $120 $177 forward $47 0 $-1 #
coedge $-1 -1 $-1 $79 $178 $179 $180 forward $47 0 $-1 #
coedge $-1 -1 $-1 $181 $182 $79 $124 reversed $131 0 $-1 #
edge $-1 -1 $-1 $183 -0.785398163397448279 $184 0.785398163397448279 $79 $185 forward @7 unknown #
coedge $-1 -1 $-1 $100 $186 $80 $126 reversed $59 0 $-1 #
edge $-1 -1 $-1 $127 -0.7853981633970974485 $132 0.7853981633970957832 $80 $187 reversed @7 unknown #
vertex $-1 -1 $-1 $105 0 $188 #
straight-curve $-1 -1 $-1 7.499999999994617639 3.999999999986977528 1 0 0 10 F -0.210001000000000021 F 1.010000999999999927 #
coedge $-1 -1 $-1 $189 $83 $186 $190 reversed $131 0 $-1 #
coedge $-1 -1 $-1 $83 $191 $85 $135 reversed $131 0 $-1 #
loop $-1 -1 $-1 $-1 $129 $117 #
vertex $-1 -1 $-1 $190 1 $192 #
straight-curve $-1 -1 $-1 8.499999999994617639 2.999999999987681409 1 -0 -0 -10 F -1.010000999999999927 F 0.210001000000000021 #
coedge $-1 -1 $-1 $108 $85 $193 $194 forward $41 0 $-1 #
edge $-1 -1 $-1 $86 1.499999999999780398 $195 2.399999999999638867 $130 $196 forward @7 unknown #
point $-1 -1 $-1 8.499999999994617639 2.999999999987681409 2 #
point $-1 -1 $-1 7.499999999994617639 3.99999999998697664 2 #
coedge $197 -1 $-1 $198 $89 $199 $200 forward $14 0 $-1 #
coedge $-1 -1 $-1 $109 $201 $89 $140 forward $164 0 $-1 #
edge $-1 -1 $-1 $202 0 $111 0.2000000000000000111 $89 $203 forward @7 tangent #
coedge $-1 -1 $-1 $90 $204 $176 $205 forward $14 0 $-1 #
coedge $-1 -1 $-1 $206 $207 $90 $143 forward $118 0 $-1 #
edge $-1 -1 $-1 $147 -0.785398163397448279 $208 0.785398163397448279 $90 $209 forward @7 unknown #
coedge $-1 -1 $-1 $210 $91 $207 $211 reversed $146 0 $-1 #
coedge $-1 -1 $-1 $91 $212 $93 $150 forward $146 0 $-1 #
loop $-1 -1 $-1 $-1 $144 $213 #
vertex $-1 -1 $-1 $143 0 $214 #
straight-curve $-1 -1 $-1 -8.500000000022851054 10.74999999998312639 10 -6.8500760619429835e-13 -10 0 I I #
coedge $-1 -1 $-1 $94 $93 $215 $216 reversed $95 0 $-1 #
edge $-1 -1 $-1 $217 -0 $96 1.570796326794897446 $93 $218 forward @7 unknown #
face $219 -1 $-1 $220 $95 $6 $-1 $221 forward single #
point $-1 -1 $-1 -8.500000000031331382 11.99999999997864464 10 #
coedge $-1 -1 $-1 $186 $98 $222 $223 forward $59 0 $-1 #
coedge $-1 -1 $-1 $215 $224 $98 $155 reversed $225 0 $-1 #
edge $-1 -1 $-1 $156 -0.5250000000024541702 $226 0.1750000000004928447 $154 $227 forward @7 unknown #
vertex $-1 -1 $-1 $155 0 $228 #
ellipse-curve $-1 -1 $-1 -3.500000000022956748 11.99999999997864464 8 -0 -0 -1 4.440892098500626162e-15 5.000000000008373746 0 1 I I #
DXID-attrib $-1 -1 $-1 $-1 $101 @10 ASM ENTITY @2 12 #
plane-surface $-1 -1 $-1 -3.338995746560158295e-12 9.49999999998702549 8 0 0 1 10 0 0 forward_v I I I I #
straight-curve $-1 -1 $-1 4.250000000008538059 3.99999999998697664 8 -10 -1.959217102274891877e-15 0 I I #
coedge $-1 -1 $-1 $229 $230 $108 $162 reversed $231 0 $-1 #
edge $-1 -1 $-1 $232 -0.7000000000029469316 $165 -0 $161 $233 forward @7 unknown #
coedge $-1 -1 $-1 $201 $109 $230 $234 reversed $164 0 $-1 #
loop $-1 -1 $-1 $-1 $201 $169 #
vertex $-1 -1 $-1 $234 1 $235 #
ellipse-curve $-1 -1 $-1 -3.500000000022956748 11.99999999997864464 2 0 0 1 4.440892098500626162e-15 5.000000000008373746 0 1 I I #
point $-1 -1 $-1 -8.500000000031329606 11.99999999997864464 2 #
DXID-attrib $-1 -1 $-1 $-1 $114 @10 ASM ENTITY @2 14 #
face $236 -1 $-1 $237 $164 $6 $-1 $238 forward single #
loop $-1 -1 $-1 $239 $240 $114 #
cone-surface $-1 -1 $-1 4.382922321377543249e-12 -8.500000000012967405 0 0 0 1 2.700000000000000178 0 0 1 I I 0 -1 2.700000000000000178 forward I I I I #
DXID-attrib $-1 -1 $-1 $-1 $117 @10 ASM ENTITY @1 7 #
plane-surface $-1 -1 $-1 8.500000000005163869 -12.00000000001012168 0 1 7.031540101135221181e-13 0 -7.031540101135220777e-12 10 0 forward_v I I I I #
coedge $-1 -1 $-1 $207 $206 $241 $242 forward $118 0 $-1 #
coedge $-1 -1 $-1 $243 $120 $182 $244 forward $77 0 $-1 #
coedge $-1 -1 $-1 $120 $243 $141 $205 reversed $77 0 $-1 #
edge $-1 -1 $-1 $184 -1.275000000003804423 $245 0.4250000000010057399 $120 $246 forward @7 tangent #
coedge $-1 -1 $-1 $122 $121 $204 $247 forward $47 0 $-1 #
coedge $-1 -1 $-1 $248 $249 $122 $180 reversed $250 0 $-1 #
edge $-1 -1 $-1 $251 -0.4249999999995661693 $183 1.275000000001082823 $179 $252 forward @7 tangent #
coedge $-1 -1 $-1 $253 $123 $249 $254 reversed $131 0 $-1 #
coedge $-1 -1 $-1 $123 $241 $175 $244 reversed $131 0 $-1 #
vertex $-1 -1 $-1 $254 1 $255 #
vertex $-1 -1 $-1 $244 0 $256 #
ellipse-curve $-1 -1 $-1 8.500000000005185186 -1.000000000012968515 5 1 7.031540101135221181e-13 0 4.710277376051325352e-15 2.121320343559643273 -2.121320343559643273 1 I I #
coedge $-1 -1 $-1 $125 $153 $129 $190 forward $59 0 $-1 #
ellipse-curve $-1 -1 $-1 7.499999999994617639 2.999999999986977972 8 0 0 1 0.7071067811862995489 0.7071067811867957076 0 1 I I #
point $-1 -1 $-1 7.499999999994617639 3.999999999986977528 8 #
coedge $-1 -1 $-1 $257 $129 $258 $259 forward $131 0 $-1 #
edge $-1 -1 $-1 $260 -0.6249999999990505373 $132 0.2750000000008079315 $129 $261 forward @7 unknown #
coedge $-1 -1 $-1 $130 $262 $263 $264 forward $131 0 $-1 #
point $-1 -1 $-1 8.499999999994617639 2.999999999987681409 8 #
coedge $-1 -1 $-1 $263 $265 $134 $194 reversed $266 0 $-1 #
edge $-1 -1 $-1 $195 0 $232 1.570796326794897668 $193 $267 forward @7 unknown #
vertex $-1 -1 $-1 $264 1 $268 #
straight-curve $-1 -1 $-1 8.500000000005163869 -12.00000000001012168 2 -7.031540101135220777e-12 10 0 I I #
ATTRIB_CUSTOM-attrib $-1 -1 $269 $-1 $138 @17 sketch_attrib_def 1 1 3 @13 106 0 1 0 2 3 #
coedge $-1 -1 $-1 $270 $138 $271 $272 forward $14 0 $-1 #
coedge $273 -1 $-1 $274 $275 $138 $200 reversed $276 0 $-1 #
edge $-1 -1 $-1 $202 0.5000000000008305578 $277 2.899999999999247624 $138 $278 forward @7 unknown #
coedge $279 -1 $-1 $139 $163 $274 $280 forward $164 0 $-1 #
vertex $-1 -1 $-1 $280 1 $281 #
straight-curve $-1 -1 $-1 -8.500000000031329606 11.99999999997864464 0 0 0 10 I I #
coedge $-1 -1 $-1 $141 $270 $178 $247 reversed $14 0 $-1 #
edge $-1 -1 $-1 $245 0.2999999999999999889 $208 0.4999999999999999445 $141 $282 forward @7 unknown #
coedge $-1 -1 $-1 $174 $142 $243 $283 forward $118 0 $-1 #
coedge $-1 -1 $-1 $142 $174 $144 $211 forward $118 0 $-1 #
vertex $-1 -1 $-1 $283 0 $284 #
ellipse-curve $-1 -1 $-1 -8.500000000009013235 4.999999999987067234 7 1 -4.785444071661399414e-15 0 -4.710277376051325352e-15 -2.121320343559643273 2.121320343559643273 1 I I #
coedge $-1 -1 $-1 $285 $144 $257 $286 forward $146 0 $-1 #
edge $-1 -1 $-1 $287 -1.275000000003188472 $147 0.4250000000009849233 $144 $288 forward @7 tangent #
coedge $-1 -1 $-1 $145 $285 $289 $290 forward $146 0 $-1 #
face $291 -1 $-1 $101 $146 $6 $-1 $292 forward single #
point $-1 -1 $-1 -8.500000000023245406 4.999999999987067234 10 #
coedge $-1 -1 $-1 $289 $154 $149 $216 forward $225 0 $-1 #
edge $-1 -1 $-1 $156 0 $217 0.1999999999999999556 $215 $293 forward @7 tangent #
vertex $-1 -1 $-1 $216 1 $294 #
ellipse-curve $-1 -1 $-1 -3.500000000022956748 11.99999999997864464 10 0 0 1 4.440892098500626162e-15 5.000000000008373746 0 1 I I #
DXID-attrib $-1 -1 $-1 $-1 $151 @10 ASM ENTITY @1 8 #
face $295 -1 $-1 $296 $225 $6 $-1 $297 forward single #
cone-surface $-1 -1 $-1 -3.500000000022956748 11.99999999997864464 8 0 0 1 4.440892098500626162e-15 5.000000000008373746 0 1 I I 0 1 5.000000000008373746 forward I I I I #
coedge $-1 -1 $-1 $298 $258 $153 $223 reversed $299 0 $-1 #
edge $-1 -1 $-1 $226 -1.570796326794897668 $260 0 $222 $300 forward @7 unknown #
coedge $-1 -1 $-1 $154 $289 $298 $301 reversed $225 0 $-1 #
loop $-1 -1 $-1 $-1 $154 $220 #
vertex $-1 -1 $-1 $223 0 $302 #
straight-curve $-1 -1 $-1 1.750000000001588951 16.99999999998701838 8 10 0 0 I I #
point $-1 -1 $-1 -3.500000000022952307 16.99999999998701838 8 #
coedge $-1 -1 $-1 $303 $161 $265 $304 reversed $231 0 $-1 #
coedge $-1 -1 $-1 $161 $303 $163 $234 forward $231 0 $-1 #
loop $-1 -1 $-1 $-1 $303 $237 #
vertex $-1 -1 $-1 $304 1 $305 #
straight-curve $-1 -1 $-1 -3.500000000022952307 16.99999999998701838 2 -10 -0 -0 I I #
edge $-1 -1 $-1 $306 0 $165 0.2000000000000000111 $230 $307 forward @7 tangent #
point $-1 -1 $-1 -3.500000000022952307 16.99999999998702194 2 #
DXID-attrib $-1 -1 $-1 $-1 $169 @10 ASM ENTITY @2 15 #
face $308 -1 $-1 $309 $231 $6 $-1 $310 forward single #
cone-surface $-1 -1 $-1 -3.500000000022956748 11.99999999997864464 0 0 0 1 4.440892098500626162e-15 5.000000000008373746 0 1 I I 0 1 5.000000000008373746 forward I I I I #
loop $-1 -1 $-1 $-1 $311 $114 #
coedge $-1 -1 $-1 $240 $240 $312 $313 reversed $170 0 $-1 #
coedge $-1 -1 $-1 $182 $257 $174 $242 reversed $131 0 $-1 #
edge $-1 -1 $-1 $314 -0.785398163397448279 $287 0.785398163397448279 $241 $315 forward @7 unknown #
coedge $-1 -1 $-1 $176 $175 $206 $283 reversed $77 0 $-1 #
edge $-1 -1 $-1 $184 0.2999999999999999889 $314 0.4999999999999999445 $175 $316 forward @7 unknown #
vertex $-1 -1 $-1 $205 0 $317 #
straight-curve $-1 -1 $-1 -4.250000000013392842 1.999999999987057908 5 -10 2.040851148202233773e-14 0 F -2.205001000003805167 F 1.355001000001005096 #
edge $-1 -1 $-1 $245 -0.785398163397448279 $251 0.7853981633974478349 $178 $318 forward @7 unknown #
coedge $-1 -1 $-1 $319 $179 $270 $320 forward $250 0 $-1 #
coedge $-1 -1 $-1 $179 $321 $181 $254 forward $250 0 $-1 #
loop $-1 -1 $-1 $322 $179 $323 #
vertex $-1 -1 $-1 $320 0 $324 #
straight-curve $-1 -1 $-1 -4.25000000001339906 -1.000000000012942536 2 10 -2.040851148202233773e-14 0 F -1.355001000001005096 F 2.205001000003805167 #
coedge $-1 -1 $-1 $262 $181 $325 $326 reversed $131 0 $-1 #
edge $-1 -1 $-1 $327 2.341973315656627537e-28 $183 1.099999999999715428 $181 $196 forward @7 unknown #
point $-1 -1 $-1 8.499999999997429612 -1.000000000012968293 2 #
point $-1 -1 $-1 8.50000000002465228 1.999999999987031929 5 #
coedge $-1 -1 $-1 $241 $189 $210 $286 reversed $131 0 $-1 #
coedge $-1 -1 $-1 $222 $328 $189 $259 reversed $299 0 $-1 #
edge $-1 -1 $-1 $260 0 $329 0.1999999999999999556 $189 $330 forward @7 tangent #
vertex $-1 -1 $-1 $190 0 $331 #
straight-curve $-1 -1 $-1 8.500000000016946444 5.749999999995760724 8 2.054689751673934891e-11 -10 0 I I #
coedge $332 -1 $-1 $191 $253 $333 $334 forward $131 0 $-1 #
coedge $-1 -1 $-1 $335 $193 $191 $264 reversed $266 0 $-1 #
edge $-1 -1 $-1 $336 0 $195 0.2000000000000000111 $191 $337 forward @7 tangent #
coedge $-1 -1 $-1 $193 $335 $229 $304 forward $266 0 $-1 #
loop $-1 -1 $-1 $-1 $335 $309 #
ellipse-curve $-1 -1 $-1 3.500000000006520118 11.99999999998626876 2 0 0 1 4.999999999997585043 -2.220446049250313081e-15 0 1 I I #
point $-1 -1 $-1 8.500000000004103384 11.99999999998626521 2 #
ATTRIB_CUSTOM-attrib $-1 -1 $338 $197 $138 @17 sketch_attrib_def 1 1 3 @13 127 0 1 0 1 1 #
coedge $-1 -1 $-1 $204 $198 $248 $320 reversed $14 0 $-1 #
coedge $-1 -1 $-1 $339 $340 $198 $272 reversed $341 0 $-1 #
edge $-1 -1 $-1 $277 0 $342 0.2000000000000000111 $198 $343 forward @7 tangent #
ATTRIB_CUSTOM-attrib $-1 -1 $344 $-1 $199 @17 sketch_attrib_def 1 1 3 @13 106 0 0 0 3 3 #
coedge $345 -1 $-1 $346 $199 $201 $280 reversed $276 0 $-1 #
coedge $347 -1 $-1 $199 $348 $339 $349 reversed $276 0 $-1 #
loop $-1 -1 $-1 $-1 $199 $350 #
vertex $-1 -1 $-1 $200 1 $351 #
straight-curve $-1 -1 $-1 -8.500000000008974155 16.99999999998695088 0 -4.785444071661399571e-14 -10 0 F 0.5000000000008305578 F 2.899999999999247624 #
ATTRIB_CUSTOM-attrib $-1 -1 $-1 $-1 $201 @17 sketch_attrib_def 1 1 3 @13 173 0 0 0 1 1 #
edge $-1 -1 $-1 $306 0 $202 1.570796326794897446 $201 $352 forward @7 unknown #
point $-1 -1 $-1 -8.500000000031329606 11.99999999997864464 0 #
straight-curve $-1 -1 $-1 -8.500000000023449687 1.999999999987066568 2 0 0 10 I I #
edge $-1 -1 $-1 $208 -0.4250000000010048518 $314 1.275000000003805312 $243 $353 forward @7 tangent #
point $-1 -1 $-1 -8.500000000023449687 1.999999999987066568 7 #
coedge $-1 -1 $-1 $212 $210 $328 $354 forward $146 0 $-1 #
edge $-1 -1 $-1 $287 -0.07500000000087286844 $329 0.6249999999990505373 $257 $355 forward @7 unknown #
vertex $-1 -1 $-1 $286 0 $356 #
straight-curve $-1 -1 $-1 -4.250000000013395507 4.999999999987058352 10 -10 2.040851148202233773e-14 0 F -2.205001000003804723 F 1.35500100000100554 #
coedge $-1 -1 $-1 $224 $215 $212 $290 reversed $225 0 $-1 #
edge $-1 -1 $-1 $357 -0.1750000000004928447 $217 0.5250000000024541702 $289 $358 forward @7 unknown #
DXID-attrib $-1 -1 $-1 $-1 $213 @10 ASM ENTITY @2 11 #
plane-surface $-1 -1 $-1 -3.338995746560158295e-12 9.49999999998702549 10 0 0 1 10 0 0 forward_v I I I I #
straight-curve $-1 -1 $-1 -3.500000000022952307 16.99999999998701838 8 0 0 10 I I #
point $-1 -1 $-1 -3.500000000022951419 16.99999999998701838 10 #
DXID-attrib $-1 -1 $-1 $-1 $220 @10 ASM ENTITY @1 9 #
face $359 -1 $-1 $213 $299 $6 $-1 $360 forward single #
plane-surface $-1 -1 $-1 3.500000000006517453 16.99999999998701838 8 0 1 0 -10 -0 -0 forward_v I I I I #
coedge $-1 -1 $-1 $328 $222 $224 $301 forward $299 0 $-1 #
loop $-1 -1 $-1 $-1 $222 $296 #
ellipse-curve $-1 -1 $-1 3.500000000006520118 11.99999999998626876 8 -0 -0 -1 4.999999999997585043 -2.220446049250313081e-15 0 1 I I #
edge $-1 -1 $-1 $226 0 $357 0.1999999999999999556 $298 $361 forward @7 tangent #
point $-1 -1 $-1 3.500000000006517453 16.99999999998385647 8 #
coedge $362 -1 $-1 $230 $229 $346 $363 reversed $231 0 $-1 #
edge $-1 -1 $-1 $364 0 $232 0.2000000000000000111 $265 $365 forward @7 tangent #
point $-1 -1 $-1 3.500000000006517897 16.99999999998385647 2 #
vertex $-1 -1 $-1 $363 0 $366 #
straight-curve $-1 -1 $-1 -3.500000000022952307 16.99999999998701838 0 0 0 10 I I #
DXID-attrib $-1 -1 $-1 $-1 $237 @10 ASM ENTITY @2 16 #
face $367 -1 $-1 $368 $266 $6 $-1 $369 forward single #
plane-surface $-1 -1 $-1 3.500000000006516565 16.99999999998701838 0 0 1 0 -10 -0 -0 forward_v I I I I #
coedge $370 -1 $-1 $311 $311 $371 $372 forward $239 0 $-1 #
coedge $-1 -1 $-1 $312 $312 $240 $313 forward $322 0 $-1 #
edge $-1 -1 $-1 $373 -3.141592653589793116 $373 3.141592653589793116 $240 $374 forward @7 unknown #
vertex $-1 -1 $-1 $283 1 $375 #
ellipse-curve $-1 -1 $-1 8.500000000005199396 4.999999999987031707 7 -1 -7.031540101135221181e-13 0 -4.710277376051325352e-15 -2.121320343559643273 2.121320343559643273 1 I I #
straight-curve $-1 -1 $-1 8.50000000002465228 1.999999999987031929 2 0 0 10 I I #
point $-1 -1 $-1 -8.500000000023449687 1.999999999987066568 5 #
ellipse-curve $-1 -1 $-1 -8.500000000009023893 -1.000000000012933876 5 -1 4.785444071661399414e-15 0 4.710277376051325352e-15 2.121320343559643273 -2.121320343559643273 1 I I #
coedge $-1 -1 $-1 $376 $248 $340 $377 forward $250 0 $-1 #
edge $-1 -1 $-1 $251 1.799999999999988498 $342 2.899999999999247624 $270 $112 forward @7 unknown #
coedge $-1 -1 $-1 $249 $376 $378 $379 forward $250 0 $-1 #
loop $-1 -1 $-1 $-1 $312 $323 #
face $380 -1 $-1 $350 $250 $6 $-1 $115 forward single #
point $-1 -1 $-1 -8.50000000000905942 -1.000000000012932766 2 #
coedge $-1 -1 $-1 $378 $381 $253 $326 forward $382 0 $-1 #
edge $-1 -1 $-1 $383 0 $327 0.2000000000000000111 $325 $384 forward @7 tangent #
vertex $-1 -1 $-1 $326 1 $385 #
coedge $-1 -1 $-1 $258 $298 $285 $354 reversed $299 0 $-1 #
vertex $-1 -1 $-1 $259 1 $386 #
straight-curve $-1 -1 $-1 8.500000000004105161 11.99999999998626521 8 0 0 10 I I #
point $-1 -1 $-1 8.500000000004105161 11.99999999998626521 8 #
ATTRIB_CUSTOM-attrib $-1 -1 $387 $-1 $262 @17 sketch_attrib_def 1 1 3 @13 108 0 1 0 2 3 #
coedge $388 -1 $-1 $389 $390 $262 $334 reversed $276 0 $-1 #
edge $-1 -1 $-1 $383 2.341973315656627537e-28 $336 2.399999999999638867 $262 $391 forward @7 unknown #
coedge $392 -1 $-1 $265 $263 $390 $393 forward $266 0 $-1 #
vertex $-1 -1 $-1 $334 1 $394 #
straight-curve $-1 -1 $-1 8.500000000004105161 11.99999999998626521 0 0 0 10 I I #
ATTRIB_CUSTOM-attrib $-1 -1 $-1 $269 $138 @17 sketch_attrib_def 1 1 3 @13 106 0 0 0 3 3 #
coedge $395 -1 $-1 $396 $271 $275 $349 forward $341 0 $-1 #
coedge $-1 -1 $-1 $271 $396 $319 $377 reversed $341 0 $-1 #
loop $-1 -1 $-1 $-1 $339 $397 #
vertex $-1 -1 $-1 $272 1 $398 #
straight-curve $-1 -1 $-1 -8.500000000009112711 -12.00000000000552447 0 0 0 10 I I #
ATTRIB_CUSTOM-attrib $-1 -1 $399 $273 $199 @17 sketch_attrib_def 1 1 3 @13 127 0 1 0 1 1 #
ATTRIB_CUSTOM-attrib $-1 -1 $-1 $-1 $274 @17 sketch_attrib_def 1 1 3 @13 173 0 0 0 1 1 #
coedge $400 -1 $-1 $390 $274 $303 $363 forward $276 0 $-1 #
ATTRIB_CUSTOM-attrib $-1 -1 $-1 $-1 $275 @17 sketch_attrib_def 1 1 3 @13 185 0 0 0 1 1 #
coedge $401 -1 $-1 $275 $389 $402 $403 reversed $276 0 $-1 #
edge $-1 -1 $-1 $277 0 $404 1.570796326796699116 $339 $405 forward @7 unknown #
face $406 -1 $-1 $-1 $407 $6 $-1 $408 reversed single #
point $-1 -1 $-1 -8.500000000009112711 -12.00000000000552447 0 #
ellipse-curve $-1 -1 $-1 -3.500000000022956748 11.99999999997864464 0 0 0 1 4.440892098500626162e-15 5.000000000008373746 0 1 F 0 F 1.570796326794897446 #
straight-curve $-1 -1 $-1 -4.250000000013401724 1.999999999987057686 7 10 -2.040851148202233773e-14 0 F -1.35500100000100554 F 2.205001000003804723 #
edge $-1 -1 $-1 $329 -0 $357 1.570796326794897668 $328 $409 forward @7 unknown #
straight-curve $-1 -1 $-1 8.500000000016946444 5.749999999995760724 10 -2.054689751673934891e-11 10 0 I I #
point $-1 -1 $-1 8.500000000018488322 4.999999999987031707 10 #
vertex $-1 -1 $-1 $301 1 $410 #
straight-curve $-1 -1 $-1 1.750000000001588951 16.99999999998701838 10 -10 -0 -0 I I #
DXID-attrib $-1 -1 $-1 $-1 $296 @10 ASM ENTITY @2 10 #
cone-surface $-1 -1 $-1 3.500000000006520118 11.99999999998626876 8 0 0 1 4.999999999997585043 -2.220446049250313081e-15 0 1 I I 0 1 4.999999999997585043 forward I I I I #
straight-curve $-1 -1 $-1 3.500000000006517453 16.99999999998385647 8 0 0 10 I I #
ATTRIB_CUSTOM-attrib $-1 -1 $411 $-1 $303 @17 sketch_attrib_def 1 1 3 @13 124 0 1 0 1 1 #
edge $-1 -1 $-1 $306 0 $364 0.7000000000029469316 $303 $412 forward @7 unknown #
vertex $-1 -1 $-1 $393 1 $413 #
straight-curve $-1 -1 $-1 3.500000000006517453 16.99999999998385647 0 0 0 10 I I #
point $-1 -1 $-1 -3.500000000022952307 16.99999999998701838 0 #
DXID-attrib $-1 -1 $-1 $-1 $309 @10 ASM ENTITY @2 17 #
face $414 -1 $-1 $415 $382 $6 $-1 $416 forward single #
cone-surface $-1 -1 $-1 3.500000000006520118 11.99999999998626876 0 0 0 1 4.999999999997585043 -2.220446049250313081e-15 0 1 I I 0 1 4.999999999997585043 forward I I I I #
ATTRIB_CUSTOM-attrib $-1 -1 $-1 $-1 $311 @17 sketch_attrib_def 1 1 3 @22 137 0 4294967295 0 1 1 #
coedge $417 -1 $-1 $371 $371 $311 $372 reversed $407 0 $-1 #
edge $-1 -1 $-1 $418 -3.141592653589793116 $418 3.141592653589793116 $311 $419 forward @7 unknown #
vertex $-1 -1 $-1 $313 2 $420 #
ellipse-curve $-1 -1 $-1 4.382922321377543249e-12 -8.500000000012967405 2 -0 -0 -1 2.700000000000000178 0 0 1 I I #
point $-1 -1 $-1 8.50000000002465228 1.999999999987031929 7 #
coedge $-1 -1 $-1 $321 $319 $421 $422 forward $250 0 $-1 #
edge $-1 -1 $-1 $342 0 $423 1.570796326796699116 $340 $424 forward @7 unknown #
coedge $-1 -1 $-1 $425 $325 $321 $379 reversed $382 0 $-1 #
edge $-1 -1 $-1 $426 0 $327 1.570796326795273368 $378 $427 forward @7 unknown #
DXID-attrib $-1 -1 $-1 $-1 $323 @10 ASM ENTITY @2 21 #
coedge $428 -1 $-1 $325 $425 $389 $429 forward $382 0 $-1 #
loop $-1 -1 $-1 $-1 $381 $368 #
vertex $-1 -1 $-1 $429 1 $430 #
straight-curve $-1 -1 $-1 8.500000000005162093 -12.00000000001012168 0 0 0 10 I I #
point $-1 -1 $-1 8.500000000005162093 -12.00000000001012168 2 #
point $-1 -1 $-1 8.500000000004105161 11.99999999998626521 10 #
ATTRIB_CUSTOM-attrib $-1 -1 $431 $332 $262 @17 sketch_attrib_def 1 1 3 @13 125 0 1 0 1 1 #
ATTRIB_CUSTOM-attrib $-1 -1 $432 $-1 $333 @17 sketch_attrib_def 1 1 3 @13 108 0 0 0 1 3 #
coedge $433 -1 $-1 $348 $333 $381 $429 reversed $276 0 $-1 #
coedge $434 -1 $-1 $333 $346 $335 $393 reversed $276 0 $-1 #
straight-curve $-1 -1 $-1 8.500000000005163869 -12.00000000001012168 0 -7.031540101135220777e-12 10 0 F 2.341973315656627537e-28 F 2.399999999999638867 #
ATTRIB_CUSTOM-attrib $-1 -1 $-1 $-1 $335 @17 sketch_attrib_def 1 1 3 @13 177 0 0 0 1 1 #
edge $-1 -1 $-1 $336 0 $364 1.570796326794897668 $335 $435 forward @7 unknown #
point $-1 -1 $-1 8.500000000004105161 11.99999999998626521 0 #
ATTRIB_CUSTOM-attrib $-1 -1 $-1 $-1 $339 @17 sketch_attrib_def 1 1 3 @13 185 0 0 0 1 1 #
coedge $-1 -1 $-1 $340 $339 $436 $437 forward $341 0 $-1 #
face $438 -1 $-1 $323 $341 $6 $-1 $439 forward single #
point $-1 -1 $-1 -8.500000000009112711 -12.00000000000552447 2 #
ATTRIB_CUSTOM-attrib $-1 -1 $-1 $344 $199 @17 sketch_attrib_def 1 1 3 @13 106 0 1 0 2 3 #
ATTRIB_CUSTOM-attrib $-1 -1 $440 $-1 $346 @17 sketch_attrib_def 1 1 3 @13 105 0 1 0 2 3 #
ATTRIB_CUSTOM-attrib $-1 -1 $-1 $-1 $348 @17 sketch_attrib_def 1 1 3 @13 107 0 0 0 1 1 #
coedge $441 -1 $-1 $442 $436 $348 $403 forward $443 0 $-1 #
edge $-1 -1 $-1 $404 0 $444 0.7000000000004764633 $402 $445 forward @7 unknown #
vertex $-1 -1 $-1 $349 1 $446 #
ellipse-curve $-1 -1 $-1 -3.500000000003224088 -12.00000000001185718 0 0 0 1 -5.000000000005888623 6.332712132461892907e-12 0 1 F 0 F 1.570796326796699116 #
DXID-attrib $-1 -1 $-1 $-1 $350 @10 ASM ENTITY @2 22 #
loop $-1 -1 $-1 $276 $371 $350 #
plane-surface $-1 -1 $-1 -3.338440635047845717e-12 -1.536326621476291621e-11 0 0 0 1 10 0 0 forward_v I I I I #
ellipse-curve $-1 -1 $-1 3.500000000006520118 11.99999999998626876 10 0 0 1 4.999999999997585043 -2.220446049250313081e-15 0 1 I I #
point $-1 -1 $-1 3.500000000006517897 16.99999999998385647 10 #
ATTRIB_CUSTOM-attrib $-1 -1 $-1 $362 $303 @17 sketch_attrib_def 1 1 3 @13 105 0 1 0 2 3 #
straight-curve $-1 -1 $-1 -3.500000000022952307 16.99999999998701838 0 10 0 0 F 0 F 0.7000000000029469316 #
point $-1 -1 $-1 3.500000000006517453 16.99999999998385647 0 #
DXID-attrib $-1 -1 $-1 $-1 $368 @10 ASM ENTITY @2 18 #
face $447 -1 $-1 $397 $443 $6 $-1 $448 forward single #
cone-surface $-1 -1 $-1 3.500000000004208633 -12.00000000001201883 0 0 0 1 1.221245327087672194e-14 -5.000000000000952127 0 1 I I 0 1 5.000000000000952127 forward I I I I #
ATTRIB_CUSTOM-attrib $-1 -1 $-1 $-1 $371 @17 sketch_attrib_def 1 1 3 @22 137 0 4294967295 0 1 1 #
vertex $-1 -1 $-1 $372 0 $449 #
ellipse-curve $-1 -1 $-1 4.382922321377543249e-12 -8.500000000012967405 0 -0 -0 -1 2.700000000000000178 0 0 1 I I #
point $-1 -1 $-1 -2.699999999995617017 -8.500000000012967405 2 #
coedge $-1 -1 $-1 $436 $442 $376 $422 reversed $443 0 $-1 #
edge $-1 -1 $-1 $423 0 $426 0.7000000000004764633 $421 $450 forward @7 unknown #
vertex $-1 -1 $-1 $437 1 $451 #
ellipse-curve $-1 -1 $-1 -3.500000000003224088 -12.00000000001185718 2 0 0 1 -5.000000000005888623 6.332712132461892907e-12 0 1 I I #
coedge $-1 -1 $-1 $381 $378 $442 $452 reversed $382 0 $-1 #
vertex $-1 -1 $-1 $452 1 $453 #
ellipse-curve $-1 -1 $-1 3.500000000004208633 -12.00000000001201883 2 0 0 1 1.221245327087672194e-14 -5.000000000000952127 0 1 I I #
ATTRIB_CUSTOM-attrib $-1 -1 $-1 $-1 $381 @17 sketch_attrib_def 1 1 3 @13 181 0 0 0 1 1 #
edge $-1 -1 $-1 $444 0 $383 1.570796326795273368 $381 $454 forward @7 unknown #
point $-1 -1 $-1 8.500000000005162093 -12.00000000001012168 0 #
ATTRIB_CUSTOM-attrib $-1 -1 $-1 $387 $262 @17 sketch_attrib_def 1 1 3 @13 108 0 0 0 1 3 #
ATTRIB_CUSTOM-attrib $-1 -1 $455 $388 $333 @17 sketch_attrib_def 1 1 3 @13 125 0 1 0 1 1 #
ATTRIB_CUSTOM-attrib $-1 -1 $-1 $-1 $389 @17 sketch_attrib_def 1 1 3 @13 181 0 0 0 1 1 #
ATTRIB_CUSTOM-attrib $-1 -1 $-1 $-1 $390 @17 sketch_attrib_def 1 1 3 @13 177 0 0 0 1 1 #
ellipse-curve $-1 -1 $-1 3.500000000006520118 11.99999999998626876 0 0 0 1 4.999999999997585043 -2.220446049250313081e-15 0 1 F 0 F 1.570796326794897668 #
coedge $-1 -1 $-1 $402 $421 $396 $437 reversed $443 0 $-1 #
edge $-1 -1 $-1 $404 0 $423 0.2000000000000000111 $396 $456 forward @7 tangent #
DXID-attrib $-1 -1 $-1 $-1 $397 @10 ASM ENTITY @2 20 #
cone-surface $-1 -1 $-1 -3.500000000003224088 -12.00000000001185718 0 0 0 1 -5.000000000005888623 6.332712132461892907e-12 0 1 I I 0 1 5.000000000005888623 forward I I I I #
ATTRIB_CUSTOM-attrib $-1 -1 $-1 $400 $346 @17 sketch_attrib_def 1 1 3 @13 124 0 1 0 1 1 #
ATTRIB_CUSTOM-attrib $-1 -1 $-1 $-1 $402 @17 sketch_attrib_def 1 1 3 @13 107 0 0 0 1 1 #
coedge $-1 -1 $-1 $421 $402 $425 $452 forward $443 0 $-1 #
loop $-1 -1 $-1 $-1 $402 $415 #
vertex $-1 -1 $-1 $403 1 $457 #
straight-curve $-1 -1 $-1 -3.500000000000543121 -17.00000000001297096 0 10 0 0 F 0 F 0.7000000000004764633 #
point $-1 -1 $-1 -3.500000000000544453 -17.0000000000177458 0 #
DXID-attrib $-1 -1 $-1 $-1 $415 @10 ASM ENTITY @2 19 #
plane-surface $-1 -1 $-1 -3.500000000000543121 -17.00000000001297096 0 0 -1 0 10 0 0 forward_v I I I I #
point $-1 -1 $-1 -2.699999999995617017 -8.500000000012967405 0 #
straight-curve $-1 -1 $-1 -3.500000000000543121 -17.00000000001297096 2 10 0 0 I I #
point $-1 -1 $-1 -3.500000000000544453 -17.0000000000177458 2 #
edge $-1 -1 $-1 $444 0 $426 0.2000000000000000111 $442 $458 forward @7 tangent #
point $-1 -1 $-1 3.500000000004220624 -17.00000000001297096 2 #
ellipse-curve $-1 -1 $-1 3.500000000004208633 -12.00000000001201883 0 0 0 1 1.221245327087672194e-14 -5.000000000000952127 0 1 F 0 F 1.570796326795273368 #
ATTRIB_CUSTOM-attrib $-1 -1 $-1 $432 $333 @17 sketch_attrib_def 1 1 3 @13 108 0 1 0 2 3 #
straight-curve $-1 -1 $-1 -3.500000000000544453 -17.0000000000177458 0 0 0 10 I I #
point $-1 -1 $-1 3.500000000004220624 -17.00000000001297096 0 #
straight-curve $-1 -1 $-1 3.500000000004220624 -17.00000000001297096 0 0 0 10 I I #
End-of-ASM-data 