0
SECTION
2
HEADER
9
$INSUNITS
70
4
9
$ACADVER
1
AC1014
9
$HANDSEED
5
FFFF
0
ENDSEC
0
SECTION
2
TABLES
0
TABLE
2
VPORT
5
8
100
AcDbSymbolTable
0
ENDTAB
0
TABLE
2
LTYPE
5
5
100
AcDbSymbolTable
0
LTYPE
5
14
100
AcDbSymbolTableRecord
100
AcDbLinetypeTableRecord
2
BYBLOCK
70
0
0
LTYPE
5
15
100
AcDbSymbolTableRecord
100
AcDbLinetypeTableRecord
2
BYLAYER
70
0
0
ENDTAB
0
TABLE
2
LAYER
5
2
100
AcDbSymbolTable
70
2
0
LAYER
5
50
100
AcDbSymbolTableRecord
100
AcDbLayerTableRecord
2
0
70
0
6
CONTINUOUS
0
ENDTAB
0
TABLE
2
STYLE
5
3
100
AcDbSymbolTable
70
1
0
STYLE
5
11
100
AcDbSymbolTableRecord
100
AcDbTextStyleTableRecord
2
STANDARD
70
0
0
ENDTAB
0
TABLE
2
VIEW
5
6
100
AcDbSymbolTable
70
0
0
ENDTAB
0
TABLE
2
UCS
5
7
100
AcDbSymbolTable
70
0
0
ENDTAB
0
TABLE
2
APPID
5
9
100
AcDbSymbolTable
70
2
0
APPID
5
12
100
AcDbSymbolTableRecord
100
AcDbRegAppTableRecord
2
ACAD
70
0
0
ENDTAB
0
TABLE
2
DIMSTYLE
5
A
100
AcDbSymbolTable
70
1
0
ENDTAB
0
TABLE
2
BLOCK_RECORD
5
1
100
AcDbSymbolTable
70
1
0
BLOCK_RECORD
5
1F
100
AcDbSymbolTableRecord
100
AcDbBlockTableRecord
2
*MODEL_SPACE
0
BLOCK_RECORD
5
1B
100
AcDbSymbolTableRecord
100
AcDbBlockTableRecord
2
*PAPER_SPACE
0
ENDTAB
0
ENDSEC
0
SECTION
2
BLOCKS
0
BLOCK
5
20
100
AcDbEntity
100
AcDbBlockBegin
2
*MODEL_SPACE
0
ENDBLK
5
21
100
AcDbEntity
100
AcDbBlockEnd
0
BLOCK
5
1C
100
AcDbEntity
100
AcDbBlockBegin
2
*PAPER_SPACE
0
ENDBLK
5
1D
100
AcDbEntity
100
AcDbBlockEnd
0
ENDSEC
0
SECTION
2
ENTITIES
0
LWPOLYLINE
5
100
100
AcDbEntity
8
0
100
AcDbPolyline
90
8
70
1
43
0.0
10
55.900000000000006
20
-3.2549999999999999
10
55.900000000000006
20
3.2549999999999999
10
55.900000000000006
20
24.254999999999999
10
-55.900000000000006
20
24.254999999999999
10
-55.900000000000006
20
2.7550000000000008
10
-55.900000000000006
20
-2.7550000000000003
10
-55.900000000000006
20
-24.254999999999999
10
55.900000000000006
20
-24.254999999999999
0
LWPOLYLINE
5
101
100
AcDbEntity
8
0
100
AcDbPolyline
90
4
70
1
43
0.0
10
55.89372621781515
20
24.269453938807896
10
-55.900000000000006
20
24.254999999999999
10
-55.893726217815136
20
-24.269453938807899
10
55.900000000000006
20
-24.254999999999999
0
LINE
5
102
100
AcDbEntity
8
0
100
AcDbLine
10
16.649886293143634
20
0.86643935665595695
30
0
11
15.864173103909922
21
0.8663377708984914
31
0
0
LINE
5
103
100
AcDbEntity
8
0
100
AcDbLine
10
15.86417310390992
20
0.86633777089848873
30
0
11
15.864081676666547
21
1.5734801180459836
31
0
0
SPLINE
5
104
100
AcDbEntity
8
0
100
AcDbSpline
70
0
71
2
72
6
73
3
74
0
42
0.000000001
43
0.0000000001
44
0.0000000001
40
0
40
0
40
0
40
1
40
1
40
1
10
15.864081676666553
20
1.5734801180459845
30
0
10
15.842651691426699
20
1.5806203680282493
30
0
10
15.821221706186854
20
1.587760618010523
30
0
0
SPLINE
5
105
100
AcDbEntity
8
0
100
AcDbSpline
70
0
71
2
72
6
73
3
74
0
42
0.000000001
43
0.0000000001
44
0.0000000001
40
0
40
0
40
0
40
1
40
1
40
1
10
15.821221706186854
20
1.587760618010523
30
0
10
15.656927766459452
20
1.6591671989690582
30
0
10
15.464064514730982
20
1.7091434082856116
30
0
0
SPLINE
5
106
100
AcDbEntity
8
0
100
AcDbSpline
70
0
71
2
72
6
73
3
74
0
42
0.000000001
43
0.0000000001
44
0.0000000001
40
0
40
0
40
0
40
1
40
1
40
1
10
15.464064514730982
20
1.7091434082856116
30
0
10
15.26405916626989
20
1.751973289316906
30
0
10
15.042630296965829
20
1.7519446605249733
30
0
0
SPLINE
5
107
100
AcDbEntity
8
0
100
AcDbSpline
70
0
71
2
72
6
73
3
74
0
42
0.000000001
43
0.0000000001
44
0.0000000001
40
0
40
0
40
0
40
1
40
1
40
1
10
15.042630296965829
20
1.7519446605249733
30
0
10
14.642630681778792
20
1.7518929441169329
30
0
10
14.421222129502933
20
1.594722631152572
30
0
0
SPLINE
5
108
100
AcDbEntity
8
0
100
AcDbSpline
70
0
71
2
72
6
73
3
74
0
42
0.000000001
43
0.0000000001
44
0.0000000001
40
0
40
0
40
0
40
1
40
1
40
1
10
14.421222129502933
20
1.594722631152572
30
0
10
14.199814501064614
20
1.4304069134322539
30
0
10
14.199849594253431
20
1.1589792843226965
30
0
0
SPLINE
5
109
100
AcDbEntity
8
0
100
AcDbSpline
70
0
71
2
72
6
73
3
74
0
42
0.000000001
43
0.0000000001
44
0.0000000001
40
0
40
0
40
0
40
1
40
1
40
1
10
14.199849594253431
20
1.1589792843226965
30
0
10
14.199880993633274
20
0.91612135330809696
30
0
10
14.385614153585315
20
0.76614670085125347
30
0
0
SPLINE
5
110
100
AcDbEntity
8
0
100
AcDbSpline
70
0
71
2
72
6
73
3
74
0
42
0.000000001
43
0.0000000001
44
0.0000000001
40
0
40
0
40
0
40
1
40
1
40
1
10
14.385614153585315
20
0.76614670085125347
30
0
10
14.564204293275438
20
0.61616874067933036
30
0
10
14.835649082731379
20
0.50191788923927394
30
0
0
SPLINE
5
111
100
AcDbEntity
8
0
100
AcDbSpline
70
0
71
2
72
6
73
3
74
0
42
0.000000001
43
0.0000000001
44
0.0000000001
40
0
40
0
40
0
40
1
40
1
40
1
10
14.835649082731379
20
0.50191788923927394
30
0
10
15.099950851617141
20
0.38766611426991116
30
0
10
15.42139201669281
20
0.2734217269184791
30
0
0
SPLINE
5
112
100
AcDbEntity
8
0
100
AcDbSpline
70
0
71
2
72
6
73
3
74
0
42
0.000000001
43
0.0000000001
44
0.0000000001
40
0
40
0
40
0
40
1
40
1
40
1
10
15.42139201669281
20
0.2734217269184791
30
0
10
15.735694929261586
20
0.15917880084002078
30
0
10
16.007142338580422
20
-0.012216215777987038
30
0
0
SPLINE
5
113
100
AcDbEntity
8
0
100
AcDbSpline
70
0
71
2
72
6
73
3
74
0
42
0.000000001
43
0.0000000001
44
0.0000000001
40
0
40
0
40
0
40
1
40
1
40
1
10
16.007142338580422
20
-0.012216215777987038
30
0
10
16.271452418921672
20
-0.19075279169320503
30
0
10
16.457200355342589
20
-0.45501577327294207
30
0
0
SPLINE
5
114
100
AcDbEntity
8
0
100
AcDbSpline
70
0
71
2
72
6
73
3
74
0
42
0.000000001
43
0.0000000001
44
0.0000000001
40
0
40
0
40
0
40
1
40
1
40
1
10
16.457200355342589
20
-0.45501577327294207
30
0
10
16.635807655070842
20
-0.71927729388795658
30
0
10
16.635862142066792
20
-1.140705970785536
30
0
0
SPLINE
5
115
100
AcDbEntity
8
0
100
AcDbSpline
70
0
71
2
72
6
73
3
74
0
42
0.000000001
43
0.0000000001
44
0.0000000001
40
0
40
0
40
0
40
1
40
1
40
1
10
16.635862142066792
20
-1.140705970785536
30
0
10
16.635903699960735
20
-1.4621347438863541
30
0
10
16.51450890411294
20
-1.7264350521156491
30
0
0
SPLINE
5
116
100
AcDbEntity
8
0
100
AcDbSpline
70
0
71
2
72
6
73
3
74
0
42
0.000000001
43
0.0000000001
44
0.0000000001
40
0
40
0
40
0
40
1
40
1
40
1
10
16.51450890411294
20
-1.7264350521156491
30
0
10
16.385972011532523
20
-1.9978816886302031
30
0
10
16.164570461088942
20
-2.190767104137219
30
0
0
SPLINE
5
117
100
AcDbEntity
8
0
100
AcDbSpline
70
0
71
2
72
6
73
3
74
0
42
0.000000001
43
0.0000000001
44
0.0000000001
40
0
40
0
40
0
40
1
40
1
40
1
10
16.164570461088942
20
-2.190767104137219
30
0
10
15.936023505889416
20
-2.3836534434817924
30
0
10
15.621749221804331
20
-2.4908370025216264
30
0
0
SPLINE
5
118
100
AcDbEntity
8
0
100
AcDbSpline
70
0
71
2
72
6
73
3
74
0
42
0.000000001
43
0.0000000001
44
0.0000000001
40
0
40
0
40
0
40
1
40
1
40
1
10
15.621749221804331
20
-2.4908370025216264
30
0
10
15.307479706090765
20
-2.5980205609449492
30
0
10
14.921766132044096
20
-2.5980704302943769
30
0
0
SPLINE
5
119
100
AcDbEntity
8
0
100
AcDbSpline
70
0
71
2
72
6
73
3
74
0
42
0.000000001
43
0.0000000001
44
0.0000000001
40
0
40
0
40
0
40
1
40
1
40
1
10
14.921766132044096
20
-2.5980704302943769
30
0
10
14.486051414006154
20
-2.5981267643489359
30
0
10
14.064612578594478
20
-2.519610409258668
30
0
0
SPLINE
5
120
100
AcDbEntity
8
0
100
AcDbSpline
70
0
71
2
72
6
73
3
74
0
42
0.000000001
43
0.0000000001
44
0.0000000001
40
0
40
0
40
0
40
1
40
1
40
1
10
14.064612578594478
20
-2.519610409258668
30
0
10
13.643173743182802
20
-2.4410940541684045
30
0
10
13.393155244849497
20
-2.3054113704298951
30
0
0
LINE
5
121
100
AcDbEntity
8
0
100
AcDbLine
10
13.393155244849497
20
-2.3054113704298951
30
0
11
13.392967772716233
21
-0.85541157328400153
31
0
0
LINE
5
122
100
AcDbEntity
8
0
100
AcDbLine
10
13.392967772716231
20
-0.85541157328400175
30
0
11
14.178680961949944
21
-0.8553099875265362
31
0
0
LINE
5
123
100
AcDbEntity
8
0
100
AcDbLine
10
14.178680961949937
20
-0.85530998752653353
30
0
11
14.178783471236709
21
-1.6481661973304262
31
0
0
SPLINE
5
124
100
AcDbEntity
8
0
100
AcDbSpline
70
0
71
2
72
6
73
3
74
0
42
0.000000001
43
0.0000000001
44
0.0000000001
40
0
40
0
40
0
40
1
40
1
40
1
10
14.178783471236702
20
-1.6481661973304274
30
0
10
14.200212532947249
20
-1.6481634267425127
30
0
10
14.221642518187094
20
-1.655303676724782
30
0
0
SPLINE
5
125
100
AcDbEntity
8
0
100
AcDbSpline
70
0
71
2
72
6
73
3
74
0
42
0.000000001
43
0.0000000001
44
0.0000000001
40
0
40
0
40
0
40
1
40
1
40
1
10
14.221642518187094
20
-1.655303676724782
30
0
10
14.378789743535361
20
-1.6981414831176744
30
0
10
14.564506280268175
20
-1.7195441494970343
30
0
0
SPLINE
5
126
100
AcDbEntity
8
0
100
AcDbSpline
70
0
71
2
72
6
73
3
74
0
42
0.000000001
43
0.0000000001
44
0.0000000001
40
0
40
0
40
0
40
1
40
1
40
1
10
14.564506280268175
20
-1.7195441494970343
30
0
10
14.743080720268367
20
-1.7480931441616532
30
0
10
14.921656234522889
20
-1.7480700559290385
30
0
0
SPLINE
5
127
100
AcDbEntity
8
0
100
AcDbSpline
70
0
71
2
72
6
73
3
74
0
42
0.000000001
43
0.0000000001
44
0.0000000001
40
0
40
0
40
0
40
1
40
1
40
1
10
14.921656234522889
20
-1.7480700559290385
30
0
10
15.264511685148472
20
-1.7480257277554356
30
0
10
15.464493946301721
20
-1.6122872470895278
30
0
0
SPLINE
5
128
100
AcDbEntity
8
0
100
AcDbSpline
70
0
71
2
72
6
73
3
74
0
42
0.000000001
43
0.0000000001
44
0.0000000001
40
0
40
0
40
0
40
1
40
1
40
1
10
15.464493946301721
20
-1.6122872470895278
30
0
10
15.657333186576521
20
-1.476547305767153
30
0
10
15.657303634255282
20
-1.2479754158929079
30
0
0
SPLINE
5
129
100
AcDbEntity
8
0
100
AcDbSpline
70
0
71
2
72
6
73
3
74
0
42
0.000000001
43
0.0000000001
44
0.0000000001
40
0
40
0
40
0
40
1
40
1
40
1
10
15.657303634255282
20
-1.2479754158929079
30
0
10
15.657273158404745
20
-1.0122605054484879
30
0
10
15.478683019022874
20
-0.86228492946233803
30
0
0
SPLINE
5
130
100
AcDbEntity
8
0
100
AcDbSpline
70
0
71
2
72
6
73
3
74
0
42
0.000000001
43
0.0000000001
44
0.0000000001
40
0
40
0
40
0
40
1
40
1
40
1
10
15.478683019022874
20
-0.86228492946233803
30
0
10
15.292949858762581
20
-0.71230789281972573
30
0
10
15.028647166347513
20
-0.59091309728017904
30
0
0
SPLINE
5
131
100
AcDbEntity
8
0
100
AcDbSpline
70
0
71
2
72
6
73
3
74
0
42
0.000000001
43
0.0000000001
44
0.0000000001
40
0
40
0
40
0
40
1
40
1
40
1
10
15.028647166347513
20
-0.59091309728017904
30
0
10
14.757201453362265
20
-0.46951922526994316
30
0
10
14.44290238563573
20
-0.34813327800479854
30
0
0
SPLINE
5
132
100
AcDbEntity
8
0
100
AcDbSpline
70
0
71
2
72
6
73
3
74
0
42
0.000000001
43
0.0000000001
44
0.0000000001
40
0
40
0
40
0
40
1
40
1
40
1
10
14.44290238563573
20
-0.34813327800479854
30
0
10
14.121455528659217
20
-0.22674587069969387
30
0
10
13.857150216381253
20
-0.048206909982195789
30
0
0
SPLINE
5
133
100
AcDbEntity
8
0
100
AcDbSpline
70
0
71
2
72
6
73
3
74
0
42
0.000000001
43
0.0000000001
44
0.0000000001
40
0
40
0
40
0
40
1
40
1
40
1
10
13.857150216381253
20
-0.048206909982195789
30
0
10
13.58569803899913
20
0.12318572183353638
30
0
10
13.407093123456644
20
0.38744724275680653
30
0
0
SPLINE
5
134
100
AcDbEntity
8
0
100
AcDbSpline
70
0
71
2
72
6
73
3
74
0
42
0.000000001
43
0.0000000001
44
0.0000000001
40
0
40
0
40
0
40
1
40
1
40
1
10
13.407093123456644
20
0.38744724275680653
30
0
10
13.221345187035736
20
0.65171022433654358
30
0
10
13.221293470627691
20
1.0517098395235802
30
0
0
SPLINE
5
135
100
AcDbEntity
8
0
100
AcDbSpline
70
0
71
2
72
6
73
3
74
0
42
0.000000001
43
0.0000000001
44
0.0000000001
40
0
40
0
40
0
40
1
40
1
40
1
10
13.221293470627691
20
1.0517098395235802
30
0
10
13.221243601278267
20
1.4374234135702535
30
0
10
13.364061380533609
20
1.7302985743599297
30
0
0
SPLINE
5
136
100
AcDbEntity
8
0
100
AcDbSpline
70
0
71
2
72
6
73
3
74
0
42
0.000000001
43
0.0000000001
44
0.0000000001
40
0
40
0
40
0
40
1
40
1
40
1
10
13.364061380533609
20
1.7302985743599297
30
0
10
13.506880083010007
20
2.0160330987652042
30
0
10
13.763998196960952
20
2.2160661527971737
30
0
0
SPLINE
5
137
100
AcDbEntity
8
0
100
AcDbSpline
70
0
71
2
72
6
73
3
74
0
42
0.000000001
43
0.0000000001
44
0.0000000001
40
0
40
0
40
0
40
1
40
1
40
1
10
13.763998196960952
20
2.2160661527971737
30
0
10
14.021117234441212
20
2.4089561862589637
30
0
10
14.371103700064278
20
2.5018583211884504
30
0
0
SPLINE
5
138
100
AcDbEntity
8
0
100
AcDbSpline
70
0
71
2
72
6
73
3
74
0
42
0.000000001
43
0.0000000001
44
0.0000000001
40
0
40
0
40
0
40
1
40
1
40
1
10
14.371103700064278
20
2.5018583211884504
30
0
10
14.721094010529576
20
2.6019034773046235
30
0
10
15.128236646286792
20
2.6019561172419658
30
0
0
SPLINE
5
139
100
AcDbEntity
8
0
100
AcDbSpline
70
0
71
2
72
6
73
3
74
0
42
0.000000001
43
0.0000000001
44
0.0000000001
40
0
40
0
40
0
40
1
40
1
40
1
10
15.128236646286792
20
2.6019561172419658
30
0
10
15.399661891210581
20
2.6019912101225229
30
0
10
15.635382342830821
20
2.5591635625519782
30
0
0
SPLINE
5
140
100
AcDbEntity
8
0
100
AcDbSpline
70
0
71
2
72
6
73
3
74
0
42
0.000000001
43
0.0000000001
44
0.0000000001
40
0
40
0
40
0
40
1
40
1
40
1
10
15.635382342830821
20
2.5591635625519782
30
0
10
15.86395977357264
20
2.5163373756379004
30
0
10
16.063967892929895
20
2.4520760487102944
30
0
0
SPLINE
5
141
100
AcDbEntity
8
0
100
AcDbSpline
70
0
71
2
72
6
73
3
74
0
42
0.000000001
43
0.0000000001
44
0.0000000001
40
0
40
0
40
0
40
1
40
1
40
1
10
16.063967892929895
20
2.4520760487102944
30
0
10
16.256832991408725
20
2.3878161824391553
30
0
10
16.406843274181536
20
2.3164077547302586
30
0
0
SPLINE
5
142
100
AcDbEntity
8
0
100
AcDbSpline
70
0
71
2
72
6
73
3
74
0
42
0.000000001
43
0.0000000001
44
0.0000000001
40
0
40
0
40
0
40
1
40
1
40
1
10
16.406843274181536
20
2.3164077547302586
30
0
10
16.556851173076836
20
2.2449969425273375
30
0
10
16.649714520700289
20
2.1950101882945505
30
0
0
LINE
5
143
100
AcDbEntity
8
0
100
AcDbLine
10
16.649714520700289
20
2.1950101882945505
30
0
11
16.649886293143631
21
0.86643935665595828
31
0
0
LINE
5
144
100
AcDbEntity
8
0
100
AcDbLine
10
11.507201541124346
20
-0.45565576428478582
30
0
11
11.54291664397525
21
-0.45565114663826317
31
0
0
LINE
5
145
100
AcDbEntity
8
0
100
AcDbLine
10
11.542916643975252
20
-0.45565114663826289
30
0
11
11.499981869163161
21
0.13720209858205523
31
0
0
LINE
5
146
100
AcDbEntity
8
0
100
AcDbLine
10
11.499981869163163
20
0.13720209858205656
30
0
11
11.499676188053202
21
2.5014870710391439
31
0
0
LINE
5
147
100
AcDbEntity
8
0
100
AcDbLine
10
11.499676188053209
20
2.5014870710391479
30
0
11
12.428245020318993
21
2.5016071267661961
31
0
0
LINE
5
148
100
AcDbEntity
8
0
100
AcDbLine
10
12.428245020318993
20
2.5016071267661921
30
0
11
12.428891476035975
21
-2.4983928314433084
31
0
0
LINE
5
149
100
AcDbEntity
8
0
100
AcDbLine
10
12.428891476035968
20
-2.4983928314433124
30
0
11
11.571748081100449
21
-2.4985036524938233
31
0
0
LINE
5
150
100
AcDbEntity
8
0
100
AcDbLine
10
11.57174808110045
20
-2.498503652493822
30
0
11
9.8427847568576183
21
0.55841652161304711
31
0
0
LINE
5
151
100
AcDbEntity
8
0
100
AcDbLine
10
9.8427847568576254
20
0.55841652161304989
30
0
11
9.807069654006721
21
0.55841190396652718
31
0
0
LINE
5
152
100
AcDbEntity
8
0
100
AcDbLine
10
9.8070696540067193
20
0.55841190396652696
30
0
11
9.8714344140586565
21
-0.041581591236058354
31
0
0
LINE
5
153
100
AcDbEntity
8
0
100
AcDbLine
10
9.8714344140586618
20
-0.041581591236057314
30
0
11
9.8717521007413254
21
-2.498723446919723
31
0
0
LINE
5
154
100
AcDbEntity
8
0
100
AcDbLine
10
9.87175210074132
20
-2.4987234469197261
30
0
11
8.9431785001039934
21
-2.4988435032632825
31
0
0
LINE
5
155
100
AcDbEntity
8
0
100
AcDbLine
10
8.9431785001039898
20
-2.4988435032632816
30
0
11
8.9425320443870078
21
2.5011564549462189
31
0
0
LINE
5
156
100
AcDbEntity
8
0
100
AcDbLine
10
8.9425320443870149
20
2.5011564549462229
30
0
11
9.7996754393225345
21
2.5012672759967334
31
0
0
LINE
5
157
100
AcDbEntity
8
0
100
AcDbLine
10
9.7996754393225327
20
2.5012672759967325
30
0
11
11.507201541124354
21
-0.45565576428478305
31
0
0
LINE
5
158
100
AcDbEntity
8
0
100
AcDbLine
10
7.9431794621364027
20
-2.4989727942833762
30
0
11
4.7717498545492907
21
-2.4993828320469649
31
0
0
LINE
5
159
100
AcDbEntity
8
0
100
AcDbLine
10
4.7717498545492898
20
-2.4993828320469635
30
0
11
4.7716371864401683
21
-1.6279533959710828
31
0
0
LINE
5
160
100
AcDbEntity
8
0
100
AcDbLine
10
4.7716371864401719
20
-1.6279533959710824
30
0
11
6.9644968177702351
21
-1.6276698786396731
31
0
0
LINE
5
161
100
AcDbEntity
8
0
100
AcDbLine
10
6.964496817770236
20
-1.6276698786396748
30
0
11
6.9643370508995996
21
-0.39195593022766106
31
0
0
LINE
5
162
100
AcDbEntity
8
0
100
AcDbLine
10
6.9643370508995961
20
-0.39195593022765873
30
0
11
4.9286191037419673
21
-0.39221913053087637
31
0
0
LINE
5
163
100
AcDbEntity
8
0
100
AcDbLine
10
4.9286191037419602
20
-0.39221913053087754
30
0
11
4.9285064359410926
21
0.47920792135923207
31
0
0
LINE
5
164
100
AcDbEntity
8
0
100
AcDbLine
10
4.9285064359410935
20
0.4792079213592304
30
0
11
6.9642243830987223
21
0.47947112166244804
31
0
0
LINE
5
165
100
AcDbEntity
8
0
100
AcDbLine
10
6.9642243830987294
20
0.47947112166244921
30
0
11
6.9639630301623718
21
2.5009006434939463
31
0
0
LINE
5
166
100
AcDbEntity
8
0
100
AcDbLine
10
6.9639630301623789
20
2.5009006434939485
30
0
11
7.9425330064194277
21
2.5010271639261283
31
0
0
LINE
5
167
100
AcDbEntity
8
0
100
AcDbLine
10
7.9425330064194277
20
2.5010271639261283
30
0
11
7.9431794621364107
21
-2.4989727942833722
31
0
0
LINE
5
168
100
AcDbEntity
8
0
100
AcDbLine
10
-3.7646106793004286
20
2.4995135339204611
30
0
11
-0.5788950305729551
21
2.4999254187426589
31
0
0
LINE
5
169
100
AcDbEntity
8
0
100
AcDbLine
10
-0.57889503057295677
20
2.4999254187426612
30
0
11
-0.57880545038819498
21
1.8070691127355276
31
0
0
SPLINE
5
170
100
AcDbEntity
8
0
100
AcDbSpline
70
0
71
2
72
6
73
3
74
0
42
0.000000001
43
0.0000000001
44
0.0000000001
40
0
40
0
40
0
40
1
40
1
40
1
10
-0.5788054503882023
20
1.8070691127355243
30
0
10
-0.66451246193732771
20
1.7356278246820622
30
0
10
-0.79306728766841417
20
1.6213252568339653
30
0
0
SPLINE
5
171
100
AcDbEntity
8
0
100
AcDbSpline
70
0
71
2
72
6
73
3
74
0
42
0.000000001
43
0.0000000001
44
0.0000000001
40
0
40
0
40
0
40
1
40
1
40
1
10
-0.79306728766841417
20
1.6213252568339653
30
0
10
-0.92162595855000085
20
1.4998820519849598
30
0
10
-1.0787482489152911
20
1.3498606871687402
30
0
0
SPLINE
5
172
100
AcDbEntity
8
0
100
AcDbSpline
70
0
71
2
72
6
73
3
74
0
42
0.000000001
43
0.0000000001
44
0.0000000001
40
0
40
0
40
0
40
1
40
1
40
1
10
-1.0787482489152911
20
1.3498606871687402
30
0
10
-1.2430135601590209
20
1.1998407830089919
30
0
10
-1.4215612181176418
20
1.0212445653241353
30
0
0
SPLINE
5
173
100
AcDbEntity
8
0
100
AcDbSpline
70
0
71
2
72
6
73
3
74
0
42
0.000000001
43
0.0000000001
44
0.0000000001
40
0
40
0
40
0
40
1
40
1
40
1
10
-1.4215612181176418
20
1.0212445653241353
30
0
10
-1.6001088763845051
20
0.84265073182505645
30
0
10
-1.7715164353941315
20
0.64977178009841374
30
0
0
SPLINE
5
174
100
AcDbEntity
8
0
100
AcDbSpline
70
0
71
2
72
6
73
3
74
0
42
0.000000001
43
0.0000000001
44
0.0000000001
40
0
40
0
40
0
40
1
40
1
40
1
10
-1.7715164353941315
20
0.64977178009841374
30
0
10
-2.0143345045401251
20
0.37831036803975149
30
0
10
-2.1928813903109656
20
0.15686079468884451
30
0
0
SPLINE
5
175
100
AcDbEntity
8
0
100
AcDbSpline
70
0
71
2
72
6
73
3
74
0
42
0.000000001
43
0.0000000001
44
0.0000000001
40
0
40
0
40
0
40
1
40
1
40
1
10
-2.1928813903109656
20
0.15686079468884451
30
0
10
-2.3785617596006503
20
-0.064592085144119515
30
0
10
-2.4928251540488233
20
-0.25746364863632465
30
0
0
SPLINE
5
176
100
AcDbEntity
8
0
100
AcDbSpline
70
0
71
2
72
6
73
3
74
0
42
0.000000001
43
0.0000000001
44
0.0000000001
40
0
40
0
40
0
40
1
40
1
40
1
10
-2.4928251540488233
20
-0.25746364863632465
30
0
10
-2.6142258768580895
20
-0.45748153979728645
30
0
10
-2.6713460302741154
20
-0.64320269448487899
30
0
0
SPLINE
5
177
100
AcDbEntity
8
0
100
AcDbSpline
70
0
71
2
72
6
73
3
74
0
42
0.000000001
43
0.0000000001
44
0.0000000001
40
0
40
0
40
0
40
1
40
1
40
1
10
-2.6713460302741154
20
-0.64320269448487899
30
0
10
-2.7284652601608528
20
-0.83606686974265099
30
0
10
-2.7284394019568303
20
-1.0360666773361693
30
0
0
SPLINE
5
178
100
AcDbEntity
8
0
100
AcDbSpline
70
0
71
2
72
6
73
3
74
0
42
0.000000001
43
0.0000000001
44
0.0000000001
40
0
40
0
40
0
40
1
40
1
40
1
10
-2.7284394019568303
20
-1.0360666773361693
30
0
10
-2.7284209316789987
20
-1.1789247045540119
30
0
10
-2.6641162001070917
20
-1.3146290152521667
30
0
0
SPLINE
5
179
100
AcDbEntity
8
0
100
AcDbSpline
70
0
71
2
72
6
73
3
74
0
42
0.000000001
43
0.0000000001
44
0.0000000001
40
0
40
0
40
0
40
1
40
1
40
1
10
-2.6641162001070917
20
-1.3146290152521667
30
0
10
-2.5998162365984712
20
-1.4503357107525972
30
0
10
-2.4855149783735708
20
-1.5503208380804834
30
0
0
SPLINE
5
180
100
AcDbEntity
8
0
100
AcDbSpline
70
0
71
2
72
6
73
3
74
0
42
0.000000001
43
0.0000000001
44
0.0000000001
40
0
40
0
40
0
40
1
40
1
40
1
10
-2.4855149783735708
20
-1.5503208380804834
30
0
10
-2.371212796619373
20
-1.6574489859785491
30
0
10
-2.2069207039505745
20
-1.7145695257967297
30
0
0
SPLINE
5
181
100
AcDbEntity
8
0
100
AcDbSpline
70
0
71
2
72
6
73
3
74
0
42
0.000000001
43
0.0000000001
44
0.0000000001
40
0
40
0
40
0
40
1
40
1
40
1
10
-2.2069207039505745
20
-1.7145695257967297
30
0
10
-2.0497707080143979
20
-1.7788363939001606
30
0
10
-1.8569139209910634
20
-1.7788114592254489
30
0
0
SPLINE
5
182
100
AcDbEntity
8
0
100
AcDbSpline
70
0
71
2
72
6
73
3
74
0
42
0.000000001
43
0.0000000001
44
0.0000000001
40
0
40
0
40
0
40
1
40
1
40
1
10
-1.8569139209910634
20
-1.7788114592254489
30
0
10
-1.5997699488360961
20
-1.7787782127869933
30
0
10
-1.3854942586163066
20
-1.7001796654381529
30
0
0
SPLINE
5
183
100
AcDbEntity
8
0
100
AcDbSpline
70
0
71
2
72
6
73
3
74
0
42
0.000000001
43
0.0000000001
44
0.0000000001
40
0
40
0
40
0
40
1
40
1
40
1
10
-1.3854942586163066
20
-1.7001796654381529
30
0
10
-1.1783615892749655
20
-1.6215796574328367
30
0
10
-0.94981371054613462
20
-1.4358363386584427
30
0
0
LINE
5
184
100
AcDbEntity
8
0
100
AcDbLine
10
-0.94981371054613462
20
-1.4358363386584427
30
0
11
-0.57830121479332774
21
-2.0929319037096246
31
0
0
SPLINE
5
185
100
AcDbEntity
8
0
100
AcDbSpline
70
0
71
2
72
6
73
3
74
0
42
0.000000001
43
0.0000000001
44
0.0000000001
40
0
40
0
40
0
40
1
40
1
40
1
10
-0.57830121479332419
20
-2.0929319037096228
30
0
10
-0.87827560510674196
20
-2.3072565400577894
30
0
10
-1.2425416471650408
20
-2.450161666037145
30
0
0
SPLINE
5
186
100
AcDbEntity
8
0
100
AcDbSpline
70
0
71
2
72
6
73
3
74
0
42
0.000000001
43
0.0000000001
44
0.0000000001
40
0
40
0
40
0
40
1
40
1
40
1
10
-1.2425416471650408
20
-2.450161666037145
30
0
10
-1.6139497865724639
20
-2.6002083519302177
30
0
10
-2.0925226280314924
20
-2.600270227160606
30
0
0
SPLINE
5
187
100
AcDbEntity
8
0
100
AcDbSpline
70
0
71
2
72
6
73
3
74
0
42
0.000000001
43
0.0000000001
44
0.0000000001
40
0
40
0
40
0
40
1
40
1
40
1
10
-2.0925226280314924
20
-2.600270227160606
30
0
10
-2.3996629758061783
20
-2.6003099376876859
30
0
10
-2.6782470917150825
20
-2.5146320920576537
30
0
0
SPLINE
5
188
100
AcDbEntity
8
0
100
AcDbSpline
70
0
71
2
72
6
73
3
74
0
42
0.000000001
43
0.0000000001
44
0.0000000001
40
0
40
0
40
0
40
1
40
1
40
1
10
-2.6782470917150825
20
-2.5146320920576537
30
0
10
-2.9639742281941661
20
-2.4289551699569278
30
0
10
-3.1782774729515673
20
-2.2575527651044824
30
0
0
SPLINE
5
189
100
AcDbEntity
8
0
100
AcDbSpline
70
0
71
2
72
6
73
3
74
0
42
0.000000001
43
0.0000000001
44
0.0000000001
40
0
40
0
40
0
40
1
40
1
40
1
10
-3.1782774729515673
20
-2.2575527651044824
30
0
10
-3.3997323511846655
20
-2.0932966897703098
30
0
10
-3.5283342759855252
20
-1.8433123610964985
30
0
0
SPLINE
5
190
100
AcDbEntity
8
0
100
AcDbSpline
70
0
71
2
72
6
73
3
74
0
42
0.000000001
43
0.0000000001
44
0.0000000001
40
0
40
0
40
0
40
1
40
1
40
1
10
-3.5283342759855252
20
-1.8433123610964985
30
0
10
-3.6569362004781336
20
-1.5933304166084605
30
0
10
-3.656978681901375
20
-1.2647586229374586
30
0
0
SPLINE
5
191
100
AcDbEntity
8
0
100
AcDbSpline
70
0
71
2
72
6
73
3
74
0
42
0.000000001
43
0.0000000001
44
0.0000000001
40
0
40
0
40
0
40
1
40
1
40
1
10
-3.656978681901375
20
-1.2647586229374586
30
0
10
-3.657008234222614
20
-1.036186733063218
30
0
10
-3.6141759690055508
20
-0.83618138429387479
30
0
0
SPLINE
5
192
100
AcDbEntity
8
0
100
AcDbSpline
70
0
71
2
72
6
73
3
74
0
42
0.000000001
43
0.0000000001
44
0.0000000001
40
0
40
0
40
0
40
1
40
1
40
1
10
-3.6141759690055508
20
-0.83618138429387479
30
0
10
-3.5784858008293607
20
-0.64331997962401299
30
0
10
-3.4928001805627495
20
-0.44330909029534737
30
0
0
SPLINE
5
193
100
AcDbEntity
8
0
100
AcDbSpline
70
0
71
2
72
6
73
3
74
0
42
0.000000001
43
0.0000000001
44
0.0000000001
40
0
40
0
40
0
40
1
40
1
40
1
10
-3.4928001805627495
20
-0.44330909029534737
30
0
10
-3.4142566573370203
20
-0.25044214506616758
30
0
10
-3.2785660482369128
20
-0.043281769845684437
30
0
0
SPLINE
5
194
100
AcDbEntity
8
0
100
AcDbSpline
70
0
71
2
72
6
73
3
74
0
42
0.000000001
43
0.0000000001
44
0.0000000001
40
0
40
0
40
0
40
1
40
1
40
1
10
-3.2785660482369128
20
-0.043281769845684437
30
0
10
-3.1500232280785312
20
0.16387768122898994
30
0
10
-2.9643408610052102
20
0.40675962338900362
30
0
0
SPLINE
5
195
100
AcDbEntity
8
0
100
AcDbSpline
70
0
71
2
72
6
73
3
74
0
42
0.000000001
43
0.0000000001
44
0.0000000001
40
0
40
0
40
0
40
1
40
1
40
1
10
-2.9643408610052102
20
0.40675962338900362
30
0
10
-2.821504460747013
20
0.59249186042824586
30
0
10
-2.650101670108933
20
0.78537081153838617
30
0
0
SPLINE
5
196
100
AcDbEntity
8
0
100
AcDbSpline
70
0
71
2
72
6
73
3
74
0
42
0.000000001
43
0.0000000001
44
0.0000000001
40
0
40
0
40
0
40
1
40
1
40
1
10
-2.650101670108933
20
0.78537081153838617
30
0
10
-2.4858409768199774
20
0.97110820273480947
30
0
10
-2.3215784361641667
20
1.142557168605105
30
0
0
SPLINE
5
197
100
AcDbEntity
8
0
100
AcDbSpline
70
0
71
2
72
6
73
3
74
0
42
0.000000001
43
0.0000000001
44
0.0000000001
40
0
40
0
40
0
40
1
40
1
40
1
10
-2.3215784361641667
20
1.142557168605105
30
0
10
-2.1573158955083471
20
1.3140061344753962
30
0
10
-1.9930458162013309
20
1.4640284234374201
30
0
0
SPLINE
5
198
100
AcDbEntity
8
0
100
AcDbSpline
70
0
71
2
72
6
73
3
74
0
42
0.000000001
43
0.0000000001
44
0.0000000001
40
0
40
0
40
0
40
1
40
1
40
1
10
-1.9930458162013309
20
1.4640284234374201
30
0
10
-1.8359235258360407
20
1.6140497882536398
30
0
10
-1.7073668530463415
20
1.7140663149613689
30
0
0
LINE
5
199
100
AcDbEntity
8
0
100
AcDbLine
10
-1.7073668530463415
20
1.7140663149613689
30
0
11
-3.7645090935429701
21
1.7138003446867458
31
0
0
LINE
5
200
100
AcDbEntity
8
0
100
AcDbLine
10
-3.7645090935429693
20
1.7138003446867467
30
0
11
-3.7646106793004357
21
2.4995135339204584
31
0
0
SPLINE
5
201
100
AcDbEntity
8
0
100
AcDbSpline
70
0
71
2
72
6
73
3
74
0
42
0.000000001
43
0.0000000001
44
0.0000000001
40
0
40
0
40
0
40
1
40
1
40
1
10
-4.5857148199972553
20
-0.0077356691584595794
30
0
10
-4.58563078068007
20
-0.65773623593027963
30
0
10
-4.7212806046905165
20
-1.1434672602139928
30
0
0
SPLINE
5
202
100
AcDbEntity
8
0
100
AcDbSpline
70
0
71
2
72
6
73
3
74
0
42
0.000000001
43
0.0000000001
44
0.0000000001
40
0
40
0
40
0
40
1
40
1
40
1
10
-4.7212806046905165
20
-1.1434672602139928
30
0
10
-4.8569295051716654
20
-1.6363413050678854
30
0
10
-5.0997506466638676
20
-1.9578014781650577
30
0
0
SPLINE
5
203
100
AcDbEntity
8
0
100
AcDbSpline
70
0
71
2
72
6
73
3
74
0
42
0.000000001
43
0.0000000001
44
0.0000000001
40
0
40
0
40
0
40
1
40
1
40
1
10
-5.0997506466638676
20
-1.9578014781650577
30
0
10
-5.3497052719831739
20
-2.2792625735585226
30
0
10
-5.6925404052723216
20
-2.436450970090327
30
0
0
SPLINE
5
204
100
AcDbEntity
8
0
100
AcDbSpline
70
0
71
2
72
6
73
3
74
0
42
0.000000001
43
0.0000000001
44
0.0000000001
40
0
40
0
40
0
40
1
40
1
40
1
10
-5.6925404052723216
20
-2.436450970090327
30
0
10
-6.0353793837119518
20
-2.6007800036230488
30
0
10
-6.4568080606095357
20
-2.600834490619004
30
0
0
SPLINE
5
205
100
AcDbEntity
8
0
100
AcDbSpline
70
0
71
2
72
6
73
3
74
0
42
0.000000001
43
0.0000000001
44
0.0000000001
40
0
40
0
40
0
40
1
40
1
40
1
10
-6.4568080606095357
20
-2.600834490619004
30
0
10
-7.3568048105945927
20
-2.6009508522288316
30
0
10
-7.842602864882382
20
-1.9652991253570651
30
0
0
SPLINE
5
206
100
AcDbEntity
8
0
100
AcDbSpline
70
0
71
2
72
6
73
3
74
0
42
0.000000001
43
0.0000000001
44
0.0000000001
40
0
40
0
40
0
40
1
40
1
40
1
10
-7.842602864882382
20
-1.9652991253570651
30
0
10
-8.328399995640865
20
-1.336790419055478
30
0
10
-8.3285717680842009
20
-0.0082195874168888849
30
0
0
SPLINE
5
207
100
AcDbEntity
8
0
100
AcDbSpline
70
0
71
2
72
6
73
3
74
0
42
0.000000001
43
0.0000000001
44
0.0000000001
40
0
40
0
40
0
40
1
40
1
40
1
10
-8.3285717680842009
20
-0.0082195874168888849
30
0
10
-8.3286567309306925
20
0.64892399992511507
30
0
10
-8.1930030620780059
20
1.1417980453955145
30
0
0
SPLINE
5
208
100
AcDbEntity
8
0
100
AcDbSpline
70
0
71
2
72
6
73
3
74
0
42
0.000000001
43
0.0000000001
44
0.0000000001
40
0
40
0
40
0
40
1
40
1
40
1
10
-8.1930030620780059
20
1.1417980453955145
30
0
10
-8.0573532380675505
20
1.6275290696792277
30
0
10
-7.8073947679060129
20
1.9561331862593789
30
0
0
SPLINE
5
209
100
AcDbEntity
8
0
100
AcDbSpline
70
0
71
2
72
6
73
3
74
0
42
0.000000001
43
0.0000000001
44
0.0000000001
40
0
40
0
40
0
40
1
40
1
40
1
10
-7.8073947679060129
20
1.9561331862593789
30
0
10
-7.5645831631568949
20
2.2775933581235375
30
0
10
-7.2146011644553276
20
2.4419256993713345
30
0
0
SPLINE
5
210
100
AcDbEntity
8
0
100
AcDbSpline
70
0
71
2
72
6
73
3
74
0
42
0.000000001
43
0.0000000001
44
0.0000000001
40
0
40
0
40
0
40
1
40
1
40
1
10
-7.2146011644553276
20
2.4419256993713345
30
0
10
-6.8717660308579287
20
2.5991117117173701
30
0
10
-6.4503373539603537
20
2.5991661987133208
30
0
0
SPLINE
5
211
100
AcDbEntity
8
0
100
AcDbSpline
70
0
71
2
72
6
73
3
74
0
42
0.000000001
43
0.0000000001
44
0.0000000001
40
0
40
0
40
0
40
1
40
1
40
1
10
-6.4503373539603537
20
2.5991661987133208
30
0
10
-5.5431928150335619
20
2.5992834844689616
30
0
10
-5.0645388555702819
20
1.9350587511706641
30
0
0
SPLINE
5
212
100
AcDbEntity
8
0
100
AcDbSpline
70
0
71
2
72
6
73
3
74
0
42
0.000000001
43
0.0000000001
44
0.0000000001
40
0
40
0
40
0
40
1
40
1
40
1
10
-5.0645388555702819
20
1.9350587511706641
30
0
10
-4.5858792045144181
20
1.2636933821044583
30
0
10
-4.5857148199972553
20
-0.0077356691584595794
30
0
0
SPLINE
5
213
100
AcDbEntity
8
0
100
AcDbSpline
70
0
71
2
72
6
73
3
74
0
42
0.000000001
43
0.0000000001
44
0.0000000001
40
0
40
0
40
0
40
1
40
1
40
1
10
-7.4142842085872296
20
-0.0081013781319416722
30
0
10
-7.4142694324266145
20
-0.12238732306906197
30
0
10
-7.4071134827544238
20
-0.22238630333651255
30
0
0
SPLINE
5
214
100
AcDbEntity
8
0
100
AcDbSpline
70
0
71
2
72
6
73
3
74
0
42
0.000000001
43
0.0000000001
44
0.0000000001
40
0
40
0
40
0
40
1
40
1
40
1
10
-7.4071134827544238
20
-0.22238630333651255
30
0
10
-7.4070996301231062
20
-0.32952922770345339
30
0
10
-7.3999436804509244
20
-0.42952820797091285
30
0
0
LINE
5
215
100
AcDbEntity
8
0
100
AcDbLine
10
-7.3999436804509244
20
-0.42952820797091285
30
0
11
-5.650147730140084
21
1.1635558761403686
31
0
0
SPLINE
5
216
100
AcDbEntity
8
0
100
AcDbSpline
70
0
71
2
72
6
73
3
74
0
42
0.000000001
43
0.0000000001
44
0.0000000001
40
0
40
0
40
0
40
1
40
1
40
1
10
-5.6501477301400804
20
1.1635558761403741
30
0
10
-5.8716654071328733
20
1.8135278135037547
30
0
10
-6.4573787887730649
20
1.8134520859503045
30
0
0
SPLINE
5
217
100
AcDbEntity
8
0
100
AcDbSpline
70
0
71
2
72
6
73
3
74
0
42
0.000000001
43
0.0000000001
44
0.0000000001
40
0
40
0
40
0
40
1
40
1
40
1
10
-6.4573787887730649
20
1.8134520859503045
30
0
10
-6.9145178001499996
20
1.8133929819243422
30
0
10
-7.1644671860517661
20
1.3776459403607388
30
0
0
SPLINE
5
218
100
AcDbEntity
8
0
100
AcDbSpline
70
0
71
2
72
6
73
3
74
0
42
0.000000001
43
0.0000000001
44
0.0000000001
40
0
40
0
40
0
40
1
40
1
40
1
10
-7.1644671860517661
20
1.3776459403607388
30
0
10
-7.4144070352104485
20
0.94189890003015808
30
0
10
-7.4142842085872296
20
-0.0081013781319416722
30
0
0
SPLINE
5
219
100
AcDbEntity
8
0
100
AcDbSpline
70
0
71
2
72
6
73
3
74
0
42
0.000000001
43
0.0000000001
44
0.0000000001
40
0
40
0
40
0
40
1
40
1
40
1
10
-5.5000023794942177
20
-0.0078538784434067921
30
0
10
-5.5000162321255353
20
0.099289045923534047
30
0
10
-5.5000291612275465
20
0.19928894972029543
30
0
0
SPLINE
5
220
100
AcDbEntity
8
0
100
AcDbSpline
70
0
71
2
72
6
73
3
74
0
42
0.000000001
43
0.0000000001
44
0.0000000001
40
0
40
0
40
0
40
1
40
1
40
1
10
-5.5000291612275465
20
0.19928894972029543
30
0
10
-5.5071841873704308
20
0.29214490941756655
30
0
10
-5.5143401370426215
20
0.39214388968502156
30
0
0
LINE
5
221
100
AcDbEntity
8
0
100
AcDbLine
10
-5.5143401370426215
20
0.39214388968502156
30
0
11
-7.2569882984117395
21
-1.2009392702804473
31
0
0
SPLINE
5
222
100
AcDbEntity
8
0
100
AcDbSpline
70
0
71
2
72
6
73
3
74
0
42
0.000000001
43
0.0000000001
44
0.0000000001
40
0
40
0
40
0
40
1
40
1
40
1
10
-7.2569882984117395
20
-1.2009392702804478
30
0
10
-7.0426230280071955
20
-1.8151970289387398
30
0
10
-6.4497666257968245
20
-1.8151203778559877
30
0
0
SPLINE
5
223
100
AcDbEntity
8
0
100
AcDbSpline
70
0
71
2
72
6
73
3
74
0
42
0.000000001
43
0.0000000001
44
0.0000000001
40
0
40
0
40
0
40
1
40
1
40
1
10
-6.4497666257968245
20
-1.8151203778559877
30
0
10
-5.9926228460483344
20
-1.8150612732135141
30
0
10
-5.7426791520474207
20
-1.3721712116962426
30
0
0
SPLINE
5
224
100
AcDbEntity
8
0
100
AcDbSpline
70
0
71
2
72
6
73
3
74
0
42
0.000000001
43
0.0000000001
44
0.0000000001
40
0
40
0
40
0
40
1
40
1
40
1
10
-5.7426791520474207
20
-1.3721712116962426
30
0
10
-5.4998823234589178
20
-0.93642509489495929
30
0
10
-5.5000023794942177
20
-0.0078538784434067921
30
0
0
LINE
5
225
100
AcDbEntity
8
0
100
AcDbLine
10
-12.336035091912541
20
2.4984053246483695
30
0
11
-9.1503242115566081
21
2.4988172088540592
31
0
0
LINE
5
226
100
AcDbEntity
8
0
100
AcDbLine
10
-9.1503242115566064
20
2.4988172088540583
30
0
11
-9.1502346313718448
21
1.8059609028469248
31
0
0
SPLINE
5
227
100
AcDbEntity
8
0
100
AcDbSpline
70
0
71
2
72
6
73
3
74
0
42
0.000000001
43
0.0000000001
44
0.0000000001
40
0
40
0
40
0
40
1
40
1
40
1
10
-9.1502346313718519
20
1.8059609028469215
30
0
10
-9.2359368745494308
20
1.7345196154099707
30
0
10
-9.3644917002805173
20
1.6202170475618738
30
0
0
SPLINE
5
228
100
AcDbEntity
8
0
100
AcDbSpline
70
0
71
2
72
6
73
3
74
0
42
0.000000001
43
0.0000000001
44
0.0000000001
40
0
40
0
40
0
40
1
40
1
40
1
10
-9.3644917002805173
20
1.6202170475618738
30
0
10
-9.4930503711621039
20
1.4987738427128638
30
0
10
-9.6501726615274031
20
1.3487524778966486
30
0
0
SPLINE
5
229
100
AcDbEntity
8
0
100
AcDbSpline
70
0
71
2
72
6
73
3
74
0
42
0.000000001
43
0.0000000001
44
0.0000000001
40
0
40
0
40
0
40
1
40
1
40
1
10
-9.6501726615274031
20
1.3487524778966486
30
0
10
-9.814437972771124
20
1.1987325737368959
30
0
10
-9.9929903991012914
20
1.0201363554355369
30
0
0
SPLINE
5
230
100
AcDbEntity
8
0
100
AcDbSpline
70
0
71
2
72
6
73
3
74
0
42
0.000000001
43
0.0000000001
44
0.0000000001
40
0
40
0
40
0
40
1
40
1
40
1
10
-9.9929903991012914
20
1.0201363554355369
30
0
10
-10.171533288996608
20
0.84154252255296491
30
0
10
-10.342940848006235
20
0.6486635708263222
30
0
0
SPLINE
5
231
100
AcDbEntity
8
0
100
AcDbSpline
70
0
71
2
72
6
73
3
74
0
42
0.000000001
43
0.0000000001
44
0.0000000001
40
0
40
0
40
0
40
1
40
1
40
1
10
-10.342940848006235
20
0.6486635708263222
30
0
10
-10.585758917152237
20
0.3772021587676555
30
0
10
-10.764305802923069
20
0.15575258541675296
30
0
0
SPLINE
5
232
100
AcDbEntity
8
0
100
AcDbSpline
70
0
71
2
72
6
73
3
74
0
42
0.000000001
43
0.0000000001
44
0.0000000001
40
0
40
0
40
0
40
1
40
1
40
1
10
-10.764305802923069
20
0.15575258541675296
30
0
10
-10.9499909405843
20
-0.065700295032717904
30
0
10
-11.064249566660926
20
-0.25857185790842063
30
0
0
SPLINE
5
233
100
AcDbEntity
8
0
100
AcDbSpline
70
0
71
2
72
6
73
3
74
0
42
0.000000001
43
0.0000000001
44
0.0000000001
40
0
40
0
40
0
40
1
40
1
40
1
10
-11.064249566660926
20
-0.25857185790842063
30
0
10
-11.185655057841739
20
-0.45858974968588928
30
0
10
-11.242775211257765
20
-0.64431090437347738
30
0
0
SPLINE
5
234
100
AcDbEntity
8
0
100
AcDbSpline
70
0
71
2
72
6
73
3
74
0
42
0.000000001
43
0.0000000001
44
0.0000000001
40
0
40
0
40
0
40
1
40
1
40
1
10
-11.242775211257765
20
-0.64431090437347738
30
0
10
-11.299894441144502
20
-0.83717507963125382
30
0
10
-11.29986858294048
20
-1.0371748872247721
30
0
0
SPLINE
5
235
100
AcDbEntity
8
0
100
AcDbSpline
70
0
71
2
72
6
73
3
74
0
42
0.000000001
43
0.0000000001
44
0.0000000001
40
0
40
0
40
0
40
1
40
1
40
1
10
-11.29986858294048
20
-1.0371748872247721
30
0
10
-11.299850112662648
20
-1.1800329144426147
30
0
10
-11.235545381090741
20
-1.3157372251407695
30
0
0
SPLINE
5
236
100
AcDbEntity
8
0
100
AcDbSpline
70
0
71
2
72
6
73
3
74
0
42
0.000000001
43
0.0000000001
44
0.0000000001
40
0
40
0
40
0
40
1
40
1
40
1
10
-11.235545381090741
20
-1.3157372251407695
30
0
10
-11.171240649210574
20
-1.4514439200246887
30
0
10
-11.056939390985674
20
-1.5514290473525749
30
0
0
SPLINE
5
237
100
AcDbEntity
8
0
100
AcDbSpline
70
0
71
2
72
6
73
3
74
0
42
0.000000001
43
0.0000000001
44
0.0000000001
40
0
40
0
40
0
40
1
40
1
40
1
10
-11.056939390985674
20
-1.5514290473525749
30
0
10
-10.942641977603014
20
-1.6585571958671519
30
0
10
-10.778349884934224
20
-1.7156777356853326
30
0
0
SPLINE
5
238
100
AcDbEntity
8
0
100
AcDbSpline
70
0
71
2
72
6
73
3
74
0
42
0.000000001
43
0.0000000001
44
0.0000000001
40
0
40
0
40
0
40
1
40
1
40
1
10
-10.778349884934224
20
-1.7156777356853326
30
0
10
-10.621195120626501
20
-1.7799446031722566
30
0
10
-10.428343101974713
20
-1.7799196691140473
30
0
0
SPLINE
5
239
100
AcDbEntity
8
0
100
AcDbSpline
70
0
71
2
72
6
73
3
74
0
42
0.000000001
43
0.0000000001
44
0.0000000001
40
0
40
0
40
0
40
1
40
1
40
1
10
-10.428343101974713
20
-1.7799196691140473
30
0
10
-10.171194361448199
20
-1.7798864220590849
30
0
10
-9.9569234395999562
20
-1.7012878753267513
30
0
0
SPLINE
5
240
100
AcDbEntity
8
0
100
AcDbSpline
70
0
71
2
72
6
73
3
74
0
42
0.000000001
43
0.0000000001
44
0.0000000001
40
0
40
0
40
0
40
1
40
1
40
1
10
-9.9569234395999562
20
-1.7012878753267513
30
0
10
-9.7497860018870686
20
-1.6226878667049283
30
0
10
-9.5212428915297753
20
-1.4369445485470456
30
0
0
LINE
5
241
100
AcDbEntity
8
0
100
AcDbLine
10
-9.5212428915297753
20
-1.4369445485470456
30
0
11
-9.1497303957769685
21
-2.0940401135982274
31
0
0
SPLINE
5
242
100
AcDbEntity
8
0
100
AcDbSpline
70
0
71
2
72
6
73
3
74
0
42
0.000000001
43
0.0000000001
44
0.0000000001
40
0
40
0
40
0
40
1
40
1
40
1
10
-9.1497303957769738
20
-2.0940401135982256
30
0
10
-9.449700017718845
20
-2.3083647493298809
30
0
10
-9.8139660597771439
20
-2.451269875309241
30
0
0
SPLINE
5
243
100
AcDbEntity
8
0
100
AcDbSpline
70
0
71
2
72
6
73
3
74
0
42
0.000000001
43
0.0000000001
44
0.0000000001
40
0
40
0
40
0
40
1
40
1
40
1
10
-9.8139660597771439
20
-2.451269875309241
30
0
10
-10.185374199184576
20
-2.6013165612023093
30
0
10
-10.663947040643595
20
-2.6013784364326975
30
0
0
SPLINE
5
244
100
AcDbEntity
8
0
100
AcDbSpline
70
0
71
2
72
6
73
3
74
0
42
0.000000001
43
0.0000000001
44
0.0000000001
40
0
40
0
40
0
40
1
40
1
40
1
10
-10.663947040643595
20
-2.6013784364326975
30
0
10
-10.971092156789828
20
-2.6014181475762843
30
0
10
-11.249676272698732
20
-2.5157403019462565
30
0
0
SPLINE
5
245
100
AcDbEntity
8
0
100
AcDbSpline
70
0
71
2
72
6
73
3
74
0
42
0.000000001
43
0.0000000001
44
0.0000000001
40
0
40
0
40
0
40
1
40
1
40
1
10
-11.249676272698732
20
-2.5157403019462565
30
0
10
-11.535398640806278
20
-2.4300633792290238
30
0
10
-11.749706653935217
20
-2.2586609749930853
30
0
0
SPLINE
5
246
100
AcDbEntity
8
0
100
AcDbSpline
70
0
71
2
72
6
73
3
74
0
42
0.000000001
43
0.0000000001
44
0.0000000001
40
0
40
0
40
0
40
1
40
1
40
1
10
-11.749706653935217
20
-2.2586609749930853
30
0
10
-11.971156763796769
20
-2.0944048990424013
30
0
10
-12.099763456969175
20
-1.8444205709851014
30
0
0
SPLINE
5
247
100
AcDbEntity
8
0
100
AcDbSpline
70
0
71
2
72
6
73
3
74
0
42
0.000000001
43
0.0000000001
44
0.0000000001
40
0
40
0
40
0
40
1
40
1
40
1
10
-12.099763456969175
20
-1.8444205709851014
30
0
10
-12.228365381461783
20
-1.5944386264970634
30
0
10
-12.228407862885025
20
-1.2658668328260614
30
0
0
SPLINE
5
248
100
AcDbEntity
8
0
100
AcDbSpline
70
0
71
2
72
6
73
3
74
0
42
0.000000001
43
0.0000000001
44
0.0000000001
40
0
40
0
40
0
40
1
40
1
40
1
10
-12.228407862885025
20
-1.2658668328260614
30
0
10
-12.228437415206264
20
-1.0372949429518208
30
0
10
-12.1856051499892
20
-0.83728959418247317
30
0
0
SPLINE
5
249
100
AcDbEntity
8
0
100
AcDbSpline
70
0
71
2
72
6
73
3
74
0
42
0.000000001
43
0.0000000001
44
0.0000000001
40
0
40
0
40
0
40
1
40
1
40
1
10
-12.1856051499892
20
-0.83728959418247317
30
0
10
-12.14991498181301
20
-0.64442818951261138
30
0
10
-12.064229361546399
20
-0.4444173001839502
30
0
0
SPLINE
5
250
100
AcDbEntity
8
0
100
AcDbSpline
70
0
71
2
72
6
73
3
74
0
42
0.000000001
43
0.0000000001
44
0.0000000001
40
0
40
0
40
0
40
1
40
1
40
1
10
-12.064229361546399
20
-0.4444173001839502
30
0
10
-11.985681069949132
20
-0.25155035433825912
30
0
10
-11.849990460849016
20
-0.044389979117775979
30
0
0
SPLINE
5
251
100
AcDbEntity
8
0
100
AcDbSpline
70
0
71
2
72
6
73
3
74
0
42
0.000000001
43
0.0000000001
44
0.0000000001
40
0
40
0
40
0
40
1
40
1
40
1
10
-11.849990460849016
20
-0.044389979117775979
30
0
10
-11.721447640690634
20
0.16276947195689395
30
0
10
-11.535765273617322
20
0.40565141411690764
30
0
0
SPLINE
5
252
100
AcDbEntity
8
0
100
AcDbSpline
70
0
71
2
72
6
73
3
74
0
42
0.000000001
43
0.0000000001
44
0.0000000001
40
0
40
0
40
0
40
1
40
1
40
1
10
-11.535765273617322
20
0.40565141411690764
30
0
10
-11.392933641730654
20
0.59138365053964748
30
0
10
-11.221530851092574
20
0.78426260164978778
30
0
0
SPLINE
5
253
100
AcDbEntity
8
0
100
AcDbSpline
70
0
71
2
72
6
73
3
74
0
42
0.000000001
43
0.0000000001
44
0.0000000001
40
0
40
0
40
0
40
1
40
1
40
1
10
-11.221530851092574
20
0.78426260164978778
30
0
10
-11.05726538943208
20
0.96999999346271792
30
0
10
-10.89300284877627
20
1.141448959333009
30
0
0
SPLINE
5
254
100
AcDbEntity
8
0
100
AcDbSpline
70
0
71
2
72
6
73
3
74
0
42
0.000000001
43
0.0000000001
44
0.0000000001
40
0
40
0
40
0
40
1
40
1
40
1
10
-10.89300284877627
20
1.141448959333009
30
0
10
-10.728740308120459
20
1.3128979252033002
30
0
10
-10.564474997184981
20
1.4629202135488217
30
0
0
SPLINE
5
255
100
AcDbEntity
8
0
100
AcDbSpline
70
0
71
2
72
6
73
3
74
0
42
0.000000001
43
0.0000000001
44
0.0000000001
40
0
40
0
40
0
40
1
40
1
40
1
10
-10.564474997184981
20
1.4629202135488217
30
0
10
-10.40735270681969
20
1.6129415783650369
30
0
10
-10.278791265658453
20
1.7129581056892773
30
0
0
LINE
5
256
100
AcDbEntity
8
0
100
AcDbLine
10
-10.278791265658453
20
1.7129581056892773
30
0
11
-12.335933506155081
21
1.7126921354146543
31
0
0
LINE
5
257
100
AcDbEntity
8
0
100
AcDbLine
10
-12.335933506155081
20
1.7126921354146551
30
0
11
-12.336035091912548
21
2.4984053246483668
31
0
0
SPLINE
5
258
100
AcDbEntity
8
0
100
AcDbSpline
70
0
71
2
72
6
73
3
74
0
42
0.000000001
43
0.0000000001
44
0.0000000001
40
0
40
0
40
0
40
1
40
1
40
1
10
-14.657380436850396
20
1.8123918983525256
30
0
10
-14.893090578923278
20
1.8123614231184915
30
0
10
-15.085944746083726
20
1.7551923232658195
30
0
0
SPLINE
5
259
100
AcDbEntity
8
0
100
AcDbSpline
70
0
71
2
72
6
73
3
74
0
42
0.000000001
43
0.0000000001
44
0.0000000001
40
0
40
0
40
0
40
1
40
1
40
1
10
-15.085944746083726
20
1.7551923232658195
30
0
10
-15.285931473850214
20
1.6908816647324532
30
0
10
-15.421635012052333
20
1.5837211933087314
30
0
0
SPLINE
5
260
100
AcDbEntity
8
0
100
AcDbSpline
70
0
71
2
72
6
73
3
74
0
42
0.000000001
43
0.0000000001
44
0.0000000001
40
0
40
0
40
0
40
1
40
1
40
1
10
-15.421635012052333
20
1.5837211933087314
30
0
10
-15.564475878923787
20
1.4694167784020262
30
0
10
-15.643025866546401
20
1.3265485929783427
30
0
0
SPLINE
5
261
100
AcDbEntity
8
0
100
AcDbSpline
70
0
71
2
72
6
73
3
74
0
42
0.000000001
43
0.0000000001
44
0.0000000001
40
0
40
0
40
0
40
1
40
1
40
1
10
-15.643025866546401
20
1.3265485929783427
30
0
10
-15.721579699319497
20
1.1765397705537373
30
0
10
-15.72155753492444
20
1.0051096610551724
30
0
0
SPLINE
5
262
100
AcDbEntity
8
0
100
AcDbSpline
70
0
71
2
72
6
73
3
74
0
42
0.000000001
43
0.0000000001
44
0.0000000001
40
0
40
0
40
0
40
1
40
1
40
1
10
-15.72155753492444
20
1.0051096610551724
30
0
10
-15.721529829661813
20
0.79082381232129073
30
0
10
-15.628652092279882
20
0.64798017517018192
30
0
0
SPLINE
5
263
100
AcDbEntity
8
0
100
AcDbSpline
70
0
71
2
72
6
73
3
74
0
42
0.000000001
43
0.0000000001
44
0.0000000001
40
0
40
0
40
0
40
1
40
1
40
1
10
-15.628652092279882
20
0.64798017517018192
30
0
10
-15.542921220002111
20
0.4979902091172983
30
0
10
-15.385768453786284
20
0.41229666348909344
30
0
0
SPLINE
5
264
100
AcDbEntity
8
0
100
AcDbSpline
70
0
71
2
72
6
73
3
74
0
42
0.000000001
43
0.0000000001
44
0.0000000001
40
0
40
0
40
0
40
1
40
1
40
1
10
-15.385768453786284
20
0.41229666348909344
30
0
10
-15.228610919198911
20
0.32660311847739543
30
0
10
-15.007182200619864
20
0.29091664380191951
30
0
0
SPLINE
5
265
100
AcDbEntity
8
0
100
AcDbSpline
70
0
71
2
72
6
73
3
74
0
42
0.000000001
43
0.0000000001
44
0.0000000001
40
0
40
0
40
0
40
1
40
1
40
1
10
-15.007182200619864
20
0.29091664380191951
30
0
10
-14.785748713977531
20
0.25523255392871924
30
0
10
-14.528604741822573
20
0.25526580036717039
30
0
0
LINE
5
266
100
AcDbEntity
8
0
100
AcDbLine
10
-14.528604741822573
20
0.25526580036717039
30
0
11
-14.128605126635536
21
0.25531751677520775
31
0
0
LINE
5
267
100
AcDbEntity
8
0
100
AcDbLine
10
-14.128605126635536
20
0.25531751677521086
30
0
11
-14.12853955728793
21
-0.25182740696453682
31
0
0
LINE
5
268
100
AcDbEntity
8
0
100
AcDbLine
10
-14.128539557287931
20
-0.25182740696453543
30
0
11
-15.328349083965422
21
-1.7162660102891314
31
0
0
LINE
5
269
100
AcDbEntity
8
0
100
AcDbLine
10
-15.328349083965422
20
-1.7162660102891358
30
0
11
-13.521207795053577
21
-1.7160323629236631
31
0
0
LINE
5
270
100
AcDbEntity
8
0
100
AcDbLine
10
-13.521207795053574
20
-1.7160323629236629
30
0
11
-13.521106208987852
21
-2.5017479363431461
31
0
0
LINE
5
271
100
AcDbEntity
8
0
100
AcDbLine
10
-13.521106208987854
20
-2.5017479363431461
30
0
11
-16.435391844420003
21
-2.5021247276682801
31
0
0
LINE
5
272
100
AcDbEntity
8
0
100
AcDbLine
10
-16.43539184442
20
-2.5021247276682823
30
0
11
-16.43547588373719
21
-1.8521241608964623
31
0
0
LINE
5
273
100
AcDbEntity
8
0
100
AcDbLine
10
-16.435475883737183
20
-1.8521241608964623
30
0
11
-15.178518498689284
21
-0.41624786743238218
31
0
0
LINE
5
274
100
AcDbEntity
8
0
100
AcDbLine
10
-15.178518498689284
20
-0.41624786743237774
30
0
11
-15.342803203431899
21
-0.41626910798987371
31
0
0
SPLINE
5
275
100
AcDbEntity
8
0
100
AcDbSpline
70
0
71
2
72
6
73
3
74
0
42
0.000000001
43
0.0000000001
44
0.0000000001
40
0
40
0
40
0
40
1
40
1
40
1
10
-15.342803203431901
20
-0.41626910798987282
30
0
10
-15.59280415501668
20
-0.41630143089902649
30
0
10
-15.828530147504507
20
-0.33061804409316942
30
0
0
SPLINE
5
276
100
AcDbEntity
8
0
100
AcDbSpline
70
0
71
2
72
6
73
3
74
0
42
0.000000001
43
0.0000000001
44
0.0000000001
40
0
40
0
40
0
40
1
40
1
40
1
10
-15.828530147504507
20
-0.33061804409316942
30
0
10
-16.064251371620788
20
-0.2449346566708055
30
0
10
-16.242849050270358
20
-0.073527635404850855
30
0
0
SPLINE
5
277
100
AcDbEntity
8
0
100
AcDbSpline
70
0
71
2
72
6
73
3
74
0
42
0.000000001
43
0.0000000001
44
0.0000000001
40
0
40
0
40
0
40
1
40
1
40
1
10
-16.242849050270358
20
-0.073527635404850855
30
0
10
-16.428584980810321
20
0.097876078762535457
30
0
10
-16.535758767429947
20
0.35500619859443638
30
0
0
SPLINE
5
278
100
AcDbEntity
8
0
100
AcDbSpline
70
0
71
2
72
6
73
3
74
0
42
0.000000001
43
0.0000000001
44
0.0000000001
40
0
40
0
40
0
40
1
40
1
40
1
10
-16.535758767429947
20
0.35500619859443638
30
0
10
-16.650080342683033
20
0.61213301009475973
30
0
10
-16.65012374763559
20
0.94784782433594117
30
0
0
SPLINE
5
279
100
AcDbEntity
8
0
100
AcDbSpline
70
0
71
2
72
6
73
3
74
0
42
0.000000001
43
0.0000000001
44
0.0000000001
40
0
40
0
40
0
40
1
40
1
40
1
10
-16.65012374763559
20
0.94784782433594117
30
0
10
-16.65017638757293
20
1.3549904600931573
30
0
10
-16.47878360472393
20
1.6621553567569247
30
0
0
SPLINE
5
280
100
AcDbEntity
8
0
100
AcDbSpline
70
0
71
2
72
6
73
3
74
0
42
0.000000001
43
0.0000000001
44
0.0000000001
40
0
40
0
40
0
40
1
40
1
40
1
10
-16.47878360472393
20
1.6621553567569247
30
0
10
-16.31454337918818
20
1.9693193286583721
30
0
10
-16.035998050585299
20
2.183641194418624
30
0
0
SPLINE
5
281
100
AcDbEntity
8
0
100
AcDbSpline
70
0
71
2
72
6
73
3
74
0
42
0.000000001
43
0.0000000001
44
0.0000000001
40
0
40
0
40
0
40
1
40
1
40
1
10
-16.035998050585299
20
2.183641194418624
30
0
10
-15.764594819023303
20
2.3908191160793857
30
0
10
-15.407467179888661
20
2.4980082156785333
30
0
0
SPLINE
5
282
100
AcDbEntity
8
0
100
AcDbSpline
70
0
71
2
72
6
73
3
74
0
42
0.000000001
43
0.0000000001
44
0.0000000001
40
0
40
0
40
0
40
1
40
1
40
1
10
-15.407467179888661
20
2.4980082156785333
30
0
10
-15.050338617224721
20
2.5980542947075014
30
0
10
-14.671768063748223
20
2.5981032405276272
30
0
0
SPLINE
5
283
100
AcDbEntity
8
0
100
AcDbSpline
70
0
71
2
72
6
73
3
74
0
42
0.000000001
43
0.0000000001
44
0.0000000001
40
0
40
0
40
0
40
1
40
1
40
1
10
-14.671768063748223
20
2.5981032405276272
30
0
10
-14.350336906461632
20
2.5981447987298223
30
0
10
-14.028898361248867
20
2.5410445765563416
30
0
0
SPLINE
5
284
100
AcDbEntity
8
0
100
AcDbSpline
70
0
71
2
72
6
73
3
74
0
42
0.000000001
43
0.0000000001
44
0.0000000001
40
0
40
0
40
0
40
1
40
1
40
1
10
-14.028898361248867
20
2.5410445765563416
30
0
10
-13.70746458409938
20
2.4839419695805853
30
0
10
-13.407451557204952
20
2.3625517910710592
30
0
0
LINE
5
285
100
AcDbEntity
8
0
100
AcDbLine
10
-13.407451557204952
20
2.3625517910710592
30
0
11
-13.657348001719336
21
1.5910923206850662
31
0
0
SPLINE
5
286
100
AcDbEntity
8
0
100
AcDbSpline
70
0
71
2
72
6
73
3
74
0
42
0.000000001
43
0.0000000001
44
0.0000000001
40
0
40
0
40
0
40
1
40
1
40
1
10
-13.657348001719329
20
1.5910923206850658
30
0
10
-13.721639804189225
20
1.6267967275864592
30
0
10
-13.828789730388467
20
1.6624979774977922
30
0
0
SPLINE
5
287
100
AcDbEntity
8
0
100
AcDbSpline
70
0
71
2
72
6
73
3
74
0
42
0.000000001
43
0.0000000001
44
0.0000000001
40
0
40
0
40
0
40
1
40
1
40
1
10
-13.828789730388467
20
1.6624979774977922
30
0
10
-13.943077908786332
20
1.6981983044963345
30
0
10
-14.078795148586503
20
1.7338934767211889
30
0
0
SPLINE
5
288
100
AcDbEntity
8
0
100
AcDbSpline
70
0
71
2
72
6
73
3
74
0
42
0.000000001
43
0.0000000001
44
0.0000000001
40
0
40
0
40
0
40
1
40
1
40
1
10
-14.078795148586503
20
1.7338934767211889
30
0
10
-14.221660177636632
20
1.7695901089859989
30
0
10
-14.364518591256621
20
1.7910007007269613
30
0
0
SPLINE
5
289
100
AcDbEntity
8
0
100
AcDbSpline
70
0
71
2
72
6
73
3
74
0
42
0.000000001
43
0.0000000001
44
0.0000000001
40
0
40
0
40
0
40
1
40
1
40
1
10
-14.364518591256621
20
1.7910007007269613
30
0
10
-14.51452002544678
20
1.8124103689386173
30
0
10
-14.657380436850396
20
1.8123918983525256
30
0
0
ENDSEC
0
SECTION
2
OBJECTS
0
DICTIONARY
5
C
100
AcDbDictionary
3
ACAD_GROUP
350
D
3
ACAD_MLINESTYLE
350
17
0
DICTIONARY
5
D
100
AcDbDictionary
0
DICTIONARY
5
1A
330
C
100
AcDbDictionary
0
DICTIONARY
5
17
100
AcDbDictionary
0
ENDSEC
0
EOF
