22900 0 2 2           
30 Autodesk Translation Framework 21 ASM 229.4.0.65535 OSX 24 Thu Aug 31 11:34:17 2023 
1 9.999999999999999547e-07 1.000000000000000036e-10 
asmheader $-1 -1 @13 229.4.0.65535 #
body $2 -1 $-1 $3 $-1 $4 #
rgb_color-st-attrib $-1 -1 $5 $-1 $1 0.627450980392156854 0.627450980392156854 0.627450980392156854 1 #
lump $-1 -1 $-1 $-1 $6 $1 #
transform $-1 -1 1 0 0 0 1 0 0 0 1 0 0 0 1 no_rotate no_reflect no_shear #
ATTRIB_CUSTOM-attrib $-1 -1 $-1 $2 $1 @20 Timestamp_attrib_def 1 1690824283363920 #
shell $-1 -1 $-1 $-1 $-1 $7 $-1 $3 #
face $8 -1 $-1 $9 $10 $6 $-1 $11 forward single #
DXID-attrib $-1 -1 $-1 $-1 $7 @10 ASM ENTITY @1 0 #
face $12 -1 $-1 $13 $14 $6 $-1 $15 forward single #
loop $-1 -1 $-1 $16 $17 $7 #
cone-surface $-1 -1 $-1 0 0.1000000000000000194 2.220446049250313512e-17 0 1 2.220446049250313081e-16 50.79999999999999716 0 0 1 I I 0 1 50.79999999999999716 forward I I I I #
DXID-attrib $-1 -1 $-1 $-1 $9 @10 ASM ENTITY @1 1 #
face $18 -1 $-1 $-1 $19 $6 $-1 $20 forward single #
loop $-1 -1 $-1 $-1 $21 $9 #
plane-surface $-1 -1 $-1 0 0 0 0 -1 -2.220446049250313081e-16 -10 0 0 forward_v I I I I #
loop $-1 -1 $-1 $-1 $22 $7 #
coedge $-1 -1 $-1 $17 $17 $21 $23 reversed $10 0 $-1 #
DXID-attrib $-1 -1 $-1 $-1 $13 @10 ASM ENTITY @1 2 #
loop $-1 -1 $-1 $-1 $24 $13 #
plane-surface $-1 -1 $-1 0 0.2000000000000000389 4.440892098500627025e-17 0 1 2.220446049250313081e-16 10 0 0 forward_v I I I I #
coedge $-1 -1 $-1 $21 $21 $17 $23 forward $14 0 $-1 #
coedge $-1 -1 $-1 $22 $22 $24 $25 reversed $16 0 $-1 #
edge $-1 -1 $-1 $26 0 $26 6.283185307179586232 $21 $27 forward @7 unknown #
coedge $-1 -1 $-1 $24 $24 $22 $25 forward $19 0 $-1 #
edge $-1 -1 $-1 $28 0 $28 6.283185307179586232 $24 $29 forward @7 unknown #
vertex $-1 -1 $-1 $23 0 $30 #
ellipse-curve $-1 -1 $-1 0 0 0 0 -1 -2.220446049250313081e-16 50.79999999999999716 0 0 1 I I #
vertex $-1 -1 $-1 $25 0 $31 #
ellipse-curve $-1 -1 $-1 0 0.2000000000000000389 4.440892098500627025e-17 0 1 2.220446049250313081e-16 50.79999999999999716 0 0 1 I I #
point $-1 -1 $-1 50.79999999999999716 0 0 #
point $-1 -1 $-1 50.79999999999999716 0.2000000000000000389 4.440892098500627025e-17 #
End-of-ASM-data 