                                                                        S      1
,,15Hsimple_wafer v1,15Hsimple_wafer_v1,7Hunknown,7Hunknown,32,38,7,99, G      1
15,,1.,2,2HMM,1,0.08,15H20230831.113417,0.01,10000.,7Hunknown,7Hunknown,G      2
11,0,15H20230731.172500;                                                G      3
     186       1                                                00000000D      1
     186             -39       1       0                               0D      2
     514       2                                                00010000D      3
     514                       1       1                               0D      4
     510       3                                                00010000D      5
     510             -39       1       1                               0D      6
     510       4                                                00010000D      7
     510             -39       1       1                               0D      8
     510       5                                                00010000D      9
     510             -39       1       1                               0D     10
     508       6                                                00010000D     11
     508                       2       1                               0D     12
     508       8                                                00010000D     13
     508                       1       1                               0D     14
     508       9                                                00010000D     15
     508                       1       1                               0D     16
     126      10                                                00010000D     17
     126       0               7       0                               0D     18
     126      17                                                00010000D     19
     126       0               8       0                               0D     20
     126      25                                                00010000D     21
     126       0               4       0                               0D     22
     126      29                                                00010000D     23
     126       0               7       0                               0D     24
     126      36                                                00010000D     25
     126       0               9       0                               0D     26
     128      45                                                00010000D     27
     128       0     -39      17       0                               0D     28
     128      62                                                00010000D     29
     128       0     -39       5       0                               0D     30
     128      67                                                00010000D     31
     128       0     -39       4       0                               0D     32
     502      71                                                00010000D     33
     502                       2       1                               0D     34
     504      73                                                00010001D     35
     504                       2       1                               0D     36
     406      75                                                00000000D     37
     406                       1      15                               0D     38
     314      76                                                00000200D     39
     314                       2       0                               0D     40
186,3,1,0,0,1,37;                                                      1P      1
514,3,5,1,7,1,9,1;                                                     3P      2
510,27,1,1,11;                                                         5P      3
510,29,1,1,13;                                                         7P      4
510,31,1,1,15;                                                         9P      5
508,6,0,35,1,0,0,0,35,2,0,0,0,35,3,1,0,0,35,4,0,0,0,35,5,0,0,0,       11P      6
35,3,0,0;                                                             11P      7
508,2,0,35,4,1,0,0,35,5,1,0;                                          13P      8
508,2,0,35,1,1,0,0,35,2,1,0;                                          15P      9
126,4,2,0,0,0,0,0.,0.,0.,1.5707963267949,1.5707963267949,             17P     10
3.14159265358979,3.14159265358979,3.14159265358979,1.,                17P     11
0.707106781186548,1.,0.707106781186548,1.,50.8,0.2,                   17P     12
4.44089209850063D-17,50.8,0.200000000000011,-50.8,                    17P     13
3.11060286983428D-15,0.200000000000011,-50.8,-50.8,                   17P     14
0.200000000000011,-50.8,-50.8,0.2,-6.17679681868355D-15,0.,           17P     15
3.14159265358979,0.,0.,0.;                                            17P     16
126,4,2,0,0,0,0,3.14159265358979,3.14159265358979,                    19P     17
3.14159265358979,4.71238898038469,4.71238898038469,                   19P     18
6.28318530717959,6.28318530717959,6.28318530717959,1.,                19P     19
0.707106781186548,1.,0.707106781186548,1.,-50.8,0.2,                  19P     20
-6.17679681868355D-15,-50.8,0.199999999999989,50.8,                   19P     21
-9.33180860950283D-15,0.199999999999989,50.8,50.8,                    19P     22
0.199999999999989,50.8,50.8,0.2,1.24868204003221D-14,                 19P     23
3.14159265358979,6.28318530717959,0.,0.,0.;                           19P     24
126,1,1,0,0,1,0,-0.00196850393700787,-0.00196850393700787,            21P     25
0.00196850393700787,0.00196850393700787,1.,1.,-50.8,0.2,              21P     26
4.44089209850063D-17,-50.8,0.,0.,-0.00196850393700787,                21P     27
0.00196850393700787,0.,0.,0.;                                         21P     28
126,4,2,0,0,0,0,0.,0.,0.,1.5707963267949,1.5707963267949,             23P     29
3.14159265358979,3.14159265358979,3.14159265358979,1.,                23P     30
0.707106781186548,1.,0.707106781186548,1.,50.8,0.,0.,50.8,            23P     31
-1.12798659301916D-14,50.8,3.11060286983428D-15,                      23P     32
-1.12798659301916D-14,50.8,-50.8,-1.12798659301916D-14,50.8,          23P     33
-50.8,-1.38138517062204D-30,6.22120573966855D-15,0.,                  23P     34
3.14159265358979,0.,0.,0.;                                            23P     35
126,4,2,0,0,0,0,3.14159265358979,3.14159265358979,                    25P     36
3.14159265358979,4.71238898038469,4.71238898038469,                   25P     37
6.28318530717959,6.28318530717959,6.28318530717959,1.,                25P     38
0.707106781186548,1.,0.707106781186548,1.,-50.8,                      25P     39
-1.38138517062204D-30,6.22120573966855D-15,-50.8,                     25P     40
1.12798659301916D-14,-50.8,-9.33180860950283D-15,                     25P     41
1.12798659301916D-14,-50.8,50.8,1.12798659301916D-14,-50.8,50.8,      25P     42
2.76277034124408D-30,-1.24424114793371D-14,3.14159265358979,          25P     43
6.28318530717959,0.,0.,0.;                                            25P     44
128,1,8,1,2,0,1,0,0,1,-0.00196850393700787,-0.00196850393700787,      27P     45
0.00196850393700787,0.00196850393700787,-3.14159265358979,            27P     46
-3.14159265358979,-3.14159265358979,-1.5707963267949,                 27P     47
-1.5707963267949,0.,0.,1.5707963267949,1.5707963267949,               27P     48
3.14159265358979,3.14159265358979,3.14159265358979,1.,1.,             27P     49
0.707106781186548,0.707106781186548,1.,1.,0.707106781186548,          27P     50
0.707106781186548,1.,1.,0.707106781186548,0.707106781186548,1.,       27P     51
1.,0.707106781186548,0.707106781186548,1.,1.,-50.8,0.2,               27P     52
4.44089209850063D-17,-50.8,0.,0.,-50.8,0.199999999999989,50.8,        27P     53
-50.8,-1.12798659301916D-14,50.8,0.,0.199999999999989,50.8,0.,        27P     54
-1.12798659301916D-14,50.8,50.8,0.199999999999989,50.8,50.8,          27P     55
-1.12798659301916D-14,50.8,50.8,0.2,4.44089209850063D-17,50.8,        27P     56
0.,0.,50.8,0.200000000000011,-50.8,50.8,1.12798659301916D-14,         27P     57
-50.8,0.,0.200000000000011,-50.8,0.,1.12798659301916D-14,-50.8,       27P     58
-50.8,0.200000000000011,-50.8,-50.8,1.12798659301916D-14,-50.8,       27P     59
-50.8,0.2,4.44089209850063D-17,-50.8,0.,0.,-0.00196850393700787,      27P     60
0.00196850393700787,-3.14159265358979,3.14159265358979;               27P     61
128,1,1,1,1,0,0,1,0,0,-5.081,-5.081,5.081,5.081,-5.081,-5.081,        29P     62
5.081,5.081,1.,1.,1.,1.,50.81,-1.12820863762408D-14,50.81,            29P     63
-50.81,-1.12820863762408D-14,50.81,50.81,1.12820863762408D-14,        29P     64
-50.81,-50.81,1.12820863762408D-14,-50.81,-5.081,5.081,-5.081,        29P     65
5.081;                                                                29P     66
128,1,1,1,1,0,0,1,0,0,-5.081,-5.081,5.081,5.081,-5.081,-5.081,        31P     67
5.081,5.081,1.,1.,1.,1.,-50.81,0.199999999999989,50.81,50.81,         31P     68
0.199999999999989,50.81,-50.81,0.200000000000011,-50.81,50.81,        31P     69
0.200000000000011,-50.81,-5.081,5.081,-5.081,5.081;                   31P     70
502,4,50.8,0.2,4.44089209850063D-17,-50.8,0.2,                        33P     71
4.44089209850063D-17,-50.8,0.,0.,50.8,0.,0.;                          33P     72
504,5,17,33,1,33,2,19,33,2,33,1,21,33,2,33,3,23,33,4,33,3,25,33,      35P     73
3,33,4;                                                               35P     74
406,1,5HBody1;                                                        37P     75
314,62.7450980392157,62.7450980392157,62.7450980392157,13HSteel       39P     76
- Satin;                                                              39P     77
S      1G      3D     40P     77                                        T      1
