0
SECTION
2
HEADER
9
$INSUNITS
70
4
9
$ACADVER
1
AC1014
9
$HANDSEED
5
FFFF
0
ENDSEC
0
SECTION
2
TABLES
0
TABLE
2
VPORT
5
8
100
AcDbSymbolTable
0
ENDTAB
0
TABLE
2
LTYPE
5
5
100
AcDbSymbolTable
0
LTYPE
5
14
100
AcDbSymbolTableRecord
100
AcDbLinetypeTableRecord
2
BYBLOCK
70
0
0
LTYPE
5
15
100
AcDbSymbolTableRecord
100
AcDbLinetypeTableRecord
2
BYLAYER
70
0
0
ENDTAB
0
TABLE
2
LAYER
5
2
100
AcDbSymbolTable
70
2
0
LAYER
5
50
100
AcDbSymbolTableRecord
100
AcDbLayerTableRecord
2
0
70
0
6
CONTINUOUS
0
ENDTAB
0
TABLE
2
STYLE
5
3
100
AcDbSymbolTable
70
1
0
STYLE
5
11
100
AcDbSymbolTableRecord
100
AcDbTextStyleTableRecord
2
STANDARD
70
0
0
ENDTAB
0
TABLE
2
VIEW
5
6
100
AcDbSymbolTable
70
0
0
ENDTAB
0
TABLE
2
UCS
5
7
100
AcDbSymbolTable
70
0
0
ENDTAB
0
TABLE
2
APPID
5
9
100
AcDbSymbolTable
70
2
0
APPID
5
12
100
AcDbSymbolTableRecord
100
AcDbRegAppTableRecord
2
ACAD
70
0
0
ENDTAB
0
TABLE
2
DIMSTYLE
5
A
100
AcDbSymbolTable
70
1
0
ENDTAB
0
TABLE
2
BLOCK_RECORD
5
1
100
AcDbSymbolTable
70
1
0
BLOCK_RECORD
5
1F
100
AcDbSymbolTableRecord
100
AcDbBlockTableRecord
2
*MODEL_SPACE
0
BLOCK_RECORD
5
1B
100
AcDbSymbolTableRecord
100
AcDbBlockTableRecord
2
*PAPER_SPACE
0
ENDTAB
0
ENDSEC
0
SECTION
2
BLOCKS
0
BLOCK
5
20
100
AcDbEntity
100
AcDbBlockBegin
2
*MODEL_SPACE
0
ENDBLK
5
21
100
AcDbEntity
100
AcDbBlockEnd
0
BLOCK
5
1C
100
AcDbEntity
100
AcDbBlockBegin
2
*PAPER_SPACE
0
ENDBLK
5
1D
100
AcDbEntity
100
AcDbBlockEnd
0
ENDSEC
0
SECTION
2
ENTITIES
0
LINE
5
100
100
AcDbEntity
8
0
100
AcDbLine
10
9.000000000000048
20
10.508039891549839
30
0
11
9.000000000000048
21
39.084668806854161
31
3.9987012391473418e-44
0
LINE
5
101
100
AcDbEntity
8
0
100
AcDbLine
10
15.824690683711275
20
47.500000000000071
30
0
11
16.547228820181989
21
47.500000000000071
31
0
0
LINE
5
102
100
AcDbEntity
8
0
100
AcDbLine
10
12.976152028763526
20
72.819834464343543
30
0
11
12.976152028763524
21
111.50000000000006
31
0
0
LINE
5
103
100
AcDbEntity
8
0
100
AcDbLine
10
12.976152028763524
20
111.50000000000006
30
-2.2334202979015274e-31
11
2.7000000000000424
21
111.50000000000006
31
0
0
LINE
5
104
100
AcDbEntity
8
0
100
AcDbLine
10
2.7000000000000437
20
111.50000000000003
30
0
11
-30.799999999999951
21
78.000000000000028
31
0
0
LINE
5
105
100
AcDbEntity
8
0
100
AcDbLine
10
-30.799999999999951
20
78.000000000000028
30
0
11
-30.799999999999951
21
32.000000000000014
31
-7.9974024782946831e-45
0
SPLINE
5
106
100
AcDbEntity
8
0
100
AcDbSpline
70
0
71
3
72
54
73
50
74
0
42
0.000000001
43
0.0000000001
44
0.0000000001
40
0
40
0
40
0
40
0
40
0.0090382107510009763
40
0.0090382107510009763
40
0.058584376946103897
40
0.058584376946103897
40
0.34330679559106392
40
0.34330679559106392
40
0.49130875341183
40
0.49130875341183
40
0.71822176714538466
40
0.71822176714538466
40
0.81859890146221381
40
0.81859890146221381
40
0.89635000757048566
40
0.89635000757048566
40
0.96611183654237232
40
0.96611183654237232
40
1.0397224383400934
40
1.0397224383400934
40
1.1368858309533885
40
1.1368858309533885
40
1.289249289959983
40
1.289249289959983
40
1.5854076912239037
40
1.5854076912239037
40
1.7761896018580161
40
1.7761896018580161
40
1.8817531225280657
40
1.8817531225280657
40
1.9730422807492622
40
1.9730422807492622
40
2.0732103361277767
40
2.0732103361277767
40
2.221587468550557
40
2.221587468550557
40
2.404127497322162
40
2.404127497322162
40
2.6223391716358555
40
2.6223391716358555
40
2.9883728653577872
40
2.9883728653577872
40
3.1472124275987512
40
3.1472124275987512
40
3.2210679090156695
40
3.2210679090156695
40
3.2796059220771778
40
3.2796059220771778
40
3.3435948975594258
40
3.3435948975594258
40
3.3435948975594258
40
3.3435948975594258
10
9.000000000000048
20
-15.49999999999994
30
0
10
8.9698726308300447
20
-15.49999999999994
30
0
10
8.9283195935930735
20
-15.492935973600364
30
0
10
8.6927785836771054
20
-15.444516222050106
30
0
10
8.3183075495178276
20
-15.322147470959575
30
0
10
5.545675125283644
20
-14.357079191268918
30
0
10
0.29790363990185126
20
-12.259523747697401
30
0
10
-6.8757526877668926
20
-10.043134879156819
30
0
10
-8.9693117471603845
20
-9.5219220839076861
30
0
10
-14.258981730398322
20
-8.6841982521770458
30
0
10
-16.806721419453524
20
-8.7138585351495745
30
0
10
-20.552140382380774
20
-7.7928445457890874
30
0
10
-21.697607229923278
20
-7.3826877292070803
30
0
10
-23.486220926022931
20
-6.2922719179212985
30
0
10
-24.171068520239324
20
-5.7014193180375017
30
0
10
-25.196739906463321
20
-4.3105991240465515
30
0
10
-25.538129731223851
20
-3.5742778444871401
30
0
10
-25.933276609817888
20
-1.9422462972241799
30
0
10
-25.961151882922163
20
-1.0787761054520562
30
0
10
-25.708283254295967
20
0.90891356968396231
30
0
10
-25.329748301471167
20
2.0071059515461056
30
0
10
-24.01587055996217
20
4.635829956539725
30
0
10
-22.8685060575528
20
6.0978026655680306
30
0
10
-19.189564181839238
20
9.9213559034697134
30
0
10
-16.230579925008932
20
11.980233570928858
30
0
10
-12.274592665941558
20
14.8920545869662
30
0
10
-10.961657943735359
20
15.909001609253048
30
0
10
-9.5763140502216899
20
17.483721806702977
30
0
10
-9.2292096902719187
20
18.023759645347933
30
0
10
-8.8371072340892667
20
19.056984973729996
30
0
10
-8.7583504893428827
20
19.546501863999683
30
0
10
-8.7966039308424069
20
20.616103240997244
30
0
10
-8.9325698188698546
20
21.169053863919558
30
0
10
-9.4358008128147333
20
22.461158446325491
30
0
10
-9.9185789697679638
20
23.253478898859726
30
0
10
-11.342957652160987
20
24.934770985947114
30
0
10
-12.451796244428856
20
25.907090418284117
30
0
10
-15.740032385797964
20
27.713644528594873
30
0
10
-17.628717509745847
20
28.232394328087604
30
0
10
-22.277554217194009
20
29.051466576861667
30
0
10
-25.125477368737108
20
29.029722720230154
30
0
10
-28.189040668618432
20
29.458864073591236
30
0
10
-28.980802678676753
20
29.648828418702152
30
0
10
-29.858490172290821
20
30.118732190562714
30
0
10
-30.114294154357207
20
30.306354550241508
30
0
10
-30.479731326404689
20
30.740327465163652
30
0
10
-30.599061721262871
20
30.954896366106382
30
0
10
-30.765497882819446
20
31.452684100312919
30
0
10
-30.799999999999951
20
31.726175607888617
30
0
10
-30.799999999999951
20
32.000000000000014
30
0
0
CIRCLE
5
107
100
AcDbEntity
8
0
100
AcDbCircle
10
-19
20
-1.2500000000000369
30
0
40
3.0000000000000004
210
0
220
0
230
1
0
CIRCLE
5
108
100
AcDbEntity
8
0
100
AcDbCircle
10
-4.7999999999999536
20
55.000000000000028
30
0
40
2.75
210
0
220
0
230
1
0
LINE
5
109
100
AcDbEntity
8
0
100
AcDbLine
10
15.824690683711278
20
111.50000000000006
30
0
11
15.824690683711275
21
47.500000000000071
31
0
0
LINE
5
110
100
AcDbEntity
8
0
100
AcDbLine
10
16.547228820182585
20
103.00000000000009
30
0
11
24.452771179817518
21
103.00000000000009
31
0
0
LINE
5
111
100
AcDbEntity
8
0
100
AcDbLine
10
16.547228820181989
20
47.500000000000071
30
0
11
16.547228820182585
21
103.00000000000009
31
0
0
LINE
5
112
100
AcDbEntity
8
0
100
AcDbLine
10
24.452771179818122
20
47.500000000000071
30
0
11
27.234309469989704
21
47.500000000000071
31
0
0
LINE
5
113
100
AcDbEntity
8
0
100
AcDbLine
10
27.234309469989704
20
47.500000000000071
30
0
11
27.234309469989739
21
111.50000000000006
31
0
0
LINE
5
114
100
AcDbEntity
8
0
100
AcDbLine
10
27.234309469989739
20
111.50000000000006
30
0
11
15.824690683711278
21
111.50000000000006
31
0
0
LWPOLYLINE
5
115
100
AcDbEntity
8
0
100
AcDbPolyline
90
4
70
1
43
0.0
10
30.082848124937524
20
111.50000000000006
10
30.082848124937492
20
47.500000000000071
10
32.000000000000021
20
47.500000000000071
10
32.00000000000005
20
111.50000000000006
0
CIRCLE
5
116
100
AcDbEntity
8
0
100
AcDbCircle
10
-1.5000000000000013
20
17.650000000000002
30
0
40
3.0000000000000004
210
0
220
0
230
1
0
ARC
5
117
100
AcDbEntity
8
0
100
AcDbCircle
10
9.5000000000000142
20
7.5500000000000238
30
0
40
3.0000000000000018
210
-2.4651903288154919e-32
220
1.4584262665799056e-31
230
1
100
AcDbArc
50
99.594068226859818
51
260.40593177314014
0
LINE
5
118
100
AcDbEntity
8
0
100
AcDbLine
10
9.000000000000048
20
-15.49999999999994
30
0
11
9.000000000000048
21
4.5919601084502082
31
0
0
LINE
5
119
100
AcDbEntity
8
0
100
AcDbLine
10
24.452771179817518
20
103.00000000000009
30
0
11
24.452771179818122
21
47.500000000000071
31
0
0
LINE
5
120
100
AcDbEntity
8
0
100
AcDbLine
10
9.0000000000000462
20
47.500000000000071
30
0
11
12.976152028763522
21
47.500000000000071
31
0
0
CIRCLE
5
121
100
AcDbEntity
8
0
100
AcDbCircle
10
-20.299999999999891
20
70.500000000000043
30
0
40
3.25
210
0
220
0
230
1
0
CIRCLE
5
122
100
AcDbEntity
8
0
100
AcDbCircle
10
-20.299999999999919
20
39.500000000000021
30
0
40
3.25
210
0
220
0
230
1
0
ARC
5
123
100
AcDbEntity
8
0
100
AcDbCircle
10
10.700000000000093
20
70.499999999999986
30
2.7369110631344083e-46
40
3.2500000000000009
210
1.4074585494814833e-31
220
-1.3809561337426041e-31
230
1
100
AcDbArc
50
45.5445498678787
51
314.45545013212126
0
ARC
5
124
100
AcDbEntity
8
0
100
AcDbCircle
10
10.700000000000058
20
39.500000000000028
30
0
40
1.7500000000000007
210
0
220
0
230
1
100
AcDbArc
50
166.27086732458864
51
193.72913267541139
0
LINE
5
125
100
AcDbEntity
8
0
100
AcDbLine
10
9.0000000000000497
20
39.915331193145896
30
0
11
9.0000000000000462
21
47.500000000000071
31
0
0
LINE
5
126
100
AcDbEntity
8
0
100
AcDbLine
10
12.976152028763522
20
47.500000000000071
30
0
11
12.976152028763524
21
68.180165535656428
31
-6.4094948549207165e-31
0
ENDSEC
0
SECTION
2
OBJECTS
0
DICTIONARY
5
C
100
AcDbDictionary
3
ACAD_GROUP
350
D
3
ACAD_MLINESTYLE
350
17
0
DICTIONARY
5
D
100
AcDbDictionary
0
DICTIONARY
5
1A
330
C
100
AcDbDictionary
0
DICTIONARY
5
17
100
AcDbDictionary
0
ENDSEC
0
EOF
