0
SECTION
2
HEADER
9
$INSUNITS
70
4
9
$ACADVER
1
AC1014
9
$HANDSEED
5
FFFF
0
ENDSEC
0
SECTION
2
TABLES
0
TABLE
2
VPORT
5
8
100
AcDbSymbolTable
0
ENDTAB
0
TABLE
2
LTYPE
5
5
100
AcDbSymbolTable
0
LTYPE
5
14
100
AcDbSymbolTableRecord
100
AcDbLinetypeTableRecord
2
BYBLOCK
70
0
0
LTYPE
5
15
100
AcDbSymbolTableRecord
100
AcDbLinetypeTableRecord
2
BYLAYER
70
0
0
ENDTAB
0
TABLE
2
LAYER
5
2
100
AcDbSymbolTable
70
2
0
LAYER
5
50
100
AcDbSymbolTableRecord
100
AcDbLayerTableRecord
2
0
70
0
6
CONTINUOUS
0
ENDTAB
0
TABLE
2
STYLE
5
3
100
AcDbSymbolTable
70
1
0
STYLE
5
11
100
AcDbSymbolTableRecord
100
AcDbTextStyleTableRecord
2
STANDARD
70
0
0
ENDTAB
0
TABLE
2
VIEW
5
6
100
AcDbSymbolTable
70
0
0
ENDTAB
0
TABLE
2
UCS
5
7
100
AcDbSymbolTable
70
0
0
ENDTAB
0
TABLE
2
APPID
5
9
100
AcDbSymbolTable
70
2
0
APPID
5
12
100
AcDbSymbolTableRecord
100
AcDbRegAppTableRecord
2
ACAD
70
0
0
ENDTAB
0
TABLE
2
DIMSTYLE
5
A
100
AcDbSymbolTable
70
1
0
ENDTAB
0
TABLE
2
BLOCK_RECORD
5
1
100
AcDbSymbolTable
70
1
0
BLOCK_RECORD
5
1F
100
AcDbSymbolTableRecord
100
AcDbBlockTableRecord
2
*MODEL_SPACE
0
BLOCK_RECORD
5
1B
100
AcDbSymbolTableRecord
100
AcDbBlockTableRecord
2
*PAPER_SPACE
0
ENDTAB
0
ENDSEC
0
SECTION
2
BLOCKS
0
BLOCK
5
20
100
AcDbEntity
100
AcDbBlockBegin
2
*MODEL_SPACE
0
ENDBLK
5
21
100
AcDbEntity
100
AcDbBlockEnd
0
BLOCK
5
1C
100
AcDbEntity
100
AcDbBlockBegin
2
*PAPER_SPACE
0
ENDBLK
5
1D
100
AcDbEntity
100
AcDbBlockEnd
0
ENDSEC
0
SECTION
2
ENTITIES
0
LWPOLYLINE
5
100
100
AcDbEntity
8
0
100
AcDbPolyline
90
96
70
1
43
0.0
10
-4.4613778132797712
20
-7.6084497768714421
42
0.069431340807823344
10
-2.8569597492634653
20
-6.0869377690999729
42
-0.33512016877664536
10
-2.5067048330538784
20
-5.9972019208914684
42
0.0016048867207447124
10
-2.4681541605216921
20
-6.0131701322929025
42
-0.3351201687766438
10
-2.2839393609097201
20
-6.3242905854723821
42
0.069431340807823136
10
-2.2253159263375029
20
-8.534656936748469
42
0.029363625800673889
10
-1.2101479728986941
20
-8.7365863976549338
42
0.069431340807823039
10
-0.31011639948130504
20
-6.7169083835184216
42
-0.33512016877664624
10
-0.020863473632431462
20
-6.4999665164882181
42
0.001604886720749036
10
0.020863473632432104
20
-6.4999665164882163
42
-0.33512016877664391
10
0.31011639948130498
20
-6.7169083835184207
42
0.069431340807823039
10
1.2101479728986957
20
-8.7365863976549356
42
0.029363625800677206
10
2.2253159263376263
20
-8.5346569367484335
42
0.069431340807822831
10
2.2839393609098106
20
-6.3242905854723492
42
-0.33512016877664397
10
2.4681541605217805
20
-6.0131701322928679
42
0.0016048867207533598
10
2.5067048330539654
20
-5.997201920891432
42
-0.33512016877664574
10
2.8569597492635546
20
-6.0869377690999311
42
0.069431340807823136
10
4.4613778132798814
20
-7.608449776871379
42
0.029363625800677445
10
5.3219956483281443
20
-7.0334033240797664
42
0.069431340807822831
10
4.5302860575642683
20
-4.9688568756250264
42
-0.3351201687766438
10
4.5814176976097283
20
-4.6109231049789114
42
0.0016048867207447124
10
4.6109231049789257
20
-4.5814176976097123
42
-0.33512016877664552
10
4.9688568756250433
20
-4.5302860575642532
42
0.069431340807822928
10
7.0334033240797869
20
-5.3219956483281212
42
0.029363625800677206
10
7.6084497768713906
20
-4.4613778132798538
42
0.069431340807823136
10
6.0869377690999418
20
-2.856959749263531
42
-0.33512016877664502
10
5.9972019208914418
20
-2.5067048330539432
42
0.0016048867207533598
10
6.0131701322928741
20
-2.4681541605217574
42
-0.33512016877664424
10
6.3242905854723572
20
-2.2839393609097893
42
0.069431340807823039
10
8.5346569367484424
20
-2.2253159263375974
42
0.029363625800677445
10
8.7365863976549356
20
-1.2101479728986653
42
0.069431340807823136
10
6.7169083835184225
20
-0.3101163994812815
42
-0.33512016877664591
10
6.4999665164882172
20
-0.020863473632408806
42
0.0016048867207447124
10
6.4999665164882172
20
0.020863473632454846
42
-0.33512016877664486
10
6.7169083835184207
20
0.31011639948132941
42
0.069431340807823039
10
8.7365863976549303
20
1.2101479728987266
42
0.029363625800677445
10
8.5346569367484229
20
2.2253159263376556
42
0.069431340807823039
10
6.324290585472343
20
2.283939360909832
42
-0.33512016877664502
10
6.013170132292859
20
2.4681541605218014
42
0.001604886720736065
10
5.9972019208914249
20
2.5067048330539854
42
-0.33512016877664574
10
6.0869377690999222
20
2.8569597492635754
42
0.069431340807822928
10
7.6084497768713621
20
4.4613778132799098
42
0.029363625800677206
10
7.0334033240797478
20
5.3219956483281683
42
0.069431340807822831
10
4.9688568756250096
20
4.530286057564286
42
-0.33512016877664297
10
4.6109231049788963
20
4.5814176976097452
42
0.001604886720749036
10
4.5814176976096954
20
4.6109231049789425
42
-0.33512016877664391
10
4.5302860575642354
20
4.9688568756250584
42
0.069431340807822928
10
5.3219956483281008
20
7.0334033240798064
42
0.029363625800677445
10
4.4613778132798254
20
7.6084497768714048
42
0.069431340807823039
10
2.8569597492635106
20
6.086937769099948
42
-0.33512016877664397
10
2.5067048330539219
20
5.9972019208914489
42
0.001604886720749036
10
2.4681541605217365
20
6.013170132292883
42
-0.33512016877664491
10
2.2839393609097671
20
6.3242905854723652
42
0.069431340807823136
10
2.2253159263375673
20
8.5346569367484513
42
0.029363625800676023
10
1.2101479728986964
20
8.7365863976549321
42
0.069431340807823039
10
0.31011639948130504
20
6.7169083835184216
42
-0.33512016877664624
10
0.020863473632431462
20
6.4999665164882181
42
0.001604886720749036
10
-0.020863473632432104
20
6.4999665164882163
42
-0.33512016877664391
10
-0.31011639948130498
20
6.7169083835184207
42
0.069431340807823039
10
-1.2101479728986957
20
8.7365863976549356
42
0.029363625800678868
10
-2.2253159263376832
20
8.5346569367484175
42
0.069431340807823039
10
-2.2839393609098546
20
6.3242905854723341
42
-0.33512016877664569
10
-2.4681541605218227
20
6.013170132292851
42
0.0016048867207447124
10
-2.5067048330540072
20
5.9972019208914134
42
-0.33512016877664347
10
-2.8569597492635945
20
6.0869377690999107
42
0.069431340807823136
10
-4.4613778132799311
20
7.6084497768713462
42
0.029363625800677206
10
-5.3219956483281941
20
7.0334033240797291
42
0.069431340807823039
10
-4.5302860575643038
20
4.9688568756249945
42
-0.33512016877664569
10
-4.5814176976097603
20
4.6109231049788777
42
0.001604886720749036
10
-4.6109231049789585
20
4.5814176976096794
42
-0.33512016877664347
10
-4.9688568756250726
20
4.5302860575642168
42
0.069431340807823136
10
-7.0334033240798233
20
5.3219956483280741
42
0.029363625800677206
10
-7.6084497768714208
20
4.4613778132797979
42
0.069431340807823039
10
-6.0869377690999631
20
2.8569597492634875
42
-0.33512016877664519
10
-5.9972019208914604
20
2.5067048330538997
42
0.0016048867207447124
10
-6.0131701322928945
20
2.4681541605217121
42
-0.33512016877664269
10
-6.3242905854723741
20
2.2839393609097414
42
0.069431340807823039
10
-8.5346569367484584
20
2.2253159263375313
42
0.029363625800677206
10
-8.7365863976549445
20
1.2101479728986042
42
0.069431340807823039
10
-6.7169083835184251
20
0.31011639948123443
42
-0.33512016877664552
10
-6.4999665164882172
20
0.020863473632363391
42
0.0016048867207447124
10
-6.4999665164882172
20
-0.020863473632500209
42
-0.33512016877664463
10
-6.7169083835184189
20
-0.31011639948137493
42
0.069431340807823039
10
-8.736586397654925
20
-1.2101479728987876
42
0.029363625800677206
10
-8.5346569367484086
20
-2.2253159263377089
42
0.069431340807823039
10
-6.3242905854723279
20
-2.2839393609098741
42
-0.33512016877664502
10
-6.0131701322928439
20
-2.4681541605218409
42
0.001604886720749036
10
-5.9972019208914054
20
-2.5067048330540231
42
-0.33512016877664569
10
-6.0869377690999027
20
-2.8569597492636145
42
0.069431340807823136
10
-7.6084497768713337
20
-4.4613778132799577
42
0.029363625800677206
10
-7.0334033240797114
20
-5.3219956483282189
42
0.069431340807823039
10
-4.9688568756249802
20
-4.5302860575643225
42
-0.33512016877664746
10
-4.6109231049788626
20
-4.5814176976097762
42
0.0016048867207533598
10
-4.5814176976096634
20
-4.6109231049789745
42
-0.33512016877664408
10
-4.5302860575641999
20
-4.9688568756250886
42
0.069431340807823136
10
-5.3219956483280475
20
-7.0334033240798437
42
0.029363625800677445
0
CIRCLE
5
101
100
AcDbEntity
8
0
100
AcDbCircle
10
0
20
0
30
0
40
2.4999999999999996
210
0
220
2.4651903288156619e-32
230
-1
0
LWPOLYLINE
5
102
100
AcDbEntity
8
0
100
AcDbPolyline
90
96
70
1
43
0.0
10
-4.4613778132797721
20
-7.608449776871443
42
0.069431340807823136
10
-2.856959749263464
20
-6.0869377690999702
42
-0.33512016877664341
10
-2.5067048330538784
20
-5.9972019208914684
42
0.0016048867207447124
10
-2.468154160521693
20
-6.0131701322929025
42
-0.33512016877664458
10
-2.2839393609097201
20
-6.3242905854723821
42
0.069431340807823136
10
-2.2253159263375033
20
-8.534656936748469
42
0.029363625800673417
10
-1.2101479728986975
20
-8.7365863976549321
42
0.069431340807822831
10
-0.31011639948130548
20
-6.7169083835184251
42
-0.33512016877665124
10
-0.020863473632431444
20
-6.4999665164882181
42
0.001604886720749036
10
0.020863473632429519
20
-6.4999665164882172
42
-0.33512016877664746
10
0.31011639948130498
20
-6.7169083835184198
42
0.069431340807823136
10
1.2101479728986977
20
-8.7365863976549392
42
0.029363625800677685
10
2.2253159263376276
20
-8.5346569367484335
42
0.069431340807822928
10
2.2839393609098102
20
-6.3242905854723466
42
-0.33512016877663853
10
2.4681541605217809
20
-6.0131701322928688
42
0.001604886720749036
10
2.5067048330539632
20
-5.997201920891432
42
-0.33512016877664769
10
2.8569597492635546
20
-6.0869377690999311
42
0.069431340807823136
10
4.4613778132798823
20
-7.6084497768713808
42
0.029363625800677206
10
5.3219956483281416
20
-7.0334033240797673
42
0.069431340807823039
10
4.5302860575642665
20
-4.9688568756250238
42
-0.33512016877664125
10
4.5814176976097283
20
-4.6109231049789114
42
0.001604886720749036
10
4.6109231049789248
20
-4.5814176976097141
42
-0.33512016877664974
10
4.9688568756250424
20
-4.5302860575642532
42
0.069431340807822622
10
7.0334033240797815
20
-5.3219956483281212
42
0.029363625800677445
10
7.6084497768713897
20
-4.4613778132798574
42
0.069431340807823344
10
6.0869377690999373
20
-2.8569597492635297
42
-0.33512016877664291
10
5.9972019208914418
20
-2.5067048330539432
42
0.001604886720749036
10
6.0131701322928732
20
-2.4681541605217587
42
-0.33512016877664808
10
6.3242905854723572
20
-2.2839393609097893
42
0.069431340807823039
10
8.5346569367484388
20
-2.2253159263375966
42
0.029363625800677445
10
8.7365863976549356
20
-1.2101479728986675
42
0.069431340807823039
10
6.7169083835184198
20
-0.31011639948128061
42
-0.33512016877664769
10
6.4999665164882172
20
-0.020863473632408799
42
0.001604886720749036
10
6.4999665164882172
20
0.020863473632452157
42
-0.33512016877664708
10
6.7169083835184198
20
0.31011639948132941
42
0.069431340807823344
10
8.7365863976549321
20
1.2101479728987299
42
0.029363625800677206
10
8.5346569367484246
20
2.2253159263376499
42
0.069431340807822733
10
6.3242905854723466
20
2.2839393609098333
42
-0.33512016877664702
10
6.013170132292859
20
2.4681541605218014
42
0.0016048867207317415
10
5.9972019208914249
20
2.5067048330539832
42
-0.33512016877664658
10
6.0869377690999222
20
2.8569597492635754
42
0.069431340807823344
10
7.608449776871363
20
4.4613778132799133
42
0.029363625800677206
10
7.0334033240797469
20
5.3219956483281718
42
0.069431340807823039
10
4.9688568756250087
20
4.5302860575642852
42
-0.33512016877664108
10
4.6109231049788946
20
4.5814176976097434
42
0.0016048867207447124
10
4.581417697609699
20
4.6109231049789399
42
-0.33512016877664741
10
4.5302860575642354
20
4.9688568756250584
42
0.069431340807822928
10
5.3219956483281008
20
7.0334033240798082
42
0.029363625800677685
10
4.4613778132798227
20
7.6084497768714057
42
0.069431340807822831
10
2.8569597492635119
20
6.0869377690999524
42
-0.33512016877664419
10
2.5067048330539219
20
5.9972019208914489
42
0.001604886720749036
10
2.4681541605217379
20
6.013170132292883
42
-0.33512016877664413
10
2.2839393609097645
20
6.3242905854723652
42
0.069431340807822831
10
2.2253159263375677
20
8.5346569367484459
42
0.029363625800676023
10
1.210147972898693
20
8.7365863976549303
42
0.069431340807822831
10
0.31011639948130548
20
6.7169083835184251
42
-0.33512016877665124
10
0.020863473632431444
20
6.4999665164882181
42
0.001604886720749036
10
-0.020863473632429519
20
6.4999665164882172
42
-0.33512016877664746
10
-0.31011639948130498
20
6.7169083835184198
42
0.069431340807823136
10
-1.2101479728986977
20
8.7365863976549392
42
0.029363625800678868
10
-2.2253159263376823
20
8.5346569367484157
42
0.069431340807823039
10
-2.2839393609098546
20
6.3242905854723368
42
-0.33512016877664852
10
-2.4681541605218222
20
6.013170132292851
42
0.0016048867207447124
10
-2.5067048330540045
20
5.9972019208914151
42
-0.33512016877665074
10
-2.8569597492635967
20
6.0869377690999107
42
0.069431340807823136
10
-4.4613778132799329
20
7.6084497768713488
42
0.029363625800677445
10
-5.3219956483281905
20
7.03340332407973
42
0.069431340807822831
10
-4.5302860575643047
20
4.968856875624998
42
-0.33512016877664974
10
-4.5814176976097603
20
4.6109231049788777
42
0.0016048867207447124
10
-4.6109231049789567
20
4.5814176976096812
42
-0.33512016877664275
10
-4.9688568756250726
20
4.530286057564215
42
0.069431340807823136
10
-7.0334033240798259
20
5.3219956483280741
42
0.029363625800677445
10
-7.6084497768714234
20
4.4613778132797952
42
0.069431340807822831
10
-6.0869377690999649
20
2.8569597492634897
42
-0.33512016877664669
10
-5.9972019208914604
20
2.5067048330538997
42
0.0016048867207447124
10
-6.0131701322928937
20
2.4681541605217161
42
-0.33512016877664319
10
-6.3242905854723732
20
2.2839393609097414
42
0.069431340807823136
10
-8.5346569367484602
20
2.2253159263375286
42
0.029363625800677206
10
-8.7365863976549445
20
1.2101479728986042
42
0.069431340807822831
10
-6.7169083835184287
20
0.31011639948123582
42
-0.33512016877664885
10
-6.4999665164882172
20
0.020863473632363374
42
0.0016048867207447124
10
-6.4999665164882172
20
-0.020863473632497572
42
-0.33512016877664919
10
-6.7169083835184189
20
-0.31011639948137493
42
0.069431340807823039
10
-8.736586397654925
20
-1.2101479728987887
42
0.029363625800677206
10
-8.5346569367484086
20
-2.2253159263377089
42
0.069431340807823039
10
-6.3242905854723244
20
-2.2839393609098737
42
-0.33512016877664569
10
-6.013170132292843
20
-2.4681541605218409
42
0.001604886720749036
10
-5.9972019208914062
20
-2.5067048330540214
42
-0.33512016877664447
10
-6.0869377690999027
20
-2.8569597492636145
42
0.069431340807823039
10
-7.6084497768713337
20
-4.4613778132799595
42
0.029363625800677685
10
-7.0334033240797105
20
-5.3219956483282171
42
0.069431340807823039
10
-4.9688568756249776
20
-4.5302860575643207
42
-0.33512016877664824
10
-4.6109231049788617
20
-4.5814176976097762
42
0.001604886720736065
10
-4.5814176976096652
20
-4.6109231049789727
42
-0.33512016877664563
10
-4.530286057564199
20
-4.9688568756250877
42
0.069431340807823039
10
-5.3219956483280466
20
-7.0334033240798437
42
0.029363625800677445
0
CIRCLE
5
103
100
AcDbEntity
8
0
100
AcDbCircle
10
0
20
-4.8985871965894118e-16
30
0
40
2.4999999999999996
210
0
220
0
230
1
0
LWPOLYLINE
5
104
100
AcDbEntity
8
0
100
AcDbPolyline
90
2
70
1
43
0.0
10
2.1903789596548808
20
8.7293894410262833
42
0.024752492053756868
10
1.3169464244749514
20
8.9031259743453379
42
-0.024752492053756556
0
CIRCLE
5
105
100
AcDbEntity
8
0
100
AcDbCircle
10
0
20
-4.8985871965894128e-16
30
5.9990391306474304e-32
40
2.5
210
0
220
0
230
1
0
LINE
5
106
100
AcDbEntity
8
0
100
AcDbLine
10
0
20
-4.8985871965894128e-16
30
5.9990391306474304e-32
11
-6.2580149395863316e-14
21
6.5000000000000018
31
1.2275257923423161e-31
0
LINE
5
107
100
AcDbEntity
8
0
100
AcDbLine
10
-6.2580149395863316e-14
20
6.5000000000000018
30
1.2275257923423161e-31
11
0.020863473632431444
21
6.4999665164882172
31
1.227532115740171e-31
0
ARC
5
108
100
AcDbEntity
8
0
100
AcDbCircle
10
0.021826334343277819
20
6.7999870012592947
30
3.0706809450905001e-31
40
0.30002202982951126
210
5.5860201746604051e-31
220
-6.1613372504113528e-31
230
1
100
AcDbArc
50
269.8161203371518
51
343.9242258151948
0
ARC
5
109
100
AcDbEntity
8
0
100
AcDbCircle
10
7.9972880100488215
20
4.5016448259091568
30
8.2725243803730651e-16
40
7.9999999999991438
210
-9.7322225959355135e-17
220
3.5715743751367305e-17
230
1
100
AcDbArc
50
146.62028448312188
51
163.92425246584341
0
ARC
5
110
100
AcDbEntity
8
0
100
AcDbCircle
10
-1.0658141036401503e-13
20
-8.1712414612411521e-13
30
1.0775257936146942e-14
40
9.0000000000005169
210
2.4834961000117467e-16
220
1.1713066043711228e-15
230
1
100
AcDbArc
50
75.914152412425381
51
81.585847587575657
0
ARC
5
111
100
AcDbEntity
8
0
100
AcDbCircle
10
-5.4845992886860753
20
7.2264570093590832
30
2.5897897850841623e-16
40
7.8207478546909392
210
3.3171875469185827e-17
220
-1.4210037222878076e-18
230
1
100
AcDbArc
50
-6.6241312295620238
51
11.079594280630635
0
ARC
5
112
100
AcDbEntity
8
0
100
AcDbCircle
10
2.5820772628269872
20
6.2907212703527895
30
2.0025299926484965e-31
40
0.30002184499999274
210
-1.1213185461589395e-30
220
-2.612452332959378e-31
230
1
100
AcDbArc
50
173.57574753415759
51
247.68390631349826
0
LINE
5
113
100
AcDbEntity
8
0
100
AcDbLine
10
0
20
-4.8985871965894128e-16
30
5.9990391306474304e-32
11
2.4874423103729884
21
6.0052169613234021
31
1.1970218356384593e-31
0
LINE
5
114
100
AcDbEntity
8
0
100
AcDbLine
10
2.4681541605217387
20
6.0131701322928857
30
0
11
2.4874423103729884
21
6.0052169613234021
31
1.1970218356384593e-31
0
ENDSEC
0
SECTION
2
OBJECTS
0
DICTIONARY
5
C
100
AcDbDictionary
3
ACAD_GROUP
350
D
3
ACAD_MLINESTYLE
350
17
0
DICTIONARY
5
D
100
AcDbDictionary
0
DICTIONARY
5
1A
330
C
100
AcDbDictionary
0
DICTIONARY
5
17
100
AcDbDictionary
0
ENDSEC
0
EOF
