0
SECTION
2
HEADER
9
$INSUNITS
70
4
9
$ACADVER
1
AC1014
9
$HANDSEED
5
FFFF
0
ENDSEC
0
SECTION
2
TABLES
0
TABLE
2
VPORT
5
8
100
AcDbSymbolTable
0
ENDTAB
0
TABLE
2
LTYPE
5
5
100
AcDbSymbolTable
0
LTYPE
5
14
100
AcDbSymbolTableRecord
100
AcDbLinetypeTableRecord
2
BYBLOCK
70
0
0
LTYPE
5
15
100
AcDbSymbolTableRecord
100
AcDbLinetypeTableRecord
2
BYLAYER
70
0
0
ENDTAB
0
TABLE
2
LAYER
5
2
100
AcDbSymbolTable
70
2
0
LAYER
5
50
100
AcDbSymbolTableRecord
100
AcDbLayerTableRecord
2
0
70
0
6
CONTINUOUS
0
ENDTAB
0
TABLE
2
STYLE
5
3
100
AcDbSymbolTable
70
1
0
STYLE
5
11
100
AcDbSymbolTableRecord
100
AcDbTextStyleTableRecord
2
STANDARD
70
0
0
ENDTAB
0
TABLE
2
VIEW
5
6
100
AcDbSymbolTable
70
0
0
ENDTAB
0
TABLE
2
UCS
5
7
100
AcDbSymbolTable
70
0
0
ENDTAB
0
TABLE
2
APPID
5
9
100
AcDbSymbolTable
70
2
0
APPID
5
12
100
AcDbSymbolTableRecord
100
AcDbRegAppTableRecord
2
ACAD
70
0
0
ENDTAB
0
TABLE
2
DIMSTYLE
5
A
100
AcDbSymbolTable
70
1
0
ENDTAB
0
TABLE
2
BLOCK_RECORD
5
1
100
AcDbSymbolTable
70
1
0
BLOCK_RECORD
5
1F
100
AcDbSymbolTableRecord
100
AcDbBlockTableRecord
2
*MODEL_SPACE
0
BLOCK_RECORD
5
1B
100
AcDbSymbolTableRecord
100
AcDbBlockTableRecord
2
*PAPER_SPACE
0
ENDTAB
0
ENDSEC
0
SECTION
2
BLOCKS
0
BLOCK
5
20
100
AcDbEntity
100
AcDbBlockBegin
2
*MODEL_SPACE
0
ENDBLK
5
21
100
AcDbEntity
100
AcDbBlockEnd
0
BLOCK
5
1C
100
AcDbEntity
100
AcDbBlockBegin
2
*PAPER_SPACE
0
ENDBLK
5
1D
100
AcDbEntity
100
AcDbBlockEnd
0
ENDSEC
0
SECTION
2
ENTITIES
0
LINE
5
100
100
AcDbEntity
8
0
100
AcDbLine
10
-10.079500000000007
20
22.470500000000012
30
0
11
-32.000000000000021
21
22.470500000000019
31
0
0
ARC
5
101
100
AcDbEntity
8
0
100
AcDbCircle
10
-13.117578643762695
20
15.858578643762716
30
0
40
0.20000000000000087
210
0
220
0
230
1
100
AcDbArc
50
135.00000000000037
51
225
0
LINE
5
102
100
AcDbEntity
8
0
100
AcDbLine
10
-32.000000000000021
20
16.500000000000025
30
0
11
-4.759000000000011
21
16.500000000000025
31
-8.8645749982151295e-30
0
LINE
5
103
100
AcDbEntity
8
0
100
AcDbLine
10
-16.041842712474615
20
16.500000000000018
30
0
11
-12.759000000000011
21
16.500000000000018
31
0
0
LINE
5
104
100
AcDbEntity
8
0
100
AcDbLine
10
-15.753977090191571
20
15.7878651591428
30
-1.3684518817726e-47
11
-16.558999768429981
21
14.982842480904591
31
0
0
LINE
5
105
100
AcDbEntity
8
0
100
AcDbLine
10
-32.000000510824989
20
16.500000000000025
30
0
11
-4.759000000000011
21
16.500000000000025
31
0
0
LINE
5
106
100
AcDbEntity
8
0
100
AcDbLine
10
-32.000000510824989
20
16.500000000000025
30
0
11
-4.759000000000011
21
16.500000000000025
31
0
0
LINE
5
107
100
AcDbEntity
8
0
100
AcDbLine
10
-13.259000000000006
20
15.717157287525405
30
0
11
-12.383264068711918
21
14.841421356237319
31
0
0
ARC
5
108
100
AcDbEntity
8
0
100
AcDbCircle
10
-16.276157287525407
20
14.700000000000017
30
0
40
0.39999967251050139
210
0
220
0
230
1
100
AcDbArc
50
135
51
269.99999999999949
0
LINE
5
109
100
AcDbEntity
8
0
100
AcDbLine
10
-16.024690687596543
20
16.200000003885336
30
-4.2497428360578106e-31
11
-15.753977090191562
21
15.929286406480339
31
-1.1406904652600904e-31
0
LINE
5
110
100
AcDbEntity
8
0
100
AcDbLine
10
-16.276157287525411
20
14.300000327489514
30
0
11
-14.400421356237313
21
14.300000327489485
31
0
0
LINE
5
111
100
AcDbEntity
8
0
100
AcDbLine
10
-32.000000000000021
20
22.470500000000019
30
0
11
-32.000000510824989
21
16.500000000000025
31
0
0
LINE
5
112
100
AcDbEntity
8
0
100
AcDbLine
10
-13.046865567833175
20
15.787865104693122
30
-6.4317409983658596e-46
11
-12.241842944044647
21
14.982842480904592
31
0
0
LINE
5
113
100
AcDbEntity
8
0
100
AcDbLine
10
-12.776152024878085
20
16.200000003885336
30
-5.5077407834012675e-31
11
-13.046865567833176
21
15.929286460930355
31
-1.1406904652600923e-31
0
ARC
5
114
100
AcDbEntity
8
0
100
AcDbCircle
10
-15.824687713860332
20
15.858575782811572
30
-1.140690465260114e-31
40
0.09999992299623045
210
-8.0659715727914382e-31
220
8.0658401137169437e-31
230
1
100
AcDbArc
50
-45.000000000004327
51
44.99999999999855
0
LINE
5
115
100
AcDbEntity
8
0
100
AcDbLine
10
-32.000000000000021
20
22.470500000000019
30
3.7870008757809036e-29
11
-32.000000000000021
21
16.500000000000025
31
0
0
ARC
5
116
100
AcDbEntity
8
0
100
AcDbCircle
10
-15.683264068711933
20
15.858578643762716
30
0
40
0.20000000000000087
210
0
220
0
230
1
100
AcDbArc
50
-45
51
44.999999999999638
0
ARC
5
117
100
AcDbEntity
8
0
100
AcDbCircle
10
-26.78284286617555
20
14.700000000000026
30
0
40
0.39999967251050483
210
0
220
0
230
1
100
AcDbArc
50
-89.999999999998991
51
44.999999999999638
0
LINE
5
118
100
AcDbEntity
8
0
100
AcDbLine
10
-16.276157287525407
20
14.49999999999989
30
0
11
-14.400421356237313
21
14.500000000000027
31
0
0
LINE
5
119
100
AcDbEntity
8
0
100
AcDbLine
10
-27.517157441226331
20
15.717157287525414
30
0
11
-26.641421509938045
21
14.84142135623733
31
0
0
LINE
5
120
100
AcDbEntity
8
0
100
AcDbLine
10
-16.041842712474615
20
16.500000000000018
30
0
11
-15.541842712474622
21
16.000000000000025
31
0
0
ARC
5
121
100
AcDbEntity
8
0
100
AcDbCircle
10
-27.234312439840625
20
15.858575782811585
30
-1.1406904652601153e-31
40
0.099999922996232019
210
1.6437963782378829e-34
220
1.643796377866514e-34
230
1
100
AcDbArc
50
135.00000000000287
51
225.00000000000861
0
LINE
5
122
100
AcDbEntity
8
0
100
AcDbLine
10
-15.541842712474622
20
15.717157287525405
30
0
11
-16.417578643762909
21
14.841421356237321
31
0
0
LINE
5
123
100
AcDbEntity
8
0
100
AcDbLine
10
-26.782842866175542
20
14.300000327489521
30
0
11
-28.658578797463647
21
14.300000327489496
31
0
0
ARC
5
124
100
AcDbEntity
8
0
100
AcDbCircle
10
-12.524685424949221
20
14.700000000000017
30
0
40
0.39999967251050261
210
0
220
0
230
1
100
AcDbArc
50
-89.999999999999247
51
45.000000000000185
0
LINE
5
125
100
AcDbEntity
8
0
100
AcDbLine
10
-27.034309466104411
20
16.200000003885343
30
-5.5077407834012675e-31
11
-27.305023063509395
21
15.929286406480347
31
-1.1406904652600891e-31
0
ARC
5
126
100
AcDbEntity
8
0
100
AcDbCircle
10
-12.524685424949221
20
14.700000000000017
30
0
40
0.19999999999998908
210
0
220
0
230
1
100
AcDbArc
50
-90
51
45
0
ARC
5
127
100
AcDbEntity
8
0
100
AcDbCircle
10
-29.941421509938259
20
15.858578643762726
30
0
40
0.19999999999999929
210
0
220
0
230
1
100
AcDbArc
50
-44.999999999998217
51
44.99999999999784
0
LINE
5
128
100
AcDbEntity
8
0
100
AcDbLine
10
-12.524685424949221
20
14.500000000000028
30
0
11
-14.400421356237313
21
14.500000000000027
31
0
0
LINE
5
129
100
AcDbEntity
8
0
100
AcDbLine
10
-30.300000153700942
20
16.500000000000028
30
0
11
-29.800000153700946
21
16.000000000000028
31
0
0
LINE
5
130
100
AcDbEntity
8
0
100
AcDbLine
10
-30.534314728751738
20
14.500000000000055
30
0
11
-28.658578797463644
21
14.500000000000036
31
0
0
LINE
5
131
100
AcDbEntity
8
0
100
AcDbLine
10
-12.524685424949215
20
14.300000327489515
30
0
11
-14.400421356237313
21
14.300000327489485
31
0
0
LINE
5
132
100
AcDbEntity
8
0
100
AcDbLine
10
-28.658578797463644
20
16.500000000000036
30
-4.432287499107564e-30
11
-28.658578797463644
21
14.500000000000036
31
-4.432287499107564e-30
0
LINE
5
133
100
AcDbEntity
8
0
100
AcDbLine
10
-14.400421356237313
20
16.500000000000025
30
-4.4322874991075647e-30
11
-14.400421356237313
21
14.500000000000027
31
-4.4322874991075647e-30
0
ARC
5
134
100
AcDbEntity
8
0
100
AcDbCircle
10
-30.082845263986439
20
15.85857578281175
30
-1.1406904652601285e-31
40
0.099999999999975317
210
-4.7181748368806666e-33
220
1.6084617516045144e-30
230
1
100
AcDbArc
50
-44.999999999984887
51
44.999999999984169
0
ARC
5
135
100
AcDbEntity
8
0
100
AcDbCircle
10
-16.276157287525407
20
14.700000000000015
30
0
40
0.20000000000013274
210
0
220
0
230
1
100
AcDbArc
50
135.00000000003959
51
270
0
LINE
5
136
100
AcDbEntity
8
0
100
AcDbLine
10
-29.800000153700946
20
15.717157287525422
30
0
11
-30.675736084989037
21
14.841421356237332
31
0
0
ARC
5
137
100
AcDbEntity
8
0
100
AcDbCircle
10
-12.976154889714559
20
15.858575782811739
30
-1.1406904652601274e-31
40
0.09999999999994548
210
8.0204269947151456e-31
220
8.0204269947149039e-31
230
1
100
AcDbArc
50
135.00000000000074
51
225.00000000000071
0
ARC
5
138
100
AcDbEntity
8
0
100
AcDbCircle
10
-30.534314728751738
20
14.700000000000028
30
0
40
0.3999996725105045
210
0
220
0
230
1
100
AcDbArc
50
134.99999999999929
51
269.99999999999898
0
LINE
5
139
100
AcDbEntity
8
0
100
AcDbLine
10
-16.024690687596543
20
16.200000003885336
30
-4.2497428360578106e-31
11
-12.776152024878085
21
16.200000003885336
31
-5.5077407834012675e-31
0
LINE
5
140
100
AcDbEntity
8
0
100
AcDbLine
10
-26.782842866175546
20
14.499999999999895
30
0
11
-28.658578797463644
21
14.500000000000036
31
0
0
LINE
5
141
100
AcDbEntity
8
0
100
AcDbLine
10
-12.759000000000011
20
16.500000000000018
30
0
11
-13.259000000000006
21
16.000000000000025
31
0
0
LINE
5
142
100
AcDbEntity
8
0
100
AcDbLine
10
-30.012134585867784
20
15.787865104693132
30
-4.3790577010150533e-46
11
-30.817157209656312
21
14.982842480904608
31
0
0
LWPOLYLINE
5
143
100
AcDbEntity
8
0
100
AcDbPolyline
90
2
70
1
43
0.0
10
-11.059000000000012
20
20.500000000000021
10
-11.05900000000001
20
16.500000000000018
0
LINE
5
144
100
AcDbEntity
8
0
100
AcDbLine
10
-27.017157441226338
20
16.500000000000025
30
0
11
-30.300000153700942
21
16.500000000000028
31
0
0
LINE
5
145
100
AcDbEntity
8
0
100
AcDbLine
10
-30.534314728751745
20
14.300000327489526
30
0
11
-28.658578797463647
21
14.300000327489496
31
0
0
LINE
5
146
100
AcDbEntity
8
0
100
AcDbLine
10
-27.305023063509385
20
15.787865159142804
30
0
11
-26.500000385270972
21
14.982842480904599
31
0
0
LINE
5
147
100
AcDbEntity
8
0
100
AcDbLine
10
-21.529500076850482
20
23.438808874474894
30
3.6423289601079852e-30
11
-21.529500076850479
21
16.500000000000025
31
3.6423289601079852e-30
0
ARC
5
148
100
AcDbEntity
8
0
100
AcDbCircle
10
-26.782842866175571
20
14.700000000000033
30
0
40
0.20000000000013785
210
0
220
0
230
1
100
AcDbArc
50
-89.99999999999288
51
44.999999999953573
0
ARC
5
149
100
AcDbEntity
8
0
100
AcDbCircle
10
-30.534314728751752
20
14.700000000000031
30
0
40
0.19999999999997572
210
0
220
0
230
1
100
AcDbArc
50
134.99999999999676
51
270.00000000000409
0
LINE
5
150
100
AcDbEntity
8
0
100
AcDbLine
10
-30.28284812882287
20
16.20000000388535
30
-5.5077407834012675e-31
11
-30.012134585867784
21
15.929286460930365
31
-1.1406904652600934e-31
0
ARC
5
151
100
AcDbEntity
8
0
100
AcDbCircle
10
-6.2933122861396864
20
15.858575782811577
30
-1.140690465260114e-31
40
0.099999922996232019
210
-6.5729536827161236e-36
220
-6.5729537160035224e-36
230
1
100
AcDbArc
50
135.00000000000145
51
225.00000000000503
0
LINE
5
152
100
AcDbEntity
8
0
100
AcDbLine
10
-27.034309466104411
20
16.200000003885343
30
-5.5077407834012675e-31
11
-30.28284812882287
21
16.20000000388535
31
-5.5077407834012675e-31
0
ARC
5
153
100
AcDbEntity
8
0
100
AcDbCircle
10
-9.5933145750507975
20
14.700000000000021
30
0
40
0.1999999999999883
210
0
220
0
230
1
100
AcDbArc
50
135.00000000000037
51
270
0
ARC
5
154
100
AcDbEntity
8
0
100
AcDbCircle
10
-27.375736084989022
20
15.858578643762723
30
0
40
0.20000000000000243
210
0
220
0
230
1
100
AcDbArc
50
134.99999999999929
51
225
0
LINE
5
155
100
AcDbEntity
8
0
100
AcDbLine
10
-27.017157441226338
20
16.500000000000025
30
0
11
-27.517157441226331
21
16.000000000000036
31
0
0
LINE
5
156
100
AcDbEntity
8
0
100
AcDbLine
10
-9.5933145750507975
20
14.50000000000003
30
0
11
-7.7175786437627032
21
14.50000000000003
31
0
0
LINE
5
157
100
AcDbEntity
8
0
100
AcDbLine
10
-32.000000000000021
20
22.470500000000019
30
0
11
-32.000000510824989
21
16.500000000000025
31
0
0
LINE
5
158
100
AcDbEntity
8
0
100
AcDbLine
10
-6.0761572875254029
20
16.500000000000025
30
0
11
-6.5761572875253975
21
16.000000000000028
31
0
0
LINE
5
159
100
AcDbEntity
8
0
100
AcDbLine
10
-6.5761572875253957
20
15.71715728752541
30
0
11
-5.7004213562371087
21
14.841421356237328
31
0
0
LINE
5
160
100
AcDbEntity
8
0
100
AcDbLine
10
-9.5933145750508011
20
14.300000327489517
30
0
11
-7.7175786437627032
21
14.30000032748949
31
0
0
ARC
5
161
100
AcDbEntity
8
0
100
AcDbCircle
10
-9.0004213562373252
20
15.858578643762717
30
0
40
0.20000000000000162
210
0
220
0
230
1
100
AcDbArc
50
-45
51
45
0
ARC
5
162
100
AcDbEntity
8
0
100
AcDbCircle
10
-9.1418451102854608
20
15.858575782811741
30
-1.1406904652601274e-31
40
0.09999999999994548
210
-4.5472637491808004e-33
220
1.6086326626922126e-30
230
1
100
AcDbArc
50
-45.000000000000718
51
44.999999999999275
0
ARC
5
163
100
AcDbEntity
8
0
100
AcDbCircle
10
-5.8418427124746097
20
14.700000000000022
30
0
40
0.20000000000012452
210
0
220
0
230
1
100
AcDbArc
50
-90
51
44.999999999960409
0
LINE
5
164
100
AcDbEntity
8
0
100
AcDbLine
10
-5.8418427124746097
20
14.499999999999897
30
0
11
-7.7175786437627032
21
14.50000000000003
31
0
0
LINE
5
165
100
AcDbEntity
8
0
100
AcDbLine
10
-6.093309312403477
20
16.200000003885343
30
-4.2497428360578106e-31
11
-9.3418479751219348
21
16.200000003885339
31
-5.5077407834012675e-31
0
LINE
5
166
100
AcDbEntity
8
0
100
AcDbLine
10
-7.7175786437627059
20
16.500000000000028
30
-4.4322874991075647e-30
11
-7.7175786437627032
21
14.50000000000003
31
-4.4322874991075647e-30
0
LINE
5
167
100
AcDbEntity
8
0
100
AcDbLine
10
-4.759000000000011
20
16.500000000000025
30
-8.8645749982151295e-30
11
-12.759000000000011
21
16.500000000000018
31
0
0
LINE
5
168
100
AcDbEntity
8
0
100
AcDbLine
10
-9.3418479751219348
20
16.200000003885339
30
-5.5077407834012675e-31
11
-9.0711344321668435
21
15.929286460930356
31
-1.1406904652600923e-31
0
LINE
5
169
100
AcDbEntity
8
0
100
AcDbLine
10
-4.7589999999964148
20
16.200000003880678
30
-8.8645749982151295e-30
11
-12.776152024878085
21
16.200000003885336
31
-5.5077407834012675e-31
0
LINE
5
170
100
AcDbEntity
8
0
100
AcDbLine
10
-5.8418427124746053
20
14.300000327489519
30
0
11
-7.7175786437627032
21
14.30000032748949
31
0
0
LINE
5
171
100
AcDbEntity
8
0
100
AcDbLine
10
-6.0761572875254029
20
16.500000000000025
30
0
11
-9.3590000000000089
21
16.500000000000021
31
0
0
LINE
5
172
100
AcDbEntity
8
0
100
AcDbLine
10
-10.079500000000007
20
22.470500000000012
30
0
11
-8.109000000000016
21
20.500000000000025
31
0
0
LINE
5
173
100
AcDbEntity
8
0
100
AcDbLine
10
-6.3640229098084475
20
15.787865159142804
30
-1.3684518817726e-47
11
-5.5590002315700371
21
14.982842480904598
31
0
0
LINE
5
174
100
AcDbEntity
8
0
100
AcDbLine
10
-4.7590000000000128
20
20.500000000000025
30
0
11
-8.109000000000016
21
20.500000000000025
31
0
0
LINE
5
175
100
AcDbEntity
8
0
100
AcDbLine
10
-4.759000000000011
20
16.500000000000025
30
0
11
-4.7590000000000128
21
20.500000000000025
31
0
0
LINE
5
176
100
AcDbEntity
8
0
100
AcDbLine
10
-9.0711344321668452
20
15.787865104693124
30
-6.4317409983658596e-46
11
-9.8761570559553711
21
14.982842480904594
31
0
0
LINE
5
177
100
AcDbEntity
8
0
100
AcDbLine
10
-8.8590000000000142
20
15.717157287525406
30
0
11
-9.7347359312880997
21
14.841421356237321
31
0
0
LINE
5
178
100
AcDbEntity
8
0
100
AcDbLine
10
-4.759000000000011
20
16.500000000000025
30
-8.8645749982151295e-30
11
-4.759000000000011
21
20.500000000000025
31
1.2325951644078309e-31
0
LINE
5
179
100
AcDbEntity
8
0
100
AcDbLine
10
-9.3590000000000089
20
16.500000000000021
30
0
11
-8.8590000000000142
21
16.000000000000028
31
0
0
ARC
5
180
100
AcDbEntity
8
0
100
AcDbCircle
10
-9.5933145750507975
20
14.700000000000021
30
0
40
0.39999967251050139
210
0
220
0
230
1
100
AcDbArc
50
135
51
269.99999999999949
0
ARC
5
181
100
AcDbEntity
8
0
100
AcDbCircle
10
-5.8418427124746124
20
14.700000000000024
30
0
40
0.39999967251050483
210
0
220
0
230
1
100
AcDbArc
50
-89.999999999998991
51
44.999999999999808
0
LINE
5
182
100
AcDbEntity
8
0
100
AcDbLine
10
-4.7590000000000128
20
20.500000000000025
30
0
11
-8.109000000000016
21
20.500000000000025
31
0
0
ARC
5
183
100
AcDbEntity
8
0
100
AcDbCircle
10
-6.4347359312880856
20
15.858578643762719
30
0
40
0.20000000000000162
210
0
220
0
230
1
100
AcDbArc
50
135.00000000000054
51
224.99999999999977
0
LINE
5
184
100
AcDbEntity
8
0
100
AcDbLine
10
-6.093309312403477
20
16.200000003885343
30
-4.2497428360578106e-31
11
-6.3640229098084564
21
15.929286406480344
31
-1.1406904652600904e-31
0
LINE
5
185
100
AcDbEntity
8
0
100
AcDbLine
10
-4.759000000000011
20
16.500000000000025
30
0
11
-4.7590000000000128
21
20.500000000000025
31
0
0
LINE
5
186
100
AcDbEntity
8
0
100
AcDbLine
10
-4.759000000000011
20
20.500000000000025
30
1.2325951644078309e-31
11
-8.109000000000016
21
20.500000000000025
31
1.0637231635372244e-30
0
LINE
5
187
100
AcDbEntity
8
0
100
AcDbLine
10
-4.759000000000011
20
16.500000000000025
30
-4.4322874991075647e-30
11
-4.759000000000011
21
16.000000000000021
31
-4.4322874991075647e-30
0
LINE
5
188
100
AcDbEntity
8
0
100
AcDbLine
10
-8.109000000000016
20
20.500000000000025
30
0
11
-10.079500000000007
21
22.470500000000012
31
0
0
ENDSEC
0
SECTION
2
OBJECTS
0
DICTIONARY
5
C
100
AcDbDictionary
3
ACAD_GROUP
350
D
3
ACAD_MLINESTYLE
350
17
0
DICTIONARY
5
D
100
AcDbDictionary
0
DICTIONARY
5
1A
330
C
100
AcDbDictionary
0
DICTIONARY
5
17
100
AcDbDictionary
0
ENDSEC
0
EOF
