700 0 1 0           
30 Autodesk Translation Framework 21 ASM 229.4.0.65535 OSX 24 Thu Aug 31 11:33:58 2023 
1 9.999999999999999547e-07 1.000000000000000036e-10 
body $1 -1 $-1 $2 $-1 $3 #
rgb_color-st-attrib $-1 -1 $4 $-1 $0 0.627450980392156854 0.627450980392156854 0.627450980392156854 #
lump $-1 -1 $-1 $-1 $5 $0 #
transform $-1 -1 1 0 0 0 1 0 0 0 1 0 0 0 1 no_rotate no_reflect no_shear #
ATTRIB_CUSTOM-attrib $-1 -1 $-1 $1 $0 @20 Timestamp_attrib_def 1 1692913104102995 #
shell $-1 -1 $-1 $-1 $-1 $6 $-1 $2 #
face $7 -1 $-1 $8 $9 $5 $-1 $10 forward single #
DXID-attrib $-1 -1 $-1 $-1 $6 @10 ASM ENTITY @1 0 #
face $11 -1 $-1 $12 $13 $5 $-1 $14 forward single #
loop $-1 -1 $-1 $15 $16 $6 #
cone-surface $-1 -1 $-1 85.49999999999997158 2 85.49999999999997158 0 1 0 9.184850993605147944e-16 0 -15 1 I I 0 -1 15 forward I I I I #
DXID-attrib $-1 -1 $-1 $-1 $8 @10 ASM ENTITY @1 1 #
face $17 -1 $-1 $18 $19 $5 $-1 $20 forward single #
loop $-1 -1 $-1 $21 $22 $8 #
plane-surface $-1 -1 $-1 3.552713678800500929e-14 2 1.77635683940025078e-14 0 1 0 10 0 6.123233995736766282e-16 forward_v I I I I #
loop $-1 -1 $-1 $-1 $23 $6 #
coedge $-1 -1 $-1 $16 $16 $24 $25 forward $9 $-1 #
DXID-attrib $-1 -1 $-1 $-1 $12 @10 ASM ENTITY @1 2 #
face $26 -1 $-1 $27 $28 $5 $-1 $29 reversed single #
loop $-1 -1 $-1 $30 $31 $12 #
plane-surface $-1 -1 $-1 -1.776356839400250465e-14 15 3.552713678800500929e-14 0 1 0 10 0 0 forward_v I I I I #
loop $-1 -1 $-1 $-1 $32 $8 #
coedge $-1 -1 $-1 $22 $22 $33 $34 forward $13 $-1 #
coedge $35 -1 $-1 $23 $23 $32 $36 reversed $15 $-1 #
coedge $-1 -1 $-1 $24 $24 $16 $25 reversed $37 $-1 #
edge $-1 -1 $-1 $38 -3.141592653589793116 $38 3.141592653589793116 $16 $39 forward @7 unknown #
DXID-attrib $-1 -1 $-1 $-1 $18 @10 ASM ENTITY @1 3 #
face $40 -1 $-1 $41 $42 $5 $-1 $43 reversed single #
loop $-1 -1 $-1 $44 $45 $18 #
cone-surface $-1 -1 $-1 85.49999999999995737 0.5879775452852320505 85.49999999999998579 0 -1 0 0 0 2.350000000000000089 1 I I -0.8571673007021123336 0.5150380749100540445 2.350000000000000089 forward I I I I #
loop $-1 -1 $-1 $46 $47 $12 #
coedge $-1 -1 $-1 $48 $49 $50 $51 forward $19 $-1 #
coedge $-1 -1 $-1 $32 $32 $23 $36 forward $21 $-1 #
coedge $-1 -1 $-1 $33 $33 $22 $34 reversed $44 $-1 #
edge $-1 -1 $-1 $52 0 $52 6.283185307179586232 $22 $53 forward @7 unknown #
ATTRIB_CUSTOM-attrib $-1 -1 $-1 $-1 $23 @17 sketch_attrib_def 1 1 3 @22 119 0 4294967295 0 1 1 #
edge $-1 -1 $-1 $54 -3.141592653589793116 $54 3.141592653589793116 $23 $55 forward @7 unknown #
loop $-1 -1 $-1 $-1 $24 $12 #
vertex $-1 -1 $-1 $25 $56 #
ellipse-curve $-1 -1 $-1 85.49999999999997158 15 85.49999999999997158 0 1 0 9.184850993605147944e-16 0 -15 1 I I #
DXID-attrib $-1 -1 $-1 $-1 $27 @10 ASM ENTITY @1 4 #
face $57 -1 $-1 $58 $59 $5 $-1 $60 reversed single #
loop $-1 -1 $-1 $61 $62 $27 #
cone-surface $-1 -1 $-1 -85.49999999999995737 0.5879775452852320505 -85.49999999999998579 0 -1 0 0 0 2.350000000000000089 1 I I -0.8571673007021123336 0.5150380749100540445 2.350000000000000089 forward I I I I #
loop $-1 -1 $-1 $-1 $33 $18 #
coedge $-1 -1 $-1 $45 $45 $63 $64 reversed $28 $-1 #
loop $-1 -1 $-1 $65 $66 $12 #
coedge $-1 -1 $-1 $47 $47 $67 $68 forward $30 $-1 #
coedge $-1 -1 $-1 $69 $31 $70 $71 forward $19 $-1 #
coedge $-1 -1 $-1 $31 $72 $73 $74 forward $19 $-1 #
coedge $-1 -1 $-1 $75 $76 $31 $51 reversed $77 $-1 #
edge $-1 -1 $-1 $78 0 $79 22 $50 $80 forward @7 unknown #
vertex $-1 -1 $-1 $34 $81 #
ellipse-curve $-1 -1 $-1 85.49999999999995737 1.999999999999999556 85.49999999999998579 0 -1 0 0 0 4.700000000000000178 1 I I #
vertex $-1 -1 $-1 $36 $82 #
ellipse-curve $-1 -1 $-1 85.49999999999997158 2 85.49999999999997158 0 1 0 9.184850993605147944e-16 0 -15 1 I I #
point $-1 -1 $-1 85.49999999999997158 15 100.4999999999999716 #
DXID-attrib $-1 -1 $-1 $-1 $41 @10 ASM ENTITY @1 5 #
face $83 -1 $-1 $84 $85 $5 $-1 $86 reversed single #
loop $-1 -1 $-1 $87 $88 $41 #
cone-surface $-1 -1 $-1 -85.49999999999995737 8.5 -85.49999999999998579 0 -1 0 0 0 4.700000000000000178 1 I I 0 1 4.700000000000000178 forward I I I I #
loop $-1 -1 $-1 $-1 $89 $27 #
coedge $-1 -1 $-1 $62 $62 $90 $91 reversed $42 $-1 #
coedge $-1 -1 $-1 $63 $63 $45 $64 forward $92 $-1 #
edge $-1 -1 $-1 $93 -3.141592653589793116 $93 3.141592653589793116 $63 $94 forward @7 unknown #
loop $-1 -1 $-1 $37 $95 $12 #
coedge $-1 -1 $-1 $66 $66 $96 $97 forward $46 $-1 #
coedge $-1 -1 $-1 $67 $67 $47 $68 reversed $98 $-1 #
edge $-1 -1 $-1 $99 -3.141592653589793116 $99 3.141592653589793116 $67 $100 forward @7 unknown #
coedge $-1 -1 $-1 $101 $48 $102 $103 forward $19 $-1 #
coedge $-1 -1 $-1 $104 $105 $48 $71 reversed $106 $-1 #
edge $-1 -1 $-1 $79 0 $107 21.99999999999999289 $70 $108 forward @7 unknown #
coedge $-1 -1 $-1 $49 $109 $110 $111 forward $19 $-1 #
coedge $-1 -1 $-1 $112 $113 $49 $74 reversed $114 $-1 #
edge $-1 -1 $-1 $115 13 $78 22 $73 $116 forward @7 unknown #
coedge $-1 -1 $-1 $117 $50 $113 $118 reversed $77 $-1 #
coedge $-1 -1 $-1 $50 $117 $104 $119 forward $77 $-1 #
loop $-1 -1 $-1 $-1 $117 $120 #
vertex $-1 -1 $-1 $51 $121 #
vertex $-1 -1 $-1 $51 $122 #
straight-curve $-1 -1 $-1 110 15 110.0000000000000142 -8.074349270001139193e-16 0 -10 I I #
point $-1 -1 $-1 85.49999999999995737 1.999999999999999556 90.19999999999998863 #
point $-1 -1 $-1 85.49999999999997158 2 100.4999999999999716 #
DXID-attrib $-1 -1 $-1 $-1 $58 @10 ASM ENTITY @1 6 #
face $123 -1 $-1 $124 $125 $5 $-1 $126 reversed single #
loop $-1 -1 $-1 $127 $128 $58 #
cone-surface $-1 -1 $-1 -85.49999999999997158 0.5879775452852320505 85.49999999999997158 0 -1 0 0 0 2.350000000000000089 1 I I -0.8571673007021123336 0.5150380749100540445 2.350000000000000089 forward I I I I #
loop $-1 -1 $-1 $-1 $129 $41 #
coedge $-1 -1 $-1 $88 $88 $95 $130 reversed $59 $-1 #
coedge $-1 -1 $-1 $89 $89 $129 $131 reversed $61 $-1 #
coedge $-1 -1 $-1 $90 $90 $62 $91 forward $132 $-1 #
edge $-1 -1 $-1 $133 -3.141592653589793116 $133 3.141592653589793116 $90 $134 forward @7 unknown #
loop $-1 -1 $-1 $135 $63 $136 #
vertex $-1 -1 $-1 $64 $137 #
ellipse-curve $-1 -1 $-1 85.49999999999995737 0.5278914833824754904 85.49999999999998579 0 1 0 0 0 2.25 1 I I #
coedge $-1 -1 $-1 $95 $95 $88 $130 forward $65 $-1 #
coedge $-1 -1 $-1 $96 $96 $66 $97 reversed $138 $-1 #
edge $-1 -1 $-1 $139 0 $139 6.283185307179586232 $66 $140 forward @7 unknown #
loop $-1 -1 $-1 $141 $67 $142 #
vertex $-1 -1 $-1 $68 $143 #
ellipse-curve $-1 -1 $-1 -85.49999999999997158 15 85.49999999999997158 0 -1 0 15 0 0 1 I I #
coedge $-1 -1 $-1 $144 $69 $145 $146 forward $19 $-1 #
coedge $-1 -1 $-1 $147 $148 $69 $103 reversed $149 $-1 #
edge $-1 -1 $-1 $107 0 $150 22 $102 $151 forward @7 unknown #
coedge $-1 -1 $-1 $152 $70 $76 $119 reversed $106 $-1 #
coedge $-1 -1 $-1 $70 $152 $147 $153 forward $106 $-1 #
loop $-1 -1 $-1 $-1 $152 $154 #
vertex $-1 -1 $-1 $71 $155 #
straight-curve $-1 -1 $-1 109.9999999999999858 15 -109.9999999999999858 -10 0 0 I I #
coedge $-1 -1 $-1 $72 $144 $156 $157 forward $19 $-1 #
coedge $-1 -1 $-1 $158 $159 $72 $111 reversed $160 $-1 #
edge $-1 -1 $-1 $161 -2.996094703208942889 $115 -0 $110 $162 forward @7 unknown #
coedge $-1 -1 $-1 $163 $73 $159 $164 reversed $114 $-1 #
coedge $-1 -1 $-1 $73 $165 $75 $118 forward $114 $-1 #
loop $-1 -1 $-1 $-1 $165 $166 #
vertex $-1 -1 $-1 $111 $167 #
straight-curve $-1 -1 $-1 -110.0000000000000142 15 110.0000000000000284 10 0 -8.074349270001139193e-16 I I #
coedge $168 -1 $-1 $76 $75 $169 $170 forward $77 $-1 #
edge $-1 -1 $-1 $171 0 $78 1.5 $75 $172 forward @7 unknown #
edge $-1 -1 $-1 $173 0 $79 1.5 $76 $174 forward @7 unknown #
face $175 -1 $-1 $176 $77 $5 $-1 $177 forward single #
point $-1 -1 $-1 110 15 110.0000000000000142 #
point $-1 -1 $-1 110 15 -110 #
DXID-attrib $-1 -1 $-1 $-1 $84 @10 ASM ENTITY @1 7 #
face $178 -1 $-1 $179 $138 $5 $-1 $180 reversed single #
loop $-1 -1 $-1 $181 $182 $84 #
cone-surface $-1 -1 $-1 85.49999999999998579 0.5879775452852320505 -85.49999999999995737 0 -1 0 0 0 2.350000000000000089 1 I I -0.8571673007021123336 0.5150380749100540445 2.350000000000000089 forward I I I I #
loop $-1 -1 $-1 $-1 $183 $58 #
coedge $-1 -1 $-1 $128 $128 $184 $185 reversed $85 $-1 #
coedge $-1 -1 $-1 $129 $129 $89 $131 forward $87 $-1 #
edge $-1 -1 $-1 $186 0 $186 6.283185307179586232 $95 $187 forward @7 unknown #
edge $-1 -1 $-1 $188 0 $188 6.283185307179586232 $129 $189 forward @7 unknown #
loop $-1 -1 $-1 $190 $90 $191 #
vertex $-1 -1 $-1 $91 $192 #
ellipse-curve $-1 -1 $-1 -85.49999999999995737 0.5278914833824754904 -85.49999999999998579 0 1 0 0 0 2.25 1 I I #
loop $-1 -1 $-1 $-1 $193 $136 #
face $194 -1 $-1 $142 $92 $5 $-1 $195 reversed single #
point $-1 -1 $-1 85.49999999999995737 0.5278914833824754904 83.25 #
loop $-1 -1 $-1 $196 $96 $124 #
vertex $-1 -1 $-1 $97 $197 #
ellipse-curve $-1 -1 $-1 85.49999999999998579 15 -85.49999999999995737 -0 -1 -0 0 0 4.700000000000000178 1 I I #
loop $-1 -1 $-1 $-1 $198 $142 #
face $199 -1 $-1 $200 $98 $5 $-1 $201 forward single #
point $-1 -1 $-1 -100.4999999999999716 15 85.49999999999997158 #
coedge $-1 -1 $-1 $109 $101 $202 $203 forward $19 $-1 #
coedge $-1 -1 $-1 $204 $205 $101 $146 reversed $114 $-1 #
edge $-1 -1 $-1 $150 0 $206 9 $145 $207 forward @7 unknown #
coedge $-1 -1 $-1 $208 $102 $105 $153 reversed $149 $-1 #
coedge $-1 -1 $-1 $102 $208 $204 $209 forward $149 $-1 #
loop $-1 -1 $-1 $-1 $208 $210 #
vertex $-1 -1 $-1 $103 $211 #
straight-curve $-1 -1 $-1 -109.9999999999999716 15 -109.9999999999999858 -2.422304781000341363e-15 0 10 I I #
coedge $212 -1 $-1 $105 $104 $213 $214 forward $106 $-1 #
edge $-1 -1 $-1 $215 0 $107 1.5 $105 $216 forward @7 unknown #
face $217 -1 $-1 $120 $106 $5 $-1 $218 forward single #
point $-1 -1 $-1 -109.9999999999999716 15 -110 #
coedge $-1 -1 $-1 $219 $220 $109 $157 reversed $221 $-1 #
edge $-1 -1 $-1 $222 -4.467525126179068273 $161 1.325932472589275379 $156 $223 forward @7 unknown #
coedge $-1 -1 $-1 $224 $110 $220 $225 reversed $160 $-1 #
coedge $-1 -1 $-1 $110 $224 $112 $164 forward $160 $-1 #
loop $-1 -1 $-1 $-1 $224 $200 #
vertex $-1 -1 $-1 $157 $226 #
straight-curve $-1 -1 $-1 19.99999999999998224 15 110.0000000000000284 -1.482226878123793928e-15 0 10 I I #
coedge $-1 -1 $-1 $205 $112 $227 $228 reversed $114 $-1 #
edge $-1 -1 $-1 $229 0 $115 1.300000000000000044 $159 $230 forward @7 unknown #
coedge $231 -1 $-1 $113 $204 $232 $233 forward $114 $-1 #
face $234 -1 $-1 $210 $114 $5 $-1 $235 forward single #
point $-1 -1 $-1 19.99999999999998224 15 110.0000000000000284 #
ATTRIB_CUSTOM-attrib $-1 -1 $-1 $-1 $117 @17 sketch_attrib_def 1 1 3 @13 108 0 0 0 1 1 #
coedge $236 -1 $-1 $232 $213 $117 $170 reversed $237 $-1 #
edge $-1 -1 $-1 $171 0 $173 22 $117 $238 forward @7 unknown #
vertex $-1 -1 $-1 $233 $239 #
straight-curve $-1 -1 $-1 110 0 110.0000000000000142 0 10 0 I I #
vertex $-1 -1 $-1 $214 $240 #
straight-curve $-1 -1 $-1 109.9999999999999858 0 -109.9999999999999858 0 10 0 I I #
DXID-attrib $-1 -1 $-1 $-1 $120 @10 ASM ENTITY @2 21 #
face $241 -1 $-1 $242 $243 $5 $-1 $244 forward single #
plane-surface $-1 -1 $-1 110 0 110.0000000000000142 1 0 -8.0743492700011387e-17 -8.074349270001139193e-16 0 -10 forward_v I I I I #
DXID-attrib $-1 -1 $-1 $-1 $124 @10 ASM ENTITY @1 8 #
face $245 -1 $-1 $191 $246 $5 $-1 $247 reversed single #
cone-surface $-1 -1 $-1 85.49999999999998579 8.5 -85.49999999999995737 0 -1 0 0 0 4.700000000000000178 1 I I 0 1 4.700000000000000178 forward I I I I #
loop $-1 -1 $-1 $-1 $248 $84 #
coedge $-1 -1 $-1 $182 $182 $249 $250 reversed $125 $-1 #
coedge $-1 -1 $-1 $183 $183 $251 $252 reversed $127 $-1 #
coedge $-1 -1 $-1 $184 $184 $128 $185 forward $246 $-1 #
edge $-1 -1 $-1 $253 -3.141592653589793116 $253 3.141592653589793116 $184 $254 forward @7 unknown #
vertex $-1 -1 $-1 $130 $255 #
ellipse-curve $-1 -1 $-1 -85.49999999999995737 15 -85.49999999999998579 -0 -1 -0 0 0 4.700000000000000178 1 I I #
vertex $-1 -1 $-1 $131 $256 #
ellipse-curve $-1 -1 $-1 -85.49999999999995737 1.999999999999999556 -85.49999999999998579 0 -1 0 0 0 4.700000000000000178 1 I I #
loop $-1 -1 $-1 $-1 $257 $191 #
face $258 -1 $-1 $259 $132 $5 $-1 $260 reversed single #
point $-1 -1 $-1 -85.49999999999995737 0.5278914833824754904 -87.74999999999998579 #
coedge $-1 -1 $-1 $193 $193 $261 $262 reversed $135 $-1 #
DXID-attrib $-1 -1 $-1 $-1 $136 @10 ASM ENTITY @2 12 #
cone-surface $-1 -1 $-1 85.49999999999995737 6.749999999999999112 85.49999999999998579 0 -1 0 0 0 2.25 1 I I 0 1 2.25 forward I I I I #
loop $-1 -1 $-1 $-1 $263 $124 #
point $-1 -1 $-1 85.49999999999998579 15 -80.79999999999995453 #
coedge $264 -1 $-1 $198 $198 $265 $266 reversed $141 $-1 #
DXID-attrib $-1 -1 $267 $-1 $142 @10 ASM ENTITY @2 13 #
face $268 -1 $-1 $269 $160 $5 $-1 $270 forward single #
cone-surface $-1 -1 $-1 -85.49999999999997158 2 85.49999999999997158 0 1 0 15 0 0 1 I I 0 -1 15 forward I I I I #
coedge $-1 -1 $-1 $271 $272 $144 $203 reversed $273 $-1 #
edge $-1 -1 $-1 $206 0 $222 2.996094703208942889 $202 $274 forward @7 unknown #
coedge $-1 -1 $-1 $165 $145 $148 $209 reversed $114 $-1 #
coedge $-1 -1 $-1 $145 $163 $271 $275 forward $114 $-1 #
vertex $-1 -1 $-1 $146 $276 #
straight-curve $-1 -1 $-1 -110.0000000000000142 15 110.0000000000000284 10 0 -8.074349270001139193e-16 I I #
coedge $277 -1 $-1 $148 $147 $278 $279 forward $149 $-1 #
edge $-1 -1 $-1 $280 0 $150 1.5 $148 $281 forward @7 unknown #
face $282 -1 $-1 $154 $149 $5 $-1 $283 forward single #
point $-1 -1 $-1 -110.0000000000000142 15 110.0000000000000284 #
ATTRIB_CUSTOM-attrib $-1 -1 $-1 $-1 $152 @17 sketch_attrib_def 1 1 3 @13 105 0 0 0 1 1 #
coedge $284 -1 $-1 $169 $278 $152 $214 reversed $237 $-1 #
edge $-1 -1 $-1 $173 0 $215 21.99999999999999289 $152 $285 forward @7 unknown #
vertex $-1 -1 $-1 $279 $286 #
straight-curve $-1 -1 $-1 -109.9999999999999716 0 -109.9999999999999858 0 10 0 I I #
DXID-attrib $-1 -1 $-1 $-1 $154 @10 ASM ENTITY @2 20 #
plane-surface $-1 -1 $-1 109.9999999999999858 0 -109.9999999999999858 0 0 -1 -10 0 0 forward_v I I I I #
coedge $-1 -1 $-1 $287 $156 $272 $288 reversed $221 $-1 #
coedge $-1 -1 $-1 $156 $287 $158 $225 forward $221 $-1 #
loop $-1 -1 $-1 $-1 $287 $269 #
vertex $-1 -1 $-1 $203 $289 #
ellipse-curve $-1 -1 $-1 0 15 0 -0 -1 -0 82.5 0 0 1 I I #
coedge $290 -1 $-1 $159 $158 $291 $292 reversed $160 $-1 #
edge $-1 -1 $-1 $293 0 $161 1.300000000000000044 $220 $294 forward @7 unknown #
point $-1 -1 $-1 19.99999999999998224 15 80.03905296791060664 #
coedge $-1 -1 $-1 $291 $295 $163 $228 forward $243 $-1 #
edge $-1 -1 $-1 $296 9 $229 13 $163 $297 forward @7 unknown #
vertex $-1 -1 $-1 $292 $298 #
straight-curve $-1 -1 $-1 19.99999999999998224 2 110.0000000000000284 0 10 0 I I #
ATTRIB_CUSTOM-attrib $-1 -1 $-1 $-1 $165 @17 sketch_attrib_def 1 1 3 @13 107 0 0 0 1 1 #
coedge $299 -1 $-1 $278 $169 $165 $233 reversed $237 $-1 #
edge $-1 -1 $-1 $280 0 $171 22 $165 $300 forward @7 unknown #
DXID-attrib $-1 -1 $-1 $-1 $166 @10 ASM ENTITY @2 18 #
plane-surface $-1 -1 $-1 -110.0000000000000142 0 110.0000000000000284 8.0743492700011387e-17 0 1 10 0 -8.074349270001139193e-16 forward_v I I I I #
ATTRIB_CUSTOM-attrib $-1 -1 $-1 $-1 $169 @17 sketch_attrib_def 1 1 3 @13 108 0 0 0 1 1 #
loop $-1 -1 $-1 $-1 $169 $242 #
straight-curve $-1 -1 $-1 110 0 110.0000000000000142 -8.074349270001139193e-16 0 -10 F 0 F 22 #
point $-1 -1 $-1 110 0 110.0000000000000142 #
point $-1 -1 $-1 109.9999999999999858 0 -109.9999999999999858 #
DXID-attrib $-1 -1 $-1 $-1 $176 @10 ASM ENTITY @2 22 #
face $301 -1 $-1 $-1 $302 $5 $-1 $303 reversed single #
loop $-1 -1 $-1 $-1 $295 $176 #
plane-surface $-1 -1 $-1 -1.776356839400250465e-14 2 3.552713678800500929e-14 0 1 0 0 0 10 forward_v I I I I #
DXID-attrib $-1 -1 $-1 $-1 $179 @10 ASM ENTITY @1 9 #
loop $-1 -1 $-1 $304 $184 $179 #
cone-surface $-1 -1 $-1 -85.49999999999997158 6.749999999999999112 85.49999999999997158 0 -1 0 0 0 2.25 1 I I 0 1 2.25 forward I I I I #
coedge $-1 -1 $-1 $248 $248 $263 $305 reversed $181 $-1 #
coedge $-1 -1 $-1 $249 $249 $182 $250 forward $306 $-1 #
edge $-1 -1 $-1 $307 -3.141592653589793116 $307 3.141592653589793116 $249 $308 forward @7 unknown #
coedge $-1 -1 $-1 $251 $251 $183 $252 forward $309 $-1 #
edge $-1 -1 $-1 $310 0 $310 6.283185307179586232 $251 $311 forward @7 unknown #
vertex $-1 -1 $-1 $185 $312 #
ellipse-curve $-1 -1 $-1 -85.49999999999997158 0.5278914833824754904 85.49999999999997158 0 1 0 0 0 2.25 1 I I #
point $-1 -1 $-1 -85.49999999999995737 15 -80.79999999999998295 #
point $-1 -1 $-1 -85.49999999999995737 1.999999999999999556 -80.79999999999998295 #
coedge $-1 -1 $-1 $257 $257 $313 $314 reversed $190 $-1 #
DXID-attrib $-1 -1 $-1 $-1 $191 @10 ASM ENTITY @2 10 #
face $315 -1 $-1 $136 $306 $5 $-1 $316 reversed single #
cone-surface $-1 -1 $-1 -85.49999999999995737 6.749999999999999112 -85.49999999999998579 0 -1 0 0 0 2.25 1 I I 0 1 2.25 forward I I I I #
coedge $-1 -1 $-1 $261 $261 $193 $262 forward $317 $-1 #
edge $-1 -1 $-1 $318 -3.141592653589793116 $318 3.141592653589793116 $261 $319 forward @7 unknown #
coedge $-1 -1 $-1 $263 $263 $248 $305 forward $196 $-1 #
ATTRIB_CUSTOM-attrib $-1 -1 $-1 $-1 $198 @17 sketch_attrib_def 1 1 3 @22 119 0 4294967295 0 1 1 #
coedge $-1 -1 $-1 $265 $265 $198 $266 forward $320 $-1 #
edge $-1 -1 $-1 $321 -3.141592653589793116 $321 3.141592653589793116 $265 $322 forward @7 unknown #
ATTRIB_CUSTOM-attrib $-1 -1 $-1 $199 $142 @22 FPM_tracked_attrib_def 1 810 #
DXID-attrib $-1 -1 $-1 $-1 $200 @10 ASM ENTITY @2 14 #
face $323 -1 $-1 $324 $221 $5 $-1 $325 forward single #
plane-surface $-1 -1 $-1 19.99999999999998579 2 80.03905296791060664 -1 0 -1.482226878123793829e-16 -1.482226878123793928e-15 0 10 forward_v I I I I #
coedge $-1 -1 $-1 $326 $202 $205 $275 reversed $273 $-1 #
coedge $-1 -1 $-1 $202 $326 $219 $288 forward $273 $-1 #
loop $-1 -1 $-1 $-1 $326 $324 #
straight-curve $-1 -1 $-1 -20.00000000000001776 15 110.0000000000000284 1.482226878123793928e-15 0 -10 I I #
edge $-1 -1 $-1 $296 0 $206 1.300000000000000044 $205 $327 forward @7 unknown #
point $-1 -1 $-1 -20.00000000000001776 15 110.0000000000000284 #
ATTRIB_CUSTOM-attrib $-1 -1 $-1 $-1 $208 @17 sketch_attrib_def 1 1 3 @13 106 0 0 0 1 1 #
coedge $328 -1 $-1 $213 $232 $208 $279 reversed $237 $-1 #
edge $-1 -1 $-1 $215 0 $280 22 $208 $329 forward @7 unknown #
vertex $-1 -1 $-1 $233 $330 #
straight-curve $-1 -1 $-1 -110.0000000000000142 0 110.0000000000000284 0 10 0 I I #
DXID-attrib $-1 -1 $-1 $-1 $210 @10 ASM ENTITY @2 19 #
plane-surface $-1 -1 $-1 -109.9999999999999716 0 -109.9999999999999858 -1 0 -2.422304781000341363e-16 -2.422304781000341363e-15 0 10 forward_v I I I I #
ATTRIB_CUSTOM-attrib $-1 -1 $-1 $-1 $213 @17 sketch_attrib_def 1 1 3 @13 105 0 0 0 1 1 #
straight-curve $-1 -1 $-1 109.9999999999999858 0 -109.9999999999999858 -10 0 0 F 0 F 21.99999999999999289 #
point $-1 -1 $-1 -109.9999999999999716 0 -109.9999999999999858 #
coedge $331 -1 $-1 $220 $219 $332 $333 reversed $221 $-1 #
edge $-1 -1 $-1 $334 0 $222 1.300000000000000044 $272 $335 forward @7 unknown #
point $-1 -1 $-1 -20.00000000000001776 15 80.03905296791060664 #
ATTRIB_CUSTOM-attrib $-1 -1 $-1 $-1 $224 @17 sketch_attrib_def 1 1 3 @13 175 0 1 0 1 1 #
coedge $-1 -1 $-1 $332 $227 $224 $292 forward $243 $-1 #
edge $-1 -1 $-1 $229 -6.998047351604471444 $293 -4.001952648395528556 $291 $336 forward @7 unknown #
vertex $-1 -1 $-1 $292 $337 #
straight-curve $-1 -1 $-1 19.99999999999998579 2 80.03905296791060664 0 10 0 I I #
coedge $-1 -1 $-1 $227 $332 $326 $338 forward $243 $-1 #
vertex $-1 -1 $-1 $338 $339 #
straight-curve $-1 -1 $-1 -110.0000000000000142 2 110.0000000000000284 10 0 -8.074349270001139193e-16 I I #
point $-1 -1 $-1 19.99999999999998224 2 110.0000000000000284 #
ATTRIB_CUSTOM-attrib $-1 -1 $-1 $-1 $232 @17 sketch_attrib_def 1 1 3 @13 107 0 0 0 1 1 #
straight-curve $-1 -1 $-1 -110.0000000000000142 0 110.0000000000000284 10 0 -8.074349270001139193e-16 F 0 F 22 #
DXID-attrib $-1 -1 $-1 $-1 $242 @10 ASM ENTITY @2 23 #
loop $-1 -1 $-1 $340 $341 $242 #
plane-surface $-1 -1 $-1 -1.776356839400250465e-14 0 3.552713678800500929e-14 0 1 0 10 0 0 forward_v I I I I #
loop $-1 -1 $-1 $-1 $342 $179 #
edge $-1 -1 $-1 $343 0 $343 6.283185307179586232 $263 $344 forward @7 unknown #
loop $-1 -1 $-1 $345 $249 $259 #
vertex $-1 -1 $-1 $250 $346 #
ellipse-curve $-1 -1 $-1 85.49999999999998579 0.5278914833824754904 -85.49999999999995737 0 1 0 0 0 2.25 1 I I #
loop $-1 -1 $-1 $320 $251 $347 #
vertex $-1 -1 $-1 $252 $348 #
ellipse-curve $-1 -1 $-1 -85.49999999999997158 2 85.49999999999997158 -0 -1 -0 0 0 4.70000000000000373 1 I I #
point $-1 -1 $-1 -85.49999999999997158 0.5278914833824754904 83.24999999999997158 #
coedge $-1 -1 $-1 $313 $313 $257 $314 forward $340 $-1 #
edge $-1 -1 $-1 $349 -3.141592653589793116 $349 3.141592653589793116 $313 $350 forward @7 unknown #
DXID-attrib $-1 -1 $-1 $-1 $259 @10 ASM ENTITY @2 11 #
cone-surface $-1 -1 $-1 85.49999999999998579 6.749999999999999112 -85.49999999999995737 0 -1 0 0 0 2.25 1 I I 0 1 2.25 forward I I I I #
loop $-1 -1 $-1 $237 $261 $242 #
vertex $-1 -1 $-1 $262 $351 #
ellipse-curve $-1 -1 $-1 85.49999999999995737 0 85.49999999999998579 0 1 0 0 0 2.25 1 I I #
loop $-1 -1 $-1 $-1 $265 $347 #
vertex $-1 -1 $-1 $266 $352 #
ellipse-curve $-1 -1 $-1 -85.49999999999997158 2 85.49999999999997158 0 1 0 15 0 0 1 I I #
DXID-attrib $-1 -1 $-1 $-1 $269 @10 ASM ENTITY @2 15 #
face $353 -1 $-1 $347 $273 $5 $-1 $354 forward single #
cone-surface $-1 -1 $-1 0 2 0 0 1 0 82.5 0 0 1 I I 0 -1 82.5 forward I I I I #
coedge $355 -1 $-1 $272 $271 $295 $338 reversed $273 $-1 #
straight-curve $-1 -1 $-1 -20.00000000000001776 2 110.0000000000000284 0 10 0 I I #
ATTRIB_CUSTOM-attrib $-1 -1 $-1 $-1 $278 @17 sketch_attrib_def 1 1 3 @13 106 0 0 0 1 1 #
straight-curve $-1 -1 $-1 -109.9999999999999716 0 -109.9999999999999858 -2.422304781000341363e-15 0 10 F 0 F 22 #
point $-1 -1 $-1 -110.0000000000000142 0 110.0000000000000284 #
ATTRIB_CUSTOM-attrib $-1 -1 $-1 $-1 $287 @17 sketch_attrib_def 1 1 3 @13 117 0 1 0 1 2 #
coedge $-1 -1 $-1 $295 $291 $287 $333 forward $243 $-1 #
edge $-1 -1 $-1 $293 -1.325932472589275379 $334 4.467525126179068273 $332 $356 forward @7 unknown #
vertex $-1 -1 $-1 $333 $357 #
straight-curve $-1 -1 $-1 -20.00000000000001421 2 80.03905296791060664 0 10 0 I I #
straight-curve $-1 -1 $-1 19.99999999999999289 2 40.01952648395531753 1.482226878123793928e-15 0 -10 I I #
point $-1 -1 $-1 19.99999999999998579 2 80.03905296791060664 #
edge $-1 -1 $-1 $334 2.503905296791057111 $296 5.5 $295 $358 forward @7 unknown #
point $-1 -1 $-1 -20.00000000000001776 2 110.0000000000000284 #
loop $-1 -1 $-1 $359 $313 $242 #
coedge $-1 -1 $-1 $341 $341 $342 $360 forward $302 $-1 #
coedge $-1 -1 $-1 $342 $342 $341 $360 reversed $304 $-1 #
vertex $-1 -1 $-1 $305 $361 #
ellipse-curve $-1 -1 $-1 85.49999999999998579 1.999999999999999556 -85.49999999999995737 0 -1 0 0 0 4.700000000000000178 1 I I #
loop $-1 -1 $-1 $-1 $362 $259 #
point $-1 -1 $-1 85.49999999999998579 0.5278914833824754904 -87.74999999999994316 #
face $363 -1 $-1 $166 $309 $5 $-1 $244 forward single #
point $-1 -1 $-1 -85.49999999999997158 1.999999999999999556 90.19999999999997442 #
vertex $-1 -1 $-1 $314 $364 #
ellipse-curve $-1 -1 $-1 -85.49999999999995737 0 -85.49999999999998579 0 1 0 0 0 2.25 1 I I #
point $-1 -1 $-1 85.49999999999995737 0 83.25 #
point $-1 -1 $-1 -100.4999999999999716 2 85.49999999999997158 #
DXID-attrib $-1 -1 $-1 $-1 $324 @10 ASM ENTITY @2 16 #
plane-surface $-1 -1 $-1 -20.00000000000001776 2 110.0000000000000284 1 0 1.482226878123793829e-16 1.482226878123793928e-15 0 -10 forward_v I I I I #
ATTRIB_CUSTOM-attrib $-1 -1 $-1 $-1 $326 @17 sketch_attrib_def 1 1 3 @13 172 0 0 0 1 1 #
ellipse-curve $-1 -1 $-1 0 2 0 0 1 0 82.5 0 0 1 I I #
point $-1 -1 $-1 -20.00000000000001421 2 80.03905296791060664 #
straight-curve $-1 -1 $-1 -20.00000000000000711 2 55.00000000000003553 -1.482226878123793928e-15 0 10 I I #
loop $-1 -1 $-1 $317 $365 $242 #
edge $-1 -1 $-1 $366 -3.141592653589793116 $366 3.141592653589793116 $341 $367 forward @7 unknown #
point $-1 -1 $-1 85.49999999999998579 1.999999999999999556 -80.79999999999995453 #
coedge $-1 -1 $-1 $362 $362 $365 $368 reversed $345 $-1 #
DXID-attrib $-1 -1 $369 $-1 $347 @10 ASM ENTITY @2 17 #
point $-1 -1 $-1 -85.49999999999995737 0 -87.74999999999998579 #
coedge $-1 -1 $-1 $365 $365 $362 $368 forward $359 $-1 #
vertex $-1 -1 $-1 $360 $370 #
ellipse-curve $-1 -1 $-1 -85.49999999999997158 0 85.49999999999997158 0 1 0 0 0 2.25 1 I I #
edge $-1 -1 $-1 $371 -3.141592653589793116 $371 3.141592653589793116 $365 $372 forward @7 unknown #
ATTRIB_CUSTOM-attrib $-1 -1 $-1 $363 $347 @22 FPM_tracked_attrib_def 1 806 #
point $-1 -1 $-1 -85.49999999999997158 0 83.24999999999997158 #
vertex $-1 -1 $-1 $368 $373 #
ellipse-curve $-1 -1 $-1 85.49999999999998579 0 -85.49999999999995737 0 1 0 0 0 2.25 1 I I #
point $-1 -1 $-1 85.49999999999998579 0 -87.74999999999994316 #
End-of-ACIS-data 