0
SECTION
2
HEADER
9
$INSUNITS
70
4
9
$ACADVER
1
AC1014
9
$HANDSEED
5
FFFF
0
ENDSEC
0
SECTION
2
TABLES
0
TABLE
2
VPORT
5
8
100
AcDbSymbolTable
0
ENDTAB
0
TABLE
2
LTYPE
5
5
100
AcDbSymbolTable
0
LTYPE
5
14
100
AcDbSymbolTableRecord
100
AcDbLinetypeTableRecord
2
BYBLOCK
70
0
0
LTYPE
5
15
100
AcDbSymbolTableRecord
100
AcDbLinetypeTableRecord
2
BYLAYER
70
0
0
ENDTAB
0
TABLE
2
LAYER
5
2
100
AcDbSymbolTable
70
2
0
LAYER
5
50
100
AcDbSymbolTableRecord
100
AcDbLayerTableRecord
2
0
70
0
6
CONTINUOUS
0
ENDTAB
0
TABLE
2
STYLE
5
3
100
AcDbSymbolTable
70
1
0
STYLE
5
11
100
AcDbSymbolTableRecord
100
AcDbTextStyleTableRecord
2
STANDARD
70
0
0
ENDTAB
0
TABLE
2
VIEW
5
6
100
AcDbSymbolTable
70
0
0
ENDTAB
0
TABLE
2
UCS
5
7
100
AcDbSymbolTable
70
0
0
ENDTAB
0
TABLE
2
APPID
5
9
100
AcDbSymbolTable
70
2
0
APPID
5
12
100
AcDbSymbolTableRecord
100
AcDbRegAppTableRecord
2
ACAD
70
0
0
ENDTAB
0
TABLE
2
DIMSTYLE
5
A
100
AcDbSymbolTable
70
1
0
ENDTAB
0
TABLE
2
BLOCK_RECORD
5
1
100
AcDbSymbolTable
70
1
0
BLOCK_RECORD
5
1F
100
AcDbSymbolTableRecord
100
AcDbBlockTableRecord
2
*MODEL_SPACE
0
BLOCK_RECORD
5
1B
100
AcDbSymbolTableRecord
100
AcDbBlockTableRecord
2
*PAPER_SPACE
0
ENDTAB
0
ENDSEC
0
SECTION
2
BLOCKS
0
BLOCK
5
20
100
AcDbEntity
100
AcDbBlockBegin
2
*MODEL_SPACE
0
ENDBLK
5
21
100
AcDbEntity
100
AcDbBlockEnd
0
BLOCK
5
1C
100
AcDbEntity
100
AcDbBlockBegin
2
*PAPER_SPACE
0
ENDBLK
5
1D
100
AcDbEntity
100
AcDbBlockEnd
0
ENDSEC
0
SECTION
2
ENTITIES
0
LINE
5
100
100
AcDbEntity
8
0
100
AcDbLine
10
11.059000000000019
20
4.9868927061085069
30
0
11
11.059000000000019
21
-15.49999999999994
31
0
0
LINE
5
101
100
AcDbEntity
8
0
100
AcDbLine
10
11.059000000000019
20
-15.49999999999994
30
0
11
32.000000000000021
21
-15.499999999999936
31
0
0
LINE
5
102
100
AcDbEntity
8
0
100
AcDbLine
10
32.000000000000021
20
-15.499999999999936
30
0
11
32.000000000000021
21
170.50000000000009
31
-1.331300087607885e-44
0
LINE
5
103
100
AcDbEntity
8
0
100
AcDbLine
10
32.000000000000021
20
170.50000000000009
30
-1.331300087607885e-44
11
11.059000000000019
21
170.50000000000009
31
0
0
LINE
5
104
100
AcDbEntity
8
0
100
AcDbLine
10
28.887500000000003
20
82.290000000000106
30
0
11
28.887500000000003
21
79.445000000000107
31
0
0
LINE
5
105
100
AcDbEntity
8
0
100
AcDbLine
10
24.226500000000009
20
158.47200000000009
30
0
11
24.226500000000009
21
82.290000000000106
31
0
0
LINE
5
106
100
AcDbEntity
8
0
100
AcDbLine
10
26.500000000000007
20
79.145000000000124
30
0
11
26.500000000000025
21
-1.4589999999999435
31
0
0
LINE
5
107
100
AcDbEntity
8
0
100
AcDbLine
10
27.879500000000014
20
163.12500000000011
30
0
11
27.879500000000007
21
158.77200000000005
31
0
0
LINE
5
108
100
AcDbEntity
8
0
100
AcDbLine
10
21.529500000000006
20
163.12500000000014
30
0
11
27.879500000000014
21
163.12500000000011
31
0
0
ARC
5
109
100
AcDbEntity
8
0
100
AcDbCircle
10
24.526499999999984
20
158.47200000000009
30
0
40
0.29999999999997584
210
0
220
-0
230
1
100
AcDbArc
50
90
51
180
0
LWPOLYLINE
5
110
100
AcDbEntity
8
0
100
AcDbPolyline
90
4
70
1
43
0.0
10
32.000000000000021
20
170.50000000000009
10
11.059000000000019
20
4.9868927061084989
10
11.059000000000019
20
-15.499999999999936
10
32.000000000000021
20
-15.499999999999936
0
LINE
5
111
100
AcDbEntity
8
0
100
AcDbLine
10
26.800000000000015
20
-1.7589999999999326
30
0
11
27.124500000000012
21
-1.7589999999999348
31
0
0
LINE
5
112
100
AcDbEntity
8
0
100
AcDbLine
10
28.887500000000003
20
79.445000000000107
30
0
11
26.799999999999994
21
79.445000000000107
31
0
0
LINE
5
113
100
AcDbEntity
8
0
100
AcDbLine
10
27.124500000000026
20
-9.2009999999999401
30
0
11
27.104500000000019
21
-9.2009999999999401
31
0
0
LINE
5
114
100
AcDbEntity
8
0
100
AcDbLine
10
27.124500000000012
20
-1.7589999999999348
30
0
11
27.124500000000026
21
-9.2009999999999401
31
0
0
LINE
5
115
100
AcDbEntity
8
0
100
AcDbLine
10
21.529500000000013
20
82.290000000000077
30
0
11
28.887500000000003
21
82.290000000000106
31
0
0
LINE
5
116
100
AcDbEntity
8
0
100
AcDbLine
10
27.879500000000007
20
158.77200000000005
30
0
11
24.526499999999984
21
158.77200000000008
31
0
0
LINE
5
117
100
AcDbEntity
8
0
100
AcDbLine
10
21.52950000000002
20
-15.499999999999936
30
0
11
21.529500000000013
21
82.290000000000077
31
0
0
ARC
5
118
100
AcDbEntity
8
0
100
AcDbCircle
10
27.104500000000019
20
-9.5009999999999355
30
0
40
0.29999999999999694
210
0
220
-0
230
1
100
AcDbArc
50
90
51
180
0
LINE
5
119
100
AcDbEntity
8
0
100
AcDbLine
10
26.804500000000022
20
-9.5009999999999355
30
0
11
26.804500000000019
21
-15.499999999999936
31
0
0
ARC
5
120
100
AcDbEntity
8
0
100
AcDbCircle
10
26.799999999999994
20
79.145000000000124
30
0
40
0.29999999999998472
210
0
220
-0
230
1
100
AcDbArc
50
90
51
180
0
ARC
5
121
100
AcDbEntity
8
0
100
AcDbCircle
10
26.800000000000015
20
-1.4589999999999435
30
0
40
0.29999999999998916
210
0
220
0
230
1
100
AcDbArc
50
180
51
270
0
LINE
5
122
100
AcDbEntity
8
0
100
AcDbLine
10
21.529500000000013
20
82.290000000000077
30
0
11
21.529500000000006
21
163.12500000000014
31
0
0
ARC
5
123
100
AcDbEntity
8
0
100
AcDbCircle
10
12.759000000000025
20
39.500000000000036
30
0
40
1.7500000000000013
210
0
220
0
230
1
100
AcDbArc
50
-166.27086732459054
51
166.27086732458815
0
ARC
5
124
100
AcDbEntity
8
0
100
AcDbCircle
10
12.759000000000025
20
70.500000000000028
30
0
40
1.7500000000000027
210
0
220
0
230
1
100
AcDbArc
50
-166.27086732459315
51
166.27086732458312
0
CIRCLE
5
125
100
AcDbEntity
8
0
100
AcDbCircle
10
23.499999999999979
20
7.5500000000000513
30
0
40
2.7000000000000002
210
0
220
-0
230
1
0
ARC
5
126
100
AcDbEntity
8
0
100
AcDbCircle
10
9.499999999999984
20
7.550000000000022
30
0
40
2.9999999999999991
210
-0
220
0
230
1
100
AcDbArc
50
-58.69010518684567
51
58.690105186845742
0
LINE
5
127
100
AcDbEntity
8
0
100
AcDbLine
10
11.059000000000019
20
170.50000000000009
30
0
11
11.059000000000054
21
70.915331193146059
31
0
0
LINE
5
128
100
AcDbEntity
8
0
100
AcDbLine
10
11.058999999999982
20
70.084668806854296
30
0
11
11.059000000000017
21
39.915331193145917
31
0
0
LINE
5
129
100
AcDbEntity
8
0
100
AcDbLine
10
11.059000000000001
20
39.084668806854225
30
0
11
11.059000000000017
21
10.113107293891543
31
0
0
ENDSEC
0
SECTION
2
OBJECTS
0
DICTIONARY
5
C
100
AcDbDictionary
3
ACAD_GROUP
350
D
3
ACAD_MLINESTYLE
350
17
0
DICTIONARY
5
D
100
AcDbDictionary
0
DICTIONARY
5
1A
330
C
100
AcDbDictionary
0
DICTIONARY
5
17
100
AcDbDictionary
0
ENDSEC
0
EOF
