0
SECTION
2
HEADER
9
$INSUNITS
70
4
9
$ACADVER
1
AC1014
9
$HANDSEED
5
FFFF
0
ENDSEC
0
SECTION
2
TABLES
0
TABLE
2
VPORT
5
8
100
AcDbSymbolTable
0
ENDTAB
0
TABLE
2
LTYPE
5
5
100
AcDbSymbolTable
0
LTYPE
5
14
100
AcDbSymbolTableRecord
100
AcDbLinetypeTableRecord
2
BYBLOCK
70
0
0
LTYPE
5
15
100
AcDbSymbolTableRecord
100
AcDbLinetypeTableRecord
2
BYLAYER
70
0
0
ENDTAB
0
TABLE
2
LAYER
5
2
100
AcDbSymbolTable
70
2
0
LAYER
5
50
100
AcDbSymbolTableRecord
100
AcDbLayerTableRecord
2
0
70
0
6
CONTINUOUS
0
ENDTAB
0
TABLE
2
STYLE
5
3
100
AcDbSymbolTable
70
1
0
STYLE
5
11
100
AcDbSymbolTableRecord
100
AcDbTextStyleTableRecord
2
STANDARD
70
0
0
ENDTAB
0
TABLE
2
VIEW
5
6
100
AcDbSymbolTable
70
0
0
ENDTAB
0
TABLE
2
UCS
5
7
100
AcDbSymbolTable
70
0
0
ENDTAB
0
TABLE
2
APPID
5
9
100
AcDbSymbolTable
70
2
0
APPID
5
12
100
AcDbSymbolTableRecord
100
AcDbRegAppTableRecord
2
ACAD
70
0
0
ENDTAB
0
TABLE
2
DIMSTYLE
5
A
100
AcDbSymbolTable
70
1
0
ENDTAB
0
TABLE
2
BLOCK_RECORD
5
1
100
AcDbSymbolTable
70
1
0
BLOCK_RECORD
5
1F
100
AcDbSymbolTableRecord
100
AcDbBlockTableRecord
2
*MODEL_SPACE
0
BLOCK_RECORD
5
1B
100
AcDbSymbolTableRecord
100
AcDbBlockTableRecord
2
*PAPER_SPACE
0
ENDTAB
0
ENDSEC
0
SECTION
2
BLOCKS
0
BLOCK
5
20
100
AcDbEntity
100
AcDbBlockBegin
2
*MODEL_SPACE
0
ENDBLK
5
21
100
AcDbEntity
100
AcDbBlockEnd
0
BLOCK
5
1C
100
AcDbEntity
100
AcDbBlockBegin
2
*PAPER_SPACE
0
ENDBLK
5
1D
100
AcDbEntity
100
AcDbBlockEnd
0
ENDSEC
0
SECTION
2
ENTITIES
0
LWPOLYLINE
5
100
100
AcDbEntity
8
0
100
AcDbPolyline
90
10
70
1
43
0.0
10
32.000000000000021
20
-15.49999999999994
10
31.999999999999961
20
22.000000000000068
42
0.41421356237309492
10
21.999999999999943
20
32.000000000000057
10
-22.000000000000046
20
31.999999999999964
42
0.41421356237309542
10
-32.000000000000036
20
21.99999999999994
10
-31.999999999999979
20
-15.500000000000064
10
-11.999999999999977
20
-15.500000000000028
10
-11.999999999999973
20
-20.000000000000032
42
0.99999999999999989
10
12.000000000000027
20
-19.999999999999993
10
12.00000000000002
20
-15.499999999999975
0
CIRCLE
5
101
100
AcDbEntity
8
0
100
AcDbCircle
10
-20.000000000000036
20
20.099999999999966
30
0
40
2.4999999999999858
210
-9.860761315262687e-32
220
1.972152263052528e-31
230
1
0
CIRCLE
5
102
100
AcDbEntity
8
0
100
AcDbCircle
10
19.999999999999961
20
20.100000000000048
30
3.944304526105059e-30
40
2.4999999999999858
210
-9.860761315262687e-32
220
1.972152263052528e-31
230
1
0
CIRCLE
5
103
100
AcDbEntity
8
0
100
AcDbCircle
10
-1.5000000000000315
20
17.650000000000002
30
0
40
1.4999999999999871
210
-9.860761315262687e-32
220
1.9721522630525284e-31
230
1
0
CIRCLE
5
104
100
AcDbEntity
8
0
100
AcDbCircle
10
-19
20
-1.2500000000000369
30
-1.9721522630525295e-30
40
1.499999999999988
210
-9.8607613152626892e-32
220
1.9721522630525282e-31
230
1
0
CIRCLE
5
105
100
AcDbEntity
8
0
100
AcDbCircle
10
2.7644413652018223e-14
20
-20.100000000000009
30
0
40
3.5999999999999899
210
-1.9721522630525374e-31
220
3.944304526105056e-31
230
1
0
CIRCLE
5
106
100
AcDbEntity
8
0
100
AcDbCircle
10
23.499999999999979
20
7.5500000000000513
30
0
40
2.700000000000002
210
-3.9311164170210342e-46
220
1.9721522630525295e-31
230
1
0
CIRCLE
5
107
100
AcDbEntity
8
0
100
AcDbCircle
10
9.499999999999984
20
7.5500000000000238
30
9.8607613152626476e-31
40
2.7000000000000002
210
-1.9721522630525295e-31
220
-3.0876917443956296e-46
230
1
0
LINE
5
108
100
AcDbEntity
8
0
100
AcDbLine
10
11.059000000000019
20
88.290000000000077
30
0
11
32.000000000000021
21
88.290000000000077
31
1.5030212630615385e-14
0
LWPOLYLINE
5
109
100
AcDbEntity
8
0
100
AcDbPolyline
90
4
70
1
43
0.0
10
32.000000000000021
20
170.50000000000009
10
32.000000000000021
20
-15.49999999999994
10
11.059000000000019
20
-15.49999999999994
10
11.059000000000019
20
170.50000000000009
0
LINE
5
110
100
AcDbEntity
8
0
100
AcDbLine
10
12.199999999999982
20
7.5500000000000291
30
4.5000000000000178
11
20.799999999999983
21
7.5500000000000291
31
4.5000000000000178
0
LINE
5
111
100
AcDbEntity
8
0
100
AcDbLine
10
11.059000000000019
20
32.000000000000043
30
-6.2221403899306619e-31
11
4.7590000000000199
21
32.000000000000028
31
-1.6274541258271018e-30
0
LINE
5
112
100
AcDbEntity
8
0
100
AcDbLine
10
4.7590000000000199
20
170.50000000000009
30
-1.5068467590422999e-30
11
11.059000000000019
21
170.50000000000009
31
0
0
LINE
5
113
100
AcDbEntity
8
0
100
AcDbLine
10
4.7590000000000199
20
32.000000000000028
30
-1.6274541258271018e-30
11
4.7590000000000199
21
170.50000000000009
31
-1.5068467590422999e-30
0
LINE
5
114
100
AcDbEntity
8
0
100
AcDbLine
10
4.7590000000000225
20
55.000000000000036
30
-1.5671504424347009e-30
11
-2.7409999999999775
21
55.000000000000036
31
-1.2984936145452185e-16
0
LWPOLYLINE
5
115
100
AcDbEntity
8
0
100
AcDbPolyline
90
4
70
1
43
0.0
10
4.7590000000000199
20
32.000000000000028
10
-28.740999999999978
20
32.000000000000021
10
-28.740999999999978
20
78.000000000000043
10
4.7590000000000225
20
78.000000000000043
0
CIRCLE
5
116
100
AcDbEntity
8
0
100
AcDbCircle
10
-2.7409999999999775
20
55.000000000000036
30
-1.2984936145452185e-16
40
7.5
210
0
220
0
230
1
0
CIRCLE
5
117
100
AcDbEntity
8
0
100
AcDbCircle
10
-18.240999999999978
20
39.500000000000036
30
0
40
1.7500000000000002
210
0
220
0
230
1
0
CIRCLE
5
118
100
AcDbEntity
8
0
100
AcDbCircle
10
12.759000000000025
20
39.500000000000036
30
0
40
1.7500000000000002
210
0
220
0
230
1
0
LINE
5
119
100
AcDbEntity
8
0
100
AcDbLine
10
-18.240999999999978
20
39.500000000000036
30
0
11
12.759000000000025
21
39.500000000000036
31
0
0
LINE
5
120
100
AcDbEntity
8
0
100
AcDbLine
10
-2.7409999999999775
20
55.000000000000036
30
-1.2984936145452185e-16
11
-2.7409999999999761
21
39.500000000000036
31
-1.2984936145452185e-16
0
CIRCLE
5
121
100
AcDbEntity
8
0
100
AcDbCircle
10
-18.240999999999982
20
70.500000000000028
30
0
40
1.7500000000000002
210
0
220
0
230
1
0
CIRCLE
5
122
100
AcDbEntity
8
0
100
AcDbCircle
10
12.759000000000025
20
70.500000000000028
30
0
40
1.7500000000000002
210
0
220
0
230
1
0
LINE
5
123
100
AcDbEntity
8
0
100
AcDbLine
10
-2.7409999999999775
20
55.000000000000036
30
-1.2984936145452185e-16
11
-2.7409999999999761
21
70.500000000000028
31
-1.2984936145452185e-16
0
LINE
5
124
100
AcDbEntity
8
0
100
AcDbLine
10
-18.240999999999982
20
70.500000000000028
30
0
11
12.759000000000025
21
70.500000000000028
31
0
0
CIRCLE
5
125
100
AcDbEntity
8
0
100
AcDbCircle
10
-2.7409999999999775
20
55.000000000000036
30
-1.2984936145452185e-16
40
2.75
210
0
220
0
230
1
0
CIRCLE
5
126
100
AcDbEntity
8
0
100
AcDbCircle
10
-2.7409999999999775
20
55.000000000000036
30
-1.2984936145452185e-16
40
11.25
210
0
220
0
230
1
0
CIRCLE
5
127
100
AcDbEntity
8
0
100
AcDbCircle
10
9.499999999999984
20
7.5500000000000238
30
9.8607613152626476e-31
40
3.0000000000000004
210
0
220
0
230
1
0
CIRCLE
5
128
100
AcDbEntity
8
0
100
AcDbCircle
10
23.499999999999979
20
7.5500000000000513
30
0
40
3.0000000000000004
210
0
220
0
230
1
0
SPLINE
5
129
100
AcDbEntity
8
0
100
AcDbSpline
70
4
71
5
72
41
73
35
74
0
42
0.000000001
43
0.0000000001
44
0.0000000001
40
0
40
0
40
0
40
0
40
0
40
0
40
0.033333333333333333
40
0.066666666666666666
40
0.10000000000000001
40
0.13333333333333333
40
0.16666666666666666
40
0.19999999999999998
40
0.23333333333333331
40
0.26666666666666666
40
0.29999999999999999
40
0.33333333333333331
40
0.36666666666666664
40
0.39999999999999997
40
0.43333333333333329
40
0.46666666666666662
40
0.49999999999999994
40
0.53333333333333333
40
0.56666666666666665
40
0.59999999999999998
40
0.6333333333333333
40
0.66666666666666663
40
0.69999999999999996
40
0.73333333333333328
40
0.76666666666666661
40
0.79999999999999993
40
0.83333333333333326
40
0.86666666666666659
40
0.89999999999999991
40
0.93333333333333324
40
0.96666666666666656
40
1
40
1
40
1
40
1
40
1
40
1
41
1
41
1
41
1
41
1
41
1
41
1
41
1
41
1
41
1
41
1
41
1
41
1
41
1
41
1
41
1
41
1
41
1
41
1
41
1
41
1
41
1
41
1
41
1
41
1
41
1
41
1
41
1
41
1
41
1
41
1
41
1
41
1
41
1
41
1
41
1
10
-28.740999999999978
20
32.000000000000021
30
-1.8369701987210312e-15
10
-28.740999999999978
20
31.55688211858449
30
-1.6453927041820526e-15
10
-28.57510573243918
20
30.793017024706394
30
-1.2924093905799243e-15
10
-27.828612830941253
20
30.014276976550182
30
-8.5344587297452118e-16
10
-25.926127656387521
20
29.608468843992675
30
-4.3943034598996335e-16
10
-22.544664372412608
20
29.598538248659597
30
-1.5086650178674526e-16
10
-18.798759142335367
20
29.44246395776657
30
-1.991863621251318e-17
10
-15.31416824024017
20
28.601611968020556
30
2.399362117063257e-17
10
-12.52868741771524
20
26.890129862432495
30
3.1557386988481521e-17
10
-10.622908638668937
20
24.538201278174885
30
2.610640600259238e-17
10
-9.6579640746368067
20
21.926063587909049
30
1.6170997972807548e-17
10
-9.6179887756622424
20
19.435280200686332
30
1.7173068407535141e-18
10
-10.589438994651932
20
17.168469811927697
30
-1.3805714210839484e-17
10
-12.628215591872269
20
14.939724840294964
30
-2.242609629120372e-17
10
-15.460106913105705
20
12.632634338381628
30
-2.3363878158774186e-17
10
-18.68665947867682
20
10.121244271686752
30
-1.7620954621166447e-17
10
-21.815635363420348
20
7.3408739180951876
30
-8.4670192054169127e-18
10
-24.364632395846311
20
4.2965703268330735
30
5.3657160592765778e-19
10
-25.93209666225119
20
1.0984982903051523
30
6.4338423083334284e-18
10
-26.285603017727489
20
-2.0121023358611558
30
8.2764986852217601e-18
10
-25.346453949599184
20
-4.741655312940928
30
6.5397812192786887e-18
10
-23.178177275931432
20
-6.8360035686024183
30
2.5634937129666458e-18
10
-19.968491575206269
20
-8.1519245092375368
30
-1.9823139955012198e-18
10
-16.031168657728628
20
-8.7762242556807344
30
-5.7107941614216029e-18
10
-11.714521762394558
20
-8.9458432494044668
30
-7.8462442795452655e-18
10
-7.364850792090011
20
-8.9641805841447155
30
-8.0711938591485269e-18
10
-3.291569811759067
20
-9.1410752204660302
30
-6.4887219168751064e-18
10
0.26901599551486904
20
-9.7227259456787056
30
-3.5419584907187537e-18
10
3.1900086160658256
20
-10.825358186484127
30
4.4733784614782699e-20
10
5.4906685522475707
20
-12.366951112397924
30
3.3316358153368043e-18
10
7.3751821656948646
20
-13.996667856070745
30
5.2234841533755404e-18
10
8.7763508220162691
20
-15.003702027502818
30
4.7833112741306967e-18
10
9.8821961535042071
20
-15.409763952459024
30
2.9969775610867647e-18
10
10.659974075732499
20
-15.499999999999938
30
1.1142922734689627e-18
10
11.059000000000019
20
-15.49999999999994
30
0
0
LINE
5
130
100
AcDbEntity
8
0
100
AcDbLine
10
23.499999999999979
20
7.5500000000000513
30
0
11
23.499999999999979
21
19.550000000000054
31
2.3171245104408652e-15
0
CIRCLE
5
131
100
AcDbEntity
8
0
100
AcDbCircle
10
18.999999999999979
20
19.550000000000054
30
2.3171245104408652e-15
40
5.7500000000000009
210
0
220
0
230
1
0
LINE
5
132
100
AcDbEntity
8
0
100
AcDbLine
10
23.499999999999979
20
19.550000000000054
30
2.3171245104408652e-15
11
18.999999999999979
21
19.550000000000054
31
0
0
LWPOLYLINE
5
133
100
AcDbEntity
8
0
100
AcDbPolyline
90
4
70
1
43
0.0
10
-23.990999999999985
20
76.250000000000043
10
18.509000000000015
20
76.250000000000028
10
18.509000000000025
20
33.750000000000028
10
-23.990999999999985
20
33.750000000000028
0
LINE
5
134
100
AcDbEntity
8
0
100
AcDbLine
10
-23.990999999999985
20
76.250000000000043
30
0
11
18.509000000000025
21
33.750000000000028
31
-2.596987229090437e-16
0
LINE
5
135
100
AcDbEntity
8
0
100
AcDbLine
10
18.509000000000015
20
76.250000000000028
30
0
11
-23.990999999999985
21
33.750000000000028
31
0
0
ENDSEC
0
SECTION
2
OBJECTS
0
DICTIONARY
5
C
100
AcDbDictionary
3
ACAD_GROUP
350
D
3
ACAD_MLINESTYLE
350
17
0
DICTIONARY
5
D
100
AcDbDictionary
0
DICTIONARY
5
1A
330
C
100
AcDbDictionary
0
DICTIONARY
5
17
100
AcDbDictionary
0
ENDSEC
0
EOF
