0
SECTION
2
HEADER
9
$INSUNITS
70
4
9
$ACADVER
1
AC1014
9
$HANDSEED
5
FFFF
0
ENDSEC
0
SECTION
2
TABLES
0
TABLE
2
VPORT
5
8
100
AcDbSymbolTable
0
ENDTAB
0
TABLE
2
LTYPE
5
5
100
AcDbSymbolTable
0
LTYPE
5
14
100
AcDbSymbolTableRecord
100
AcDbLinetypeTableRecord
2
BYBLOCK
70
0
0
LTYPE
5
15
100
AcDbSymbolTableRecord
100
AcDbLinetypeTableRecord
2
BYLAYER
70
0
0
ENDTAB
0
TABLE
2
LAYER
5
2
100
AcDbSymbolTable
70
2
0
LAYER
5
50
100
AcDbSymbolTableRecord
100
AcDbLayerTableRecord
2
0
70
0
6
CONTINUOUS
0
ENDTAB
0
TABLE
2
STYLE
5
3
100
AcDbSymbolTable
70
1
0
STYLE
5
11
100
AcDbSymbolTableRecord
100
AcDbTextStyleTableRecord
2
STANDARD
70
0
0
ENDTAB
0
TABLE
2
VIEW
5
6
100
AcDbSymbolTable
70
0
0
ENDTAB
0
TABLE
2
UCS
5
7
100
AcDbSymbolTable
70
0
0
ENDTAB
0
TABLE
2
APPID
5
9
100
AcDbSymbolTable
70
2
0
APPID
5
12
100
AcDbSymbolTableRecord
100
AcDbRegAppTableRecord
2
ACAD
70
0
0
ENDTAB
0
TABLE
2
DIMSTYLE
5
A
100
AcDbSymbolTable
70
1
0
ENDTAB
0
TABLE
2
BLOCK_RECORD
5
1
100
AcDbSymbolTable
70
1
0
BLOCK_RECORD
5
1F
100
AcDbSymbolTableRecord
100
AcDbBlockTableRecord
2
*MODEL_SPACE
0
BLOCK_RECORD
5
1B
100
AcDbSymbolTableRecord
100
AcDbBlockTableRecord
2
*PAPER_SPACE
0
ENDTAB
0
ENDSEC
0
SECTION
2
BLOCKS
0
BLOCK
5
20
100
AcDbEntity
100
AcDbBlockBegin
2
*MODEL_SPACE
0
ENDBLK
5
21
100
AcDbEntity
100
AcDbBlockEnd
0
BLOCK
5
1C
100
AcDbEntity
100
AcDbBlockBegin
2
*PAPER_SPACE
0
ENDBLK
5
1D
100
AcDbEntity
100
AcDbBlockEnd
0
ENDSEC
0
SECTION
2
ENTITIES
0
LWPOLYLINE
5
100
100
AcDbEntity
8
0
100
AcDbPolyline
90
2
70
1
43
0.0
10
14.171500000000027
20
79.445000000000107
10
14.171500000000023
20
82.290000000000106
0
LWPOLYLINE
5
101
100
AcDbEntity
8
0
100
AcDbPolyline
90
2
70
1
43
0.0
10
28.887500000000003
20
82.290000000000106
10
28.887500000000003
20
79.445000000000107
0
LWPOLYLINE
5
102
100
AcDbEntity
8
0
100
AcDbPolyline
90
4
70
1
43
0.0
10
14.171500000000023
20
82.290000000000106
10
28.887500000000003
20
82.290000000000106
10
28.887500000000003
20
79.445000000000107
10
14.171500000000023
20
79.445000000000107
0
ARC
5
103
100
AcDbEntity
8
0
100
AcDbCircle
10
12.759000000000029
20
39.500000000000036
30
0
40
3.250000000000004
210
0
220
0
230
1
100
AcDbArc
50
121.53887265353426
51
238.46112734646564
0
LINE
5
104
100
AcDbEntity
8
0
100
AcDbLine
10
11.059000000000021
20
42.269927796892944
30
0
11
11.059000000000019
21
70.084668806854154
31
0
0
ARC
5
105
100
AcDbEntity
8
0
100
AcDbCircle
10
12.759000000000025
20
70.500000000000028
30
0
40
1.7499999999999996
210
0
220
0
230
1
100
AcDbArc
50
166.2708673245879
51
193.72913267541162
0
LINE
5
106
100
AcDbEntity
8
0
100
AcDbLine
10
11.059000000000019
20
70.915331193145917
30
0
11
11.059000000000019
21
85.290000000000106
31
0
0
LINE
5
107
100
AcDbEntity
8
0
100
AcDbLine
10
11.059000000000019
20
85.290000000000106
30
0
11
12.976152028763456
21
85.290000000000106
31
0
0
LINE
5
108
100
AcDbEntity
8
0
100
AcDbLine
10
12.976152028763456
20
85.290000000000106
30
0
11
12.976152028763476
21
170.50000000000009
31
0
0
LINE
5
109
100
AcDbEntity
8
0
100
AcDbLine
10
12.976152028763476
20
170.50000000000009
30
0
11
4.7590000000000199
21
170.50000000000009
31
0
0
LINE
5
110
100
AcDbEntity
8
0
100
AcDbLine
10
4.7590000000000199
20
170.50000000000009
30
0
11
4.7590000000000199
21
111.50000000000004
31
0
0
LINE
5
111
100
AcDbEntity
8
0
100
AcDbLine
10
4.7590000000000199
20
111.50000000000004
30
0
11
-28.740999999999978
21
78.000000000000043
31
0
0
LINE
5
112
100
AcDbEntity
8
0
100
AcDbLine
10
-28.740999999999978
20
78.000000000000043
30
0
11
-28.740999999999978
21
32.000000000000021
31
0
0
SPLINE
5
113
100
AcDbEntity
8
0
100
AcDbSpline
70
0
71
3
72
52
73
48
74
0
42
0.000000001
43
0.0000000001
44
0.0000000001
40
0
40
0
40
0
40
0
40
0.17234178333913314
40
0.17234178333913314
40
0.37668921061374327
40
0.37668921061374327
40
1.0320751526266614
40
1.0320751526266614
40
1.4360611619538541
40
1.4360611619538541
40
1.9927342042840244
40
1.9927342042840244
40
2.1893717970620159
40
2.1893717970620159
40
2.3266286810236787
40
2.3266286810236787
40
2.4494119825258593
40
2.4494119825258593
40
2.5847101527064282
40
2.5847101527064282
40
2.7718683068339369
40
2.7718683068339369
40
3.0801793055719333
40
3.0801793055719333
40
3.8074936946124609
40
3.8074936946124609
40
4.0236483053231273
40
4.0236483053231273
40
4.1509776334364039
40
4.1509776334364039
40
4.2663774542969186
40
4.2663774542969186
40
4.4017273274008968
40
4.4017273274008968
40
4.511275582647932
40
4.511275582647932
40
4.6282851950175834
40
4.6282851950175834
40
4.7935524206708262
40
4.7935524206708262
40
4.8552097852083476
40
4.8552097852083476
40
4.890859892804305
40
4.890859892804305
40
4.9217151661284877
40
4.9217151661284877
40
4.9528163452759735
40
4.9528163452759735
40
4.9528163452759735
40
4.9528163452759735
10
11.059000000000019
20
-15.49999999999994
30
0
10
10.484527388869576
20
-15.499999999999938
30
0
10
9.9457172517981487
20
-15.388181042338793
30
0
10
8.7774452622161903
20
-14.919078172931698
30
0
10
8.1861415268326354
20
-14.534881127882517
30
0
10
5.6626978257459601
20
-12.659211607782076
30
0
10
3.9017542802409282
20
-10.777916178620275
30
0
10
-2.6478005693154865
20
-9.1737401524450277
30
0
10
-5.4177230695940048
20
-9.0461685910460972
30
0
10
-12.354514005269962
20
-8.8897284588490049
30
0
10
-16.597842410659585
20
-8.9161128419701434
30
0
10
-21.20968299683863
20
-7.5652179892796294
30
0
10
-22.397419705859669
20
-7.0587311626712967
30
0
10
-24.104953756032689
20
-5.7865566697274842
30
0
10
-24.703214218290164
20
-5.1563813539666947
30
0
10
-25.550146065715346
20
-3.7352282001442094
30
0
10
-25.806896926026297
20
-3.0044181610264826
30
0
10
-26.052800235442323
20
-1.381041765747848
30
0
10
-26.006717486176953
20
-0.51721683940434626
30
0
10
-25.590813091947616
20
1.495406527073833
30
0
10
-25.107414545643813
20
2.6148781907891037
30
0
10
-23.500542221685834
20
5.3488913664401796
30
0
10
-22.125838311213531
20
6.8837338680805225
30
0
10
-17.312443701131947
20
11.459215519831616
30
0
10
-13.398355512353321
20
13.910536649101427
30
0
10
-10.711602484949536
20
17.305092670256002
30
0
10
-10.262304969386204
20
18.092157370721896
30
0
10
-9.8541581599881454
20
19.450120799276153
30
0
10
-9.6967224950905333
20
20.203492082561905
30
0
10
-9.8612784756986791
20
22.107072539379974
30
0
10
-10.123897814664149
20
23.002983864264962
30
0
10
-10.973582183223414
20
24.790808070547126
30
0
10
-11.651338737223165
20
25.744591135796998
30
0
10
-13.321602711978537
20
27.253821271271619
30
0
10
-14.334760336755126
20
27.954970428283815
30
0
10
-17.31007406127878
20
29.083070545490163
30
0
10
-18.929942121459177
20
29.330613273149766
30
0
10
-22.670569921197185
20
29.62943355666664
30
0
10
-24.754009732015028
20
29.559834472043356
30
0
10
-26.857914584890498
20
29.909700787562162
30
0
10
-27.352285901222224
20
30.049875610788668
30
0
10
-27.97213134012754
20
30.389981696483769
30
0
10
-28.177504997060232
20
30.546545925188848
30
0
10
-28.483438916149083
20
30.921273933051854
30
0
10
-28.584565765043809
20
31.116243873699766
30
0
10
-28.715130689305091
20
31.547351284806005
30
0
10
-28.740999999999978
20
31.774097836998866
30
0
10
-28.740999999999978
20
32.000000000000021
30
0
0
LINE
5
114
100
AcDbEntity
8
0
100
AcDbLine
10
11.059000000000019
20
-15.49999999999994
30
0
11
11.059000000000019
21
4.9868927061085078
31
0
0
ARC
5
115
100
AcDbEntity
8
0
100
AcDbCircle
10
9.499999999999984
20
7.5500000000000238
30
0
40
3.0000000000000004
210
0
220
-0
230
1
100
AcDbArc
50
58.690105186845713
51
301.3098948131543
0
LINE
5
116
100
AcDbEntity
8
0
100
AcDbLine
10
11.059000000000017
20
10.113107293891542
30
0
11
11.059000000000017
21
36.730072203107134
31
0
0
CIRCLE
5
117
100
AcDbEntity
8
0
100
AcDbCircle
10
-1.5000000000000315
20
17.650000000000002
30
0
40
3.0000000000000004
210
0
220
0
230
1
0
CIRCLE
5
118
100
AcDbEntity
8
0
100
AcDbCircle
10
-19
20
-1.2500000000000369
30
0
40
3.0000000000000004
210
0
220
0
230
1
0
CIRCLE
5
119
100
AcDbEntity
8
0
100
AcDbCircle
10
-18.240999999999982
20
70.500000000000028
30
0
40
3.25
210
0
220
0
230
1
0
CIRCLE
5
120
100
AcDbEntity
8
0
100
AcDbCircle
10
-18.240999999999978
20
39.500000000000036
30
0
40
3.25
210
0
220
0
230
1
0
CIRCLE
5
121
100
AcDbEntity
8
0
100
AcDbCircle
10
-2.7409999999999775
20
55.000000000000036
30
0
40
2.75
210
0
220
0
230
1
0
LWPOLYLINE
5
122
100
AcDbEntity
8
0
100
AcDbPolyline
90
8
70
1
43
0.0
10
15.824690683711278
20
170.50000000000009
10
15.824690683711264
20
85.290000000000106
10
17.019829308031408
20
85.290000000000106
10
17.019829308031401
20
163.12500000000011
10
26.039170691968611
20
163.12500000000011
10
26.039170691968621
20
85.290000000000106
10
27.2343094699897
20
85.290000000000106
10
27.234309469989721
20
170.50000000000009
0
LWPOLYLINE
5
123
100
AcDbEntity
8
0
100
AcDbPolyline
90
4
70
1
43
0.0
10
30.082848124937499
20
170.50000000000009
10
30.082848124937481
20
85.290000000000106
10
32.000000000000021
20
85.290000000000106
10
32.000000000000021
20
170.50000000000009
0
ENDSEC
0
SECTION
2
OBJECTS
0
DICTIONARY
5
C
100
AcDbDictionary
3
ACAD_GROUP
350
D
3
ACAD_MLINESTYLE
350
17
0
DICTIONARY
5
D
100
AcDbDictionary
0
DICTIONARY
5
1A
330
C
100
AcDbDictionary
0
DICTIONARY
5
17
100
AcDbDictionary
0
ENDSEC
0
EOF
