0
SECTION
2
HEADER
9
$INSUNITS
70
4
9
$ACADVER
1
AC1014
9
$HANDSEED
5
FFFF
0
ENDSEC
0
SECTION
2
TABLES
0
TABLE
2
VPORT
5
8
100
AcDbSymbolTable
0
ENDTAB
0
TABLE
2
LTYPE
5
5
100
AcDbSymbolTable
0
LTYPE
5
14
100
AcDbSymbolTableRecord
100
AcDbLinetypeTableRecord
2
BYBLOCK
70
0
0
LTYPE
5
15
100
AcDbSymbolTableRecord
100
AcDbLinetypeTableRecord
2
BYLAYER
70
0
0
ENDTAB
0
TABLE
2
LAYER
5
2
100
AcDbSymbolTable
70
2
0
LAYER
5
50
100
AcDbSymbolTableRecord
100
AcDbLayerTableRecord
2
0
70
0
6
CONTINUOUS
0
ENDTAB
0
TABLE
2
STYLE
5
3
100
AcDbSymbolTable
70
1
0
STYLE
5
11
100
AcDbSymbolTableRecord
100
AcDbTextStyleTableRecord
2
STANDARD
70
0
0
ENDTAB
0
TABLE
2
VIEW
5
6
100
AcDbSymbolTable
70
0
0
ENDTAB
0
TABLE
2
UCS
5
7
100
AcDbSymbolTable
70
0
0
ENDTAB
0
TABLE
2
APPID
5
9
100
AcDbSymbolTable
70
2
0
APPID
5
12
100
AcDbSymbolTableRecord
100
AcDbRegAppTableRecord
2
ACAD
70
0
0
ENDTAB
0
TABLE
2
DIMSTYLE
5
A
100
AcDbSymbolTable
70
1
0
ENDTAB
0
TABLE
2
BLOCK_RECORD
5
1
100
AcDbSymbolTable
70
1
0
BLOCK_RECORD
5
1F
100
AcDbSymbolTableRecord
100
AcDbBlockTableRecord
2
*MODEL_SPACE
0
BLOCK_RECORD
5
1B
100
AcDbSymbolTableRecord
100
AcDbBlockTableRecord
2
*PAPER_SPACE
0
ENDTAB
0
ENDSEC
0
SECTION
2
BLOCKS
0
BLOCK
5
20
100
AcDbEntity
100
AcDbBlockBegin
2
*MODEL_SPACE
0
ENDBLK
5
21
100
AcDbEntity
100
AcDbBlockEnd
0
BLOCK
5
1C
100
AcDbEntity
100
AcDbBlockBegin
2
*PAPER_SPACE
0
ENDBLK
5
1D
100
AcDbEntity
100
AcDbBlockEnd
0
ENDSEC
0
SECTION
2
ENTITIES
0
LWPOLYLINE
5
100
100
AcDbEntity
8
0
100
AcDbPolyline
90
10
70
1
43
0.0
10
32.000000000000021
20
-15.49999999999994
10
31.999999999999961
20
22.000000000000068
42
0.41421356237309492
10
21.999999999999943
20
32.000000000000057
10
-22.000000000000046
20
31.999999999999964
42
0.41421356237309542
10
-32.000000000000036
20
21.99999999999994
10
-31.999999999999979
20
-15.500000000000064
10
-11.999999999999977
20
-15.500000000000028
10
-11.999999999999973
20
-20.000000000000032
42
0.99999999999999989
10
12.000000000000027
20
-19.999999999999993
10
12.00000000000002
20
-15.499999999999975
0
CIRCLE
5
101
100
AcDbEntity
8
0
100
AcDbCircle
10
-20.000000000000036
20
20.099999999999966
30
0
40
2.4999999999999858
210
-9.860761315262687e-32
220
1.972152263052528e-31
230
1
0
CIRCLE
5
102
100
AcDbEntity
8
0
100
AcDbCircle
10
19.999999999999961
20
20.100000000000048
30
3.944304526105059e-30
40
2.4999999999999858
210
-9.860761315262687e-32
220
1.972152263052528e-31
230
1
0
CIRCLE
5
103
100
AcDbEntity
8
0
100
AcDbCircle
10
-1.5000000000000315
20
17.650000000000002
30
0
40
1.4999999999999871
210
-9.860761315262687e-32
220
1.9721522630525284e-31
230
1
0
CIRCLE
5
104
100
AcDbEntity
8
0
100
AcDbCircle
10
-19
20
-1.2500000000000369
30
-1.9721522630525295e-30
40
1.499999999999988
210
-9.8607613152626892e-32
220
1.9721522630525282e-31
230
1
0
CIRCLE
5
105
100
AcDbEntity
8
0
100
AcDbCircle
10
2.7644413652018223e-14
20
-20.100000000000009
30
0
40
3.5999999999999899
210
-1.9721522630525374e-31
220
3.944304526105056e-31
230
1
0
CIRCLE
5
106
100
AcDbEntity
8
0
100
AcDbCircle
10
23.499999999999979
20
7.5500000000000513
30
0
40
2.700000000000002
210
-3.9311164170210342e-46
220
1.9721522630525295e-31
230
1
0
CIRCLE
5
107
100
AcDbEntity
8
0
100
AcDbCircle
10
9.499999999999984
20
7.5500000000000238
30
9.8607613152626476e-31
40
2.7000000000000002
210
-1.9721522630525295e-31
220
-3.0876917443956296e-46
230
1
0
LINE
5
108
100
AcDbEntity
8
0
100
AcDbLine
10
9.0000000000000178
20
50.50000000000005
30
-2.7334116556968924e-15
11
32.000000000000021
21
50.500000000000043
31
1.6454476858023752e-14
0
LWPOLYLINE
5
109
100
AcDbEntity
8
0
100
AcDbPolyline
90
4
70
1
43
0.0
10
32.000000000000021
20
124.50000000000006
10
32.000000000000021
20
-15.49999999999994
10
9.0000000000000178
20
-15.49999999999994
10
9.0000000000000178
20
124.50000000000006
0
LINE
5
110
100
AcDbEntity
8
0
100
AcDbLine
10
12.199999999999982
20
7.5500000000000291
30
4.5000000000000178
11
20.799999999999983
21
7.5500000000000291
31
4.5000000000000178
0
LINE
5
111
100
AcDbEntity
8
0
100
AcDbLine
10
9.0000000000000178
20
32.000000000000028
30
-2.7334116556968924e-15
11
1.5000000000000187
21
32.000000000000014
31
-1.6691579608199082e-30
0
LINE
5
112
100
AcDbEntity
8
0
100
AcDbLine
10
1.5000000000000127
20
124.50000000000006
30
-2.7334116556968924e-15
11
9.0000000000000178
21
124.50000000000006
31
-2.7334116556968924e-15
0
LINE
5
113
100
AcDbEntity
8
0
100
AcDbLine
10
1.5000000000000187
20
32.000000000000014
30
-1.6691579608199082e-30
11
1.5000000000000127
21
124.50000000000006
31
-2.7334116556968924e-15
0
LINE
5
114
100
AcDbEntity
8
0
100
AcDbLine
10
1.5000000000000169
20
55.000000000000028
30
1.4083438190194548e-15
11
-4.7999999999999829
21
55.000000000000007
31
1.2947235387327257e-15
0
LWPOLYLINE
5
115
100
AcDbEntity
8
0
100
AcDbPolyline
90
4
70
1
43
0.0
10
1.5000000000000187
20
32.000000000000014
10
-30.799999999999983
20
32.000000000000014
10
-30.799999999999983
20
78.000000000000014
10
1.5000000000000158
20
78.000000000000028
0
CIRCLE
5
116
100
AcDbEntity
8
0
100
AcDbCircle
10
-4.7999999999999829
20
55.000000000000014
30
1.2947235387327257e-15
40
7.5
210
0
220
0
230
1
0
CIRCLE
5
117
100
AcDbEntity
8
0
100
AcDbCircle
10
-20.299999999999972
20
39.500000000000007
30
1.6947555793483746e-15
40
1.7500000000000002
210
0
220
0
230
1
0
CIRCLE
5
118
100
AcDbEntity
8
0
100
AcDbCircle
10
10.700000000000031
20
39.500000000000007
30
-2.0344695933002284e-16
40
1.7500000000000002
210
0
220
0
230
1
0
LINE
5
119
100
AcDbEntity
8
0
100
AcDbLine
10
-20.299999999999972
20
39.500000000000007
30
1.6947555793483746e-15
11
10.700000000000031
21
39.500000000000007
31
-2.0344695933002284e-16
0
LINE
5
120
100
AcDbEntity
8
0
100
AcDbLine
10
-4.7999999999999829
20
55.000000000000014
30
1.2947235387327257e-15
11
-4.7999999999999705
21
39.500000000000007
31
7.4565431000917594e-16
0
CIRCLE
5
121
100
AcDbEntity
8
0
100
AcDbCircle
10
-20.299999999999969
20
70.500000000000028
30
2.8278180261923647e-15
40
1.7500000000000002
210
0
220
0
230
1
0
CIRCLE
5
122
100
AcDbEntity
8
0
100
AcDbCircle
10
10.700000000000029
20
70.500000000000014
30
1.8688764712175926e-15
40
1.7500000000000002
210
0
220
0
230
1
0
LINE
5
123
100
AcDbEntity
8
0
100
AcDbLine
10
-4.7999999999999812
20
55.000000000000028
30
2.3820874316956598e-15
11
-4.7999999999999741
21
70.500000000000014
31
1.0329541217408133e-15
0
LINE
5
124
100
AcDbEntity
8
0
100
AcDbLine
10
-20.299999999999976
20
70.500000000000014
30
1.5124248992281974e-15
11
10.700000000000029
21
70.499999999994742
31
5.5348334425342249e-16
0
CIRCLE
5
125
100
AcDbEntity
8
0
100
AcDbCircle
10
-4.7999999999999838
20
55.000000000000057
30
1.2947235387327257e-15
40
2.75
210
0
220
0
230
1
0
CIRCLE
5
126
100
AcDbEntity
8
0
100
AcDbCircle
10
-4.7999999999999847
20
55.000000000000043
30
1.2947235387327257e-15
40
11.25
210
0
220
0
230
1
0
CIRCLE
5
127
100
AcDbEntity
8
0
100
AcDbCircle
10
9.499999999999984
20
7.5500000000000238
30
9.8607613152626476e-31
40
3.0000000000000004
210
0
220
0
230
1
0
CIRCLE
5
128
100
AcDbEntity
8
0
100
AcDbCircle
10
23.499999999999979
20
7.5500000000000513
30
0
40
3.0000000000000004
210
0
220
0
230
1
0
SPLINE
5
129
100
AcDbEntity
8
0
100
AcDbSpline
70
4
71
5
72
41
73
35
74
0
42
0.000000001
43
0.0000000001
44
0.0000000001
40
0
40
0
40
0
40
0
40
0
40
0
40
0.033333333333333333
40
0.066666666666666666
40
0.10000000000000001
40
0.13333333333333333
40
0.16666666666666666
40
0.19999999999999998
40
0.23333333333333331
40
0.26666666666666666
40
0.29999999999999999
40
0.33333333333333331
40
0.36666666666666664
40
0.39999999999999997
40
0.43333333333333329
40
0.46666666666666662
40
0.49999999999999994
40
0.53333333333333333
40
0.56666666666666665
40
0.59999999999999998
40
0.6333333333333333
40
0.66666666666666663
40
0.69999999999999996
40
0.73333333333333328
40
0.76666666666666661
40
0.79999999999999993
40
0.83333333333333326
40
0.86666666666666659
40
0.89999999999999991
40
0.93333333333333324
40
0.96666666666666656
40
1
40
1
40
1
40
1
40
1
40
1
41
1
41
1
41
1
41
1
41
1
41
1
41
1
41
1
41
1
41
1
41
1
41
1
41
1
41
1
41
1
41
1
41
1
41
1
41
1
41
1
41
1
41
1
41
1
41
1
41
1
41
1
41
1
41
1
41
1
41
1
41
1
41
1
41
1
41
1
41
1
10
-30.799999999999983
20
32.000000000000014
30
-2.0512833885718279e-15
10
-30.799999999999983
20
31.533111532331084
30
-2.0220652219582468e-15
10
-30.632803581202701
20
30.714735308321323
30
-1.9390265216583305e-15
10
-29.88043079201482
20
29.833353060605525
30
-1.7406665706051955e-15
10
-27.950986747010479
20
29.26296149427035
30
-1.350793359529589e-15
10
-24.446665069732809
20
29.074687853713918
30
-7.7618440433996572e-16
10
-20.434313955205006
20
28.839976890765541
30
-2.566072403632134e-16
10
-16.510801449997356
20
28.067370923617364
30
8.8398430108384179e-17
10
-13.155270059804121
20
26.53179822312444
30
2.1038720404985684e-16
10
-10.625207177942738
20
24.41033534803725
30
1.6703035448988606e-16
10
-9.0500598845008255
20
22.058775029706478
30
6.1168702389732089e-17
10
-8.495336610674574
20
19.827278677613425
30
-8.5931577928977677e-18
10
-9.0529717362551647
20
17.861252298889109
30
-3.9063422651221527e-18
10
-10.894579544443543
20
15.895413337889828
30
9.1472967026937278e-19
10
-13.774132633251842
20
13.757388258361424
30
-6.21095021049385e-18
10
-17.254044256018222
20
11.301980482094478
30
-2.2901437615118583e-17
10
-20.763540171309455
20
8.4644493582757026
30
-3.1225857568436775e-17
10
-23.726711012161104
20
5.2702656251892552
30
-1.609084272440311e-17
10
-25.650577745140488
20
1.8579958065999276
30
2.5374501356585339e-17
10
-26.255104742855877
20
-1.4864793318664971
30
6.8382719278956966e-17
10
-25.481648994996718
20
-4.398125305332929
30
7.1493355374453676e-17
10
-23.519057319180661
20
-6.5794364445317663
30
3.0375879161569574e-17
10
-20.713023242873732
20
-7.8728734627093742
30
-3.6154244269156726e-17
10
-17.786808471963816
20
-8.4791346402852952
30
5.4010534215788411e-17
10
-15.051045989552881
20
-8.7372884008742737
30
2.9794033304393212e-16
10
-12.366573673585087
20
-8.9568617054646111
30
4.999489642432242e-16
10
-9.4545717803177141
20
-9.4090184695115866
30
4.3275508538013659e-16
10
-6.0472117411377955
20
-10.257080022965077
30
-7.9951094679518734e-17
10
-2.1379339037976437
20
-11.500545784259778
30
-1.0283874168254488e-15
10
1.9104144984615528
20
-12.949901547930843
30
-2.1625795350868506e-15
10
5.5559851648467777
20
-14.322676104800117
30
-3.115929866440143e-15
10
7.6823258867975923
20
-15.116375044258852
30
-3.4199799902458548e-15
10
8.6207424505331591
20
-15.430251490024279
30
-3.2483469019505877e-15
10
8.9268323458022589
20
-15.499999999999938
30
-2.9377511641751535e-15
10
9.0000000000000178
20
-15.49999999999994
30
-2.7334116556968924e-15
0
LINE
5
130
100
AcDbEntity
8
0
100
AcDbLine
10
23.499999999999979
20
7.5500000000000513
30
0
11
23.499999999999979
21
19.550000000000054
31
2.3171245104408652e-15
0
CIRCLE
5
131
100
AcDbEntity
8
0
100
AcDbCircle
10
18.999999999999979
20
19.550000000000054
30
2.3171245104408652e-15
40
5.7500000000000009
210
0
220
0
230
1
0
LINE
5
132
100
AcDbEntity
8
0
100
AcDbLine
10
23.499999999999979
20
19.550000000000054
30
2.3171245104408652e-15
11
18.999999999999979
21
19.550000000000054
31
0
0
LWPOLYLINE
5
133
100
AcDbEntity
8
0
100
AcDbPolyline
90
4
70
1
43
0.0
10
-26.04999999999999
20
76.250000000000014
10
16.45000000000001
20
76.250000000000014
10
16.450000000000063
20
33.750000000000043
10
-26.049999999999976
20
33.750000000000021
0
LINE
5
134
100
AcDbEntity
8
0
100
AcDbLine
10
-26.04999999999999
20
76.250000000000014
30
-4.0244735146734217e-15
11
16.450000000000063
21
33.750000000000043
31
6.6139205921388724e-15
0
LINE
5
135
100
AcDbEntity
8
0
100
AcDbLine
10
16.45000000000001
20
76.250000000000014
30
-1.4538413881871642e-15
11
-26.049999999999976
21
33.750000000000021
31
6.6262730440706679e-15
0
ENDSEC
0
SECTION
2
OBJECTS
0
DICTIONARY
5
C
100
AcDbDictionary
3
ACAD_GROUP
350
D
3
ACAD_MLINESTYLE
350
17
0
DICTIONARY
5
D
100
AcDbDictionary
0
DICTIONARY
5
1A
330
C
100
AcDbDictionary
0
DICTIONARY
5
17
100
AcDbDictionary
0
ENDSEC
0
EOF
