0
SECTION
2
HEADER
9
$INSUNITS
70
4
9
$ACADVER
1
AC1014
9
$HANDSEED
5
FFFF
0
ENDSEC
0
SECTION
2
TABLES
0
TABLE
2
VPORT
5
8
100
AcDbSymbolTable
0
ENDTAB
0
TABLE
2
LTYPE
5
5
100
AcDbSymbolTable
0
LTYPE
5
14
100
AcDbSymbolTableRecord
100
AcDbLinetypeTableRecord
2
BYBLOCK
70
0
0
LTYPE
5
15
100
AcDbSymbolTableRecord
100
AcDbLinetypeTableRecord
2
BYLAYER
70
0
0
ENDTAB
0
TABLE
2
LAYER
5
2
100
AcDbSymbolTable
70
2
0
LAYER
5
50
100
AcDbSymbolTableRecord
100
AcDbLayerTableRecord
2
0
70
0
6
CONTINUOUS
0
ENDTAB
0
TABLE
2
STYLE
5
3
100
AcDbSymbolTable
70
1
0
STYLE
5
11
100
AcDbSymbolTableRecord
100
AcDbTextStyleTableRecord
2
STANDARD
70
0
0
ENDTAB
0
TABLE
2
VIEW
5
6
100
AcDbSymbolTable
70
0
0
ENDTAB
0
TABLE
2
UCS
5
7
100
AcDbSymbolTable
70
0
0
ENDTAB
0
TABLE
2
APPID
5
9
100
AcDbSymbolTable
70
2
0
APPID
5
12
100
AcDbSymbolTableRecord
100
AcDbRegAppTableRecord
2
ACAD
70
0
0
ENDTAB
0
TABLE
2
DIMSTYLE
5
A
100
AcDbSymbolTable
70
1
0
ENDTAB
0
TABLE
2
BLOCK_RECORD
5
1
100
AcDbSymbolTable
70
1
0
BLOCK_RECORD
5
1F
100
AcDbSymbolTableRecord
100
AcDbBlockTableRecord
2
*MODEL_SPACE
0
BLOCK_RECORD
5
1B
100
AcDbSymbolTableRecord
100
AcDbBlockTableRecord
2
*PAPER_SPACE
0
ENDTAB
0
ENDSEC
0
SECTION
2
BLOCKS
0
BLOCK
5
20
100
AcDbEntity
100
AcDbBlockBegin
2
*MODEL_SPACE
0
ENDBLK
5
21
100
AcDbEntity
100
AcDbBlockEnd
0
BLOCK
5
1C
100
AcDbEntity
100
AcDbBlockBegin
2
*PAPER_SPACE
0
ENDBLK
5
1D
100
AcDbEntity
100
AcDbBlockEnd
0
ENDSEC
0
SECTION
2
ENTITIES
0
LINE
5
100
100
AcDbEntity
8
0
100
AcDbLine
10
12.97615202876343
20
124.50000000000006
30
0
11
1.4999999999999902
21
124.50000000000006
31
-1.9721522630525295e-30
0
LINE
5
101
100
AcDbEntity
8
0
100
AcDbLine
10
-30.799999999999969
20
78.000000000000014
30
0
11
-30.799999999999969
21
32.000000000000014
31
-1.0825960457000938e-45
0
SPLINE
5
102
100
AcDbEntity
8
0
100
AcDbSpline
70
0
71
3
72
54
73
50
74
0
42
0.000000001
43
0.0000000001
44
0.0000000001
40
0
40
0
40
0
40
0
40
0.0090382118399325653
40
0.0090382118399325653
40
0.058584391998006323
40
0.058584391998006323
40
0.34330695616946583
40
0.34330695616946583
40
0.49130890620238388
40
0.49130890620238388
40
0.71822173384521781
40
0.71822173384521781
40
0.81859891294675213
40
0.81859891294675213
40
0.89635008882303824
40
0.89635008882303824
40
0.96611197962745143
40
0.96611197962745143
40
1.0397226209789314
40
1.0397226209789314
40
1.1368859637579412
40
1.1368859637579412
40
1.2892491363845264
40
1.2892491363845264
40
1.5854066374868256
40
1.5854066374868256
40
1.776188403513054
40
1.776188403513054
40
1.8817520048091771
40
1.8817520048091771
40
1.9730409937231876
40
1.9730409937231876
40
2.0732078503148141
40
2.0732078503148141
40
2.2215823662166563
40
2.2215823662166563
40
2.4041216482066061
40
2.4041216482066061
40
2.622337548485302
40
2.622337548485302
40
2.9883679853110072
40
2.9883679853110072
40
3.1472132827905543
40
3.1472132827905543
40
3.2210668319877165
40
3.2210668319877165
40
3.2796004734653481
40
3.2796004734653481
40
3.3435839143535087
40
3.3435839143535087
40
3.3435839143535087
40
3.3435839143535087
10
8.9999999999999964
20
-15.49999999999994
30
0
10
8.9698726272002212
20
-15.49999999999994
30
0
10
8.9283195832544031
20
-15.492935972661829
30
0
10
8.6927785094094752
20
-15.444516210424194
30
0
10
8.3183073303389108
20
-15.322147418125587
30
0
10
5.5456736014189154
20
-14.357078750244476
30
0
10
0.29789924872443235
20
-12.259522295815504
30
0
10
-6.8757573840092734
20
-10.043133648801426
30
0
10
-8.9693156794187878
20
-9.52192113412341
30
0
10
-14.258981509895508
20
-8.6841981263474093
30
0
10
-16.806718538677604
20
-8.7138580285401233
30
0
10
-20.552135000767731
20
-7.7928462931586475
30
0
10
-21.697602052918249
20
-7.3826900234507731
30
0
10
-23.486216865714333
20
-6.2922749086574123
30
0
10
-24.1710651342764
20
-5.7014223901623531
30
0
10
-25.196737840601863
20
-4.3106020460609997
30
0
10
-25.538128288467735
20
-3.574280547368216
30
0
10
-25.933276203318307
20
-1.9422486835038166
30
0
10
-25.961151986105897
20
-1.0787783815407368
30
0
10
-25.708284350694509
20
0.90891054305020591
30
0
10
-25.329750287734157
20
2.0071019749925401
30
0
10
-24.015875489787682
20
4.6358218287800455
30
0
10
-22.868514195636969
20
6.0977911206324773
30
0
10
-19.189583748175032
20
9.921333269208759
30
0
10
-16.230608297215959
20
11.980205956929428
30
0
10
-12.274618573493253
20
14.892028381334315
30
0
10
-10.961678152350219
20
15.908978923543639
30
0
10
-9.5763243654330594
20
17.483705448562983
30
0
10
-9.2292162257656543
20
18.023746268860158
30
0
10
-8.83710924252056
20
19.056975895401955
30
0
10
-8.7583508043346416
20
19.546494361401251
30
0
10
-8.7966030331860328
20
20.616094199721008
30
0
10
-8.9325672936790497
20
21.169040790625182
30
0
10
-9.4357932925839165
20
22.461132990501163
30
0
10
-9.9185650987426861
20
23.253442571427101
30
0
10
-11.34293474970136
20
24.934727803709848
30
0
10
-12.451772103819225
20
25.907046652794538
30
0
10
-15.740040830159717
20
27.71364016457888
30
0
10
-17.628772551274988
20
28.232413801454967
30
0
10
-22.277629248438121
20
29.051525256150992
30
0
10
-25.125531566203247
20
29.029826000812747
30
0
10
-28.18911154600378
20
29.458992848273358
30
0
10
-28.980896335153069
20
29.648968556667267
30
0
10
-29.858572210594883
20
30.118886504664033
30
0
10
-30.11436158915178
20
30.306504864619775
30
0
10
-30.479766450010828
20
30.740454917501868
30
0
10
-30.599083907602139
20
30.955004879284857
30
0
10
-30.765501193740192
20
31.452743225348829
30
0
10
-30.800000000000004
20
31.726204648762291
30
0
10
-30.800000000000004
20
32.000000000000014
30
0
0
LINE
5
103
100
AcDbEntity
8
0
100
AcDbLine
10
9.000000000000048
20
-15.49999999999994
30
0
11
8.9999999999999947
21
4.2880987139400251
31
-3.5595682167235072e-32
0
CIRCLE
5
104
100
AcDbEntity
8
0
100
AcDbCircle
10
-20.299999999999955
20
70.500000000000028
30
0
40
1.7500000000000004
210
0
220
0
230
1
0
CIRCLE
5
105
100
AcDbEntity
8
0
100
AcDbCircle
10
-20.299999999999958
20
39.500000000000007
30
0
40
1.7500000000000004
210
0
220
0
230
1
0
CIRCLE
5
106
100
AcDbEntity
8
0
100
AcDbCircle
10
-4.7999999999999723
20
55.000000000000057
30
0
40
2.75
210
0
220
0
230
1
0
CIRCLE
5
107
100
AcDbEntity
8
0
100
AcDbCircle
10
-19
20
-1.2500000000000369
30
0
40
1.499999999999988
210
0
220
-0
230
1
0
LINE
5
108
100
AcDbEntity
8
0
100
AcDbLine
10
12.976152028763433
20
47.500000000000085
30
0
11
12.97615202876343
21
124.50000000000006
31
0
0
LWPOLYLINE
5
109
100
AcDbEntity
8
0
100
AcDbPolyline
90
2
70
1
43
0.0
10
9.0000000000000284
20
70.084668806854168
42
8.3066238629191442
10
9.0000000000000266
20
70.915331193145875
0
CIRCLE
5
110
100
AcDbEntity
8
0
100
AcDbCircle
10
-1.5000000000000013
20
17.650000000000002
30
0
40
1.4999999999999871
210
0
220
-0
230
1
0
LINE
5
111
100
AcDbEntity
8
0
100
AcDbLine
10
8.9999999999999947
20
10.811901286060078
30
0
11
9.0000000000000284
21
39.084668806854154
31
1.8404132776901597e-44
0
LINE
5
112
100
AcDbEntity
8
0
100
AcDbLine
10
9.0000000000000284
20
39.084668806854154
30
1.8404132776901597e-44
11
9.0000000000000551
21
39.91533119314586
31
0
0
LINE
5
113
100
AcDbEntity
8
0
100
AcDbLine
10
9.0000000000000551
20
39.91533119314586
30
0
11
9.0000000000000551
21
43.000000000000078
31
1.1495443920818316e-44
0
LINE
5
114
100
AcDbEntity
8
0
100
AcDbLine
10
9.0000000000000551
20
43.000000000000078
30
1.1495443920818316e-44
11
9.0000000000000533
21
44.500000000000085
31
-1.4181902651126218e-30
0
LINE
5
115
100
AcDbEntity
8
0
100
AcDbLine
10
1.4999999999999902
20
124.50000000000006
30
-1.9721522630525295e-30
11
1.4999999999999911
21
119.50000000000003
31
-2.2872119179795476e-31
0
LINE
5
116
100
AcDbEntity
8
0
100
AcDbLine
10
9.0000000000000533
20
44.500000000000085
30
-1.4181902651126218e-30
11
9.0000000000000107
21
47.500000000000085
31
-3.8458507469823359e-31
0
LINE
5
117
100
AcDbEntity
8
0
100
AcDbLine
10
9.0000000000000107
20
47.500000000000085
30
-3.8458507469823359e-31
11
12.976152028763433
21
47.500000000000085
31
0
0
LINE
5
118
100
AcDbEntity
8
0
100
AcDbLine
10
1.4999999999999911
20
119.50000000000003
30
-2.2872119179795476e-31
11
-30.799999999999969
21
78.000000000000014
31
0
0
ARC
5
119
100
AcDbEntity
8
0
100
AcDbCircle
10
9.4999999999999503
20
7.5500000000000522
30
1.3684555315672042e-47
40
3.3000000000000003
210
7.2987798365463018e-33
220
1.1187922620064499e-33
230
1
100
AcDbArc
50
98.714742018617329
51
261.2852579813827
0
ENDSEC
0
SECTION
2
OBJECTS
0
DICTIONARY
5
C
100
AcDbDictionary
3
ACAD_GROUP
350
D
3
ACAD_MLINESTYLE
350
17
0
DICTIONARY
5
D
100
AcDbDictionary
0
DICTIONARY
5
1A
330
C
100
AcDbDictionary
0
DICTIONARY
5
17
100
AcDbDictionary
0
ENDSEC
0
EOF
