22900 0 2 2           
30 Autodesk Translation Framework 21 ASM 229.4.0.65535 OSX 24 Thu Aug 31 11:33:58 2023 
1 9.999999999999999547e-07 1.000000000000000036e-10 
asmheader $-1 -1 @13 229.4.0.65535 #
body $2 -1 $-1 $3 $-1 $4 #
rgb_color-st-attrib $-1 -1 $5 $-1 $1 0.627450980392156854 0.627450980392156854 0.627450980392156854 1 #
lump $-1 -1 $-1 $-1 $6 $1 #
transform $-1 -1 1 0 0 0 1 0 0 0 1 0 0 0 1 no_rotate no_reflect no_shear #
ATTRIB_CUSTOM-attrib $-1 -1 $-1 $2 $1 @20 Timestamp_attrib_def 1 1692913104102995 #
shell $-1 -1 $-1 $-1 $-1 $7 $-1 $3 #
face $8 -1 $-1 $9 $10 $6 $-1 $11 forward single #
DXID-attrib $-1 -1 $-1 $-1 $7 @10 ASM ENTITY @1 0 #
face $12 -1 $-1 $13 $14 $6 $-1 $15 forward single #
loop $-1 -1 $-1 $16 $17 $7 #
cone-surface $-1 -1 $-1 85.49999999999997158 2 85.49999999999997158 0 1 0 9.184850993605147944e-16 0 -15 1 I I 0 -1 15 forward I I I I #
DXID-attrib $-1 -1 $-1 $-1 $9 @10 ASM ENTITY @1 1 #
face $18 -1 $-1 $19 $20 $6 $-1 $21 forward single #
loop $-1 -1 $-1 $22 $23 $9 #
plane-surface $-1 -1 $-1 3.552713678800500929e-14 2 1.77635683940025078e-14 0 1 0 10 0 6.123233995736766282e-16 forward_v I I I I #
loop $-1 -1 $-1 $-1 $24 $7 #
coedge $-1 -1 $-1 $17 $17 $25 $26 forward $10 0 $-1 #
DXID-attrib $-1 -1 $-1 $-1 $13 @10 ASM ENTITY @1 2 #
face $27 -1 $-1 $28 $29 $6 $-1 $30 reversed single #
loop $-1 -1 $-1 $31 $32 $13 #
plane-surface $-1 -1 $-1 -1.776356839400250465e-14 15 3.552713678800500929e-14 0 1 0 10 0 0 forward_v I I I I #
loop $-1 -1 $-1 $-1 $33 $9 #
coedge $-1 -1 $-1 $23 $23 $34 $35 forward $14 0 $-1 #
coedge $36 -1 $-1 $24 $24 $33 $37 reversed $16 0 $-1 #
coedge $-1 -1 $-1 $25 $25 $17 $26 reversed $38 0 $-1 #
edge $-1 -1 $-1 $39 -3.141592653589793116 $39 3.141592653589793116 $17 $40 forward @7 unknown #
DXID-attrib $-1 -1 $-1 $-1 $19 @10 ASM ENTITY @1 3 #
face $41 -1 $-1 $42 $43 $6 $-1 $44 reversed single #
loop $-1 -1 $-1 $45 $46 $19 #
cone-surface $-1 -1 $-1 85.49999999999995737 0.5879775452852320505 85.49999999999998579 0 -1 0 0 0 2.350000000000000089 1 I I -0.8571673007021123336 0.5150380749100540445 2.350000000000000089 forward I I I I #
loop $-1 -1 $-1 $47 $48 $13 #
coedge $-1 -1 $-1 $49 $50 $51 $52 forward $20 0 $-1 #
coedge $-1 -1 $-1 $33 $33 $24 $37 forward $22 0 $-1 #
coedge $-1 -1 $-1 $34 $34 $23 $35 reversed $45 0 $-1 #
edge $-1 -1 $-1 $53 0 $53 6.283185307179586232 $23 $54 forward @7 unknown #
ATTRIB_CUSTOM-attrib $-1 -1 $-1 $-1 $24 @17 sketch_attrib_def 1 1 3 @22 119 0 4294967295 0 1 1 #
edge $-1 -1 $-1 $55 -3.141592653589793116 $55 3.141592653589793116 $24 $56 forward @7 unknown #
loop $-1 -1 $-1 $-1 $25 $13 #
vertex $-1 -1 $-1 $26 0 $57 #
ellipse-curve $-1 -1 $-1 85.49999999999997158 15 85.49999999999997158 0 1 0 9.184850993605147944e-16 0 -15 1 I I #
DXID-attrib $-1 -1 $-1 $-1 $28 @10 ASM ENTITY @1 4 #
face $58 -1 $-1 $59 $60 $6 $-1 $61 reversed single #
loop $-1 -1 $-1 $62 $63 $28 #
cone-surface $-1 -1 $-1 -85.49999999999995737 0.5879775452852320505 -85.49999999999998579 0 -1 0 0 0 2.350000000000000089 1 I I -0.8571673007021123336 0.5150380749100540445 2.350000000000000089 forward I I I I #
loop $-1 -1 $-1 $-1 $34 $19 #
coedge $-1 -1 $-1 $46 $46 $64 $65 reversed $29 0 $-1 #
loop $-1 -1 $-1 $66 $67 $13 #
coedge $-1 -1 $-1 $48 $48 $68 $69 forward $31 0 $-1 #
coedge $-1 -1 $-1 $70 $32 $71 $72 forward $20 0 $-1 #
coedge $-1 -1 $-1 $32 $73 $74 $75 forward $20 0 $-1 #
coedge $-1 -1 $-1 $76 $77 $32 $52 reversed $78 0 $-1 #
edge $-1 -1 $-1 $79 0 $80 22 $51 $81 forward @7 unknown #
vertex $-1 -1 $-1 $35 0 $82 #
ellipse-curve $-1 -1 $-1 85.49999999999995737 1.999999999999999556 85.49999999999998579 0 -1 0 0 0 4.700000000000000178 1 I I #
vertex $-1 -1 $-1 $37 0 $83 #
ellipse-curve $-1 -1 $-1 85.49999999999997158 2 85.49999999999997158 0 1 0 9.184850993605147944e-16 0 -15 1 I I #
point $-1 -1 $-1 85.49999999999997158 15 100.4999999999999716 #
DXID-attrib $-1 -1 $-1 $-1 $42 @10 ASM ENTITY @1 5 #
face $84 -1 $-1 $85 $86 $6 $-1 $87 reversed single #
loop $-1 -1 $-1 $88 $89 $42 #
cone-surface $-1 -1 $-1 -85.49999999999995737 8.5 -85.49999999999998579 0 -1 0 0 0 4.700000000000000178 1 I I 0 1 4.700000000000000178 forward I I I I #
loop $-1 -1 $-1 $-1 $90 $28 #
coedge $-1 -1 $-1 $63 $63 $91 $92 reversed $43 0 $-1 #
coedge $-1 -1 $-1 $64 $64 $46 $65 forward $93 0 $-1 #
edge $-1 -1 $-1 $94 -3.141592653589793116 $94 3.141592653589793116 $64 $95 forward @7 unknown #
loop $-1 -1 $-1 $38 $96 $13 #
coedge $-1 -1 $-1 $67 $67 $97 $98 forward $47 0 $-1 #
coedge $-1 -1 $-1 $68 $68 $48 $69 reversed $99 0 $-1 #
edge $-1 -1 $-1 $100 -3.141592653589793116 $100 3.141592653589793116 $68 $101 forward @7 unknown #
coedge $-1 -1 $-1 $102 $49 $103 $104 forward $20 0 $-1 #
coedge $-1 -1 $-1 $105 $106 $49 $72 reversed $107 0 $-1 #
edge $-1 -1 $-1 $80 0 $108 21.99999999999999289 $71 $109 forward @7 unknown #
coedge $-1 -1 $-1 $50 $110 $111 $112 forward $20 0 $-1 #
coedge $-1 -1 $-1 $113 $114 $50 $75 reversed $115 0 $-1 #
edge $-1 -1 $-1 $116 13 $79 22 $74 $117 forward @7 unknown #
coedge $-1 -1 $-1 $118 $51 $114 $119 reversed $78 0 $-1 #
coedge $-1 -1 $-1 $51 $118 $105 $120 forward $78 0 $-1 #
loop $-1 -1 $-1 $-1 $118 $121 #
vertex $-1 -1 $-1 $119 1 $122 #
vertex $-1 -1 $-1 $120 1 $123 #
straight-curve $-1 -1 $-1 110 15 110.0000000000000142 -8.074349270001139193e-16 0 -10 I I #
point $-1 -1 $-1 85.49999999999995737 1.999999999999999556 90.19999999999998863 #
point $-1 -1 $-1 85.49999999999997158 2 100.4999999999999716 #
DXID-attrib $-1 -1 $-1 $-1 $59 @10 ASM ENTITY @1 6 #
face $124 -1 $-1 $125 $126 $6 $-1 $127 reversed single #
loop $-1 -1 $-1 $128 $129 $59 #
cone-surface $-1 -1 $-1 -85.49999999999997158 0.5879775452852320505 85.49999999999997158 0 -1 0 0 0 2.350000000000000089 1 I I -0.8571673007021123336 0.5150380749100540445 2.350000000000000089 forward I I I I #
loop $-1 -1 $-1 $-1 $130 $42 #
coedge $-1 -1 $-1 $89 $89 $96 $131 reversed $60 0 $-1 #
coedge $-1 -1 $-1 $90 $90 $130 $132 reversed $62 0 $-1 #
coedge $-1 -1 $-1 $91 $91 $63 $92 forward $133 0 $-1 #
edge $-1 -1 $-1 $134 -3.141592653589793116 $134 3.141592653589793116 $91 $135 forward @7 unknown #
loop $-1 -1 $-1 $136 $64 $137 #
vertex $-1 -1 $-1 $65 0 $138 #
ellipse-curve $-1 -1 $-1 85.49999999999995737 0.5278914833824754904 85.49999999999998579 0 1 0 0 0 2.25 1 I I #
coedge $-1 -1 $-1 $96 $96 $89 $131 forward $66 0 $-1 #
coedge $-1 -1 $-1 $97 $97 $67 $98 reversed $139 0 $-1 #
edge $-1 -1 $-1 $140 0 $140 6.283185307179586232 $67 $141 forward @7 unknown #
loop $-1 -1 $-1 $142 $68 $143 #
vertex $-1 -1 $-1 $69 0 $144 #
ellipse-curve $-1 -1 $-1 -85.49999999999997158 15 85.49999999999997158 0 -1 0 15 0 0 1 I I #
coedge $-1 -1 $-1 $145 $70 $146 $147 forward $20 0 $-1 #
coedge $-1 -1 $-1 $148 $149 $70 $104 reversed $150 0 $-1 #
edge $-1 -1 $-1 $108 0 $151 22 $103 $152 forward @7 unknown #
coedge $-1 -1 $-1 $153 $71 $77 $120 reversed $107 0 $-1 #
coedge $-1 -1 $-1 $71 $153 $148 $154 forward $107 0 $-1 #
loop $-1 -1 $-1 $-1 $153 $155 #
vertex $-1 -1 $-1 $154 1 $156 #
straight-curve $-1 -1 $-1 109.9999999999999858 15 -109.9999999999999858 -10 0 0 I I #
coedge $-1 -1 $-1 $73 $145 $157 $158 forward $20 0 $-1 #
coedge $-1 -1 $-1 $159 $160 $73 $112 reversed $161 0 $-1 #
edge $-1 -1 $-1 $162 -2.996094703208942889 $116 -0 $111 $163 forward @7 unknown #
coedge $-1 -1 $-1 $164 $74 $160 $165 reversed $115 0 $-1 #
coedge $-1 -1 $-1 $74 $166 $76 $119 forward $115 0 $-1 #
loop $-1 -1 $-1 $-1 $166 $167 #
vertex $-1 -1 $-1 $165 1 $168 #
straight-curve $-1 -1 $-1 -110.0000000000000142 15 110.0000000000000284 10 0 -8.074349270001139193e-16 I I #
coedge $169 -1 $-1 $77 $76 $170 $171 forward $78 0 $-1 #
edge $-1 -1 $-1 $172 0 $79 1.5 $76 $173 forward @7 unknown #
edge $-1 -1 $-1 $174 0 $80 1.5 $77 $175 forward @7 unknown #
face $176 -1 $-1 $177 $78 $6 $-1 $178 forward single #
point $-1 -1 $-1 110 15 110.0000000000000142 #
point $-1 -1 $-1 110 15 -110 #
DXID-attrib $-1 -1 $-1 $-1 $85 @10 ASM ENTITY @1 7 #
face $179 -1 $-1 $180 $139 $6 $-1 $181 reversed single #
loop $-1 -1 $-1 $182 $183 $85 #
cone-surface $-1 -1 $-1 85.49999999999998579 0.5879775452852320505 -85.49999999999995737 0 -1 0 0 0 2.350000000000000089 1 I I -0.8571673007021123336 0.5150380749100540445 2.350000000000000089 forward I I I I #
loop $-1 -1 $-1 $-1 $184 $59 #
coedge $-1 -1 $-1 $129 $129 $185 $186 reversed $86 0 $-1 #
coedge $-1 -1 $-1 $130 $130 $90 $132 forward $88 0 $-1 #
edge $-1 -1 $-1 $187 0 $187 6.283185307179586232 $96 $188 forward @7 unknown #
edge $-1 -1 $-1 $189 0 $189 6.283185307179586232 $130 $190 forward @7 unknown #
loop $-1 -1 $-1 $191 $91 $192 #
vertex $-1 -1 $-1 $92 0 $193 #
ellipse-curve $-1 -1 $-1 -85.49999999999995737 0.5278914833824754904 -85.49999999999998579 0 1 0 0 0 2.25 1 I I #
loop $-1 -1 $-1 $-1 $194 $137 #
face $195 -1 $-1 $143 $93 $6 $-1 $196 reversed single #
point $-1 -1 $-1 85.49999999999995737 0.5278914833824754904 83.25 #
loop $-1 -1 $-1 $197 $97 $125 #
vertex $-1 -1 $-1 $98 0 $198 #
ellipse-curve $-1 -1 $-1 85.49999999999998579 15 -85.49999999999995737 -0 -1 -0 0 0 4.700000000000000178 1 I I #
loop $-1 -1 $-1 $-1 $199 $143 #
face $200 -1 $-1 $201 $99 $6 $-1 $202 forward single #
point $-1 -1 $-1 -100.4999999999999716 15 85.49999999999997158 #
coedge $-1 -1 $-1 $110 $102 $203 $204 forward $20 0 $-1 #
coedge $-1 -1 $-1 $205 $206 $102 $147 reversed $115 0 $-1 #
edge $-1 -1 $-1 $151 0 $207 9 $146 $208 forward @7 unknown #
coedge $-1 -1 $-1 $209 $103 $106 $154 reversed $150 0 $-1 #
coedge $-1 -1 $-1 $103 $209 $205 $210 forward $150 0 $-1 #
loop $-1 -1 $-1 $-1 $209 $211 #
vertex $-1 -1 $-1 $210 1 $212 #
straight-curve $-1 -1 $-1 -109.9999999999999716 15 -109.9999999999999858 -2.422304781000341363e-15 0 10 I I #
coedge $213 -1 $-1 $106 $105 $214 $215 forward $107 0 $-1 #
edge $-1 -1 $-1 $216 0 $108 1.5 $106 $217 forward @7 unknown #
face $218 -1 $-1 $121 $107 $6 $-1 $219 forward single #
point $-1 -1 $-1 -109.9999999999999716 15 -110 #
coedge $-1 -1 $-1 $220 $221 $110 $158 reversed $222 0 $-1 #
edge $-1 -1 $-1 $223 -4.467525126179068273 $162 1.325932472589275379 $157 $224 forward @7 unknown #
coedge $-1 -1 $-1 $225 $111 $221 $226 reversed $161 0 $-1 #
coedge $-1 -1 $-1 $111 $225 $113 $165 forward $161 0 $-1 #
loop $-1 -1 $-1 $-1 $225 $201 #
vertex $-1 -1 $-1 $226 1 $227 #
straight-curve $-1 -1 $-1 19.99999999999998224 15 110.0000000000000284 -1.482226878123793928e-15 0 10 I I #
coedge $-1 -1 $-1 $206 $113 $228 $229 reversed $115 0 $-1 #
edge $-1 -1 $-1 $230 0 $116 1.300000000000000044 $160 $231 forward @7 unknown #
coedge $232 -1 $-1 $114 $205 $233 $234 forward $115 0 $-1 #
face $235 -1 $-1 $211 $115 $6 $-1 $236 forward single #
point $-1 -1 $-1 19.99999999999998224 15 110.0000000000000284 #
ATTRIB_CUSTOM-attrib $-1 -1 $-1 $-1 $118 @17 sketch_attrib_def 1 1 3 @13 108 0 0 0 1 1 #
coedge $237 -1 $-1 $233 $214 $118 $171 reversed $238 0 $-1 #
edge $-1 -1 $-1 $172 0 $174 22 $118 $239 forward @7 unknown #
vertex $-1 -1 $-1 $171 0 $240 #
straight-curve $-1 -1 $-1 110 0 110.0000000000000142 0 10 0 I I #
vertex $-1 -1 $-1 $171 1 $241 #
straight-curve $-1 -1 $-1 109.9999999999999858 0 -109.9999999999999858 0 10 0 I I #
DXID-attrib $-1 -1 $-1 $-1 $121 @10 ASM ENTITY @2 21 #
face $242 -1 $-1 $243 $244 $6 $-1 $245 forward single #
plane-surface $-1 -1 $-1 110 0 110.0000000000000142 1 0 -8.0743492700011387e-17 -8.074349270001139193e-16 0 -10 forward_v I I I I #
DXID-attrib $-1 -1 $-1 $-1 $125 @10 ASM ENTITY @1 8 #
face $246 -1 $-1 $192 $247 $6 $-1 $248 reversed single #
cone-surface $-1 -1 $-1 85.49999999999998579 8.5 -85.49999999999995737 0 -1 0 0 0 4.700000000000000178 1 I I 0 1 4.700000000000000178 forward I I I I #
loop $-1 -1 $-1 $-1 $249 $85 #
coedge $-1 -1 $-1 $183 $183 $250 $251 reversed $126 0 $-1 #
coedge $-1 -1 $-1 $184 $184 $252 $253 reversed $128 0 $-1 #
coedge $-1 -1 $-1 $185 $185 $129 $186 forward $247 0 $-1 #
edge $-1 -1 $-1 $254 -3.141592653589793116 $254 3.141592653589793116 $185 $255 forward @7 unknown #
vertex $-1 -1 $-1 $131 0 $256 #
ellipse-curve $-1 -1 $-1 -85.49999999999995737 15 -85.49999999999998579 -0 -1 -0 0 0 4.700000000000000178 1 I I #
vertex $-1 -1 $-1 $132 0 $257 #
ellipse-curve $-1 -1 $-1 -85.49999999999995737 1.999999999999999556 -85.49999999999998579 0 -1 0 0 0 4.700000000000000178 1 I I #
loop $-1 -1 $-1 $-1 $258 $192 #
face $259 -1 $-1 $260 $133 $6 $-1 $261 reversed single #
point $-1 -1 $-1 -85.49999999999995737 0.5278914833824754904 -87.74999999999998579 #
coedge $-1 -1 $-1 $194 $194 $262 $263 reversed $136 0 $-1 #
DXID-attrib $-1 -1 $-1 $-1 $137 @10 ASM ENTITY @2 12 #
cone-surface $-1 -1 $-1 85.49999999999995737 6.749999999999999112 85.49999999999998579 0 -1 0 0 0 2.25 1 I I 0 1 2.25 forward I I I I #
loop $-1 -1 $-1 $-1 $264 $125 #
point $-1 -1 $-1 85.49999999999998579 15 -80.79999999999995453 #
coedge $265 -1 $-1 $199 $199 $266 $267 reversed $142 0 $-1 #
DXID-attrib $-1 -1 $268 $-1 $143 @10 ASM ENTITY @2 13 #
face $269 -1 $-1 $270 $161 $6 $-1 $271 forward single #
cone-surface $-1 -1 $-1 -85.49999999999997158 2 85.49999999999997158 0 1 0 15 0 0 1 I I 0 -1 15 forward I I I I #
coedge $-1 -1 $-1 $272 $273 $145 $204 reversed $274 0 $-1 #
edge $-1 -1 $-1 $207 0 $223 2.996094703208942889 $203 $275 forward @7 unknown #
coedge $-1 -1 $-1 $166 $146 $149 $210 reversed $115 0 $-1 #
coedge $-1 -1 $-1 $146 $164 $272 $276 forward $115 0 $-1 #
vertex $-1 -1 $-1 $276 1 $277 #
straight-curve $-1 -1 $-1 -110.0000000000000142 15 110.0000000000000284 10 0 -8.074349270001139193e-16 I I #
coedge $278 -1 $-1 $149 $148 $279 $280 forward $150 0 $-1 #
edge $-1 -1 $-1 $281 0 $151 1.5 $149 $282 forward @7 unknown #
face $283 -1 $-1 $155 $150 $6 $-1 $284 forward single #
point $-1 -1 $-1 -110.0000000000000142 15 110.0000000000000284 #
ATTRIB_CUSTOM-attrib $-1 -1 $-1 $-1 $153 @17 sketch_attrib_def 1 1 3 @13 105 0 0 0 1 1 #
coedge $285 -1 $-1 $170 $279 $153 $215 reversed $238 0 $-1 #
edge $-1 -1 $-1 $174 0 $216 21.99999999999999289 $153 $286 forward @7 unknown #
vertex $-1 -1 $-1 $215 1 $287 #
straight-curve $-1 -1 $-1 -109.9999999999999716 0 -109.9999999999999858 0 10 0 I I #
DXID-attrib $-1 -1 $-1 $-1 $155 @10 ASM ENTITY @2 20 #
plane-surface $-1 -1 $-1 109.9999999999999858 0 -109.9999999999999858 0 0 -1 -10 0 0 forward_v I I I I #
coedge $-1 -1 $-1 $288 $157 $273 $289 reversed $222 0 $-1 #
coedge $-1 -1 $-1 $157 $288 $159 $226 forward $222 0 $-1 #
loop $-1 -1 $-1 $-1 $288 $270 #
vertex $-1 -1 $-1 $289 1 $290 #
ellipse-curve $-1 -1 $-1 0 15 0 -0 -1 -0 82.5 0 0 1 I I #
coedge $291 -1 $-1 $160 $159 $292 $293 reversed $161 0 $-1 #
edge $-1 -1 $-1 $294 0 $162 1.300000000000000044 $221 $295 forward @7 unknown #
point $-1 -1 $-1 19.99999999999998224 15 80.03905296791060664 #
coedge $-1 -1 $-1 $292 $296 $164 $229 forward $244 0 $-1 #
edge $-1 -1 $-1 $297 9 $230 13 $164 $298 forward @7 unknown #
vertex $-1 -1 $-1 $229 1 $299 #
straight-curve $-1 -1 $-1 19.99999999999998224 2 110.0000000000000284 0 10 0 I I #
ATTRIB_CUSTOM-attrib $-1 -1 $-1 $-1 $166 @17 sketch_attrib_def 1 1 3 @13 107 0 0 0 1 1 #
coedge $300 -1 $-1 $279 $170 $166 $234 reversed $238 0 $-1 #
edge $-1 -1 $-1 $281 0 $172 22 $166 $301 forward @7 unknown #
DXID-attrib $-1 -1 $-1 $-1 $167 @10 ASM ENTITY @2 18 #
plane-surface $-1 -1 $-1 -110.0000000000000142 0 110.0000000000000284 8.0743492700011387e-17 0 1 10 0 -8.074349270001139193e-16 forward_v I I I I #
ATTRIB_CUSTOM-attrib $-1 -1 $-1 $-1 $170 @17 sketch_attrib_def 1 1 3 @13 108 0 0 0 1 1 #
loop $-1 -1 $-1 $-1 $170 $243 #
straight-curve $-1 -1 $-1 110 0 110.0000000000000142 -8.074349270001139193e-16 0 -10 F 0 F 22 #
point $-1 -1 $-1 110 0 110.0000000000000142 #
point $-1 -1 $-1 109.9999999999999858 0 -109.9999999999999858 #
DXID-attrib $-1 -1 $-1 $-1 $177 @10 ASM ENTITY @2 22 #
face $302 -1 $-1 $-1 $303 $6 $-1 $304 reversed single #
loop $-1 -1 $-1 $-1 $296 $177 #
plane-surface $-1 -1 $-1 -1.776356839400250465e-14 2 3.552713678800500929e-14 0 1 0 0 0 10 forward_v I I I I #
DXID-attrib $-1 -1 $-1 $-1 $180 @10 ASM ENTITY @1 9 #
loop $-1 -1 $-1 $305 $185 $180 #
cone-surface $-1 -1 $-1 -85.49999999999997158 6.749999999999999112 85.49999999999997158 0 -1 0 0 0 2.25 1 I I 0 1 2.25 forward I I I I #
coedge $-1 -1 $-1 $249 $249 $264 $306 reversed $182 0 $-1 #
coedge $-1 -1 $-1 $250 $250 $183 $251 forward $307 0 $-1 #
edge $-1 -1 $-1 $308 -3.141592653589793116 $308 3.141592653589793116 $250 $309 forward @7 unknown #
coedge $-1 -1 $-1 $252 $252 $184 $253 forward $310 0 $-1 #
edge $-1 -1 $-1 $311 0 $311 6.283185307179586232 $252 $312 forward @7 unknown #
vertex $-1 -1 $-1 $186 0 $313 #
ellipse-curve $-1 -1 $-1 -85.49999999999997158 0.5278914833824754904 85.49999999999997158 0 1 0 0 0 2.25 1 I I #
point $-1 -1 $-1 -85.49999999999995737 15 -80.79999999999998295 #
point $-1 -1 $-1 -85.49999999999995737 1.999999999999999556 -80.79999999999998295 #
coedge $-1 -1 $-1 $258 $258 $314 $315 reversed $191 0 $-1 #
DXID-attrib $-1 -1 $-1 $-1 $192 @10 ASM ENTITY @2 10 #
face $316 -1 $-1 $137 $307 $6 $-1 $317 reversed single #
cone-surface $-1 -1 $-1 -85.49999999999995737 6.749999999999999112 -85.49999999999998579 0 -1 0 0 0 2.25 1 I I 0 1 2.25 forward I I I I #
coedge $-1 -1 $-1 $262 $262 $194 $263 forward $318 0 $-1 #
edge $-1 -1 $-1 $319 -3.141592653589793116 $319 3.141592653589793116 $262 $320 forward @7 unknown #
coedge $-1 -1 $-1 $264 $264 $249 $306 forward $197 0 $-1 #
ATTRIB_CUSTOM-attrib $-1 -1 $-1 $-1 $199 @17 sketch_attrib_def 1 1 3 @22 119 0 4294967295 0 1 1 #
coedge $-1 -1 $-1 $266 $266 $199 $267 forward $321 0 $-1 #
edge $-1 -1 $-1 $322 -3.141592653589793116 $322 3.141592653589793116 $266 $323 forward @7 unknown #
ATTRIB_CUSTOM-attrib $-1 -1 $-1 $200 $143 @22 FPM_tracked_attrib_def 1 810 #
DXID-attrib $-1 -1 $-1 $-1 $201 @10 ASM ENTITY @2 14 #
face $324 -1 $-1 $325 $222 $6 $-1 $326 forward single #
plane-surface $-1 -1 $-1 19.99999999999998579 2 80.03905296791060664 -1 0 -1.482226878123793829e-16 -1.482226878123793928e-15 0 10 forward_v I I I I #
coedge $-1 -1 $-1 $327 $203 $206 $276 reversed $274 0 $-1 #
coedge $-1 -1 $-1 $203 $327 $220 $289 forward $274 0 $-1 #
loop $-1 -1 $-1 $-1 $327 $325 #
straight-curve $-1 -1 $-1 -20.00000000000001776 15 110.0000000000000284 1.482226878123793928e-15 0 -10 I I #
edge $-1 -1 $-1 $297 0 $207 1.300000000000000044 $206 $328 forward @7 unknown #
point $-1 -1 $-1 -20.00000000000001776 15 110.0000000000000284 #
ATTRIB_CUSTOM-attrib $-1 -1 $-1 $-1 $209 @17 sketch_attrib_def 1 1 3 @13 106 0 0 0 1 1 #
coedge $329 -1 $-1 $214 $233 $209 $280 reversed $238 0 $-1 #
edge $-1 -1 $-1 $216 0 $281 22 $209 $330 forward @7 unknown #
vertex $-1 -1 $-1 $280 1 $331 #
straight-curve $-1 -1 $-1 -110.0000000000000142 0 110.0000000000000284 0 10 0 I I #
DXID-attrib $-1 -1 $-1 $-1 $211 @10 ASM ENTITY @2 19 #
plane-surface $-1 -1 $-1 -109.9999999999999716 0 -109.9999999999999858 -1 0 -2.422304781000341363e-16 -2.422304781000341363e-15 0 10 forward_v I I I I #
ATTRIB_CUSTOM-attrib $-1 -1 $-1 $-1 $214 @17 sketch_attrib_def 1 1 3 @13 105 0 0 0 1 1 #
straight-curve $-1 -1 $-1 109.9999999999999858 0 -109.9999999999999858 -10 0 0 F 0 F 21.99999999999999289 #
point $-1 -1 $-1 -109.9999999999999716 0 -109.9999999999999858 #
coedge $332 -1 $-1 $221 $220 $333 $334 reversed $222 0 $-1 #
edge $-1 -1 $-1 $335 0 $223 1.300000000000000044 $273 $336 forward @7 unknown #
point $-1 -1 $-1 -20.00000000000001776 15 80.03905296791060664 #
ATTRIB_CUSTOM-attrib $-1 -1 $-1 $-1 $225 @17 sketch_attrib_def 1 1 3 @13 175 0 1 0 1 1 #
coedge $-1 -1 $-1 $333 $228 $225 $293 forward $244 0 $-1 #
edge $-1 -1 $-1 $230 -6.998047351604471444 $294 -4.001952648395528556 $292 $337 forward @7 unknown #
vertex $-1 -1 $-1 $293 1 $338 #
straight-curve $-1 -1 $-1 19.99999999999998579 2 80.03905296791060664 0 10 0 I I #
coedge $-1 -1 $-1 $228 $333 $327 $339 forward $244 0 $-1 #
vertex $-1 -1 $-1 $229 0 $340 #
straight-curve $-1 -1 $-1 -110.0000000000000142 2 110.0000000000000284 10 0 -8.074349270001139193e-16 I I #
point $-1 -1 $-1 19.99999999999998224 2 110.0000000000000284 #
ATTRIB_CUSTOM-attrib $-1 -1 $-1 $-1 $233 @17 sketch_attrib_def 1 1 3 @13 107 0 0 0 1 1 #
straight-curve $-1 -1 $-1 -110.0000000000000142 0 110.0000000000000284 10 0 -8.074349270001139193e-16 F 0 F 22 #
DXID-attrib $-1 -1 $-1 $-1 $243 @10 ASM ENTITY @2 23 #
loop $-1 -1 $-1 $341 $342 $243 #
plane-surface $-1 -1 $-1 -1.776356839400250465e-14 0 3.552713678800500929e-14 0 1 0 10 0 0 forward_v I I I I #
loop $-1 -1 $-1 $-1 $343 $180 #
edge $-1 -1 $-1 $344 0 $344 6.283185307179586232 $264 $345 forward @7 unknown #
loop $-1 -1 $-1 $346 $250 $260 #
vertex $-1 -1 $-1 $251 0 $347 #
ellipse-curve $-1 -1 $-1 85.49999999999998579 0.5278914833824754904 -85.49999999999995737 0 1 0 0 0 2.25 1 I I #
loop $-1 -1 $-1 $321 $252 $348 #
vertex $-1 -1 $-1 $253 0 $349 #
ellipse-curve $-1 -1 $-1 -85.49999999999997158 2 85.49999999999997158 -0 -1 -0 0 0 4.70000000000000373 1 I I #
point $-1 -1 $-1 -85.49999999999997158 0.5278914833824754904 83.24999999999997158 #
coedge $-1 -1 $-1 $314 $314 $258 $315 forward $341 0 $-1 #
edge $-1 -1 $-1 $350 -3.141592653589793116 $350 3.141592653589793116 $314 $351 forward @7 unknown #
DXID-attrib $-1 -1 $-1 $-1 $260 @10 ASM ENTITY @2 11 #
cone-surface $-1 -1 $-1 85.49999999999998579 6.749999999999999112 -85.49999999999995737 0 -1 0 0 0 2.25 1 I I 0 1 2.25 forward I I I I #
loop $-1 -1 $-1 $238 $262 $243 #
vertex $-1 -1 $-1 $263 0 $352 #
ellipse-curve $-1 -1 $-1 85.49999999999995737 0 85.49999999999998579 0 1 0 0 0 2.25 1 I I #
loop $-1 -1 $-1 $-1 $266 $348 #
vertex $-1 -1 $-1 $267 0 $353 #
ellipse-curve $-1 -1 $-1 -85.49999999999997158 2 85.49999999999997158 0 1 0 15 0 0 1 I I #
DXID-attrib $-1 -1 $-1 $-1 $270 @10 ASM ENTITY @2 15 #
face $354 -1 $-1 $348 $274 $6 $-1 $355 forward single #
cone-surface $-1 -1 $-1 0 2 0 0 1 0 82.5 0 0 1 I I 0 -1 82.5 forward I I I I #
coedge $356 -1 $-1 $273 $272 $296 $339 reversed $274 0 $-1 #
straight-curve $-1 -1 $-1 -20.00000000000001776 2 110.0000000000000284 0 10 0 I I #
ATTRIB_CUSTOM-attrib $-1 -1 $-1 $-1 $279 @17 sketch_attrib_def 1 1 3 @13 106 0 0 0 1 1 #
straight-curve $-1 -1 $-1 -109.9999999999999716 0 -109.9999999999999858 -2.422304781000341363e-15 0 10 F 0 F 22 #
point $-1 -1 $-1 -110.0000000000000142 0 110.0000000000000284 #
ATTRIB_CUSTOM-attrib $-1 -1 $-1 $-1 $288 @17 sketch_attrib_def 1 1 3 @13 117 0 1 0 1 2 #
coedge $-1 -1 $-1 $296 $292 $288 $334 forward $244 0 $-1 #
edge $-1 -1 $-1 $294 -1.325932472589275379 $335 4.467525126179068273 $333 $357 forward @7 unknown #
vertex $-1 -1 $-1 $334 1 $358 #
straight-curve $-1 -1 $-1 -20.00000000000001421 2 80.03905296791060664 0 10 0 I I #
straight-curve $-1 -1 $-1 19.99999999999999289 2 40.01952648395531753 1.482226878123793928e-15 0 -10 I I #
point $-1 -1 $-1 19.99999999999998579 2 80.03905296791060664 #
edge $-1 -1 $-1 $335 2.503905296791057111 $297 5.5 $296 $359 forward @7 unknown #
point $-1 -1 $-1 -20.00000000000001776 2 110.0000000000000284 #
loop $-1 -1 $-1 $360 $314 $243 #
coedge $-1 -1 $-1 $342 $342 $343 $361 forward $303 0 $-1 #
coedge $-1 -1 $-1 $343 $343 $342 $361 reversed $305 0 $-1 #
vertex $-1 -1 $-1 $306 0 $362 #
ellipse-curve $-1 -1 $-1 85.49999999999998579 1.999999999999999556 -85.49999999999995737 0 -1 0 0 0 4.700000000000000178 1 I I #
loop $-1 -1 $-1 $-1 $363 $260 #
point $-1 -1 $-1 85.49999999999998579 0.5278914833824754904 -87.74999999999994316 #
face $364 -1 $-1 $167 $310 $6 $-1 $245 forward single #
point $-1 -1 $-1 -85.49999999999997158 1.999999999999999556 90.19999999999997442 #
vertex $-1 -1 $-1 $315 0 $365 #
ellipse-curve $-1 -1 $-1 -85.49999999999995737 0 -85.49999999999998579 0 1 0 0 0 2.25 1 I I #
point $-1 -1 $-1 85.49999999999995737 0 83.25 #
point $-1 -1 $-1 -100.4999999999999716 2 85.49999999999997158 #
DXID-attrib $-1 -1 $-1 $-1 $325 @10 ASM ENTITY @2 16 #
plane-surface $-1 -1 $-1 -20.00000000000001776 2 110.0000000000000284 1 0 1.482226878123793829e-16 1.482226878123793928e-15 0 -10 forward_v I I I I #
ATTRIB_CUSTOM-attrib $-1 -1 $-1 $-1 $327 @17 sketch_attrib_def 1 1 3 @13 172 0 0 0 1 1 #
ellipse-curve $-1 -1 $-1 0 2 0 0 1 0 82.5 0 0 1 I I #
point $-1 -1 $-1 -20.00000000000001421 2 80.03905296791060664 #
straight-curve $-1 -1 $-1 -20.00000000000000711 2 55.00000000000003553 -1.482226878123793928e-15 0 10 I I #
loop $-1 -1 $-1 $318 $366 $243 #
edge $-1 -1 $-1 $367 -3.141592653589793116 $367 3.141592653589793116 $342 $368 forward @7 unknown #
point $-1 -1 $-1 85.49999999999998579 1.999999999999999556 -80.79999999999995453 #
coedge $-1 -1 $-1 $363 $363 $366 $369 reversed $346 0 $-1 #
DXID-attrib $-1 -1 $370 $-1 $348 @10 ASM ENTITY @2 17 #
point $-1 -1 $-1 -85.49999999999995737 0 -87.74999999999998579 #
coedge $-1 -1 $-1 $366 $366 $363 $369 forward $360 0 $-1 #
vertex $-1 -1 $-1 $361 0 $371 #
ellipse-curve $-1 -1 $-1 -85.49999999999997158 0 85.49999999999997158 0 1 0 0 0 2.25 1 I I #
edge $-1 -1 $-1 $372 -3.141592653589793116 $372 3.141592653589793116 $366 $373 forward @7 unknown #
ATTRIB_CUSTOM-attrib $-1 -1 $-1 $364 $348 @22 FPM_tracked_attrib_def 1 806 #
point $-1 -1 $-1 -85.49999999999997158 0 83.24999999999997158 #
vertex $-1 -1 $-1 $369 0 $374 #
ellipse-curve $-1 -1 $-1 85.49999999999998579 0 -85.49999999999995737 0 1 0 0 0 2.25 1 I I #
point $-1 -1 $-1 85.49999999999998579 0 -87.74999999999994316 #
End-of-ASM-data 