700 0 1 0           
30 Autodesk Translation Framework 21 ASM 229.4.0.65535 OSX 24 Thu Aug 31 11:34:12 2023 
25.39999999999999858 9.999999999999999547e-07 1.000000000000000036e-10 
body $1 -1 $-1 $2 $-1 $3 #
rgb_color-st-attrib $-1 -1 $4 $-1 $0 0.9725490196078431238 0.9686274509803921573 0.9294117647058823817 #
lump $-1 -1 $-1 $-1 $5 $0 #
transform $-1 -1 1 0 0 0 1 0 0 0 1 0 0 0 1 no_rotate no_reflect no_shear #
ATTRIB_CUSTOM-attrib $-1 -1 $-1 $1 $0 @20 Timestamp_attrib_def 1 1690311551629332 #
shell $-1 -1 $-1 $-1 $-1 $6 $-1 $2 #
face $7 -1 $-1 $8 $9 $5 $-1 $10 reversed single #
DXID-attrib $-1 -1 $-1 $-1 $6 @10 ASM ENTITY @1 0 #
face $11 -1 $-1 $12 $13 $5 $-1 $14 reversed single #
loop $-1 -1 $-1 $15 $16 $6 #
cone-surface $-1 -1 $-1 4.000000000001636913 0.1606299212598425175 -3.999999999999999112 0 -1 0 0 0 1.999999999999999778 1 I I 0 1 1.999999999999999778 forward I I I I #
DXID-attrib $-1 -1 $-1 $-1 $8 @10 ASM ENTITY @1 1 #
face $17 -1 $-1 $18 $19 $5 $-1 $20 forward single #
loop $-1 -1 $-1 $-1 $21 $8 #
plane-surface $-1 -1 $-1 4.000000000001636913 0.1212598425196850238 -3.999999999999999112 0 -1 0 0 0 0.3937007874015747699 forward_v I I I I #
loop $-1 -1 $-1 $-1 $22 $6 #
coedge $-1 -1 $-1 $16 $16 $23 $24 reversed $9 $-1 #
DXID-attrib $-1 -1 $-1 $-1 $12 @10 ASM ENTITY @1 2 #
face $25 -1 $-1 $26 $27 $5 $-1 $28 reversed single #
loop $-1 -1 $-1 $29 $23 $12 #
plane-surface $-1 -1 $-1 4.000000000001636025 0.1999999999999999833 -3.999999999999999556 0 1 0 0 0 -0.3937007874015747699 forward_v I I I I #
coedge $-1 -1 $-1 $21 $21 $22 $30 reversed $13 $-1 #
coedge $-1 -1 $-1 $22 $22 $21 $30 forward $15 $-1 #
coedge $-1 -1 $-1 $23 $23 $16 $24 forward $19 $-1 #
edge $-1 -1 $-1 $31 0 $31 6.283185307179586232 $23 $32 forward @7 unknown #
DXID-attrib $-1 -1 $-1 $-1 $18 @10 ASM ENTITY @1 3 #
face $33 -1 $-1 $34 $35 $5 $-1 $36 reversed single #
loop $-1 -1 $-1 $-1 $37 $18 #
plane-surface $-1 -1 $-1 4.000000000001636025 0 -3.999999999999999556 0 1 0 0 0 -0.3937007874015747699 forward_v I I I I #
loop $-1 -1 $-1 $-1 $38 $12 #
edge $-1 -1 $-1 $39 0 $39 6.283185307179586232 $21 $40 forward @7 unknown #
vertex $-1 -1 $-1 $24 $41 #
ellipse-curve $-1 -1 $-1 4.000000000001636913 0.1999999999999999833 -3.999999999999999112 -0 -1 -0 0 0 1.999999999999999778 1 I I #
DXID-attrib $-1 -1 $-1 $-1 $26 @10 ASM ENTITY @1 4 #
face $42 -1 $-1 $43 $44 $5 $-1 $45 reversed single #
loop $-1 -1 $-1 $-1 $46 $26 #
plane-surface $-1 -1 $-1 8.000000000001636025 0.09999999999999999167 -3.999999999999999556 -1 0 0 0 0.3937007874015747699 0 forward_v I I I I #
coedge $-1 -1 $-1 $47 $48 $49 $50 forward $27 $-1 #
coedge $-1 -1 $-1 $51 $52 $53 $54 forward $29 $-1 #
vertex $-1 -1 $-1 $30 $55 #
ellipse-curve $-1 -1 $-1 4.000000000001636913 0.1212598425196850238 -3.999999999999999112 0 -1 0 0 0 1.999999999999999778 1 I I #
point $-1 -1 $-1 4.000000000001636913 0.1999999999999999833 -1.999999999999999112 #
DXID-attrib $-1 -1 $-1 $-1 $34 @10 ASM ENTITY @1 5 #
face $56 -1 $-1 $57 $58 $5 $-1 $59 reversed single #
loop $-1 -1 $-1 $-1 $60 $34 #
plane-surface $-1 -1 $-1 4.000000000001636025 0.09999999999999999167 0 0 0 -1 0 -0.3937007874015747699 0 forward_v I I I I #
coedge $-1 -1 $-1 $61 $62 $63 $64 forward $35 $-1 #
coedge $-1 -1 $-1 $65 $37 $61 $66 forward $27 $-1 #
coedge $-1 -1 $-1 $37 $65 $67 $68 forward $27 $-1 #
coedge $-1 -1 $-1 $69 $70 $37 $50 reversed $71 $-1 #
edge $-1 -1 $-1 $72 -10.16000000000000014 $73 10.16000000000000014 $49 $74 forward @7 unknown #
coedge $-1 -1 $-1 $75 $38 $76 $77 forward $29 $-1 #
coedge $-1 -1 $-1 $38 $75 $62 $78 forward $29 $-1 #
coedge $-1 -1 $-1 $70 $69 $38 $54 reversed $71 $-1 #
edge $-1 -1 $-1 $79 -10.16000000000000014 $80 10.16000000000000014 $53 $81 forward @7 unknown #
point $-1 -1 $-1 4.000000000001636913 0.1212598425196850238 -1.999999999999999112 #
DXID-attrib $-1 -1 $-1 $-1 $43 @10 ASM ENTITY @1 6 #
face $82 -1 $-1 $-1 $71 $5 $-1 $83 reversed single #
loop $-1 -1 $-1 $-1 $84 $43 #
plane-surface $-1 -1 $-1 1.636486222124640087e-12 0.09999999999999999167 -3.999999999999999556 1 0 0 0 -0.3937007874015747699 0 forward_v I I I I #
coedge $-1 -1 $-1 $85 $86 $87 $88 forward $44 $-1 #
coedge $-1 -1 $-1 $89 $46 $47 $66 reversed $35 $-1 #
coedge $-1 -1 $-1 $46 $89 $52 $78 reversed $35 $-1 #
coedge $-1 -1 $-1 $86 $85 $46 $64 reversed $44 $-1 #
edge $-1 -1 $-1 $90 -0.2540000000000000036 $91 0.2540000000000000036 $63 $92 forward @7 unknown #
coedge $-1 -1 $-1 $48 $47 $85 $93 forward $27 $-1 #
edge $-1 -1 $-1 $73 -10.16000000000000014 $91 10.16000000000000014 $61 $94 forward @7 unknown #
coedge $-1 -1 $-1 $87 $84 $48 $68 reversed $58 $-1 #
edge $-1 -1 $-1 $95 -10.16000000000000014 $72 10.16000000000000014 $67 $96 forward @7 unknown #
coedge $-1 -1 $-1 $53 $49 $84 $97 reversed $71 $-1 #
coedge $-1 -1 $-1 $49 $53 $89 $98 forward $71 $-1 #
loop $-1 -1 $-1 $-1 $70 $57 #
vertex $-1 -1 $-1 $50 $99 #
vertex $-1 -1 $-1 $98 $100 #
straight-curve $-1 -1 $-1 4.000000000001636025 0 -7.999999999999999112 0.3937007874015747699 0 0 I I #
coedge $-1 -1 $-1 $52 $51 $86 $101 forward $29 $-1 #
coedge $-1 -1 $-1 $84 $87 $51 $77 reversed $58 $-1 #
edge $-1 -1 $-1 $80 -10.16000000000000014 $102 10.16000000000000014 $76 $103 forward @7 unknown #
edge $-1 -1 $-1 $90 -10.16000000000000014 $79 10.16000000000000014 $62 $104 forward @7 unknown #
vertex $-1 -1 $-1 $54 $105 #
vertex $-1 -1 $-1 $54 $106 #
straight-curve $-1 -1 $-1 4.000000000001636025 0.1999999999999999833 -7.999999999999999112 -0.3937007874015747699 0 0 I I #
DXID-attrib $-1 -1 $-1 $-1 $57 @10 ASM ENTITY @1 7 #
plane-surface $-1 -1 $-1 4.000000000001636025 0.09999999999999999167 -7.999999999999999112 0 0 1 0 0.3937007874015747699 0 forward_v I I I I #
coedge $-1 -1 $-1 $67 $76 $69 $97 forward $58 $-1 #
coedge $-1 -1 $-1 $63 $60 $65 $93 reversed $44 $-1 #
coedge $-1 -1 $-1 $60 $63 $75 $101 reversed $44 $-1 #
coedge $-1 -1 $-1 $76 $67 $60 $88 reversed $58 $-1 #
edge $-1 -1 $-1 $102 -0.2540000000000000036 $95 0.2540000000000000036 $87 $107 forward @7 unknown #
coedge $-1 -1 $-1 $62 $61 $70 $98 reversed $35 $-1 #
vertex $-1 -1 $-1 $101 $108 #
vertex $-1 -1 $-1 $93 $109 #
straight-curve $-1 -1 $-1 8.000000000001636025 0.09999999999999999167 0 0 -0.3937007874015747699 0 I I #
edge $-1 -1 $-1 $91 -10.16000000000000014 $95 10.16000000000000014 $85 $110 forward @7 unknown #
straight-curve $-1 -1 $-1 8.000000000001636025 0 -3.999999999999999556 0 0 0.3937007874015747699 I I #
vertex $-1 -1 $-1 $68 $111 #
straight-curve $-1 -1 $-1 1.636486222124640087e-12 0 -3.999999999999999556 0 0 -0.3937007874015747699 I I #
edge $-1 -1 $-1 $80 -0.2540000000000000036 $72 0.2540000000000000036 $69 $112 forward @7 unknown #
edge $-1 -1 $-1 $79 -0.2540000000000000036 $73 0.2540000000000000036 $70 $113 forward @7 unknown #
point $-1 -1 $-1 1.636486222124640087e-12 0 -7.999999999999999112 #
point $-1 -1 $-1 8.000000000001636025 0 -7.999999999999999112 #
edge $-1 -1 $-1 $102 -10.16000000000000014 $90 10.16000000000000014 $86 $114 forward @7 unknown #
vertex $-1 -1 $-1 $77 $115 #
straight-curve $-1 -1 $-1 1.636486222124640087e-12 0.1999999999999999833 -3.999999999999999556 0 0 0.3937007874015747699 I I #
straight-curve $-1 -1 $-1 8.000000000001636025 0.1999999999999999833 -3.999999999999999556 0 0 -0.3937007874015747699 I I #
point $-1 -1 $-1 8.000000000001636025 0.1999999999999999833 -7.999999999999999112 #
point $-1 -1 $-1 1.636486222124640087e-12 0.1999999999999999833 -7.999999999999999112 #
straight-curve $-1 -1 $-1 1.636486222124640087e-12 0.09999999999999999167 0 0 -0.3937007874015747699 0 I I #
point $-1 -1 $-1 8.000000000001636025 0.1999999999999999833 0 #
point $-1 -1 $-1 8.000000000001636025 0 0 #
straight-curve $-1 -1 $-1 4.000000000001636025 0 0 -0.3937007874015747699 0 0 I I #
point $-1 -1 $-1 1.636486222124640087e-12 0 0 #
straight-curve $-1 -1 $-1 1.636486222124640087e-12 0.09999999999999999167 -7.999999999999999112 0 -0.3937007874015747699 0 I I #
straight-curve $-1 -1 $-1 8.000000000001636025 0.09999999999999999167 -7.999999999999999112 0 -0.3937007874015747699 0 I I #
straight-curve $-1 -1 $-1 4.000000000001636025 0.1999999999999999833 0 0.3937007874015747699 0 0 I I #
point $-1 -1 $-1 1.636486222124640087e-12 0.1999999999999999833 0 #
End-of-ACIS-data 