700 0 1 0           
30 Autodesk Translation Framework 21 ASM 229.4.0.65535 OSX 24 Thu Aug 31 11:34:17 2023 
1 9.999999999999999547e-07 1.000000000000000036e-10 
body $1 -1 $-1 $2 $-1 $3 #
rgb_color-st-attrib $-1 -1 $4 $-1 $0 0.627450980392156854 0.627450980392156854 0.627450980392156854 #
lump $-1 -1 $-1 $-1 $5 $0 #
transform $-1 -1 1 0 0 0 1 0 0 0 1 0 0 0 1 no_rotate no_reflect no_shear #
ATTRIB_CUSTOM-attrib $-1 -1 $-1 $1 $0 @20 Timestamp_attrib_def 1 1690824283363920 #
shell $-1 -1 $-1 $-1 $-1 $6 $-1 $2 #
face $7 -1 $-1 $8 $9 $5 $-1 $10 forward single #
DXID-attrib $-1 -1 $-1 $-1 $6 @10 ASM ENTITY @1 0 #
face $11 -1 $-1 $12 $13 $5 $-1 $14 forward single #
loop $-1 -1 $-1 $15 $16 $6 #
cone-surface $-1 -1 $-1 0 0.1000000000000000194 2.220446049250313512e-17 0 1 2.220446049250313081e-16 50.79999999999999716 0 0 1 I I 0 1 50.79999999999999716 forward I I I I #
DXID-attrib $-1 -1 $-1 $-1 $8 @10 ASM ENTITY @1 1 #
face $17 -1 $-1 $-1 $18 $5 $-1 $19 forward single #
loop $-1 -1 $-1 $-1 $20 $8 #
plane-surface $-1 -1 $-1 0 0 0 0 -1 -2.220446049250313081e-16 -10 0 0 forward_v I I I I #
loop $-1 -1 $-1 $-1 $21 $6 #
coedge $-1 -1 $-1 $16 $16 $20 $22 reversed $9 $-1 #
DXID-attrib $-1 -1 $-1 $-1 $12 @10 ASM ENTITY @1 2 #
loop $-1 -1 $-1 $-1 $23 $12 #
plane-surface $-1 -1 $-1 0 0.2000000000000000389 4.440892098500627025e-17 0 1 2.220446049250313081e-16 10 0 0 forward_v I I I I #
coedge $-1 -1 $-1 $20 $20 $16 $22 forward $13 $-1 #
coedge $-1 -1 $-1 $21 $21 $23 $24 reversed $15 $-1 #
edge $-1 -1 $-1 $25 0 $25 6.283185307179586232 $20 $26 forward @7 unknown #
coedge $-1 -1 $-1 $23 $23 $21 $24 forward $18 $-1 #
edge $-1 -1 $-1 $27 0 $27 6.283185307179586232 $23 $28 forward @7 unknown #
vertex $-1 -1 $-1 $22 $29 #
ellipse-curve $-1 -1 $-1 0 0 0 0 -1 -2.220446049250313081e-16 50.79999999999999716 0 0 1 I I #
vertex $-1 -1 $-1 $24 $30 #
ellipse-curve $-1 -1 $-1 0 0.2000000000000000389 4.440892098500627025e-17 0 1 2.220446049250313081e-16 50.79999999999999716 0 0 1 I I #
point $-1 -1 $-1 50.79999999999999716 0 0 #
point $-1 -1 $-1 50.79999999999999716 0.2000000000000000389 4.440892098500627025e-17 #
End-of-ACIS-data 