                                                                        S      1
,,17Hsyringe_puller v1,17Hsyringe_puller_v1,7Hunknown,7Hunknown,32,38,7,G      1
99,15,,1.,2,2HMM,1,0.08,15H20230831.113420,0.01,10000.,7Hunknown,7HunknoG      2
wn,11,0,15H20230816.235126;                                             G      3
     186       1                                                00000000D      1
     186             -95       1       0                               0D      2
     514       2                                                00010000D      3
     514                       1       1                               0D      4
     510       3                                                00010000D      5
     510             -95       1       1                               0D      6
     510       4                                                00010000D      7
     510             -95       1       1                               0D      8
     510       5                                                00010000D      9
     510             -95       1       1                               0D     10
     510       6                                                00010000D     11
     510             -95       1       1                               0D     12
     510       7                                                00010000D     13
     510             -95       1       1                               0D     14
     510       8                                                00010000D     15
     510             -95       1       1                               0D     16
     510       9                                                00010000D     17
     510             -95       1       1                               0D     18
     510      10                                                00010000D     19
     510             -95       1       1                               0D     20
     508      11                                                00010000D     21
     508                       1       1                               0D     22
     508      12                                                00010000D     23
     508                       2       1                               0D     24
     508      14                                                00010000D     25
     508                       1       1                               0D     26
     508      15                                                00010000D     27
     508                       1       1                               0D     28
     508      16                                                00010000D     29
     508                       1       1                               0D     30
     508      17                                                00010000D     31
     508                       2       1                               0D     32
     508      19                                                00010000D     33
     508                       1       1                               0D     34
     508      20                                                00010000D     35
     508                       1       1                               0D     36
     126      21                                                00010000D     37
     126       0              15       0                               0D     38
     126      36                                                00010000D     39
     126       0               8       0                               0D     40
     126      44                                                00010000D     41
     126       0              14       0                               0D     42
     126      58                                                00010000D     43
     126       0               8       0                               0D     44
     126      66                                                00010000D     45
     126       0              19       0                               0D     46
     126      85                                                00010000D     47
     126       0               3       0                               0D     48
     126      88                                                00010000D     49
     126       0               2       0                               0D     50
     126      90                                                00010000D     51
     126       0               2       0                               0D     52
     126      92                                                00010000D     53
     126       0               3       0                               0D     54
     126      95                                                00010000D     55
     126       0              14       0                               0D     56
     126     109                                                00010000D     57
     126       0               2       0                               0D     58
     126     111                                                00010000D     59
     126       0               3       0                               0D     60
     126     114                                                00010000D     61
     126       0               2       0                               0D     62
     126     116                                                00010000D     63
     126       0               2       0                               0D     64
     126     118                                                00010000D     65
     126       0               2       0                               0D     66
     126     120                                                00010000D     67
     126       0               3       0                               0D     68
     126     123                                                00010000D     69
     126       0               2       0                               0D     70
     126     125                                                00010000D     71
     126       0               2       0                               0D     72
     128     127                                                00010000D     73
     128       0     -95      32       0                               0D     74
     128     159                                                00010000D     75
     128       0     -95       3       0                               0D     76
     128     162                                                00010000D     77
     128       0     -95      22       0                               0D     78
     128     184                                                00010000D     79
     128       0     -95       5       0                               0D     80
     128     189                                                00010000D     81
     128       0     -95       3       0                               0D     82
     128     192                                                00010000D     83
     128       0     -95       3       0                               0D     84
     128     195                                                00010000D     85
     128       0     -95       7       0                               0D     86
     128     202                                                00010000D     87
     128       0     -95       3       0                               0D     88
     502     205                                                00010000D     89
     502                       5       1                               0D     90
     504     210                                                00010001D     91
     504                       4       1                               0D     92
     406     214                                                00000000D     93
     406                       1      15                               0D     94
     314     215                                                00000200D     95
     314                       2       0                               0D     96
186,3,1,0,0,1,93;                                                      1P      1
514,8,5,1,7,1,9,1,11,1,13,1,15,1,17,1,19,1;                            3P      2
510,73,1,1,21;                                                         5P      3
510,75,1,1,23;                                                         7P      4
510,77,1,1,25;                                                         9P      5
510,79,1,1,27;                                                        11P      6
510,81,1,1,29;                                                        13P      7
510,83,1,1,31;                                                        15P      8
510,85,1,1,33;                                                        17P      9
510,87,1,1,35;                                                        19P     10
508,4,0,91,1,1,0,0,91,2,1,0,0,91,3,1,0,0,91,4,1,0;                    21P     11
508,6,0,91,1,0,0,0,91,5,1,0,0,91,6,0,0,0,91,7,0,0,0,91,8,1,0,0,       23P     12
91,9,1,0;                                                             23P     13
508,4,0,91,4,0,0,0,91,10,0,0,0,91,11,1,0,0,91,5,0,0;                  25P     14
508,4,0,91,11,0,0,0,91,12,1,0,0,91,13,1,0,0,91,6,1,0;                 27P     15
508,4,0,91,14,1,0,0,91,7,1,0,0,91,13,0,0,0,91,15,0,0;                 29P     16
508,6,0,91,3,0,0,0,91,16,0,0,0,91,17,1,0,0,91,15,1,0,0,91,12,0,       31P     17
0,0,91,10,1,0;                                                        31P     18
508,4,0,91,2,0,0,0,91,9,0,0,0,91,18,1,0,0,91,16,1,0;                  33P     19
508,4,0,91,18,0,0,0,91,8,0,0,0,91,14,0,0,0,91,17,0,0;                 35P     20
126,12,3,0,0,1,0,0.,0.,0.,0.,0.0327632958577998,                      37P     21
0.0327632958577998,0.0327632958577998,0.0655265917155997,             37P     22
0.0655265917155997,0.0655265917155997,0.0982898875733995,             37P     23
0.0982898875733995,0.0982898875733995,0.114671535502299,              37P     24
0.114671535502299,0.114671535502299,0.114671535502299,1.,1.,1.,       37P     25
1.,1.,1.,1.,1.,1.,1.,1.,1.,1.,15.1719198031191,-3.5,                  37P     26
3.64735344581973,15.2540842675595,-3.5,3.71879730301525,              37P     27
15.3603158358353,-3.5,3.76225745842332,15.4688949086142,-3.5,         37P     28
3.76904189101122,15.5774739813932,-3.5,3.77582632359912,              37P     29
15.6884005586753,-3.5,3.74593503336686,15.7787180661329,-3.5,         37P     30
3.68537368564796,15.8690355735905,-3.5,3.62481233792906,              37P     31
15.9387440112236,-3.5,3.53358093272354,15.9737142770834,-3.5,         37P     32
3.43051194770107,15.9911994100134,-3.5,3.37897745518984,16.,          37P     33
-3.5,3.32448356772438,16.,-3.5,3.27004271921024,0.,                   37P     34
0.114671535502299,0.,0.,0.;                                           37P     35
126,3,3,0,0,1,0,-0.700000000000005,-0.700000000000005,                39P     36
-0.700000000000005,-0.700000000000005,-9.43689570931382D-16,          39P     37
-9.43689570931382D-16,-9.43689570931382D-16,                          39P     38
-9.43689570931382D-16,1.,1.,1.,1.,16.,-3.50000000000003,              39P     39
3.27004271921024,16.,-1.16666666666668,3.27004271921024,16.,          39P     40
1.16666666666666,3.27004271921024,16.,3.50000000000001,               39P     41
3.27004271921024,-0.700000000000005,-9.43689570931382D-16,0.,0.,      39P     42
0.;                                                                   39P     43
126,12,3,0,0,1,0,0.,0.,0.,0.,0.0163816479289,0.0163816479289,         41P     44
0.0163816479289,0.0491449437867001,0.0491449437867001,                41P     45
0.0491449437867001,0.0819082396445002,0.0819082396445002,             41P     46
0.0819082396445002,0.1146715355023,0.1146715355023,                   41P     47
0.1146715355023,0.1146715355023,1.,1.,1.,1.,1.,1.,1.,1.,1.,1.,        41P     48
1.,1.,1.,16.,3.5,3.27004271921024,16.,3.5,3.32448356772438,           41P     49
15.9911994100134,3.5,3.37897745518984,15.9737142770834,3.5,           41P     50
3.43051194770107,15.9387440112236,3.5,3.53358093272354,               41P     51
15.8690355735905,3.5,3.62481233792906,15.7787180661329,3.5,           41P     52
3.68537368564796,15.6884005586753,3.5,3.74593503336686,               41P     53
15.5774739813932,3.5,3.77582632359912,15.4688949086142,3.5,           41P     54
3.76904189101122,15.3603158358353,3.5,3.76225745842332,               41P     55
15.2540842675595,3.5,3.71879730301525,15.1719198031191,3.5,           41P     56
3.64735344581973,0.,0.1146715355023,0.,0.,0.;                         41P     57
126,3,3,0,0,1,0,9.43689570931382D-16,9.43689570931382D-16,            43P     58
9.43689570931382D-16,9.43689570931382D-16,0.700000000000005,          43P     59
0.700000000000005,0.700000000000005,0.700000000000005,1.,1.,1.,       43P     60
1.,15.1719198031191,3.50000000000001,3.64735344581973,                43P     61
15.1719198031191,1.16666666666666,3.64735344581973,                   43P     62
15.1719198031191,-1.16666666666668,3.64735344581973,                  43P     63
15.1719198031191,-3.50000000000003,3.64735344581973,                  43P     64
9.43689570931382D-16,0.700000000000005,0.,0.,0.;                      43P     65
126,14,5,0,0,0,0,-0.907529476460829,-0.907529476460829,               45P     66
-0.907529476460829,-0.907529476460829,-0.907529476460829,             45P     67
-0.907529476460829,-0.9,-0.8,-0.7,-0.6,-0.5,-0.4,-0.3,-0.2,-0.1,      45P     68
0.,0.,0.,0.,0.,0.,1.,1.,1.,1.,1.,1.,1.,1.,1.,1.,1.,1.,1.,1.,1.,       45P     69
15.1719198031191,-3.50000000000003,3.64735344581973,                  45P     70
15.1575589126909,-3.50000000000003,3.63486632730765,                  45P     71
14.9520128596397,-3.50000000000003,3.4575333214784,                   45P     72
14.5428891517344,-3.50000000000003,3.14288093661838,                  45P     73
13.9074102297988,-3.50000000000003,2.76017607966328,                  45P     74
13.0412888110343,-3.50000000000003,2.44142262872879,                  45P     75
12.0283234525592,-3.50000000000003,2.40832039965337,                  45P     76
11.1357057846745,-3.50000000000003,2.76064976692256,                  45P     77
10.3868958853732,-3.50000000000003,3.45880160998719,                  45P     78
9.72479653579734,-3.50000000000003,4.35129470823448,                  45P     79
9.04709801672039,-3.50000000000003,5.22961508609896,                  45P     80
8.39988428671194,-3.50000000000003,5.74788529205451,                  45P     81
7.81143410803429,-3.50000000000003,5.95415865005472,                  45P     82
7.36725564523968,-3.50000000000003,6.,7.13219562090863,               45P     83
-3.50000000000003,6.,-0.907529476460829,0.,0.,0.,0.;                  45P     84
126,1,1,0,0,1,0,0.,0.,2.31321956209086,2.31321956209086,1.,1.,        47P     85
-16.,-3.5,6.,7.13219562090863,-3.5,6.,0.,2.31321956209086,0.,0.,      47P     86
0.;                                                                   47P     87
126,1,1,0,0,1,0,0.,0.,0.6,0.6,1.,1.,-16.,-3.5,0.,-16.,-3.5,6.,        49P     88
0.,0.6,0.,0.,0.;                                                      49P     89
126,1,1,0,0,1,0,0.,0.,3.2,3.2,1.,1.,-16.,-3.5,0.,16.,-3.5,0.,0.,      51P     90
3.2,0.,0.,0.;                                                         51P     91
126,1,1,0,0,1,0,0.,0.,0.327004271921024,0.327004271921024,1.,1.,      53P     92
16.,-3.5,0.,16.,-3.5,3.27004271921024,0.,0.327004271921024,0.,        53P     93
0.,0.;                                                                53P     94
126,14,5,0,0,0,0,0.,0.,0.,0.,0.,0.,0.1,0.2,0.3,0.4,0.5,0.6,0.7,       55P     95
0.8,0.9,0.907529476460829,0.907529476460829,0.907529476460829,        55P     96
0.907529476460829,0.907529476460829,0.907529476460829,1.,1.,1.,       55P     97
1.,1.,1.,1.,1.,1.,1.,1.,1.,1.,1.,1.,7.13219562090863,3.5,6.,          55P     98
7.36725564523968,3.5,6.,7.81143410803429,3.5,5.95415865005472,        55P     99
8.39988428671194,3.5,5.74788529205451,9.04709801672039,3.5,           55P    100
5.22961508609896,9.72479653579734,3.5,4.35129470823448,               55P    101
10.3868958853732,3.5,3.45880160998719,11.1357057846745,3.5,           55P    102
2.76064976692256,12.0283234525592,3.5,2.40832039965337,               55P    103
13.0412888110343,3.5,2.44142262872879,13.9074102297988,3.5,           55P    104
2.76017607966328,14.5428891517344,3.5,3.14288093661838,               55P    105
14.9520128596397,3.5,3.4575333214784,15.1575589126909,3.5,            55P    106
3.63486632730765,15.1719198031191,3.5,3.64735344581973,0.,            55P    107
0.907529476460829,0.,0.,0.;                                           55P    108
126,1,1,0,0,1,0,0.,0.,0.7,0.7,1.,1.,7.13219562090863,3.5,6.,          57P    109
7.13219562090863,-3.5,6.,0.,0.7,0.,0.,0.;                             57P    110
126,1,1,0,0,1,0,0.886780437909137,0.886780437909137,3.2,3.2,1.,       59P    111
1.,7.13219562090863,3.5,6.,-16.,3.5,6.,0.886780437909137,3.2,0.,      59P    112
0.,0.;                                                                59P    113
126,1,1,0,0,1,0,0.,0.,0.7,0.7,1.,1.,-16.,3.5,6.,-16.,-3.5,6.,0.,      61P    114
0.7,0.,0.,0.;                                                         61P    115
126,1,1,0,0,1,0,0.,0.,0.7,0.7,1.,1.,-16.,3.5,0.,-16.,-3.5,0.,0.,      63P    116
0.7,0.,0.,0.;                                                         63P    117
126,1,1,0,0,1,0,0.,0.,0.6,0.6,1.,1.,-16.,3.5,0.,-16.,3.5,6.,0.,       65P    118
0.6,0.,0.,0.;                                                         65P    119
126,1,1,0,0,1,0,0.,0.,0.327004271921024,0.327004271921024,1.,1.,      67P    120
16.,3.5,0.,16.,3.5,3.27004271921024,0.,0.327004271921024,0.,0.,       67P    121
0.;                                                                   67P    122
126,1,1,0,0,1,0,0.,0.,3.2,3.2,1.,1.,16.,3.5,0.,-16.,3.5,0.,0.,        69P    123
3.2,0.,0.,0.;                                                         69P    124
126,1,1,0,0,1,0,0.,0.,0.7,0.7,1.,1.,16.,-3.5,0.,16.,3.5,0.,0.,        71P    125
0.7,0.,0.,0.;                                                         71P    126
128,6,3,3,3,0,0,1,0,0,0.,0.,0.,0.,0.142857142857143,                  73P    127
0.428571428571429,0.714285714285714,1.,1.,1.,1.,                      73P    128
9.43689570931382D-16,9.43689570931382D-16,9.43689570931382D-16,       73P    129
9.43689570931382D-16,0.700000000000005,0.700000000000005,             73P    130
0.700000000000005,0.700000000000005,1.,1.,1.,1.,1.,1.,1.,1.,1.,       73P    131
1.,1.,1.,1.,1.,1.,1.,1.,1.,1.,1.,1.,1.,1.,1.,1.,1.,1.,1.,16.,         73P    132
3.50000000000001,3.27004271921024,16.,3.50000000000001,               73P    133
3.32448356772438,15.9735982300401,3.50000000000001,                   73P    134
3.48796523012078,15.7993271359574,3.50000000000001,                   73P    135
3.71604374313459,15.4665474041111,3.50000000000001,                   73P    136
3.80571761383139,15.2540842675595,3.50000000000001,                   73P    137
3.71879730301525,15.1719198031191,3.50000000000001,                   73P    138
3.64735344581973,16.,1.16666666666666,3.27004271921024,16.,           73P    139
1.16666666666666,3.32448356772438,15.9735982300401,                   73P    140
1.16666666666665,3.48796523012078,15.7993271359574,                   73P    141
1.16666666666667,3.71604374313459,15.4665474041111,                   73P    142
1.16666666666666,3.80571761383139,15.2540842675595,                   73P    143
1.16666666666666,3.71879730301525,15.1719198031191,                   73P    144
1.16666666666666,3.64735344581973,16.,-1.16666666666668,              73P    145
3.27004271921024,16.,-1.16666666666668,3.32448356772438,              73P    146
15.9735982300401,-1.16666666666668,3.48796523012077,                  73P    147
15.7993271359574,-1.16666666666669,3.71604374313459,                  73P    148
15.4665474041111,-1.16666666666668,3.80571761383139,                  73P    149
15.2540842675595,-1.16666666666669,3.71879730301525,                  73P    150
15.1719198031191,-1.16666666666668,3.64735344581973,16.,              73P    151
-3.50000000000003,3.27004271921024,16.,-3.50000000000003,             73P    152
3.32448356772438,15.9735982300401,-3.50000000000003,                  73P    153
3.48796523012077,15.7993271359574,-3.50000000000003,                  73P    154
3.71604374313459,15.4665474041111,-3.50000000000003,                  73P    155
3.80571761383139,15.2540842675595,-3.50000000000003,                  73P    156
3.71879730301525,15.1719198031191,-3.50000000000003,                  73P    157
3.64735344581973,0.,1.,9.43689570931382D-16,0.700000000000005;        73P    158
128,1,1,1,1,0,0,1,0,0,-0.001,-0.001,3.201,3.201,-0.001,-0.001,        75P    159
0.601,0.601,1.,1.,1.,1.,-16.01,-3.5,-0.01,16.01,-3.5,-0.01,           75P    160
-16.01,-3.5,6.01,16.01,-3.5,6.01,-0.001,3.201,-0.001,0.601;           75P    161
128,14,1,5,1,0,0,0,0,0,0.,0.,0.,0.,0.,0.,0.1,0.2,0.3,0.4,0.5,         77P    162
0.6,0.7,0.8,0.9,1.,1.,1.,1.,1.,1.,0.,0.,0.77,0.77,1.,1.,1.,1.,        77P    163
1.,1.,1.,1.,1.,1.,1.,1.,1.,1.,1.,1.,1.,1.,1.,1.,1.,1.,1.,1.,1.,       77P    164
1.,1.,1.,1.,1.,16.,3.5,4.51533885185313,15.8333703836013,3.5,         77P    165
4.30634195121777,15.4861450050678,3.5,3.9109894171464,                77P    166
14.9234137031316,3.5,3.38588455513519,14.1039376116638,3.5,           77P    167
2.83250286874319,13.0412888110343,3.5,2.44142262872879,               77P    168
12.0283234525592,3.5,2.40832039965337,11.1357057846745,3.5,           77P    169
2.76064976692256,10.3868958853732,3.5,3.45880160998719,               77P    170
9.72479653579734,3.5,4.35129470823448,9.04709801672039,3.5,           77P    171
5.22961508609896,8.39988428671194,3.5,5.74788529205451,               77P    172
7.81143410803429,3.5,5.95415865005472,7.36725564523968,3.5,6.,        77P    173
7.13219562090863,3.5,6.,16.,-4.2,4.51533885185313,                    77P    174
15.8333703836013,-4.2,4.30634195121777,15.4861450050678,-4.2,         77P    175
3.9109894171464,14.9234137031316,-4.2,3.38588455513519,               77P    176
14.1039376116638,-4.2,2.83250286874319,13.0412888110343,-4.2,         77P    177
2.44142262872879,12.0283234525592,-4.2,2.40832039965337,              77P    178
11.1357057846745,-4.2,2.76064976692256,10.3868958853732,-4.2,         77P    179
3.45880160998719,9.72479653579734,-4.2,4.35129470823448,              77P    180
9.04709801672039,-4.2,5.22961508609896,8.39988428671194,-4.2,         77P    181
5.74788529205451,7.81143410803429,-4.2,5.95415865005472,              77P    182
7.36725564523968,-4.2,6.,7.13219562090863,-4.2,6.,0.,1.,0.,0.77;      77P    183
128,1,1,1,1,0,0,1,0,0,-1.601,-1.601,0.714219562090864,                79P    184
0.714219562090864,-0.351000000000003,-0.351000000000003,0.351,        79P    185
0.351,1.,1.,1.,1.,-16.01,-3.51000000000003,6.,7.14219562090863,       79P    186
-3.51000000000003,6.,-16.01,3.51,6.,7.14219562090863,3.51,6.,         79P    187
-1.601,0.714219562090864,-0.351000000000003,0.351;                    79P    188
128,1,1,1,1,0,0,1,0,0,-0.001,-0.001,0.701,0.701,-0.001,-0.001,        81P    189
0.601,0.601,1.,1.,1.,1.,-16.,3.51,-0.01,-16.,-3.51,-0.01,-16.,        81P    190
3.51,6.01,-16.,-3.51,6.01,-0.001,0.701,-0.001,0.601;                  81P    191
128,1,1,1,1,0,0,1,0,0,-0.001,-0.001,3.201,3.201,-0.001,-0.001,        83P    192
0.601,0.601,1.,1.,1.,1.,16.01,3.5,-0.01,-16.01,3.5,-0.01,16.01,       83P    193
3.5,6.01,-16.01,3.5,6.01,-0.001,3.201,-0.001,0.601;                   83P    194
128,1,1,1,1,0,0,1,0,0,-0.00100000000000078,-0.00100000000000078,      85P    195
0.701000000000001,0.701000000000001,-0.001,-0.001,                    85P    196
0.328004271921025,0.328004271921025,1.,1.,1.,1.,16.,                  85P    197
-3.51000000000001,-0.01,16.,3.51000000000001,-0.01,16.,               85P    198
-3.51000000000001,3.28004271921025,16.,3.51000000000001,              85P    199
3.28004271921025,-0.00100000000000078,0.701000000000001,-0.001,       85P    200
0.328004271921025;                                                    85P    201
128,1,1,1,1,0,0,1,0,0,-1.601,-1.601,1.601,1.601,-0.351,-0.351,        87P    202
0.351,0.351,1.,1.,1.,1.,16.01,-3.51,0.,-16.01,-3.51,0.,16.01,         87P    203
3.51,0.,-16.01,3.51,0.,-1.601,1.601,-0.351,0.351;                     87P    204
502,12,15.1719198031191,-3.50000000000003,3.64735344581973,16.,       89P    205
-3.50000000000001,3.27004271921024,16.,3.50000000000001,              89P    206
3.27004271921024,15.1719198031191,3.5,3.64735344581973,               89P    207
7.13219562090863,-3.5,6.,-16.,-3.5,6.,-16.,-3.5,0.,16.,-3.5,0.,       89P    208
7.13219562090863,3.5,6.,-16.,3.5,6.,-16.,3.5,0.,16.,3.5,0.;           89P    209
504,18,37,89,1,89,2,39,89,2,89,3,41,89,3,89,4,43,89,4,89,1,45,        91P    210
89,1,89,5,47,89,6,89,5,49,89,7,89,6,51,89,7,89,8,53,89,8,89,2,        91P    211
55,89,9,89,4,57,89,9,89,5,59,89,9,89,10,61,89,10,89,6,63,89,11,       91P    212
89,7,65,89,11,89,10,67,89,12,89,3,69,89,12,89,11,71,89,8,89,12;       91P    213
406,1,5HBody1;                                                        93P    214
314,62.7450980392157,62.7450980392157,62.7450980392157,13HSteel       95P    215
- Satin;                                                              95P    216
S      1G      3D     96P    216                                        T      1
