700 0 1 0           
30 Autodesk Translation Framework 21 ASM 229.4.0.65535 OSX 24 Thu Aug 31 11:34:20 2023 
1 9.999999999999999547e-07 1.000000000000000036e-10 
body $1 -1 $-1 $2 $-1 $3 #
rgb_color-st-attrib $-1 -1 $4 $-1 $0 0.627450980392156854 0.627450980392156854 0.627450980392156854 #
lump $-1 -1 $-1 $-1 $5 $0 #
transform $-1 -1 1 0 0 0 1 0 0 0 1 0 0 0 1 no_rotate no_reflect no_shear #
ATTRIB_CUSTOM-attrib $-1 -1 $-1 $1 $0 @20 Timestamp_attrib_def 1 1692229851977737 #
shell $-1 -1 $-1 $-1 $-1 $6 $-1 $2 #
face $7 -1 $-1 $8 $9 $5 $-1 $10 forward single #
DXID-attrib $-1 -1 $-1 $-1 $6 @10 ASM ENTITY @1 0 #
face $11 -1 $-1 $12 $13 $5 $-1 $14 forward single #
loop $-1 -1 $-1 $-1 $15 $6 #
spline-surface $-1 -1 $-1 reversed { rbblnsur @11 blendsupsur spline reversed { sumsur 
	intcurve forward { exactcur full nurbs 5 open 11 
	0 5 0.1000000000000000056 1 0.2000000000000000111 1 0.3000000000000000444 1 0.4000000000000000222 1 
	0.5 1 0.5999999999999999778 1 0.6999999999999999556 1 0.7999999999999999334 1 0.8999999999999999112 1 
	1 5 
	7.13219562090863235 3.500000000000000888 6.000000000000000888 1 
	7.367255645239682238 3.500000000000000888 6.000000000000000888 1 
	7.811434108034288393 3.500000000000000888 5.954158650054722557 1 
	8.399884286711939652 3.500000000000000888 5.747885292054506934 1 
	9.047098016720386937 3.500000000000000888 5.229615086098963417 1 
	9.724796535797338493 3.500000000000000888 4.351294708234476616 1 
	10.38689588537320674 3.500000000000000888 3.458801609987190329 1 
	11.13570578467452599 3.500000000000000888 2.760649766922558257 1 
	12.0283234525592313 3.500000000000000888 2.408320399653367083 1 
	13.0412888110343026 3.500000000000000888 2.441422628728791011 1 
	14.1039376116637527 3.500000000000000888 2.832502868743187463 1 
	14.9234137031316294 3.500000000000000888 3.385884555135190599 1 
	15.48614500506781155 3.500000000000000888 3.91098941714640036 1 
	15.83337038360134486 3.500000000000000888 4.306341951217772746 1 
	16 3.500000000000000888 4.515338851853129221 1 
	0 
	
	null_surface 
	null_surface 
	nullbs 
	nullbs 
	I I 
	0 
	0 
	0 
	F 1 F 0 } F 0 F 1 
	straight 0 0 0 0 -10 0 I I 
	0 0 0 
	none F 0 F 1 F -0.2199999999999977252 F 0.9199999999999981526 OPEN OPEN NON_SINGULAR NON_SINGULAR 
	0 
	0 
	0 
	0 
	0 
	0 
	} I I I I null_curve nubs 3 open 5 
	-0.2199999999999960321 3 0 3 0.3500000000000017542 3 0.7000000000000035083 3 0.9199999999999995959 3 
	0.9075294764608292652 -0.2199999999999977252 
	0.9075294764608292652 -0.1466666666666658347 
	0.9075294764608301534 -0.07333333333333373616 
	0.9075294764608301534 -1.720845688168992638e-15 
	0.9075294764608301534 0.1166666666666638236 
	0.9075294764608301534 0.2333333333333310333 
	0.9075294764608301534 0.3499999999999983125 
	0.9075294764608301534 0.4666666666666656194 
	0.9075294764608301534 0.5833333333333328152 
	0.9075294764608301534 0.7000000000000001776 
	0.9075294764608301534 0.7733333333333322068 
	0.9075294764608292652 0.846666666666664347 
	0.9075294764608292652 0.9199999999999963762 
	0 0 0 
	@11 blendsupsur plane 16 -3.5 0 1 0 0 0 10 0 forward_v I I I I null_curve nullbs 0 0 0 
	intcurve forward { offintcur full nubs 5 open 5 
	-0.2199999999999960321 5 0 5 0.3500000000000017542 2 0.7000000000000035083 5 0.9199999999999995959 5 
	15.5 5.69999999999997975 3.270042719210247029 
	15.5 5.259999999999988241 3.270042719210247917 
	15.49999999999998579 4.819999999999993179 3.270042719210243476 
	15.50000000000003197 4.380000000000004334 3.27004271921026568 
	15.50000000000000888 3.940000000000010605 3.270042719210253246 
	15.50000000000000888 3.500000000000018652 3.270042719210253246 
	15.49999999999998757 2.800000000000014921 3.270042719210240367 
	15.50000000000004441 2.1000000000000143 3.270042719210271009 
	15.49999999999997158 0.7000000000000026201 3.270042719210233262 
	15.49999999999996803 -0.6999999999999996225 3.270042719210226156 
	15.50000000000005151 -2.100000000000011191 3.270042719210279003 
	15.49999999999998757 -2.800000000000013145 3.270042719210240367 
	15.49999999999998934 -3.500000000000016875 3.270042719210240811 
	15.50000000000000888 -3.940000000000009717 3.27004271921025369 
	15.50000000000003908 -4.380000000000003446 3.270042719210270121 
	15.49999999999997513 -4.819999999999994067 3.27004271921023193 
	15.5 -5.259999999999985576 3.270042719210247029 
	15.5 -5.699999999999977973 3.270042719210247029 
	1000 
	
	plane 16 -3.5 0 1 0 0 0 10 0 forward_v I I I I 
	spline reversed { ref 1 } I I I I 
	nullbs 
	nubs 3 open 5 
	-0.2199999999999960321 3 0 3 0.3500000000000017542 3 0.7000000000000035083 3 0.9199999999999995959 3 
	0.9075294764608292652 -0.2199999999999977252 
	0.9075294764608292652 -0.1466666666666658347 
	0.9075294764608301534 -0.07333333333333373616 
	0.9075294764608301534 -1.720845688168992638e-15 
	0.9075294764608301534 0.1166666666666638236 
	0.9075294764608301534 0.2333333333333310333 
	0.9075294764608301534 0.3499999999999983125 
	0.9075294764608301534 0.4666666666666656194 
	0.9075294764608301534 0.5833333333333328152 
	0.9075294764608301534 0.7000000000000001776 
	0.9075294764608301534 0.7733333333333322068 
	0.9075294764608292652 0.846666666666664347 
	0.9075294764608292652 0.9199999999999963762 
	
	I I 
	0 
	0 
	0 
	-0.5 -0.5 } I I -0.5 -0.5 
	no_radius 
	F 0 F 1 
	I I 
	1 0.001000000000000000021 0.002257523945228709535 
	1 
	full nubs 3 3 open open none none 4 9 
	0 3 0.3333333333333333148 1 0.6666666666666666297 1 1 3 
	-0.1099999999999980022 3 -0.05499999999999900108 2 0 3 0.1750000000000009048 2 0.3500000000000018097 3 
	0.5250000000000026867 2 0.7000000000000035083 3 0.755000000000002558 2 0.8100000000000016076 3 
	15.17191980311907606 4.599999999999998757 3.647353445819728535 
	15.26777834496622788 4.599999999999998757 3.730704612547841137 
	15.52548676588358667 4.599999999999998757 3.820199090327026425 
	15.89843639393192376 4.599999999999998757 3.650266400621746676 
	16.00000000000000355 4.599999999999998757 3.397071365743225435 
	16.00000000000000355 4.599999999999998757 3.270042719210249693 
	15.17191980311907606 4.416666666666668739 3.647353445819728535 
	15.26777834496622788 4.416666666666668739 3.730704612547841137 
	15.52548676588358667 4.416666666666668739 3.820199090327026425 
	15.89843639393192376 4.416666666666668739 3.650266400621746676 
	16.00000000000000355 4.416666666666668739 3.397071365743225435 
	16.00000000000000355 4.416666666666668739 3.270042719210249693 
	15.17191980311907606 4.233333333333337833 3.647353445819728535 
	15.26777834496622788 4.233333333333337833 3.730704612547841137 
	15.52548676588358667 4.233333333333337833 3.820199090327026425 
	15.89843639393192376 4.233333333333337833 3.650266400621746676 
	16.00000000000000355 4.233333333333337833 3.397071365743225435 
	16.00000000000000355 4.233333333333337833 3.270042719210249693 
	15.17191980311907606 3.866666666666678243 3.647353445819728535 
	15.26777834496622788 3.866666666666678243 3.730704612547841137 
	15.52548676588358667 3.866666666666678243 3.820199090327026425 
	15.89843639393192376 3.866666666666678243 3.650266400621746676 
	16.00000000000000355 3.866666666666678243 3.397071365743225435 
	16.00000000000000355 3.866666666666678243 3.270042719210249693 
	15.17191980311907074 3.683333333333348669 3.647353445819725426 
	15.26777834496622255 3.683333333333348669 3.730704612547836696 
	15.52548676588358134 3.683333333333348669 3.820199090327018876 
	15.8984363939319131 3.683333333333348669 3.650266400621737795 
	15.99999999999999467 3.683333333333348669 3.39707136574321833 
	15.99999999999999467 3.683333333333348669 3.270042719210243476 
	15.17191980311908317 3.500000000000018652 3.647353445819731643 
	15.26777834496623498 3.500000000000018652 3.730704612547843801 
	15.52548676588359378 3.500000000000018652 3.82019909032702909 
	15.89843639393193087 3.500000000000018652 3.650266400621750229 
	16.00000000000001066 3.500000000000018652 3.397071365743228988 
	16.00000000000001066 3.500000000000018652 3.270042719210253246 
	15.17191980311908317 2.916666666666682506 3.647353445819731643 
	15.26777834496623498 2.916666666666682506 3.730704612547843801 
	15.52548676588359378 2.916666666666682506 3.82019909032702909 
	15.89843639393193087 2.916666666666682062 3.650266400621750229 
	16.00000000000001066 2.916666666666682062 3.397071365743228988 
	16.00000000000001066 2.916666666666682062 3.270042719210253246 
	15.17191980311908317 2.33333333333334636 3.647353445819731643 
	15.26777834496623498 2.33333333333334636 3.730704612547843801 
	15.52548676588359378 2.33333333333334636 3.82019909032702909 
	15.89843639393193087 2.33333333333334636 3.650266400621750229 
	16.00000000000001066 2.333333333333346804 3.397071365743228988 
	16.00000000000001066 2.333333333333346804 3.270042719210253246 
	15.17191980311908317 1.166666666666673402 3.647353445819731643 
	15.26777834496623498 1.166666666666673402 3.730704612547843801 
	15.52548676588359378 1.166666666666673402 3.82019909032702909 
	15.89843639393193087 1.166666666666673402 3.650266400621750229 
	16.00000000000001066 1.16666666666667318 3.397071365743228988 
	16.00000000000001066 1.16666666666667318 3.270042719210253246 
	15.17191980311908139 0.5833333333333370341 3.647353445819731643 
	15.26777834496623143 0.5833333333333370341 3.730704612547843801 
	15.525486765883592 0.5833333333333370341 3.82019909032702909 
	15.89843639393192731 0.5833333333333371451 3.650266400621750229 
	16.00000000000000711 0.5833333333333372561 3.397071365743229432 
	16.00000000000000711 0.5833333333333372561 3.27004271921025369 
	15.17191980311908139 1.11022302462515654e-15 3.647353445819731643 
	15.26777834496623143 1.11022302462515654e-15 3.730704612547843801 
	15.525486765883592 1.11022302462515654e-15 3.82019909032702909 
	15.89843639393192731 1.11022302462515654e-15 3.650266400621750229 
	16.00000000000000711 1.11022302462515654e-15 3.397071365743229432 
	16.00000000000000711 1.11022302462515654e-15 3.27004271921025369 
	15.17191980311908139 -0.5833333333333357018 3.647353445819731643 
	15.26777834496623143 -0.5833333333333357018 3.730704612547843801 
	15.525486765883592 -0.5833333333333357018 3.82019909032702909 
	15.89843639393192731 -0.5833333333333357018 3.650266400621750229 
	16.00000000000000711 -0.5833333333333357018 3.397071365743229432 
	16.00000000000000711 -0.5833333333333357018 3.27004271921025369 
	15.17191980311908317 -1.16666666666667207 3.647353445819731643 
	15.26777834496623498 -1.16666666666667207 3.730704612547843801 
	15.52548676588359378 -1.16666666666667207 3.82019909032702909 
	15.89843639393193087 -1.166666666666671848 3.650266400621750229 
	16.00000000000001066 -1.166666666666671848 3.397071365743228988 
	16.00000000000001066 -1.166666666666671848 3.270042719210253246 
	15.17191980311908317 -2.333333333333345472 3.647353445819731643 
	15.26777834496623498 -2.333333333333345472 3.730704612547843801 
	15.52548676588359378 -2.333333333333345472 3.82019909032702909 
	15.89843639393193087 -2.333333333333345472 3.650266400621750229 
	16.00000000000001066 -2.333333333333345472 3.397071365743228988 
	16.00000000000001066 -2.333333333333345472 3.270042719210253246 
	15.17191980311908317 -2.916666666666680729 3.647353445819731643 
	15.26777834496623498 -2.916666666666680729 3.730704612547843801 
	15.52548676588359378 -2.916666666666680729 3.82019909032702909 
	15.89843639393193087 -2.916666666666680729 3.650266400621750229 
	16.00000000000001066 -2.916666666666680729 3.397071365743228988 
	16.00000000000001066 -2.916666666666680729 3.270042719210253246 
	15.17191980311908317 -3.500000000000016875 3.647353445819731643 
	15.26777834496623498 -3.500000000000016875 3.730704612547843801 
	15.52548676588359378 -3.500000000000016875 3.82019909032702909 
	15.89843639393193087 -3.500000000000016875 3.650266400621750229 
	16.00000000000001066 -3.500000000000016875 3.397071365743228988 
	16.00000000000001066 -3.500000000000016875 3.270042719210253246 
	15.17191980311907074 -3.683333333333347337 3.647353445819725426 
	15.26777834496622255 -3.683333333333347337 3.730704612547836696 
	15.52548676588358134 -3.683333333333347337 3.820199090327018876 
	15.8984363939319131 -3.683333333333347337 3.650266400621737795 
	15.99999999999999467 -3.683333333333347337 3.39707136574321833 
	15.99999999999999467 -3.683333333333347337 3.270042719210243476 
	15.17191980311907429 -3.866666666666678243 3.647353445819727202 
	15.26777834496622432 -3.866666666666678243 3.730704612547838916 
	15.52548676588358489 -3.866666666666678243 3.820199090327021541 
	15.89843639393191843 -3.866666666666678243 3.65026640062174268 
	15.99999999999999822 -3.866666666666678243 3.397071365743221882 
	15.99999999999999822 -3.866666666666678243 3.270042719210246585 
	15.17191980311907429 -4.233333333333338722 3.647353445819727202 
	15.26777834496622432 -4.233333333333338722 3.730704612547838916 
	15.52548676588358489 -4.233333333333338722 3.820199090327021541 
	15.89843639393191843 -4.233333333333338722 3.65026640062174268 
	15.99999999999999822 -4.233333333333338722 3.397071365743221882 
	15.99999999999999822 -4.233333333333338722 3.270042719210246585 
	15.17191980311907429 -4.416666666666667851 3.647353445819727202 
	15.26777834496622432 -4.416666666666667851 3.730704612547838916 
	15.52548676588358489 -4.416666666666667851 3.820199090327021541 
	15.89843639393191843 -4.416666666666667851 3.65026640062174268 
	15.99999999999999822 -4.416666666666667851 3.397071365743221882 
	15.99999999999999822 -4.416666666666667851 3.270042719210246585 
	15.17191980311907429 -4.59999999999999698 3.647353445819727202 
	15.26777834496622432 -4.59999999999999698 3.730704612547838916 
	15.52548676588358489 -4.59999999999999698 3.820199090327021541 
	15.89843639393191843 -4.59999999999999698 3.65026640062174268 
	15.99999999999999822 -4.59999999999999698 3.397071365743221882 
	15.99999999999999822 -4.59999999999999698 3.270042719210246585 
	0.002257523945228709535 
	
	0 
	0 
	0 
	0 
	0 
	0 
	} F 0 F 1 F 9.436895709313822705e-16 F 0.7000000000000052847 #
DXID-attrib $-1 -1 $-1 $-1 $8 @10 ASM ENTITY @1 1 #
face $16 -1 $-1 $17 $18 $5 $-1 $19 reversed single #
loop $-1 -1 $-1 $-1 $20 $8 #
plane-surface $-1 -1 $-1 -16.00000000000000355 -3.5 0 0 -1 0 10 0 0 forward_v I I I I #
coedge $-1 -1 $-1 $21 $22 $20 $23 forward $9 $24 #
DXID-attrib $-1 -1 $-1 $-1 $12 @10 ASM ENTITY @1 2 #
face $25 -1 $-1 $26 $27 $5 $-1 $28 forward single #
loop $-1 -1 $-1 $-1 $29 $12 #
spline-surface $-1 -1 $-1 forward { sumsur 
	intcurve forward { ref 2 } F 0 F 1 
	straight 0 0 0 0 -10 0 I I 
	0 0 0 
	none F 0 F 1 F 0 F 0.7700000000000001288 OPEN OPEN NON_SINGULAR NON_SINGULAR 
	0 
	0 
	0 
	0 
	0 
	0 
	} F 0 F 1 F 0 F 0.7000000000000035083 #
coedge $-1 -1 $-1 $30 $31 $15 $23 reversed $13 $-1 #
coedge $-1 -1 $-1 $32 $15 $33 $34 forward $9 $35 #
coedge $-1 -1 $-1 $15 $32 $29 $36 forward $9 $37 #
edge $-1 -1 $-1 $38 0 $39 0.1146715355022994431 $20 $40 forward @7 unknown #
pcurve $-1 -1 $-1 0 forward { exppc nubs 3 open 7 
	0 3 0.01953222366934594459 3 0.03906444733869217367 3 0.0585966710080385797 3 0.07812889467738506899 3 
	0.09640021508984240872 3 0.1146715355022994431 3 
	0 0.7000000000000017319 
	0.05694901986296983104 0.7000000000000017319 
	0.1133617953818777946 0.7000000000000017319 
	0.1703108152448477297 0.7000000000000017319 
	0.2272598351078184975 0.7000000000000017319 
	0.2836726106267250525 0.7000000000000017319 
	0.3406216304896957925 0.7000000000000017319 
	0.3975706503526670876 0.7000000000000017319 
	0.4539834258715725879 0.7000000000000017319 
	0.510932445734543883 0.7000000000000017319 
	0.5678814655975154002 0.7000000000000017319 
	0.6242942411164204009 0.7000000000000017319 
	0.681243260979391918 0.7000000000000017319 
	0.734515935238429063 0.7000000000000017319 
	0.7873489562306588141 0.7000000000000017319 
	0.840621630489695959 0.7000000000000017319 
	0.8938943047487322158 0.7000000000000017319 
	0.9467273257409638543 0.7000000000000017319 
	1 0.7000000000000017319 
	2.354201707062387678e-07 
	spline reversed { ref 0 } I I I I 
	} 0 0 #
DXID-attrib $-1 -1 $-1 $-1 $17 @10 ASM ENTITY @1 3 #
face $41 -1 $-1 $42 $43 $5 $-1 $44 forward single #
loop $-1 -1 $-1 $-1 $45 $17 #
plane-surface $-1 -1 $-1 -2.220446049250313081e-15 5.551115123125782702e-16 6.000000000000000888 0 0 1 10 0 0 forward_v I I I I #
coedge $-1 -1 $-1 $46 $47 $22 $36 reversed $18 $48 #
coedge $-1 -1 $-1 $49 $20 $47 $50 forward $13 $-1 #
coedge $-1 -1 $-1 $20 $51 $52 $53 forward $13 $-1 #
coedge $-1 -1 $-1 $22 $21 $54 $55 forward $9 $56 #
coedge $-1 -1 $-1 $52 $57 $21 $34 reversed $58 $-1 #
edge $-1 -1 $-1 $39 -0.7000000000000035083 $59 -0 $33 $60 forward @7 tangent #
pcurve $-1 -1 $-1 0 reversed { exppc nubs 1 open 2 
	0 1 0.7000000000000035083 1 
	1 9.436895709313822705e-16 
	1 0.7000000000000027311 
	0 
	spline reversed { ref 0 } I I I I 
	} 0 0 #
edge $-1 -1 $-1 $61 0 $38 0.7000000000000035083 $29 $62 forward @7 tangent #
pcurve $-1 -1 $-1 0 forward { exppc nubs 1 open 2 
	0 1 0.7000000000000035083 1 
	0 1.776356839400248887e-15 
	0 0.7000000000000052847 
	0 
	spline reversed { ref 0 } I I I I 
	} 0 0 #
vertex $-1 -1 $-1 $23 $63 #
vertex $-1 -1 $-1 $23 $64 #
intcurve-curve $-1 -1 $-1 forward { surfintcur full nubs 3 open 7 
	0 3 0.01953222366934594459 2 0.03906444733869217367 2 0.0585966710080385797 2 0.07812889467738506899 2 
	0.09640021508984240872 2 0.1146715355022994431 3 
	15.17191980311907429 -3.499999999999998668 3.647353445819727202 
	15.22105125315227347 -3.499999999999998668 3.69007435106613535 
	15.27805732251074566 -3.499999999999999112 3.722790356461218142 
	15.40140129846348316 -3.499999999999999112 3.764529595863963518 
	15.46655996941998445 -3.499999999999999112 3.773153779993292822 
	15.5965155048829196 -3.499999999999999112 3.764940418179061776 
	15.66006992363909056 -3.499999999999999112 3.74818139645107351 
	15.77717748788229812 -3.499999999999999112 3.691245301513214727 
	15.82961102122661678 -3.499999999999999112 3.651612568403519887 
	15.9135357051780133 -3.499999999999999112 3.557614565276140617 
	15.94545826871412508 -3.499999999999999112 3.505151793771470903 
	15.98887196167950364 -3.499999999999999112 3.391342147034356103 
	15.99999999999999822 -3.499999999999998668 3.330947120585103782 
	15.99999999999999822 -3.499999999999998668 3.270042719210247029 
	2.354201707062387678e-07 
	
	spline reversed { ref 0 } I I I I 
	plane -16.00000000000000355 -3.5 0 0 -1 0 10 0 0 forward_v I I I I 
	nubs 3 open 7 
	0 3 0.01953222366934594459 3 0.03906444733869217367 3 0.0585966710080385797 3 0.07812889467738506899 3 
	0.09640021508984240872 3 0.1146715355022994431 3 
	0 0.7000000000000017319 
	0.05694901986296983104 0.7000000000000017319 
	0.1133617953818777946 0.7000000000000017319 
	0.1703108152448477297 0.7000000000000017319 
	0.2272598351078184975 0.7000000000000017319 
	0.2836726106267250525 0.7000000000000017319 
	0.3406216304896957925 0.7000000000000017319 
	0.3975706503526670876 0.7000000000000017319 
	0.4539834258715725879 0.7000000000000017319 
	0.510932445734543883 0.7000000000000017319 
	0.5678814655975154002 0.7000000000000017319 
	0.6242942411164204009 0.7000000000000017319 
	0.681243260979391918 0.7000000000000017319 
	0.734515935238429063 0.7000000000000017319 
	0.7873489562306588141 0.7000000000000017319 
	0.840621630489695959 0.7000000000000017319 
	0.8938943047487322158 0.7000000000000017319 
	0.9467273257409638543 0.7000000000000017319 
	1 0.7000000000000017319 
	
	nullbs 
	I I 
	0 
	0 
	0 
	} I I #
DXID-attrib $-1 -1 $-1 $-1 $26 @10 ASM ENTITY @1 4 #
face $65 -1 $-1 $66 $67 $5 $-1 $68 forward single #
loop $-1 -1 $-1 $-1 $69 $26 #
plane-surface $-1 -1 $-1 -16.00000000000000355 3.500000000000000888 0 -1 0 0 0 -10 0 forward_v I I I I #
coedge $-1 -1 $-1 $70 $71 $72 $73 reversed $27 $-1 #
coedge $74 -1 $-1 $72 $29 $75 $76 reversed $18 $77 #
coedge $-1 -1 $-1 $29 $72 $30 $50 reversed $18 $78 #
pcurve $-1 -1 $-1 0 reversed { exppc nubs 3 open 3 
	0 3 0.3500000000000017542 3 0.7000000000000035083 3 
	0.9075294764608301534 -1.720845688168992638e-15 
	0.9075294764608301534 0.1166666666666638236 
	0.9075294764608301534 0.2333333333333310333 
	0.9075294764608301534 0.3499999999999983125 
	0.9075294764608301534 0.4666666666666656194 
	0.9075294764608301534 0.5833333333333328152 
	0.9075294764608301534 0.7000000000000001776 
	0 
	spline reversed { ref 1 } I I I I 
	} 0 0 #
coedge $-1 -1 $-1 $79 $30 $71 $80 reversed $13 $-1 #
edge $-1 -1 $-1 $38 -0.9075294764608293763 $81 -0 $30 $82 forward @7 unknown #
coedge $83 -1 $-1 $31 $79 $84 $85 forward $13 $-1 #
coedge $-1 -1 $-1 $86 $33 $31 $53 reversed $58 $-1 #
edge $-1 -1 $-1 $87 0 $39 0.3270042719210243254 $52 $88 forward @7 unknown #
coedge $-1 -1 $-1 $89 $75 $32 $55 reversed $67 $-1 #
edge $-1 -1 $-1 $59 0 $61 0.1146715355023002481 $54 $90 forward @7 unknown #
pcurve $-1 -1 $-1 0 forward { exppc nubs 3 open 7 
	0 3 0.0195322236693463748 3 0.03906444733869272878 3 0.05859667100803921114 3 0.07812889467738556859 3 
	0.09640021508984297771 3 0.1146715355023002481 3 
	1 1.845745778439322748e-15 
	0.9430509801370288159 1.845745778439322748e-15 
	0.8866382046181231491 1.845745778439322748e-15 
	0.829689184755151965 1.845745778439322748e-15 
	0.7727401648921807809 1.845745778439322748e-15 
	0.7163273893732751141 1.845745778439322748e-15 
	0.65937836951030393 1.845745778439322748e-15 
	0.6024293496473324128 1.845745778439322748e-15 
	0.5460165741284274121 1.845745778439322748e-15 
	0.4890675542654558949 1.845745778439322748e-15 
	0.4321185344024847108 1.845745778439322748e-15 
	0.375705758883579044 1.845745778439322748e-15 
	0.3187567390206078599 1.845745778439322748e-15 
	0.2654840647615704929 1.845745778439322748e-15 
	0.2126510437693412969 1.845745778439322748e-15 
	0.15937836951030393 1.845745778439322748e-15 
	0.1061056952512669793 1.845745778439322748e-15 
	0.0532726742590369437 1.845745778439322748e-15 
	0 1.845745778439322748e-15 
	2.354201706061221204e-07 
	spline reversed { ref 0 } I I I I 
	} 0 0 #
coedge $-1 -1 $-1 $33 $86 $89 $91 forward $58 $-1 #
loop $-1 -1 $-1 $-1 $33 $66 #
vertex $-1 -1 $-1 $34 $92 #
intcurve-curve $-1 -1 $-1 reversed { bldcur full nubs 3 open 5 
	0 3 0.1750000000000009048 2 0.3500000000000018097 3 0.5250000000000026867 2 0.7000000000000035083 3 
	16.00000000000001066 3.500000000000018652 3.270042719210253246 
	16.00000000000001066 2.916666666666682062 3.270042719210253246 
	16.00000000000001066 2.333333333333346804 3.270042719210253246 
	16.00000000000001066 1.16666666666667318 3.270042719210253246 
	16.00000000000000711 0.5833333333333372561 3.27004271921025369 
	16.00000000000000711 1.11022302462515654e-15 3.27004271921025369 
	16.00000000000000711 -0.5833333333333357018 3.27004271921025369 
	16.00000000000001066 -1.166666666666671848 3.270042719210253246 
	16.00000000000001066 -2.333333333333345472 3.270042719210253246 
	16.00000000000001066 -2.916666666666680729 3.270042719210253246 
	16.00000000000001066 -3.500000000000016875 3.270042719210253246 
	0.002257523945228709535 
	
	spline reversed { ref 0 } I I I I 
	null_surface 
	nubs 1 open 2 
	0 1 0.7000000000000035083 1 
	1 9.853229343548254435e-16 
	1 0.7000000000000026201 
	
	nullbs 
	I I 
	0 
	0 
	0 
	surf1 } I I #
vertex $-1 -1 $-1 $55 $93 #
intcurve-curve $-1 -1 $-1 forward { bldcur full nubs 3 open 5 
	0 3 0.1750000000000009048 2 0.3500000000000018097 3 0.5250000000000026867 2 0.7000000000000035083 3 
	15.17191980311908317 3.500000000000018652 3.647353445819731643 
	15.17191980311908317 2.916666666666682506 3.647353445819731643 
	15.17191980311908317 2.33333333333334636 3.647353445819731643 
	15.17191980311908317 1.166666666666673402 3.647353445819731643 
	15.17191980311908139 0.5833333333333370341 3.647353445819731643 
	15.17191980311908139 1.11022302462515654e-15 3.647353445819731643 
	15.17191980311908139 -0.5833333333333357018 3.647353445819731643 
	15.17191980311908317 -1.16666666666667207 3.647353445819731643 
	15.17191980311908317 -2.333333333333345472 3.647353445819731643 
	15.17191980311908317 -2.916666666666680729 3.647353445819731643 
	15.17191980311908317 -3.500000000000016875 3.647353445819731643 
	0.002257523945228709535 
	
	spline reversed { ref 0 } I I I I 
	null_surface 
	nubs 1 open 2 
	0 1 0.7000000000000035083 1 
	0 1.776356839400248887e-15 
	0 0.7000000000000052847 
	
	nullbs 
	I I 
	0 
	0 
	0 
	surf1 } I I #
point $-1 -1 $-1 15.17191980311907074 -3.500000000000034195 3.647353445819725426 #
point $-1 -1 $-1 16 -3.500000000000007994 3.270042719210243476 #
DXID-attrib $-1 -1 $-1 $-1 $42 @10 ASM ENTITY @1 5 #
face $94 -1 $-1 $95 $58 $5 $-1 $96 forward single #
loop $-1 -1 $-1 $-1 $54 $42 #
plane-surface $-1 -1 $-1 16 3.500000000000000888 0 0 1 0 -10 0 0 forward_v I I I I #
coedge $97 -1 $-1 $98 $99 $100 $101 forward $43 $-1 #
coedge $-1 -1 $-1 $102 $45 $103 $104 forward $27 $-1 #
coedge $-1 -1 $-1 $45 $102 $49 $80 forward $27 $-1 #
coedge $-1 -1 $-1 $47 $46 $45 $73 forward $18 $105 #
edge $-1 -1 $-1 $106 0 $81 0.7000000000000000666 $45 $107 forward @7 tangent #
ATTRIB_CUSTOM-attrib $-1 -1 $-1 $-1 $46 @17 sketch_attrib_def 1 1 3 @13 125 0 1 0 1 1 #
coedge $-1 -1 $-1 $54 $103 $46 $76 forward $67 $-1 #
edge $-1 -1 $-1 $106 0 $61 0.9075294764608293763 $75 $108 forward @7 unknown #
pcurve $-1 -1 $-1 0 reversed { exppc nubs 1 open 2 
	0 1 0.9075294764608293763 1 
	0 0 
	0.9075294764608293763 0 
	0 
	spline forward { ref 4 } I I I I 
	} 0 0 #
pcurve $-1 -1 $-1 0 forward { exppc nubs 1 open 2 
	0 1 0.9075294764608293763 1 
	0 0.7000000000000035083 
	0.9075294764608292652 0.7000000000000035083 
	5.447254911421543343e-15 
	spline reversed { ref 4 } F 0 F 1 F 0 F 0.7000000000000035083 
	} 0 0 #
coedge $-1 -1 $-1 $51 $49 $98 $109 reversed $13 $-1 #
edge $-1 -1 $-1 $110 0 $81 2.313219562090863768 $49 $111 forward @7 unknown #
vertex $-1 -1 $-1 $50 $112 #
intcurve-curve $-1 -1 $-1 reversed { exactcur full nurbs 5 open 11 
	0 5 0.1000000000000000056 1 0.2000000000000000111 1 0.3000000000000000444 1 0.4000000000000000222 1 
	0.5 1 0.5999999999999999778 1 0.6999999999999999556 1 0.7999999999999999334 1 0.8999999999999999112 1 
	0.9075294764608293763 5 
	7.13219562090863235 -3.500000000000034195 6.000000000000000888 1 
	7.367255645239682238 -3.500000000000034195 6.000000000000000888 1 
	7.811434108034288393 -3.500000000000034195 5.954158650054722557 1 
	8.399884286711939652 -3.500000000000034195 5.747885292054506934 1 
	9.047098016720386937 -3.500000000000034195 5.229615086098963417 1 
	9.724796535797338493 -3.500000000000034195 4.351294708234476616 1 
	10.38689588537320674 -3.500000000000034195 3.458801609987190329 1 
	11.13570578467452599 -3.500000000000034195 2.760649766922558257 1 
	12.0283234525592313 -3.500000000000034195 2.408320399653367083 1 
	13.0412888110343026 -3.500000000000034195 2.441422628728791011 1 
	13.90741022979879737 -3.500000000000034195 2.760176079663276383 1 
	14.54288915173441943 -3.500000000000034195 3.142880936618381416 1 
	14.95201285963968552 -3.500000000000034195 3.457533321478396537 1 
	15.15755891269093603 -3.500000000000034195 3.634866327307654466 1 
	15.17191980311907074 -3.500000000000034195 3.647353445819725426 1 
	0 
	
	null_surface 
	null_surface 
	nullbs 
	nullbs 
	I I 
	0 
	0 
	0 
	F 1 F 0 } I I #
ATTRIB_CUSTOM-attrib $-1 -1 $-1 $-1 $51 @17 sketch_attrib_def 1 1 3 @13 107 0 0 0 1 1 #
coedge $113 -1 $-1 $100 $114 $51 $85 reversed $115 $-1 #
edge $-1 -1 $-1 $116 0 $87 3.200000000000000178 $51 $117 forward @7 unknown #
coedge $118 -1 $-1 $57 $52 $114 $119 forward $58 $-1 #
vertex $-1 -1 $-1 $85 $120 #
straight-curve $-1 -1 $-1 16 -3.5 0 0 0 10 I I #
coedge $-1 -1 $-1 $121 $54 $57 $91 reversed $67 $-1 #
intcurve-curve $-1 -1 $-1 forward { surfintcur full nubs 3 open 7 
	0 3 0.0195322236693463748 2 0.03906444733869272878 2 0.05859667100803921114 2 0.07812889467738556859 2 
	0.09640021508984297771 2 0.1146715355023002481 3 
	15.99999999999999467 3.500000000000000888 3.27004271921024392 
	15.99999999999999467 3.500000000000000888 3.335150131441398269 
	15.98728307461768239 3.500000000000000888 3.399635081325341979 
	15.93784696828273439 3.500000000000000888 3.520100727466429547 
	15.90160042345141989 3.500000000000000888 3.5749297064876151 
	15.81013076910246085 3.500000000000000888 3.667607658790370539 
	15.75578215933520276 3.500000000000000888 3.704570580334539009 
	15.63597561516626833 3.500000000000000888 3.755583250172995324 
	15.57166309662646064 3.500000000000000888 3.769145289539573174 
	15.44566213323890835 3.500000000000000888 3.770798889759030104 
	15.38512627850641756 3.500000000000000888 3.760464348236784549 
	15.27075673162450009 3.500000000000000888 3.718547869694997399 
	15.21787957099199673 3.500000000000000888 3.687316501807682112 
	15.17191980311907074 3.500000000000000888 3.64735344581972587 
	2.354201706061221204e-07 
	
	spline reversed { ref 0 } I I I I 
	plane 16 3.500000000000000888 0 0 1 0 -10 0 0 forward_v I I I I 
	nubs 3 open 7 
	0 3 0.0195322236693463748 3 0.03906444733869272878 3 0.05859667100803921114 3 0.07812889467738556859 3 
	0.09640021508984297771 3 0.1146715355023002481 3 
	1 1.845745778439322748e-15 
	0.9430509801370288159 1.845745778439322748e-15 
	0.8866382046181231491 1.845745778439322748e-15 
	0.829689184755151965 1.845745778439322748e-15 
	0.7727401648921807809 1.845745778439322748e-15 
	0.7163273893732751141 1.845745778439322748e-15 
	0.65937836951030393 1.845745778439322748e-15 
	0.6024293496473324128 1.845745778439322748e-15 
	0.5460165741284274121 1.845745778439322748e-15 
	0.4890675542654558949 1.845745778439322748e-15 
	0.4321185344024847108 1.845745778439322748e-15 
	0.375705758883579044 1.845745778439322748e-15 
	0.3187567390206078599 1.845745778439322748e-15 
	0.2654840647615704929 1.845745778439322748e-15 
	0.2126510437693412969 1.845745778439322748e-15 
	0.15937836951030393 1.845745778439322748e-15 
	0.1061056952512669793 1.845745778439322748e-15 
	0.0532726742590369437 1.845745778439322748e-15 
	0 1.845745778439322748e-15 
	
	nullbs 
	I I 
	0 
	0 
	0 
	} I I #
edge $-1 -1 $-1 $122 0 $59 0.3270042719210243809 $57 $123 forward @7 unknown #
point $-1 -1 $-1 16 3.50000000000000977 3.27004271921024392 #
point $-1 -1 $-1 15.17191980311907074 3.500000000000001332 3.647353445819725426 #
DXID-attrib $-1 -1 $-1 $-1 $66 @10 ASM ENTITY @1 6 #
face $124 -1 $-1 $-1 $115 $5 $-1 $125 reversed single #
plane-surface $-1 -1 $-1 16 -3.5 0 1 0 0 0 10 0 forward_v I I I I #
ATTRIB_CUSTOM-attrib $-1 -1 $-1 $-1 $69 @17 sketch_attrib_def 1 1 3 @13 106 0 0 0 1 1 #
coedge $-1 -1 $-1 $126 $69 $79 $109 forward $43 $-1 #
coedge $-1 -1 $-1 $69 $126 $127 $128 reversed $43 $-1 #
coedge $129 -1 $-1 $130 $84 $69 $101 reversed $115 $-1 #
edge $-1 -1 $-1 $131 0 $116 0.7000000000000000666 $69 $132 forward @7 unknown #
coedge $-1 -1 $-1 $71 $70 $126 $133 forward $27 $-1 #
coedge $-1 -1 $-1 $75 $127 $70 $104 reversed $67 $-1 #
edge $-1 -1 $-1 $106 0.8867804379091368538 $134 3.200000000000000178 $103 $135 forward @7 unknown #
pcurve $-1 -1 $-1 0 reversed { exppc nubs 1 open 2 
	-0.7700000000000001288 1 0 1 
	0 0.7700000000000001288 
	0 0 
	0 
	spline forward { ref 4 } I I I I 
	} 0 0 #
vertex $-1 -1 $-1 $76 $136 #
straight-curve $-1 -1 $-1 7.13219562090863235 3.500000000000000888 6.000000000000000888 0 -10 0 F 0 F 0.7000000000000035083 #
intcurve-curve $-1 -1 $-1 forward { exactcur full nurbs 5 open 11 
	0 5 0.1000000000000000056 1 0.2000000000000000111 1 0.3000000000000000444 1 0.4000000000000000222 1 
	0.5 1 0.5999999999999999778 1 0.6999999999999999556 1 0.7999999999999999334 1 0.8999999999999999112 1 
	0.9075294764608293763 5 
	7.13219562090863235 3.500000000000000888 6.000000000000000888 1 
	7.367255645239682238 3.500000000000000888 6.000000000000000888 1 
	7.811434108034288393 3.500000000000000888 5.954158650054722557 1 
	8.399884286711939652 3.500000000000000888 5.747885292054506934 1 
	9.047098016720386937 3.500000000000000888 5.229615086098963417 1 
	9.724796535797338493 3.500000000000000888 4.351294708234476616 1 
	10.38689588537320674 3.500000000000000888 3.458801609987190329 1 
	11.13570578467452599 3.500000000000000888 2.760649766922558257 1 
	12.0283234525592313 3.500000000000000888 2.408320399653367083 1 
	13.0412888110343026 3.500000000000000888 2.441422628728791011 1 
	13.90741022979879737 3.500000000000000888 2.760176079663276383 1 
	14.54288915173441943 3.500000000000000888 3.142880936618381416 1 
	14.95201285963968552 3.500000000000000888 3.457533321478396537 1 
	15.15755891269093603 3.500000000000001332 3.634866327307654466 1 
	15.17191980311907074 3.500000000000001332 3.647353445819725426 1 
	0 
	
	null_surface 
	null_surface 
	nullbs 
	nullbs 
	I I 
	0 
	0 
	0 
	F 1 F 0 } I I #
edge $-1 -1 $-1 $116 0 $110 0.6000000000000000888 $98 $137 forward @7 unknown #
vertex $-1 -1 $-1 $80 $138 #
straight-curve $-1 -1 $-1 -16.00000000000000355 -3.5 6.000000000000000888 10 0 0 I I #
point $-1 -1 $-1 7.13219562090863235 -3.5 6.000000000000000888 #
ATTRIB_CUSTOM-attrib $-1 -1 $-1 $-1 $84 @17 sketch_attrib_def 1 1 3 @13 107 0 0 0 1 1 #
coedge $139 -1 $-1 $84 $130 $86 $119 reversed $115 $-1 #
loop $-1 -1 $-1 $-1 $114 $95 #
vertex $-1 -1 $-1 $109 $140 #
straight-curve $-1 -1 $-1 -16.00000000000000355 -3.5 0 10 0 0 F 0 F 3.200000000000000178 #
ATTRIB_CUSTOM-attrib $-1 -1 $-1 $-1 $86 @17 sketch_attrib_def 1 1 3 @13 108 0 0 0 1 1 #
edge $-1 -1 $-1 $87 0 $122 0.7000000000000000666 $86 $141 forward @7 unknown #
point $-1 -1 $-1 16 -3.5 0 #
coedge $142 -1 $-1 $127 $89 $130 $143 forward $67 $-1 #
vertex $-1 -1 $-1 $91 $144 #
straight-curve $-1 -1 $-1 16 3.500000000000000888 0 0 0 10 I I #
DXID-attrib $-1 -1 $-1 $-1 $95 @10 ASM ENTITY @1 7 #
plane-surface $-1 -1 $-1 -2.220446049250313081e-15 5.551115123125782702e-16 0 0 0 1 10 0 0 forward_v I I I I #
coedge $-1 -1 $-1 $99 $98 $102 $133 reversed $43 $-1 #
coedge $-1 -1 $-1 $103 $121 $99 $128 forward $67 $-1 #
edge $-1 -1 $-1 $131 0 $134 0.6000000000000000888 $127 $145 forward @7 unknown #
ATTRIB_CUSTOM-attrib $-1 -1 $-1 $-1 $100 @17 sketch_attrib_def 1 1 3 @13 106 0 0 0 1 1 #
coedge $146 -1 $-1 $114 $100 $121 $143 reversed $115 $-1 #
vertex $-1 -1 $-1 $101 $147 #
straight-curve $-1 -1 $-1 -16.00000000000000355 3.500000000000000888 0 0 -10 0 F 0 F 0.7000000000000000666 #
edge $-1 -1 $-1 $134 0 $110 0.7000000000000000666 $126 $148 forward @7 unknown #
vertex $-1 -1 $-1 $104 $149 #
straight-curve $-1 -1 $-1 16 3.500000000000000888 6.000000000000000888 -10 0 0 I I #
point $-1 -1 $-1 7.13219562090863235 3.500000000000000888 6.000000000000000888 #
straight-curve $-1 -1 $-1 -16.00000000000000355 -3.5 0 0 0 10 I I #
point $-1 -1 $-1 -16 -3.5 6.000000000000000888 #
ATTRIB_CUSTOM-attrib $-1 -1 $-1 $-1 $114 @17 sketch_attrib_def 1 1 3 @13 108 0 0 0 1 1 #
point $-1 -1 $-1 -16.00000000000000355 -3.5 0 #
straight-curve $-1 -1 $-1 16 -3.5 0 0 10 0 F 0 F 0.7000000000000000666 #
ATTRIB_CUSTOM-attrib $-1 -1 $-1 $-1 $121 @17 sketch_attrib_def 1 1 3 @13 105 0 0 0 1 1 #
edge $-1 -1 $-1 $122 0 $131 3.200000000000000178 $121 $150 forward @7 unknown #
point $-1 -1 $-1 16 3.500000000000000888 0 #
straight-curve $-1 -1 $-1 -16.00000000000000355 3.500000000000000888 0 0 0 10 I I #
ATTRIB_CUSTOM-attrib $-1 -1 $-1 $-1 $130 @17 sketch_attrib_def 1 1 3 @13 105 0 0 0 1 1 #
point $-1 -1 $-1 -16.00000000000000355 3.500000000000000888 0 #
straight-curve $-1 -1 $-1 -16.00000000000000355 3.500000000000000888 6.000000000000000888 0 -10 0 I I #
point $-1 -1 $-1 -16 3.500000000000000888 6.000000000000000888 #
straight-curve $-1 -1 $-1 16 3.500000000000000888 0 -10 0 0 F 0 F 3.200000000000000178 #
End-of-ACIS-data 